<?xml version="1.0" encoding="utf-8"?>
<!-- Generator: Adobe Illustrator 26.0.1, SVG Export Plug-In . SVG Version: 6.00 Build 0)  -->
<svg version="1.2" baseProfile="tiny" id="Layer_1" xmlns="http://www.w3.org/2000/svg" xmlns:xlink="http://www.w3.org/1999/xlink"
	 x="0px" y="0px" viewBox="0 0 200 200" overflow="visible" xml:space="preserve">
<g>
	<path d="M45.96,69.87l0.77,1.18v7.25c-0.67-0.01-1.35-0.08-2.02-0.2c-0.92-0.16-2.15-0.48-3.65-0.93
		c-1.84-0.56-3.78-0.84-5.77-0.84c-0.03,0-0.05,0-0.08,0v-5.29l0.74-1.18v-1h-4.66v1.01l0.77,1.18v14.83l-0.77,1.2v0.98h4.66v-0.97
		l-0.74-1.2v-7.41c1.85,0.01,3.64,0.26,5.33,0.77c1.57,0.48,2.88,0.82,3.88,0.99c0.77,0.13,1.54,0.2,2.3,0.21v5.44l-0.77,1.2v0.98
		h4.66v-0.97l-0.74-1.2V71.04l0.74-1.18v-1h-4.66V69.87z"/>
	<polygon points="66.56,71.01 67.79,71.73 68.85,71.73 68.49,68.86 53.34,68.86 53.34,69.87 54.11,71.04 54.11,85.87 53.34,87.07 
		53.34,88.05 68.49,88.05 68.85,85.18 67.79,85.18 66.56,85.9 57.26,85.9 57.26,77.75 61.87,77.75 62.97,78.47 63.95,78.47 
		63.95,74.89 62.97,74.89 61.87,75.6 57.26,75.6 57.26,71.01 	"/>
	<polygon points="94.3,82.06 93.53,80.88 93.53,75.07 93.56,75.07 93.53,71.04 94.3,69.87 94.3,68.86 89.64,68.86 89.64,69.86 
		90.38,71.04 90.4,72.66 90.38,72.66 90.38,80.89 89.64,82.06 89.64,83.07 94.3,83.07 	"/>
	<path d="M96.58,83.21h-0.22c-0.28,0-0.53,0.15-0.67,0.41c-0.08,0.13-0.14,0.2-0.17,0.25l-0.02,0.02c-0.28,0.39-0.63,0.74-1.03,1.05
		c-0.45,0.35-1.01,0.65-1.66,0.89l-0.01,0.01c-0.62,0.25-1.37,0.37-2.23,0.36c-0.67,0-1.35-0.16-2.01-0.49l-0.02-0.01
		c-0.45-0.21-0.67-0.34-0.77-0.41l-0.19-0.14h-0.05c-0.01-0.01-0.03-0.02-0.04-0.02c-0.6-0.42-1.16-0.87-1.65-1.35
		c-0.07-0.08-0.17-0.18-0.37-0.36c-0.49-0.43-0.99-0.86-1.52-1.28c-0.42-0.32-0.8-0.6-1.14-0.83c0.18-0.08,0.36-0.17,0.54-0.27
		c1.15-0.64,2-1.45,2.53-2.41c0.53-0.98,0.81-2.07,0.83-3.24v-0.01v-0.01c-0.02-1.15-0.3-2.23-0.83-3.22
		c-0.52-0.95-1.37-1.76-2.53-2.4c-1.02-0.57-2.16-0.86-3.36-0.86h-9.28v0.98l0.77,1.18v14.85l-0.77,1.18v1.01h4.66v-1l-0.74-1.18v-4
		h2.65c1.21,0,2.22,0.32,3.09,0.97v0.03l0.3,0.22c0,0,0,0,0,0l0.13,0.11h0.01c0.08,0.06,0.18,0.15,0.31,0.27
		c0.21,0.18,0.32,0.28,0.4,0.34c0.14,0.14,0.51,0.51,1.1,1.09c0.7,0.69,1.16,1.13,1.42,1.35c0.34,0.28,0.57,0.48,0.72,0.59
		l0.02,0.01c0.31,0.22,0.61,0.41,0.89,0.57c0.45,0.26,0.93,0.48,1.44,0.65c0.16,0.05,0.33,0.11,0.52,0.16
		c0.9,0.26,1.7,0.39,2.39,0.39c1.14,0,2.14-0.19,3.01-0.58c0.55-0.26,1.07-0.56,1.54-0.9c0.48-0.34,0.85-0.65,1.14-0.93
		c0.28-0.28,0.54-0.58,0.77-0.9c0.32-0.44,0.42-0.61,0.47-0.72c0.04-0.09,0.08-0.16,0.12-0.23l0.29-0.48l-0.47-0.47L96.58,83.21z
		 M74.6,76.72V75.1h0.03v-4.09h4.56c0.01,0,0.1,0,0.49,0.05l0,0c0.12,0.02,0.24,0.04,0.35,0.05c0.54,0.11,1.04,0.28,1.47,0.51
		c0.68,0.39,1.18,0.9,1.53,1.56c0.33,0.61,0.51,1.31,0.52,2.06v0.32c-0.01,0.76-0.19,1.46-0.53,2.08c-0.35,0.65-0.85,1.15-1.53,1.55
		c-0.44,0.23-0.93,0.4-1.48,0.51c-0.34,0.04-0.69,0.07-1.06,0.07h-4.34v-3.01H74.6z"/>
	<polygon points="107.71,81.83 107.68,81.83 107.68,71.01 113.69,71.01 114.92,71.73 115.98,71.73 115.62,68.86 96.67,68.86 
		96.31,71.73 97.38,71.73 98.58,71.01 104.56,71.01 104.56,81.83 104.53,81.83 104.53,85.87 103.79,87.08 103.79,88.05 
		108.48,88.05 108.48,87.07 107.71,85.87 	"/>
	<path d="M129.57,82.66l-6.06-14.44h-1.38l-7.75,17.4l-1.01,1.43v1h3.66v-0.99l-0.59-0.87l1.3-2.89h8.67l1.25,2.92l-0.55,0.85v0.98
		h4.61v-0.98l-0.82-1.3L129.57,82.66z M118.74,81.14l3.46-7.93l3.26,7.93H118.74z"/>
	<path d="M146.38,77.93l0.74,1.18v4.93c-0.18,0.28-0.44,0.56-0.78,0.84c-0.48,0.39-1.12,0.73-1.92,1.01
		c-0.78,0.29-1.69,0.44-2.69,0.44c-1.37,0-2.51-0.34-3.46-1.03c-0.96-0.69-1.7-1.64-2.2-2.8c-0.51-1.2-0.77-2.55-0.77-4.02
		c0-1.47,0.26-2.82,0.77-4.02c0.5-1.17,1.24-2.1,2.2-2.79c0.96-0.68,2.09-1.02,3.46-1.02c0.78,0,1.51,0.09,2.18,0.25
		c0.21,0.06,0.38,0.12,0.52,0.16c0.78,0.28,1.42,0.61,1.9,1c0.31,0.27,0.56,0.53,0.75,0.8c0.1,0.13,0.14,0.21,0.16,0.25l0.22,0.45
		h1.05l0.29-0.48l0.28-0.55l0.51-0.95l0.72-1.39l-0.88-0.44l-0.2,0.02c-0.73,0.06-1.45-0.05-2.12-0.33l-0.03-0.01
		c-0.17-0.06-0.35-0.13-0.52-0.19l-0.04-0.01c-0.59-0.22-1.22-0.39-1.87-0.52c-0.84-0.16-1.72-0.24-2.61-0.24
		c-2.08,0-3.89,0.46-5.39,1.35c-1.5,0.9-2.65,2.13-3.41,3.65c-0.75,1.5-1.14,3.18-1.14,5c0,1.82,0.38,3.5,1.14,5
		c0.77,1.52,1.91,2.75,3.41,3.65c1.5,0.9,3.31,1.35,5.39,1.35c2.5,0,4.77-0.62,6.73-1.84c0.25-0.14,0.5-0.21,0.78-0.21h0.72v-7.3
		l0.77-1.2v-0.98h-4.66V77.93z"/>
	<polygon points="166.42,85.9 157.11,85.9 157.11,77.75 161.72,77.75 162.82,78.47 163.81,78.47 163.81,74.89 162.82,74.89 
		161.72,75.6 157.11,75.6 157.11,71.01 166.42,71.01 167.64,71.73 168.71,71.73 168.35,68.86 153.2,68.86 153.2,69.87 153.96,71.04 
		153.96,85.87 153.2,87.07 153.2,88.05 168.35,88.05 168.71,85.18 167.64,85.18 	"/>
	<path d="M68.42,102.9h0.16c0.55,0,1.05,0.21,1.48,0.62l0.22,0.28c0.21-0.34,0.58-0.59,1.1-0.76c0.47-0.09,0.85-0.14,1.14-0.14v0.01
		c-0.24,0.59-0.36,0.96-0.36,1.12c-0.11,0.41-0.16,1.13-0.16,2.17V108c0,1.16,0.14,1.87,0.41,2.13c0.12,0.16,0.27,0.29,0.43,0.38
		c-0.19,0.13-0.33,0.28-0.44,0.45c-0.27,0.4-0.41,1.27-0.41,2.61c0.01,1.44,0.01,2.44,0.01,3.01c0,0.76,0.15,1.22,0.45,1.38
		c0.34,0.19,0.85,0.28,1.54,0.28h0.04c0.05,0,0.07,0.01,0.07,0.04v0.15c-0.06,0.16-0.26,0.36-0.58,0.62
		c-0.45,0.31-0.92,0.47-1.41,0.47h-0.15c-0.64,0-1.2-0.29-1.68-0.87c-0.37,0.58-0.92,0.86-1.65,0.86c-0.73,0-1.38-0.28-1.93-0.85
		c-0.05-0.07-0.11-0.14-0.15-0.21v-0.16c0.01-0.02,0.03-0.04,0.07-0.04h0.02c1.02,0,1.62-0.19,1.8-0.57
		c0.12-0.16,0.19-0.64,0.19-1.46c0.01-1.58,0.01-2.58,0.01-3.02c0-1.35-0.19-2.19-0.56-2.51c0-0.01-0.06-0.07-0.17-0.17
		c0.27-0.29,0.44-0.55,0.51-0.78c0.14-0.28,0.21-1.13,0.21-2.55v-0.33c0-1.13-0.02-1.7-0.06-1.7c-0.01-0.12-0.07-0.29-0.2-0.51
		c-0.22-0.29-0.82-0.43-1.81-0.43l-0.01-0.02v-0.15c0.13-0.37,0.4-0.66,0.82-0.89C67.72,102.98,68.07,102.9,68.42,102.9"/>
	<path d="M126.95,102.6h0.24c0.72,0,1.62,0.28,2.68,0.85c0.5-0.29,0.92-0.43,1.24-0.43h0.21c0.4,0,0.61,0.03,0.61,0.09v0.01
		c-0.58,0.54-0.86,1.06-0.86,1.59l0.03,0.97c0,1.08-0.48,1.88-1.43,2.41c-0.15,0-0.3-0.1-0.45-0.29l-0.03-0.12
		c0.23-0.59,0.35-1.11,0.35-1.55c0-0.81-0.38-1.37-1.15-1.69c-0.4-0.15-0.7-0.22-0.87-0.22c-0.16-0.02-0.37-0.04-0.61-0.06
		c-0.01,0.01-0.02,0.01-0.05,0.01h-0.02c-0.54,0-0.95,0.28-1.25,0.84c-0.1,0.25-0.15,0.49-0.15,0.73v4.04h0.01
		c0.61-0.1,1.19-0.15,1.74-0.15c1.76,0,3.17,0.56,4.23,1.67c0.21,0.24,0.37,0.47,0.49,0.68c0.22,0.44,0.33,0.74,0.33,0.89
		c0.12,0.48,0.24,0.81,0.37,0.99c0.17,0.23,0.33,0.38,0.47,0.44l0.01,0.02c-0.36,0.3-0.63,0.8-0.83,1.49
		c-0.11,0.37-0.23,0.7-0.37,0.98c-0.16,0.31-0.38,0.64-0.64,0.99c-1.1,1.25-2.44,1.88-4,1.88h-0.24c-1.06,0-2.02-0.33-2.89-0.99
		c-0.44-0.39-0.75-0.72-0.93-0.98c-0.29-0.4-0.51-0.77-0.65-1.08c-0.17-0.38-0.33-0.83-0.49-1.35c-0.23-1-0.34-1.64-0.34-1.92
		c-0.04-0.28-0.08-0.74-0.13-1.38c-0.09-0.5-0.21-0.89-0.37-1.14c-0.06-0.11-0.21-0.27-0.43-0.48c0.37-0.2,0.64-0.51,0.79-0.93
		c0.09-0.27,0.22-0.86,0.38-1.76c0.37-1.5,0.96-2.68,1.77-3.56C124.61,103.1,125.7,102.6,126.95,102.6 M125.42,112.95v3.01
		c0,1.01,0.3,1.65,0.89,1.92c0.19,0.09,0.41,0.13,0.64,0.13h0.03c1.03,0,1.55-0.73,1.55-2.18v-2.74c0-1.03-0.28-1.69-0.84-1.97
		c-0.24-0.09-0.46-0.14-0.65-0.14h-0.15c-0.56,0-0.97,0.25-1.22,0.75C125.5,112.07,125.42,112.47,125.42,112.95"/>
	<path d="M86.85,102.49h0.29c1.94,0,3.6,0.75,4.98,2.24c0.6,0.74,0.93,1.35,0.99,1.83c0.15,0.61,0.48,1.21,0.99,1.8
		c-0.31,0.16-0.55,0.49-0.71,0.97c-0.18,0.71-0.38,1.24-0.6,1.61c-0.51,0.78-1.29,1.42-2.34,1.9c0,0.01,0.15,0.1,0.45,0.26
		c1.05,0.65,1.82,1.48,2.29,2.5c0.11,0.3,0.26,0.8,0.45,1.5c0.14,0.35,0.35,0.67,0.64,0.96v0.03c-0.22,0-0.49,0.55-0.81,1.64
		c-0.34,1.16-0.92,2.06-1.74,2.69c-0.42,0.3-0.89,0.57-1.42,0.8c-1.08,0.4-2.11,0.6-3.09,0.6h-0.36c-2.47,0-4.35-0.86-5.65-2.57
		c-0.28-0.42-0.45-0.74-0.52-0.96c-0.01-0.23-0.14-0.67-0.39-1.31c-0.11-0.24-0.3-0.52-0.58-0.83c-0.02,0-0.05-0.03-0.1-0.1
		c0.3-0.26,0.5-0.53,0.61-0.8c0.22-0.5,0.33-0.86,0.33-1.07c0.09-0.34,0.3-0.77,0.62-1.31c0.17-0.27,0.48-0.62,0.93-1.05
		c0.47-0.39,0.9-0.68,1.26-0.89c0.01,0,0.06-0.02,0.15-0.07v-0.01c-0.43-0.2-0.86-0.47-1.31-0.8c-0.59-0.52-0.93-0.9-1.03-1.13
		c-0.25-0.39-0.38-0.72-0.38-1c-0.06-0.27-0.15-0.55-0.28-0.83c-0.23-0.43-0.47-0.68-0.73-0.77v-0.01c0.29-0.18,0.51-0.43,0.65-0.73
		c0.17-0.26,0.35-0.74,0.52-1.44c0.1-0.37,0.43-0.88,1-1.54c0.59-0.57,1.1-0.96,1.52-1.18C84.56,102.8,85.68,102.49,86.85,102.49
		 M85.08,106.97v2.95c0.02,1.17,0.34,1.9,0.96,2.18c0.29,0.11,0.57,0.16,0.83,0.16h0.26c0.51,0,0.92-0.14,1.22-0.41
		c0.36-0.4,0.54-1.15,0.54-2.25v-2.29c0-1.38-0.26-2.22-0.77-2.5c-0.29-0.17-0.63-0.26-1.03-0.26h-0.13c-0.88,0-1.41,0.3-1.6,0.9
		C85.17,105.88,85.08,106.39,85.08,106.97 M85.08,116.34v2.99c0.03,1.22,0.36,1.97,1,2.24c0.25,0.11,0.56,0.16,0.93,0.16
		c0.86,0,1.39-0.29,1.6-0.86c0.18-0.44,0.28-1.06,0.28-1.89v-2.34c0-1.39-0.28-2.23-0.83-2.5c-0.29-0.15-0.64-0.23-1.06-0.23
		c-0.85,0-1.39,0.29-1.63,0.86C85.17,115.21,85.08,115.73,85.08,116.34"/>
	<path d="M107.49,102.46h0.3c0.9,0,2.01,0.35,3.34,1.06c0.63-0.36,1.14-0.54,1.54-0.54h0.26c0.5,0,0.75,0.04,0.75,0.12v0.01
		c-0.72,0.67-1.07,1.33-1.07,1.97l0.04,1.21c0,1.35-0.6,2.35-1.79,3.01c-0.18,0-0.37-0.12-0.57-0.36l-0.04-0.15
		c0.29-0.74,0.44-1.38,0.44-1.93c0-1.01-0.48-1.71-1.44-2.11c-0.5-0.18-0.87-0.28-1.09-0.28c-0.2-0.03-0.46-0.05-0.75-0.07
		c-0.01,0.01-0.03,0.01-0.06,0.01h-0.03c-0.67,0-1.19,0.35-1.55,1.05c-0.13,0.31-0.19,0.61-0.19,0.91v5.04h0.01
		c0.76-0.13,1.49-0.19,2.16-0.19c2.19,0,3.94,0.69,5.27,2.08c0.26,0.3,0.46,0.58,0.61,0.84c0.27,0.55,0.41,0.92,0.41,1.1
		c0.15,0.6,0.3,1.01,0.46,1.23c0.21,0.29,0.41,0.47,0.58,0.55l0.01,0.03c-0.45,0.38-0.79,1-1.03,1.86
		c-0.14,0.46-0.29,0.87-0.46,1.22c-0.2,0.39-0.47,0.8-0.8,1.23c-1.37,1.56-3.03,2.34-4.98,2.34h-0.3c-1.32,0-2.52-0.41-3.6-1.23
		c-0.55-0.48-0.94-0.89-1.16-1.22c-0.36-0.5-0.63-0.95-0.81-1.35c-0.21-0.47-0.42-1.04-0.61-1.68c-0.28-1.25-0.42-2.05-0.42-2.4
		c-0.05-0.35-0.1-0.92-0.16-1.71c-0.11-0.63-0.26-1.1-0.46-1.42c-0.08-0.14-0.26-0.33-0.54-0.6c0.46-0.25,0.79-0.64,0.99-1.16
		c0.12-0.34,0.28-1.07,0.48-2.19c0.46-1.87,1.2-3.34,2.21-4.43C104.58,103.08,105.93,102.46,107.49,102.46 M105.59,115.35v3.75
		c0,1.26,0.37,2.06,1.1,2.4c0.24,0.11,0.51,0.16,0.8,0.16h0.04c1.29,0,1.93-0.91,1.93-2.71v-3.41c0-1.29-0.35-2.11-1.05-2.45
		c-0.3-0.12-0.57-0.17-0.81-0.17h-0.19c-0.7,0-1.21,0.31-1.52,0.93C105.69,114.24,105.59,114.75,105.59,115.35"/>
	<path d="M86.79,37.13l-0.58,0.12c-0.09-0.41-0.18-0.75-0.29-1.01c-0.11-0.26-0.23-0.47-0.36-0.62c-0.13-0.15-0.28-0.24-0.45-0.28
		c-0.16-0.04-0.35-0.05-0.56-0.01l-0.84,0.13l0.79,5.19c0.04,0.28,0.34,0.38,0.9,0.3l0.08,0.53l-3.07,0.47l-0.08-0.53
		c0.55-0.08,0.8-0.27,0.76-0.55l-0.79-5.19l-0.84,0.13c-0.21,0.03-0.39,0.09-0.53,0.18c-0.14,0.09-0.26,0.22-0.34,0.4
		c-0.08,0.18-0.14,0.41-0.16,0.7c-0.02,0.28-0.02,0.64,0.02,1.05l-0.59,0.06l-0.43-2.82l6.94-1.05L86.79,37.13z"/>
	<path d="M104,34.12c-0.56,0-0.84,0.14-0.85,0.43l-0.03,5.01c0,0.29,0.28,0.43,0.84,0.44l0,0.53l-3.16-0.02l0-0.53
		c0.59,0,0.88-0.14,0.88-0.43l0.02-2.34l-3.17-0.02l-0.02,2.34c0,0.29,0.29,0.43,0.88,0.44l0,0.53l-3.15-0.02l0-0.53
		c0.56,0,0.83-0.14,0.84-0.43l0.03-5.01c0-0.29-0.27-0.43-0.83-0.44l0-0.55l3.15,0.02l0,0.55c-0.59,0-0.88,0.14-0.88,0.42
		l-0.01,1.99l3.17,0.02l0.01-1.99c0-0.29-0.29-0.43-0.88-0.44l0-0.55l3.16,0.02L104,34.12z"/>
	<path d="M119.69,37.39l-0.65-0.06c0.07-0.94-0.25-1.47-0.97-1.58l-2.07-0.32l-0.35,2.24l1.06,0.16c0.37,0.06,0.64-0.28,0.81-1.02
		l0.58,0.09l-0.58,2.87l-0.56-0.09c0.06-0.77-0.08-1.19-0.41-1.24l-0.99-0.15l-0.4,2.57l1.74,0.27c1.04,0.16,1.71-0.41,2.03-1.72
		l0.66,0.17l-0.63,2.6l-6.15-0.95l0.08-0.53c0.55,0.08,0.85-0.02,0.89-0.3l0.76-4.95c0.04-0.28-0.21-0.47-0.76-0.55l0.08-0.55
		l6.15,0.95L119.69,37.39z"/>
	<path fill="#CEA86C" d="M65.44,57.18c-0.22,0-0.42-0.12-0.52-0.33c-0.13-0.29-0.01-0.62,0.28-0.75c10.95-5.03,22.65-7.58,34.8-7.58
		c0.31,0,0.57,0.25,0.57,0.57s-0.25,0.57-0.57,0.57c-11.98,0-23.53,2.52-34.32,7.48C65.6,57.17,65.52,57.18,65.44,57.18"/>
	<path fill="#CEA86C" d="M24.61,49.66c-0.15,0-0.31-0.06-0.42-0.19c-0.21-0.23-0.19-0.59,0.04-0.8C44.99,29.76,71.9,19.36,100,19.36
		c0.31,0,0.57,0.25,0.57,0.57c0,0.31-0.25,0.57-0.57,0.57c-27.82,0-54.45,10.3-75,29.02C24.89,49.61,24.75,49.66,24.61,49.66"/>
	<path fill="#CEA86C" d="M21.21,50.74c-2.01,0-4-0.94-5.26-2.7c-1.69-2.36-1.13-5.66,1.23-7.35c1.94-1.39,4.65-0.93,6.04,1.01
		c1.14,1.61,0.77,3.84-0.84,4.99c-0.26,0.18-0.61,0.12-0.79-0.13c-0.18-0.26-0.12-0.61,0.13-0.79c1.1-0.78,1.35-2.31,0.57-3.4
		c-1.02-1.43-3.02-1.77-4.45-0.75c-1.86,1.32-2.29,3.91-0.97,5.76c1.7,2.38,5.02,2.94,7.4,1.24c0.26-0.18,0.61-0.12,0.79,0.13
		c0.18,0.26,0.12,0.61-0.13,0.79C23.81,50.36,22.51,50.74,21.21,50.74"/>
	<path fill="#CEA86C" d="M134.56,57.18c-0.08,0-0.16-0.02-0.24-0.05c-10.8-4.96-22.34-7.48-34.32-7.48c-0.31,0-0.57-0.25-0.57-0.57
		s0.25-0.57,0.57-0.57c12.14,0,23.85,2.55,34.8,7.58c0.29,0.13,0.41,0.47,0.28,0.75C134.98,57.06,134.77,57.18,134.56,57.18"/>
	<path fill="#CEA86C" d="M175.39,49.66c-0.14,0-0.27-0.05-0.38-0.15c-20.55-18.71-47.19-29.02-75-29.02c-0.31,0-0.57-0.25-0.57-0.57
		c0-0.31,0.25-0.57,0.57-0.57c28.1,0,55.01,10.41,75.77,29.31c0.23,0.21,0.25,0.57,0.04,0.8C175.69,49.59,175.54,49.66,175.39,49.66
		"/>
	<path fill="#CEA86C" d="M178.78,50.75c-1.33,0-2.62-0.41-3.73-1.2c-0.26-0.18-0.32-0.54-0.13-0.79c0.18-0.26,0.54-0.32,0.79-0.13
		c1.15,0.82,2.56,1.15,3.96,0.91c1.4-0.23,2.62-1,3.44-2.15c1.32-1.86,0.89-4.44-0.97-5.76c-1.43-1.02-3.43-0.69-4.45,0.75
		c-0.78,1.1-0.52,2.62,0.57,3.4c0.26,0.18,0.31,0.54,0.13,0.79c-0.18,0.26-0.54,0.31-0.79,0.13c-1.61-1.14-1.98-3.38-0.84-4.99
		c1.39-1.94,4.09-2.4,6.04-1.01c2.37,1.69,2.92,4.98,1.23,7.35c-1,1.4-2.48,2.33-4.18,2.62C179.5,50.72,179.14,50.75,178.78,50.75"
		/>
	<path fill="#CEA86C" d="M7.72,54.38c-1.73,0-3.43-0.87-4.4-2.45c-1.82-2.97-0.92-6.77,2.06-8.67c1.5-0.95,3.22-1.24,5-0.84
		c2.97,0.68,5.32,3.03,6.54,5c0.16,0.27,0.08,0.62-0.19,0.78c-0.27,0.16-0.62,0.08-0.78-0.19c-1.37-2.23-3.66-3.99-5.82-4.49
		c-1.49-0.34-2.88-0.11-4.13,0.69c-2.45,1.56-3.2,4.69-1.7,7.12c1.16,1.89,3.65,2.48,5.53,1.32c0.71-0.43,1.2-1.12,1.39-1.93
		c0.19-0.81,0.06-1.64-0.38-2.35c-0.16-0.27-0.08-0.62,0.19-0.78c0.27-0.16,0.62-0.08,0.78,0.19c0.59,0.96,0.78,2.1,0.51,3.2
		c-0.26,1.1-0.94,2.04-1.9,2.63C9.57,54.13,8.64,54.38,7.72,54.38"/>
	<path fill="#CEA86C" d="M192.28,54.38c-0.92,0-1.85-0.25-2.7-0.76c-0.96-0.59-1.64-1.53-1.9-2.63c-0.26-1.1-0.08-2.24,0.51-3.2
		c0.16-0.27,0.51-0.35,0.78-0.19c0.27,0.16,0.35,0.51,0.19,0.78c-0.43,0.71-0.57,1.54-0.38,2.35c0.19,0.81,0.69,1.49,1.39,1.93
		c1.89,1.16,4.37,0.57,5.53-1.32c1.5-2.43,0.75-5.56-1.7-7.12c-1.25-0.8-2.64-1.03-4.13-0.69c-2.16,0.5-4.45,2.26-5.82,4.49
		c-0.16,0.27-0.51,0.35-0.78,0.19c-0.27-0.16-0.35-0.51-0.19-0.78c1.21-1.97,3.57-4.32,6.54-5c1.77-0.41,3.5-0.12,5,0.84
		c2.98,1.9,3.88,5.71,2.06,8.67C195.71,53.51,194.02,54.38,192.28,54.38"/>
	<path d="M171.78,39.78l-0.96-0.52c-0.58-0.32-5.72-3.15-6.67-4.57c-1.08-1.61-0.64-3.79,0.96-4.86c1.61-1.08,3.79-0.64,4.86,0.96
		c0.95,1.42,1.61,7.25,1.68,7.91L171.78,39.78z M164.83,31.96c-0.24,0.68-0.16,1.45,0.27,2.1c0.52,0.77,3.22,2.47,5.3,3.66
		c-0.31-2.38-0.85-5.53-1.37-6.3c-0.73-1.09-2.2-1.38-3.29-0.65C165.31,31.07,164.99,31.49,164.83,31.96"/>
	<path d="M28.34,38.7c0.07-0.66,0.73-6.49,1.68-7.91c1.08-1.61,3.26-2.04,4.86-0.96c1.61,1.07,2.04,3.26,0.96,4.86
		c-0.95,1.42-6.09,4.25-6.67,4.57l-0.96,0.52L28.34,38.7z M34.25,30.77c-1.09-0.73-2.56-0.43-3.29,0.65
		c-0.52,0.77-1.06,3.91-1.37,6.3c2.09-1.19,4.79-2.89,5.3-3.66c0.43-0.64,0.5-1.42,0.27-2.1C35.01,31.49,34.69,31.07,34.25,30.77"/>
	<path fill="#CEA86C" d="M164.7,46.75c-0.12,0-0.24-0.04-0.35-0.12C145.76,32.34,123.51,24.79,100,24.79
		c-23.51,0-45.76,7.55-64.35,21.83c-0.25,0.19-0.61,0.14-0.8-0.1c-0.19-0.25-0.14-0.61,0.1-0.8C53.75,31.29,76.24,23.66,100,23.66
		c23.76,0,46.25,7.63,65.05,22.07c0.25,0.19,0.3,0.55,0.1,0.8C165.04,46.67,164.87,46.75,164.7,46.75"/>
	<path fill="#CEA86C" d="M76.38,57.18c-0.24,0-0.46-0.15-0.54-0.4c-0.1-0.3,0.07-0.62,0.37-0.71c7.67-2.45,15.67-3.69,23.79-3.69
		c8.12,0,16.13,1.24,23.79,3.69c0.3,0.1,0.46,0.42,0.37,0.71c-0.1,0.3-0.42,0.47-0.71,0.37c-7.55-2.41-15.44-3.63-23.45-3.63
		c-8,0-15.89,1.22-23.45,3.63C76.5,57.18,76.44,57.18,76.38,57.18"/>
	<path fill="#CEA86C" d="M99.8,17.39c-0.42-0.11-0.66-0.54-0.55-0.96c0.11-0.42,0.54-0.66,0.96-0.55c0.42,0.11,0.66,0.54,0.55,0.96
		C100.64,17.26,100.21,17.5,99.8,17.39"/>
	<path fill="#CEA86C" d="M93.88,17.56c-0.42-0.09-0.69-0.5-0.6-0.93c0.09-0.42,0.5-0.69,0.93-0.6c0.42,0.09,0.69,0.5,0.6,0.93
		C94.71,17.38,94.3,17.65,93.88,17.56"/>
	<path fill="#CEA86C" d="M87.97,18.03c-0.43-0.07-0.72-0.47-0.65-0.89c0.07-0.43,0.47-0.72,0.89-0.65c0.43,0.07,0.72,0.47,0.65,0.89
		C88.8,17.81,88.4,18.1,87.97,18.03"/>
	<path fill="#CEA86C" d="M82.1,18.82c-0.43-0.05-0.74-0.43-0.7-0.86c0.05-0.43,0.43-0.74,0.86-0.7c0.43,0.05,0.74,0.43,0.7,0.86
		C82.92,18.55,82.53,18.86,82.1,18.82"/>
	<path fill="#CEA86C" d="M76.28,19.91c-0.43-0.02-0.76-0.39-0.74-0.82c0.02-0.43,0.39-0.76,0.82-0.74c0.43,0.02,0.76,0.39,0.74,0.82
		C77.08,19.6,76.71,19.93,76.28,19.91"/>
	<path fill="#CEA86C" d="M70.52,21.3c-0.43,0-0.78-0.35-0.78-0.78s0.35-0.78,0.78-0.78c0.43,0,0.78,0.35,0.78,0.78
		S70.95,21.3,70.52,21.3"/>
	<path fill="#CEA86C" d="M64.85,22.99c-0.43,0.02-0.8-0.31-0.82-0.74c-0.02-0.43,0.31-0.8,0.74-0.82s0.8,0.31,0.82,0.74
		C65.61,22.6,65.28,22.97,64.85,22.99"/>
	<path fill="#CEA86C" d="M59.27,24.98c-0.43,0.05-0.81-0.27-0.86-0.7c-0.05-0.43,0.27-0.81,0.7-0.86c0.43-0.05,0.81,0.27,0.86,0.7
		C60.01,24.55,59.7,24.93,59.27,24.98"/>
	<path fill="#CEA86C" d="M53.8,27.25c-0.43,0.07-0.83-0.22-0.89-0.65c-0.07-0.43,0.22-0.83,0.65-0.89c0.43-0.07,0.83,0.22,0.89,0.65
		C54.52,26.79,54.23,27.19,53.8,27.25"/>
	<path fill="#CEA86C" d="M48.46,29.81c-0.42,0.09-0.84-0.18-0.93-0.6c-0.09-0.42,0.18-0.84,0.6-0.93c0.42-0.09,0.84,0.18,0.93,0.6
		C49.15,29.31,48.88,29.72,48.46,29.81"/>
	<path fill="#CEA86C" d="M43.26,32.65c-0.42,0.11-0.85-0.14-0.96-0.55c-0.11-0.42,0.14-0.85,0.55-0.96
		c0.42-0.11,0.85,0.14,0.96,0.55C43.92,32.11,43.67,32.54,43.26,32.65"/>
	<path fill="#CEA86C" d="M106.12,17.56c0.42-0.09,0.69-0.5,0.6-0.93c-0.09-0.42-0.5-0.69-0.93-0.6c-0.42,0.09-0.69,0.5-0.6,0.93
		C105.29,17.38,105.7,17.65,106.12,17.56"/>
	<path fill="#CEA86C" d="M112.03,18.03c0.43-0.07,0.72-0.47,0.65-0.89c-0.07-0.43-0.47-0.72-0.89-0.65
		c-0.43,0.07-0.72,0.47-0.65,0.89C111.2,17.81,111.6,18.1,112.03,18.03"/>
	<path fill="#CEA86C" d="M117.9,18.82c0.43-0.05,0.74-0.43,0.7-0.86c-0.05-0.43-0.43-0.74-0.86-0.7c-0.43,0.05-0.74,0.43-0.7,0.86
		C117.08,18.55,117.47,18.86,117.9,18.82"/>
	<path fill="#CEA86C" d="M123.72,19.91c0.43-0.02,0.76-0.39,0.74-0.82c-0.02-0.43-0.39-0.76-0.82-0.74
		c-0.43,0.02-0.76,0.39-0.74,0.82C122.92,19.6,123.29,19.93,123.72,19.91"/>
	<path fill="#CEA86C" d="M129.48,21.3c0.43,0,0.78-0.35,0.78-0.78s-0.35-0.78-0.78-0.78c-0.43,0-0.78,0.35-0.78,0.78
		S129.05,21.3,129.48,21.3"/>
	<path fill="#CEA86C" d="M135.15,22.99c0.43,0.02,0.8-0.31,0.82-0.74c0.02-0.43-0.31-0.8-0.74-0.82c-0.43-0.02-0.8,0.31-0.82,0.74
		C134.39,22.6,134.72,22.97,135.15,22.99"/>
	<path fill="#CEA86C" d="M140.73,24.98c0.43,0.05,0.81-0.27,0.86-0.7c0.05-0.43-0.27-0.81-0.7-0.86c-0.43-0.05-0.81,0.27-0.86,0.7
		C139.99,24.55,140.3,24.93,140.73,24.98"/>
	<path fill="#CEA86C" d="M146.2,27.25c0.43,0.07,0.83-0.22,0.89-0.65c0.07-0.43-0.22-0.83-0.65-0.89c-0.43-0.07-0.83,0.22-0.89,0.65
		C145.48,26.79,145.77,27.19,146.2,27.25"/>
	<path fill="#CEA86C" d="M151.54,29.81c0.42,0.09,0.84-0.18,0.93-0.6c0.09-0.42-0.18-0.84-0.6-0.93c-0.42-0.09-0.84,0.18-0.93,0.6
		C150.85,29.31,151.12,29.72,151.54,29.81"/>
	<path fill="#CEA86C" d="M156.74,32.65c0.42,0.11,0.85-0.14,0.96-0.55c0.11-0.42-0.14-0.85-0.55-0.96
		c-0.42-0.11-0.85,0.14-0.96,0.55C156.08,32.11,156.33,32.54,156.74,32.65"/>
	<path fill="#CEA86C" d="M8.82,114.22c-1.22,0-2.39-0.34-3.45-1.02c-2.98-1.9-3.88-5.71-2.06-8.67c0.72-1.17,1.86-2,3.2-2.31
		c1.34-0.32,2.73-0.1,3.9,0.63c1.99,1.23,2.61,3.84,1.39,5.84c-0.17,0.27-0.51,0.35-0.78,0.19c-0.27-0.16-0.35-0.51-0.19-0.78
		c0.9-1.46,0.44-3.37-1.02-4.27c-0.92-0.56-2-0.74-3.04-0.49c-1.05,0.25-1.93,0.89-2.49,1.8c-1.5,2.43-0.75,5.56,1.7,7.12
		c1.25,0.8,2.64,1.03,4.13,0.69c2.16-0.5,4.45-2.26,5.82-4.49c0.16-0.27,0.51-0.35,0.78-0.19c0.27,0.16,0.35,0.51,0.19,0.78
		c-1.21,1.97-3.57,4.32-6.54,5C9.85,114.16,9.33,114.22,8.82,114.22"/>
	<path fill="#CEA86C" d="M191.18,114.22c-0.51,0-1.02-0.06-1.55-0.18c-2.97-0.68-5.32-3.03-6.54-5c-0.16-0.27-0.08-0.62,0.19-0.78
		c0.27-0.17,0.62-0.08,0.78,0.19c1.37,2.23,3.66,3.99,5.82,4.49c1.49,0.34,2.88,0.11,4.13-0.69c2.45-1.56,3.2-4.69,1.7-7.12
		c-0.56-0.92-1.45-1.56-2.49-1.8c-1.04-0.25-2.12-0.08-3.04,0.49c-1.46,0.9-1.91,2.81-1.02,4.27c0.16,0.27,0.08,0.62-0.19,0.78
		c-0.27,0.16-0.62,0.08-0.78-0.19c-1.23-1.99-0.6-4.61,1.39-5.84c1.17-0.72,2.56-0.94,3.9-0.63c1.34,0.32,2.48,1.14,3.2,2.31
		c1.82,2.97,0.92,6.77-2.06,8.67C193.57,113.88,192.4,114.22,191.18,114.22"/>
	<path d="M171.66,117.76c-0.07,0.66-0.73,6.49-1.68,7.91c-1.07,1.61-3.26,2.04-4.86,0.96c-1.61-1.07-2.04-3.26-0.96-4.86
		c0.95-1.42,6.09-4.25,6.67-4.57l0.96-0.52L171.66,117.76z M165.75,125.68c1.09,0.73,2.56,0.43,3.29-0.65
		c0.52-0.77,1.06-3.91,1.37-6.3c-2.09,1.19-4.79,2.89-5.3,3.66c-0.43,0.64-0.5,1.42-0.27,2.1
		C164.99,124.96,165.3,125.39,165.75,125.68"/>
	<path d="M28.22,116.68l0.96,0.52c0.58,0.32,5.72,3.15,6.67,4.57c1.08,1.61,0.64,3.79-0.96,4.86c-1.61,1.08-3.79,0.64-4.86-0.96
		c-0.95-1.42-1.61-7.25-1.68-7.91L28.22,116.68z M35.17,124.5c0.24-0.68,0.16-1.45-0.27-2.1c-0.52-0.77-3.22-2.47-5.3-3.66
		c0.31,2.38,0.85,5.53,1.37,6.3c0.73,1.08,2.2,1.38,3.29,0.65C34.69,125.39,35.01,124.96,35.17,124.5"/>
	<path fill="#CEA86C" d="M100,132.79c-23.76,0-46.25-7.63-65.05-22.07c-0.25-0.19-0.3-0.55-0.1-0.8c0.19-0.25,0.55-0.3,0.8-0.1
		c18.59,14.28,40.85,21.83,64.35,21.83c23.51,0,45.76-7.55,64.35-21.83c0.25-0.19,0.61-0.14,0.8,0.1c0.19,0.25,0.14,0.61-0.1,0.8
		C146.25,125.16,123.76,132.79,100,132.79"/>
	<path fill="#CEA86C" d="M99.8,139.06c-0.42,0.11-0.66,0.54-0.55,0.96c0.11,0.42,0.54,0.66,0.96,0.55c0.42-0.11,0.66-0.54,0.55-0.96
		C100.64,139.2,100.21,138.95,99.8,139.06"/>
	<path fill="#CEA86C" d="M93.88,138.9c-0.42,0.09-0.69,0.5-0.6,0.93c0.09,0.42,0.5,0.69,0.93,0.6c0.42-0.09,0.69-0.5,0.6-0.93
		C94.71,139.08,94.3,138.81,93.88,138.9"/>
	<path fill="#CEA86C" d="M87.97,138.42c-0.43,0.07-0.72,0.47-0.65,0.89c0.07,0.43,0.47,0.72,0.89,0.65
		c0.43-0.07,0.72-0.47,0.65-0.89C88.8,138.64,88.4,138.35,87.97,138.42"/>
	<path fill="#CEA86C" d="M82.1,137.64c-0.43,0.05-0.74,0.43-0.7,0.86c0.05,0.43,0.43,0.74,0.86,0.7c0.43-0.05,0.74-0.43,0.7-0.86
		C82.92,137.9,82.53,137.59,82.1,137.64"/>
	<path fill="#CEA86C" d="M76.28,136.55c-0.43,0.02-0.76,0.39-0.74,0.82c0.02,0.43,0.39,0.76,0.82,0.74
		c0.43-0.02,0.76-0.39,0.74-0.82C77.08,136.86,76.71,136.52,76.28,136.55"/>
	<path fill="#CEA86C" d="M70.52,135.15c-0.43,0-0.78,0.35-0.78,0.78s0.35,0.78,0.78,0.78c0.43,0,0.78-0.35,0.78-0.78
		S70.95,135.15,70.52,135.15"/>
	<path fill="#CEA86C" d="M64.85,133.46c-0.43-0.02-0.8,0.31-0.82,0.74c-0.02,0.43,0.31,0.8,0.74,0.82c0.43,0.02,0.8-0.31,0.82-0.74
		C65.61,133.85,65.28,133.48,64.85,133.46"/>
	<path fill="#CEA86C" d="M59.27,131.47c-0.43-0.05-0.81,0.27-0.86,0.7c-0.05,0.43,0.27,0.81,0.7,0.86c0.43,0.05,0.81-0.27,0.86-0.7
		C60.01,131.9,59.7,131.52,59.27,131.47"/>
	<path fill="#CEA86C" d="M53.8,129.2c-0.43-0.07-0.83,0.22-0.89,0.65c-0.07,0.43,0.22,0.83,0.65,0.89c0.43,0.07,0.83-0.22,0.89-0.65
		C54.52,129.67,54.23,129.27,53.8,129.2"/>
	<path fill="#CEA86C" d="M48.46,126.64c-0.42-0.09-0.84,0.18-0.93,0.6c-0.09,0.42,0.18,0.84,0.6,0.93c0.42,0.09,0.84-0.18,0.93-0.6
		C49.15,127.14,48.88,126.73,48.46,126.64"/>
	<path fill="#CEA86C" d="M43.26,123.8c-0.42-0.11-0.85,0.14-0.96,0.55c-0.11,0.42,0.14,0.85,0.55,0.96
		c0.42,0.11,0.85-0.14,0.96-0.55C43.92,124.34,43.67,123.91,43.26,123.8"/>
	<path fill="#CEA86C" d="M106.12,138.9c0.42,0.09,0.69,0.5,0.6,0.93c-0.09,0.42-0.5,0.69-0.93,0.6c-0.42-0.09-0.69-0.5-0.6-0.93
		C105.29,139.08,105.7,138.81,106.12,138.9"/>
	<path fill="#CEA86C" d="M112.03,138.42c0.43,0.07,0.72,0.47,0.65,0.89c-0.07,0.43-0.47,0.72-0.89,0.65
		c-0.43-0.07-0.72-0.47-0.65-0.89C111.2,138.64,111.6,138.35,112.03,138.42"/>
	<path fill="#CEA86C" d="M117.9,137.64c0.43,0.05,0.74,0.43,0.7,0.86c-0.05,0.43-0.43,0.74-0.86,0.7c-0.43-0.05-0.74-0.43-0.7-0.86
		C117.08,137.9,117.47,137.59,117.9,137.64"/>
	<path fill="#CEA86C" d="M123.72,136.55c0.43,0.02,0.76,0.39,0.74,0.82c-0.02,0.43-0.39,0.76-0.82,0.74
		c-0.43-0.02-0.76-0.39-0.74-0.82C122.92,136.86,123.29,136.52,123.72,136.55"/>
	<path fill="#CEA86C" d="M129.48,135.15c0.43,0,0.78,0.35,0.78,0.78s-0.35,0.78-0.78,0.78c-0.43,0-0.78-0.35-0.78-0.78
		S129.05,135.15,129.48,135.15"/>
	<path fill="#CEA86C" d="M135.15,133.46c0.43-0.02,0.8,0.31,0.82,0.74c0.02,0.43-0.31,0.8-0.74,0.82c-0.43,0.02-0.8-0.31-0.82-0.74
		C134.39,133.85,134.72,133.48,135.15,133.46"/>
	<path fill="#CEA86C" d="M140.73,131.47c0.43-0.05,0.81,0.27,0.86,0.7c0.05,0.43-0.27,0.81-0.7,0.86c-0.43,0.05-0.81-0.27-0.86-0.7
		C139.99,131.9,140.3,131.52,140.73,131.47"/>
	<path fill="#CEA86C" d="M146.2,129.2c0.43-0.07,0.83,0.22,0.89,0.65c0.07,0.43-0.22,0.83-0.65,0.89c-0.43,0.07-0.83-0.22-0.89-0.65
		C145.48,129.67,145.77,129.27,146.2,129.2"/>
	<path fill="#CEA86C" d="M151.54,126.64c0.42-0.09,0.84,0.18,0.93,0.6c0.09,0.42-0.18,0.84-0.6,0.93c-0.42,0.09-0.84-0.18-0.93-0.6
		C150.85,127.14,151.12,126.73,151.54,126.64"/>
	<path fill="#CEA86C" d="M156.74,123.8c0.42-0.11,0.85,0.14,0.96,0.55c0.11,0.42-0.14,0.85-0.55,0.96
		c-0.42,0.11-0.85-0.14-0.96-0.55C156.08,124.34,156.33,123.91,156.74,123.8"/>
	<path fill="#CEA86C" d="M100,137.1c-28.1,0-55.01-10.41-75.77-29.31c-0.23-0.21-0.25-0.57-0.04-0.8c0.21-0.23,0.57-0.25,0.8-0.04
		c20.55,18.71,47.19,29.01,75,29.01c0.31,0,0.57,0.25,0.57,0.57C100.57,136.84,100.31,137.1,100,137.1"/>
	<path fill="#CEA86C" d="M19.69,116.56c-0.89,0-1.76-0.28-2.5-0.8c-1.15-0.82-1.9-2.03-2.14-3.42c-0.23-1.39,0.09-2.78,0.91-3.93
		c2.06-2.89,6.09-3.57,8.99-1.51c0.26,0.18,0.31,0.54,0.13,0.79c-0.18,0.26-0.54,0.31-0.79,0.13c-2.38-1.7-5.7-1.14-7.4,1.24
		c-0.64,0.9-0.89,1.99-0.71,3.08c0.18,1.09,0.78,2.04,1.68,2.68c0.69,0.5,1.54,0.69,2.38,0.55c0.84-0.14,1.58-0.6,2.07-1.29
		c0.38-0.53,0.53-1.18,0.42-1.82c-0.11-0.64-0.46-1.2-0.99-1.58c-0.26-0.18-0.31-0.54-0.13-0.79c0.18-0.26,0.54-0.32,0.79-0.13
		c0.78,0.55,1.29,1.38,1.45,2.32c0.16,0.94-0.06,1.89-0.61,2.67c-0.67,0.94-1.67,1.57-2.81,1.76
		C20.18,116.54,19.93,116.56,19.69,116.56"/>
	<path fill="#CEA86C" d="M100,137.1c-0.31,0-0.57-0.25-0.57-0.57c0-0.31,0.25-0.57,0.57-0.57c27.82,0,54.45-10.3,75-29.01
		c0.23-0.21,0.59-0.19,0.8,0.04c0.21,0.23,0.19,0.59-0.04,0.8C155.01,126.69,128.1,137.1,100,137.1"/>
	<path fill="#CEA86C" d="M180.31,116.56c-0.24,0-0.48-0.02-0.72-0.06c-1.14-0.19-2.14-0.81-2.81-1.76
		c-0.55-0.78-0.77-1.72-0.61-2.67c0.16-0.94,0.67-1.77,1.45-2.32c0.26-0.18,0.61-0.12,0.79,0.13c0.18,0.26,0.12,0.61-0.13,0.79
		c-0.53,0.38-0.88,0.94-0.99,1.58c-0.11,0.64,0.04,1.29,0.42,1.82c0.49,0.69,1.23,1.15,2.07,1.29c0.84,0.14,1.69-0.05,2.38-0.55
		c0.9-0.64,1.49-1.59,1.68-2.68c0.18-1.09-0.07-2.18-0.71-3.08c-1.7-2.38-5.02-2.94-7.4-1.24c-0.26,0.18-0.61,0.12-0.79-0.13
		c-0.18-0.26-0.12-0.61,0.13-0.79c2.89-2.06,6.92-1.39,8.99,1.51c0.82,1.15,1.14,2.54,0.91,3.93c-0.23,1.39-0.99,2.6-2.14,3.42
		C182.07,116.29,181.2,116.56,180.31,116.56"/>
	<path fill="#CEA86C" d="M190.71,96.95l-0.1-0.14v0.07H9.39v-0.07l-0.1,0.14c-0.13-0.1-0.26-0.19-0.39-0.29l-1.21-0.91h0.1
		C2.88,91.46,0,85.13,0,78.48c0-7.3,3.47-14.21,9.29-18.47l0.15-0.11h181.13l0.15,0.11c5.81,4.27,9.29,11.17,9.29,18.47
		c0,6.65-2.88,12.97-7.79,17.27h0.1l-1.21,0.91C190.98,96.76,190.85,96.86,190.71,96.95 M9.58,95.75h180.84
		c5.3-4.07,8.44-10.49,8.44-17.27c0-6.88-3.24-13.39-8.67-17.45H9.81C4.38,65.1,1.14,71.6,1.14,78.48
		C1.14,85.26,4.28,91.68,9.58,95.75"/>
	<path fill="#CEA86C" d="M17.05,76.7c-0.17,0-0.33,0.01-0.5,0.03c0.02-0.16,0.03-0.33,0.03-0.5c0-1.45-0.68-2.74-1.73-3.57
		c-1.05,0.83-1.73,2.12-1.73,3.57c0,0.17,0.01,0.33,0.03,0.5c-0.16-0.02-0.33-0.03-0.5-0.03c-1.45,0-2.74,0.68-3.57,1.73
		c0.83,1.05,2.12,1.73,3.57,1.73c0.17,0,0.33-0.01,0.5-0.03c-0.02,0.16-0.03,0.33-0.03,0.5c0,1.45,0.68,2.74,1.73,3.57
		c1.05-0.83,1.73-2.12,1.73-3.57c0-0.17-0.01-0.33-0.03-0.5c0.16,0.02,0.33,0.03,0.5,0.03c1.45,0,2.74-0.68,3.57-1.73
		C19.78,77.37,18.49,76.7,17.05,76.7 M16.43,79.41c-0.12,0-0.25-0.01-0.37-0.03c-0.08,0.1-0.16,0.18-0.26,0.26
		c0.02,0.12,0.03,0.24,0.03,0.37c0,0.82-0.38,1.56-0.98,2.03c-0.6-0.47-0.98-1.21-0.98-2.03c0-0.12,0.01-0.25,0.03-0.37
		c-0.1-0.08-0.18-0.16-0.26-0.26c-0.12,0.02-0.24,0.03-0.37,0.03c-0.82,0-1.56-0.38-2.03-0.98c0.47-0.6,1.21-0.98,2.03-0.98
		c0.12,0,0.25,0.01,0.37,0.03c0.08-0.1,0.16-0.18,0.26-0.26c-0.02-0.12-0.03-0.24-0.03-0.37c0-0.82,0.38-1.56,0.98-2.03
		c0.6,0.47,0.98,1.21,0.98,2.03c0,0.12-0.01,0.25-0.03,0.37c0.1,0.08,0.18,0.16,0.26,0.26c0.12-0.02,0.24-0.03,0.37-0.03
		c0.82,0,1.56,0.38,2.03,0.98C17.99,79.03,17.25,79.41,16.43,79.41"/>
	<path fill="#CEA86C" d="M187.35,76.7c-0.17,0-0.33,0.01-0.5,0.03c0.02-0.16,0.03-0.33,0.03-0.5c0-1.45-0.68-2.74-1.73-3.57
		c-1.05,0.83-1.73,2.12-1.73,3.57c0,0.17,0.01,0.33,0.03,0.5c-0.16-0.02-0.33-0.03-0.5-0.03c-1.45,0-2.74,0.68-3.57,1.73
		c0.83,1.05,2.12,1.73,3.57,1.73c0.17,0,0.33-0.01,0.5-0.03c-0.02,0.16-0.03,0.33-0.03,0.5c0,1.45,0.68,2.74,1.73,3.57
		c1.05-0.83,1.73-2.12,1.73-3.57c0-0.17-0.01-0.33-0.03-0.5c0.16,0.02,0.33,0.03,0.5,0.03c1.45,0,2.74-0.68,3.57-1.73
		C190.08,77.37,188.8,76.7,187.35,76.7 M186.73,79.41c-0.12,0-0.25-0.01-0.37-0.03c-0.08,0.1-0.16,0.18-0.26,0.26
		c0.02,0.12,0.03,0.24,0.03,0.37c0,0.82-0.38,1.56-0.98,2.03c-0.6-0.47-0.98-1.21-0.98-2.03c0-0.12,0.01-0.25,0.03-0.37
		c-0.1-0.08-0.18-0.16-0.26-0.26c-0.12,0.02-0.24,0.03-0.37,0.03c-0.82,0-1.56-0.38-2.03-0.98c0.47-0.6,1.21-0.98,2.03-0.98
		c0.12,0,0.25,0.01,0.37,0.03c0.08-0.1,0.16-0.18,0.26-0.26c-0.02-0.12-0.03-0.24-0.03-0.37c0-0.82,0.38-1.56,0.98-2.03
		c0.6,0.47,0.98,1.21,0.98,2.03c0,0.12-0.01,0.25-0.03,0.37c0.1,0.08,0.18,0.16,0.26,0.26c0.12-0.02,0.24-0.03,0.37-0.03
		c0.82,0,1.56,0.38,2.03,0.98C188.29,79.03,187.56,79.41,186.73,79.41"/>
	<path fill="#CEA86C" d="M54.93,49.66c-0.33-1.2-1.28-2.15-2.48-2.48l-0.94-0.94l-0.94,0.94c-1.2,0.33-2.15,1.28-2.48,2.48
		l-0.94,0.94l0.94,0.94c0.33,1.2,1.28,2.15,2.48,2.48l0.94,0.94l0.94-0.94c1.2-0.33,2.15-1.28,2.48-2.48l0.94-0.94L54.93,49.66z
		 M51.51,52.87c-1.26,0-2.28-1.02-2.28-2.28c0-1.26,1.02-2.28,2.28-2.28c1.26,0,2.28,1.02,2.28,2.28
		C53.78,51.85,52.76,52.87,51.51,52.87"/>
	<path fill="#CEA86C" d="M152.38,49.66c-0.33-1.2-1.28-2.15-2.48-2.48l-0.94-0.94l-0.94,0.94c-1.2,0.33-2.15,1.28-2.48,2.48
		l-0.94,0.94l0.94,0.94c0.33,1.2,1.28,2.15,2.48,2.48l0.94,0.94l0.94-0.94c1.2-0.33,2.15-1.28,2.48-2.48l0.94-0.94L152.38,49.66z
		 M148.96,52.87c-1.26,0-2.28-1.02-2.28-2.28c0-1.26,1.02-2.28,2.28-2.28c1.26,0,2.28,1.02,2.28,2.28
		C151.23,51.85,150.21,52.87,148.96,52.87"/>
	<path fill="#CEA86C" d="M54.93,106.08c-0.33-1.2-1.28-2.15-2.48-2.48l-0.94-0.94l-0.94,0.94c-1.2,0.33-2.15,1.28-2.48,2.48
		l-0.94,0.94l0.94,0.94c0.33,1.2,1.28,2.15,2.48,2.48l0.94,0.94l0.94-0.94c1.2-0.33,2.15-1.28,2.48-2.48l0.94-0.94L54.93,106.08z
		 M51.51,109.3c-1.26,0-2.28-1.02-2.28-2.28c0-1.26,1.02-2.28,2.28-2.28c1.26,0,2.28,1.02,2.28,2.28
		C53.78,108.28,52.76,109.3,51.51,109.3"/>
	<path fill="#CEA86C" d="M152.38,106.08c-0.33-1.2-1.28-2.15-2.48-2.48l-0.94-0.94l-0.94,0.94c-1.2,0.33-2.15,1.28-2.48,2.48
		l-0.94,0.94l0.94,0.94c0.33,1.2,1.28,2.15,2.48,2.48l0.94,0.94l0.94-0.94c1.2-0.33,2.15-1.28,2.48-2.48l0.94-0.94L152.38,106.08z
		 M148.96,109.3c-1.26,0-2.28-1.02-2.28-2.28c0-1.26,1.02-2.28,2.28-2.28c1.26,0,2.28,1.02,2.28,2.28
		C151.23,108.28,150.21,109.3,148.96,109.3"/>
	<g>
		<path d="M46.77,162.55c-0.62,0-0.93,0.16-0.93,0.48v3.83c0,0.45-0.07,0.84-0.22,1.17c-0.14,0.34-0.35,0.62-0.62,0.84
			c-0.27,0.23-0.58,0.4-0.95,0.51c-0.37,0.11-0.78,0.17-1.23,0.17c-0.39,0-0.74-0.05-1.06-0.14c-0.32-0.1-0.59-0.23-0.82-0.41
			c-0.23-0.18-0.41-0.4-0.54-0.67c-0.13-0.27-0.19-0.56-0.19-0.9c0-0.35,0.1-0.63,0.3-0.84c0.2-0.21,0.46-0.31,0.79-0.31
			c0.3,0,0.53,0.08,0.69,0.23c0.16,0.15,0.24,0.36,0.24,0.62c0,0.22-0.07,0.41-0.21,0.57c-0.14,0.16-0.33,0.25-0.57,0.27
			c0.05,0.19,0.17,0.33,0.38,0.44c0.2,0.11,0.43,0.16,0.67,0.16c0.21,0,0.39-0.03,0.54-0.1c0.16-0.07,0.28-0.18,0.38-0.34
			c0.1-0.16,0.18-0.37,0.23-0.63c0.05-0.26,0.08-0.58,0.08-0.98v-3.51c0-0.32-0.31-0.48-0.92-0.48v-0.85h3.97V162.55z"/>
		<path d="M56,162.56c-0.62,0-0.93,0.16-0.93,0.48v3.22c0,0.51-0.05,0.97-0.16,1.38c-0.1,0.41-0.28,0.75-0.52,1.04
			c-0.25,0.28-0.57,0.5-0.98,0.66c-0.41,0.16-0.91,0.23-1.52,0.23c-0.62,0-1.15-0.08-1.58-0.23c-0.43-0.16-0.79-0.37-1.06-0.66
			c-0.27-0.28-0.47-0.63-0.59-1.04c-0.12-0.41-0.19-0.87-0.19-1.38v-3.22c0-0.32-0.31-0.48-0.92-0.48v-0.85h4.11v0.85
			c-0.39,0-0.67,0.04-0.84,0.12s-0.25,0.2-0.25,0.36v3.22c0,0.38,0.03,0.71,0.08,0.98s0.14,0.5,0.26,0.67
			c0.12,0.17,0.29,0.3,0.51,0.38c0.21,0.08,0.48,0.12,0.81,0.12c0.32,0,0.6-0.04,0.82-0.12c0.22-0.08,0.41-0.21,0.54-0.38
			c0.14-0.17,0.24-0.4,0.3-0.67c0.06-0.27,0.09-0.6,0.09-0.98v-3.22c0-0.16-0.08-0.28-0.25-0.36c-0.17-0.08-0.45-0.12-0.84-0.12
			v-0.85H56V162.56z"/>
		<path d="M60.99,161.7c0.66,0,1.22,0.04,1.7,0.13c0.48,0.09,0.87,0.26,1.19,0.52c0.31,0.26,0.54,0.63,0.69,1.11
			c0.15,0.48,0.23,1.11,0.23,1.88c0,0.8-0.08,1.46-0.23,1.98c-0.15,0.52-0.38,0.94-0.69,1.24c-0.31,0.31-0.71,0.52-1.19,0.64
			c-0.48,0.12-1.05,0.18-1.7,0.18h-4.15v-0.85c0.61,0,0.92-0.16,0.92-0.48v-5.04c0-0.32-0.31-0.48-0.92-0.48v-0.85H60.99z
			 M59.86,162.76v5.58h1.29c0.3,0,0.55-0.06,0.75-0.18c0.19-0.12,0.34-0.3,0.45-0.54c0.11-0.24,0.18-0.55,0.22-0.92
			c0.04-0.37,0.06-0.81,0.06-1.32c0-0.51-0.02-0.94-0.06-1.27c-0.04-0.34-0.12-0.61-0.22-0.81c-0.11-0.2-0.26-0.34-0.45-0.42
			c-0.19-0.08-0.44-0.12-0.75-0.12H59.86z"/>
		<path d="M73,164.23l-1.05,0.09c-0.1-0.54-0.32-0.96-0.64-1.26c-0.32-0.3-0.74-0.45-1.27-0.45c-0.77,0-1.33,0.26-1.66,0.77
			c-0.33,0.51-0.5,1.23-0.5,2.15c0,0.59,0.05,1.06,0.14,1.43c0.1,0.37,0.24,0.66,0.42,0.86c0.18,0.21,0.4,0.35,0.66,0.42
			c0.26,0.08,0.54,0.11,0.85,0.11c0.23,0,0.44-0.03,0.65-0.08c0.2-0.05,0.38-0.12,0.54-0.22c0.16-0.09,0.28-0.21,0.38-0.34
			c0.09-0.13,0.14-0.29,0.14-0.46v-0.5c0-0.32-0.31-0.48-0.93-0.48v-0.85h3.41v0.85c-0.62,0-0.93,0.16-0.93,0.48v2.62h-1.28
			l-0.22-0.64c-0.08,0.1-0.18,0.19-0.32,0.29c-0.13,0.1-0.3,0.18-0.5,0.26c-0.2,0.08-0.42,0.14-0.68,0.19
			c-0.26,0.05-0.55,0.07-0.86,0.07c-0.46,0-0.9-0.07-1.34-0.21c-0.43-0.14-0.82-0.36-1.16-0.68c-0.34-0.31-0.62-0.73-0.82-1.24
			c-0.21-0.51-0.31-1.14-0.31-1.89c0-0.71,0.1-1.32,0.31-1.82c0.2-0.5,0.48-0.92,0.82-1.24c0.34-0.32,0.75-0.56,1.2-0.71
			c0.46-0.15,0.93-0.23,1.43-0.23c0.54,0,1,0.06,1.38,0.19c0.38,0.13,0.68,0.3,0.9,0.5l0.23-0.53H73V164.23z"/>
		<path d="M82.07,164.03l-1.04,0.05c-0.04-0.88-0.43-1.33-1.16-1.33h-1.95v2.16h0.79c0.32,0,0.52-0.39,0.58-1.16h0.91l-0.16,3.23
			h-0.89c-0.08-0.8-0.25-1.2-0.52-1.2h-0.71v2.55h1.57c1.09,0,1.68-0.66,1.76-1.97l1.06,0.07l-0.25,2.95h-7.16v-0.85
			c0.61,0,0.92-0.16,0.92-0.48v-5.04c0-0.32-0.31-0.48-0.92-0.48v-0.85h7.16V164.03z"/>
		<path d="M91.51,161.7c0.4,0,0.77,0.02,1.1,0.07c0.33,0.04,0.62,0.13,0.85,0.27c0.23,0.13,0.42,0.33,0.55,0.58
			c0.13,0.25,0.2,0.59,0.2,1.01c0,0.24-0.04,0.46-0.11,0.64c-0.08,0.19-0.18,0.35-0.32,0.48c-0.13,0.13-0.29,0.24-0.47,0.33
			c-0.18,0.08-0.37,0.14-0.58,0.19c0.63,0.06,1.12,0.23,1.46,0.54c0.35,0.3,0.52,0.74,0.52,1.3c0,0.43-0.06,0.8-0.17,1.09
			c-0.11,0.29-0.29,0.53-0.53,0.7c-0.24,0.18-0.55,0.3-0.92,0.38c-0.37,0.08-0.81,0.11-1.33,0.11h-4.81v-0.85
			c0.61,0,0.92-0.16,0.92-0.48v-4.97c0-0.32-0.31-0.48-0.92-0.48v-0.92H91.51z M89.97,162.88v2.04h1.07c0.38,0,0.64-0.09,0.79-0.28
			c0.15-0.19,0.22-0.48,0.22-0.87c0-0.59-0.34-0.89-1.01-0.89H89.97z M89.97,165.8v2.48h1.34c0.23,0,0.43-0.03,0.58-0.09
			c0.16-0.06,0.28-0.15,0.37-0.26c0.09-0.11,0.16-0.25,0.2-0.4c0.04-0.16,0.06-0.33,0.06-0.51c0-0.4-0.09-0.7-0.28-0.91
			c-0.19-0.2-0.5-0.31-0.93-0.31H89.97z"/>
		<path d="M103.75,162.56c-0.62,0-0.93,0.16-0.93,0.48v3.22c0,0.51-0.05,0.97-0.16,1.38c-0.1,0.41-0.28,0.75-0.52,1.04
			c-0.25,0.28-0.57,0.5-0.98,0.66c-0.41,0.16-0.91,0.23-1.52,0.23c-0.62,0-1.15-0.08-1.58-0.23c-0.43-0.16-0.79-0.37-1.06-0.66
			c-0.27-0.28-0.47-0.63-0.59-1.04s-0.19-0.87-0.19-1.38v-3.22c0-0.32-0.31-0.48-0.92-0.48v-0.85h4.11v0.85
			c-0.39,0-0.67,0.04-0.84,0.12s-0.25,0.2-0.25,0.36v3.22c0,0.38,0.03,0.71,0.08,0.98c0.05,0.27,0.14,0.5,0.26,0.67
			c0.12,0.17,0.29,0.3,0.51,0.38c0.21,0.08,0.48,0.12,0.81,0.12c0.32,0,0.6-0.04,0.82-0.12c0.22-0.08,0.41-0.21,0.54-0.38
			c0.14-0.17,0.24-0.4,0.3-0.67c0.06-0.27,0.09-0.6,0.09-0.98v-3.22c0-0.16-0.08-0.28-0.25-0.36c-0.17-0.08-0.45-0.12-0.84-0.12
			v-0.85h3.12V162.56z"/>
		<path d="M113.28,162.55c-0.61,0-0.92,0.16-0.92,0.48v6.37h-2.51l-3.24-5.8v4.47c0,0.32,0.31,0.48,0.92,0.48v0.85h-2.95v-0.85
			c0.61,0,0.92-0.16,0.92-0.48v-5.04c0-0.32-0.31-0.48-0.92-0.48v-0.85h3.36l3.31,5.94v-4.62c0-0.32-0.31-0.48-0.92-0.48v-0.85h2.94
			V162.55z"/>
		<path d="M121.31,164.23l-1.05,0.09c-0.1-0.54-0.32-0.96-0.64-1.26c-0.32-0.3-0.74-0.45-1.27-0.45c-0.77,0-1.33,0.26-1.66,0.77
			c-0.33,0.51-0.5,1.23-0.5,2.15c0,0.59,0.05,1.06,0.14,1.43c0.1,0.37,0.24,0.66,0.42,0.86c0.18,0.21,0.4,0.35,0.66,0.42
			c0.26,0.08,0.54,0.11,0.85,0.11c0.23,0,0.44-0.03,0.65-0.08c0.2-0.05,0.38-0.12,0.54-0.22c0.16-0.09,0.28-0.21,0.38-0.34
			c0.09-0.13,0.14-0.29,0.14-0.46v-0.5c0-0.32-0.31-0.48-0.93-0.48v-0.85h3.41v0.85c-0.62,0-0.93,0.16-0.93,0.48v2.62h-1.28
			l-0.22-0.64c-0.08,0.1-0.18,0.19-0.32,0.29c-0.13,0.1-0.3,0.18-0.5,0.26c-0.2,0.08-0.42,0.14-0.68,0.19
			c-0.26,0.05-0.55,0.07-0.86,0.07c-0.46,0-0.9-0.07-1.34-0.21c-0.43-0.14-0.82-0.36-1.16-0.68c-0.34-0.31-0.62-0.73-0.82-1.24
			c-0.21-0.51-0.31-1.14-0.31-1.89c0-0.71,0.1-1.32,0.31-1.82c0.2-0.5,0.48-0.92,0.82-1.24c0.35-0.32,0.75-0.56,1.2-0.71
			c0.46-0.15,0.93-0.23,1.43-0.23c0.54,0,1,0.06,1.38,0.19c0.38,0.13,0.68,0.3,0.9,0.5l0.23-0.53h1.01V164.23z"/>
		<path d="M130.73,168.23c0.07,0.21,0.35,0.31,0.84,0.31v0.85h-4.15v-0.85h0.8c0.2,0,0.3-0.06,0.3-0.19c0-0.03-0.01-0.07-0.03-0.12
			l-0.29-0.83h-2.8l-0.26,0.75c-0.02,0.06-0.03,0.1-0.03,0.13c0,0.17,0.16,0.26,0.47,0.26h0.59v0.85h-2.93l-0.01-0.85
			c0.3,0,0.51-0.03,0.65-0.08c0.13-0.05,0.22-0.13,0.25-0.22l2.32-6.54h2.09L130.73,168.23z M125.7,166.49h2.23l-1.08-3.38
			L125.7,166.49z"/>
		<path d="M136.61,162.55c-0.77,0-1.15,0.16-1.15,0.48v5.31h1.77c0.44,0,0.79-0.15,1.04-0.44c0.25-0.29,0.41-0.8,0.47-1.53
			l0.92,0.07l-0.25,2.95h-6.98v-0.85c0.61,0,0.92-0.16,0.92-0.48v-5.04c0-0.32-0.31-0.48-0.92-0.48v-0.85h4.17V162.55z"/>
		<path d="M144.53,161.54c0.56,0,1.07,0.07,1.55,0.2c0.47,0.13,0.88,0.36,1.22,0.67s0.61,0.72,0.8,1.24
			c0.19,0.51,0.28,1.15,0.28,1.9c0,0.62-0.08,1.18-0.24,1.68c-0.16,0.5-0.41,0.92-0.74,1.26c-0.33,0.35-0.75,0.61-1.25,0.8
			c-0.5,0.19-1.09,0.28-1.78,0.28c-0.56,0-1.07-0.07-1.54-0.2c-0.47-0.13-0.87-0.35-1.22-0.65c-0.34-0.3-0.61-0.7-0.8-1.19
			c-0.19-0.49-0.28-1.1-0.28-1.82c0-0.65,0.07-1.23,0.22-1.75c0.15-0.52,0.38-0.96,0.7-1.31c0.32-0.36,0.73-0.63,1.24-0.82
			C143.2,161.63,143.81,161.54,144.53,161.54z M144.58,162.63c-0.66,0-1.15,0.21-1.48,0.62c-0.32,0.41-0.48,1.07-0.48,1.98
			c0,0.66,0.04,1.2,0.12,1.62c0.08,0.42,0.2,0.74,0.35,0.98c0.15,0.23,0.34,0.4,0.55,0.48c0.22,0.09,0.46,0.13,0.72,0.13
			c0.35,0,0.64-0.05,0.89-0.15c0.24-0.1,0.45-0.26,0.6-0.49c0.16-0.22,0.27-0.52,0.34-0.87c0.07-0.36,0.11-0.8,0.11-1.31
			c0-0.6-0.04-1.09-0.12-1.48c-0.08-0.38-0.2-0.69-0.35-0.91c-0.15-0.22-0.33-0.38-0.55-0.47
			C145.07,162.68,144.84,162.63,144.58,162.63z"/>
		<path d="M159.78,162.56c-0.32,0-0.53,0.04-0.65,0.13c-0.12,0.09-0.2,0.21-0.24,0.37l-1.75,6.33h-2.01l-1.28-4.36l-1.29,4.36h-2.01
			l-1.65-6.31c-0.03-0.13-0.12-0.25-0.27-0.36c-0.14-0.11-0.33-0.17-0.55-0.17v-0.85h3.7v0.85h-0.59c-0.19,0-0.28,0.07-0.28,0.2
			l1.23,5.24l1.4-5.02c-0.01-0.12-0.08-0.22-0.2-0.29c-0.12-0.08-0.29-0.12-0.53-0.12v-0.85h3.33v0.85h-0.59
			c-0.18,0-0.27,0.07-0.27,0.2l1.44,5.24l1.27-5.04c0.01-0.01,0.01-0.06,0.01-0.12c0-0.18-0.13-0.27-0.4-0.27h-0.41v-0.85h2.59
			V162.56z"/>
	</g>
	<g>
		<path d="M36.44,177.29l-0.41,0.03c-0.03-0.54-0.09-0.98-0.17-1.32c-0.08-0.34-0.19-0.61-0.33-0.8c-0.14-0.19-0.31-0.33-0.5-0.4
			s-0.43-0.11-0.7-0.11h-1.16v6.28c0,0.32,0.31,0.48,0.93,0.48v0.36h-2.92v-0.36c0.61,0,0.92-0.16,0.92-0.48v-6.28h-1.17
			c-0.27,0-0.5,0.04-0.7,0.11s-0.36,0.21-0.5,0.4c-0.13,0.19-0.24,0.46-0.32,0.8c-0.08,0.34-0.14,0.78-0.18,1.32l-0.41-0.03v-3.17
			h7.62V177.29z"/>
		<path d="M39.16,177.6c0.14-0.15,0.29-0.3,0.46-0.44s0.35-0.27,0.54-0.37c0.19-0.11,0.4-0.19,0.62-0.25
			c0.22-0.06,0.46-0.09,0.71-0.09c0.5,0,0.88,0.12,1.14,0.35c0.26,0.23,0.39,0.63,0.39,1.19v3.01c0,0.31,0.31,0.47,0.92,0.47v0.36
			h-2.66v-0.36c0.54,0,0.81-0.15,0.81-0.46v-2.94c0-0.43-0.06-0.74-0.19-0.91c-0.13-0.17-0.32-0.26-0.58-0.26
			c-0.2,0-0.41,0.04-0.62,0.12c-0.21,0.08-0.41,0.19-0.61,0.33c-0.19,0.13-0.37,0.29-0.53,0.46c-0.16,0.18-0.3,0.36-0.4,0.55v2.64
			c0,0.31,0.27,0.46,0.81,0.46v0.36h-2.65v-0.36c0.61,0,0.91-0.16,0.91-0.47v-6.34c0-0.31-0.3-0.47-0.9-0.47v-0.33h1.83V177.6z"/>
		<path d="M49.82,180.95c0,0.31,0.1,0.46,0.31,0.46c0.1,0,0.17-0.05,0.22-0.14c0.05-0.1,0.08-0.2,0.08-0.32v-0.7h0.37v0.6
			c0,0.35-0.06,0.61-0.18,0.79c-0.12,0.17-0.35,0.26-0.68,0.26c-0.16,0-0.29-0.03-0.4-0.09c-0.11-0.06-0.2-0.14-0.26-0.24
			c-0.07-0.1-0.12-0.21-0.15-0.34c-0.03-0.12-0.06-0.25-0.07-0.37c-0.08,0.15-0.2,0.3-0.35,0.43c-0.15,0.14-0.33,0.26-0.53,0.37
			c-0.2,0.11-0.43,0.19-0.67,0.25c-0.24,0.06-0.49,0.09-0.76,0.09c-0.66,0-1.15-0.13-1.45-0.4c-0.3-0.27-0.46-0.64-0.46-1.11
			c0-0.28,0.06-0.51,0.18-0.7c0.12-0.19,0.28-0.35,0.49-0.48c0.21-0.13,0.45-0.23,0.71-0.31c0.27-0.08,0.55-0.15,0.85-0.21
			c0.3-0.06,0.6-0.11,0.91-0.16c0.31-0.05,0.6-0.11,0.89-0.18v-0.32c0-0.39-0.1-0.72-0.31-0.97c-0.21-0.26-0.53-0.38-0.97-0.38
			c-0.42,0-0.77,0.04-1.05,0.13c-0.28,0.09-0.49,0.2-0.63,0.33c0.14,0.01,0.26,0.07,0.36,0.16c0.1,0.09,0.16,0.21,0.16,0.36
			c0,0.17-0.06,0.32-0.17,0.43c-0.11,0.11-0.27,0.17-0.47,0.17c-0.2,0-0.35-0.06-0.46-0.18c-0.11-0.12-0.16-0.27-0.16-0.47
			c0-0.15,0.05-0.31,0.16-0.48c0.1-0.17,0.26-0.31,0.46-0.45c0.2-0.13,0.45-0.24,0.75-0.33c0.29-0.09,0.63-0.13,1.02-0.13
			c0.32,0,0.61,0.03,0.89,0.09c0.28,0.06,0.52,0.16,0.72,0.3c0.2,0.14,0.36,0.33,0.48,0.58c0.12,0.24,0.18,0.55,0.18,0.92V180.95z
			 M48.88,178.81c-0.55,0.11-1.01,0.22-1.41,0.32c-0.39,0.1-0.72,0.21-0.97,0.33c-0.26,0.12-0.44,0.25-0.56,0.41
			c-0.12,0.16-0.18,0.34-0.18,0.56c0,0.32,0.11,0.55,0.34,0.71c0.22,0.16,0.55,0.23,0.97,0.23c0.21,0,0.42-0.03,0.61-0.08
			c0.19-0.05,0.36-0.12,0.52-0.2c0.16-0.08,0.3-0.18,0.41-0.28c0.12-0.11,0.21-0.21,0.28-0.32V178.81z"/>
		<path d="M53.44,180.99c0,0.31,0.31,0.46,0.92,0.46v0.36H51.6v-0.36c0.61,0,0.91-0.16,0.91-0.47v-6.34c0-0.31-0.3-0.47-0.91-0.47
			v-0.33h1.84V180.99z"/>
		<path d="M60.24,180.95c0,0.31,0.1,0.46,0.31,0.46c0.1,0,0.17-0.05,0.22-0.14c0.05-0.1,0.08-0.2,0.08-0.32v-0.7h0.37v0.6
			c0,0.35-0.06,0.61-0.18,0.79c-0.12,0.17-0.35,0.26-0.68,0.26c-0.16,0-0.29-0.03-0.4-0.09c-0.11-0.06-0.2-0.14-0.26-0.24
			c-0.07-0.1-0.12-0.21-0.15-0.34c-0.03-0.12-0.06-0.25-0.07-0.37c-0.08,0.15-0.2,0.3-0.35,0.43c-0.15,0.14-0.33,0.26-0.53,0.37
			c-0.2,0.11-0.43,0.19-0.67,0.25c-0.24,0.06-0.49,0.09-0.76,0.09c-0.66,0-1.15-0.13-1.45-0.4c-0.3-0.27-0.46-0.64-0.46-1.11
			c0-0.28,0.06-0.51,0.18-0.7c0.12-0.19,0.28-0.35,0.49-0.48c0.21-0.13,0.45-0.23,0.71-0.31c0.27-0.08,0.55-0.15,0.85-0.21
			c0.3-0.06,0.6-0.11,0.91-0.16c0.31-0.05,0.6-0.11,0.89-0.18v-0.32c0-0.39-0.1-0.72-0.31-0.97c-0.21-0.26-0.53-0.38-0.97-0.38
			c-0.42,0-0.77,0.04-1.05,0.13c-0.28,0.09-0.49,0.2-0.63,0.33c0.14,0.01,0.26,0.07,0.36,0.16c0.1,0.09,0.16,0.21,0.16,0.36
			c0,0.17-0.06,0.32-0.17,0.43c-0.11,0.11-0.27,0.17-0.47,0.17c-0.2,0-0.35-0.06-0.46-0.18c-0.11-0.12-0.16-0.27-0.16-0.47
			c0-0.15,0.05-0.31,0.16-0.48c0.1-0.17,0.26-0.31,0.46-0.45c0.2-0.13,0.45-0.24,0.75-0.33c0.29-0.09,0.63-0.13,1.02-0.13
			c0.32,0,0.61,0.03,0.89,0.09c0.28,0.06,0.52,0.16,0.72,0.3c0.2,0.14,0.36,0.33,0.48,0.58c0.12,0.24,0.18,0.55,0.18,0.92V180.95z
			 M59.29,178.81c-0.55,0.11-1.01,0.22-1.41,0.32c-0.39,0.1-0.72,0.21-0.97,0.33c-0.26,0.12-0.44,0.25-0.56,0.41
			c-0.12,0.16-0.18,0.34-0.18,0.56c0,0.32,0.11,0.55,0.34,0.71c0.22,0.16,0.55,0.23,0.97,0.23c0.21,0,0.42-0.03,0.61-0.08
			c0.19-0.05,0.36-0.12,0.52-0.2c0.16-0.08,0.3-0.18,0.41-0.28c0.12-0.11,0.21-0.21,0.28-0.32V178.81z"/>
		<path d="M66.35,178.52l-0.38,0.07c-0.06-0.56-0.26-0.99-0.61-1.28c-0.34-0.29-0.81-0.44-1.39-0.44c-0.31,0-0.58,0.06-0.8,0.19
			c-0.22,0.12-0.34,0.32-0.34,0.6c0,0.26,0.09,0.45,0.27,0.57c0.18,0.13,0.41,0.23,0.69,0.31c0.28,0.08,0.58,0.14,0.9,0.2
			c0.32,0.06,0.62,0.14,0.9,0.25c0.28,0.11,0.51,0.27,0.69,0.48c0.18,0.21,0.27,0.5,0.27,0.87c0,0.5-0.17,0.88-0.5,1.14
			c-0.33,0.26-0.83,0.39-1.48,0.39c-0.33,0-0.64-0.04-0.92-0.11c-0.28-0.07-0.52-0.19-0.73-0.37c-0.05-0.03-0.1-0.07-0.16-0.11
			c-0.06-0.04-0.11-0.06-0.16-0.06c-0.06,0-0.09,0.02-0.11,0.05c-0.02,0.03-0.04,0.08-0.05,0.16l-0.07,0.37h-0.37v-2.12l0.37-0.06
			c0.03,0.28,0.12,0.53,0.24,0.75c0.13,0.22,0.29,0.42,0.48,0.58c0.19,0.16,0.41,0.29,0.66,0.37c0.25,0.09,0.51,0.13,0.79,0.13
			c0.43,0,0.75-0.08,0.94-0.24c0.19-0.16,0.28-0.37,0.28-0.63c0-0.19-0.05-0.35-0.16-0.46c-0.11-0.12-0.25-0.21-0.42-0.28
			c-0.18-0.07-0.38-0.13-0.6-0.18c-0.22-0.04-0.45-0.09-0.69-0.14c-0.23-0.05-0.46-0.11-0.69-0.18c-0.22-0.07-0.42-0.16-0.6-0.28
			c-0.18-0.12-0.32-0.27-0.42-0.46c-0.11-0.19-0.16-0.42-0.16-0.71c0-0.45,0.16-0.81,0.49-1.06c0.32-0.25,0.8-0.38,1.43-0.38
			c0.26,0,0.52,0.04,0.8,0.12c0.28,0.08,0.51,0.19,0.68,0.32c0.06,0.05,0.11,0.09,0.17,0.12c0.06,0.03,0.12,0.05,0.17,0.05
			c0.07,0,0.12-0.05,0.14-0.16l0.05-0.36h0.38V178.52z"/>
		<path d="M71.82,178.52l-0.38,0.07c-0.06-0.56-0.26-0.99-0.61-1.28c-0.34-0.29-0.81-0.44-1.39-0.44c-0.31,0-0.58,0.06-0.8,0.19
			c-0.22,0.12-0.34,0.32-0.34,0.6c0,0.26,0.09,0.45,0.27,0.57c0.18,0.13,0.41,0.23,0.69,0.31c0.28,0.08,0.58,0.14,0.9,0.2
			c0.32,0.06,0.62,0.14,0.9,0.25c0.28,0.11,0.51,0.27,0.69,0.48c0.18,0.21,0.27,0.5,0.27,0.87c0,0.5-0.17,0.88-0.5,1.14
			c-0.33,0.26-0.83,0.39-1.48,0.39c-0.33,0-0.64-0.04-0.92-0.11c-0.28-0.07-0.52-0.19-0.73-0.37c-0.05-0.03-0.1-0.07-0.16-0.11
			c-0.06-0.04-0.11-0.06-0.16-0.06c-0.06,0-0.09,0.02-0.11,0.05c-0.02,0.03-0.04,0.08-0.05,0.16l-0.07,0.37h-0.37v-2.12l0.37-0.06
			c0.03,0.28,0.12,0.53,0.24,0.75c0.13,0.22,0.29,0.42,0.48,0.58c0.19,0.16,0.41,0.29,0.66,0.37c0.25,0.09,0.51,0.13,0.79,0.13
			c0.43,0,0.75-0.08,0.94-0.24c0.19-0.16,0.28-0.37,0.28-0.63c0-0.19-0.05-0.35-0.16-0.46c-0.11-0.12-0.25-0.21-0.42-0.28
			c-0.18-0.07-0.38-0.13-0.6-0.18c-0.22-0.04-0.45-0.09-0.69-0.14c-0.23-0.05-0.46-0.11-0.69-0.18c-0.22-0.07-0.42-0.16-0.6-0.28
			c-0.18-0.12-0.32-0.27-0.42-0.46c-0.11-0.19-0.16-0.42-0.16-0.71c0-0.45,0.16-0.81,0.49-1.06c0.32-0.25,0.8-0.38,1.43-0.38
			c0.26,0,0.52,0.04,0.8,0.12c0.28,0.08,0.51,0.19,0.68,0.32c0.06,0.05,0.11,0.09,0.17,0.12c0.06,0.03,0.12,0.05,0.17,0.05
			c0.07,0,0.12-0.05,0.14-0.16l0.05-0.36h0.38V178.52z"/>
		<path d="M73.92,179.01c0,0.79,0.15,1.41,0.45,1.86c0.3,0.46,0.74,0.68,1.31,0.68c0.45,0,0.85-0.11,1.2-0.32
			c0.35-0.21,0.59-0.57,0.73-1.09l0.41,0.16c-0.07,0.22-0.16,0.43-0.28,0.64c-0.12,0.2-0.27,0.38-0.46,0.54
			c-0.19,0.16-0.41,0.28-0.67,0.37c-0.26,0.09-0.57,0.14-0.92,0.14c-0.32,0-0.64-0.04-0.96-0.12c-0.32-0.08-0.61-0.23-0.86-0.44
			c-0.26-0.21-0.46-0.5-0.63-0.86c-0.16-0.37-0.24-0.83-0.24-1.39c0-0.41,0.06-0.8,0.19-1.14c0.12-0.35,0.3-0.65,0.54-0.9
			c0.23-0.25,0.52-0.45,0.86-0.58c0.34-0.14,0.73-0.21,1.16-0.21c0.81,0,1.43,0.23,1.85,0.7c0.42,0.47,0.63,1.12,0.63,1.97H73.92z
			 M77.25,178.62c0-0.56-0.14-1.01-0.41-1.34c-0.27-0.33-0.66-0.5-1.15-0.5c-0.22,0-0.43,0.03-0.63,0.1
			c-0.2,0.07-0.38,0.18-0.54,0.32c-0.16,0.14-0.29,0.33-0.39,0.57c-0.1,0.23-0.17,0.52-0.2,0.85H77.25z"/>
		<path d="M80.98,177.55c0.22-0.39,0.49-0.68,0.8-0.85c0.31-0.17,0.62-0.26,0.93-0.26c0.14,0,0.29,0.02,0.45,0.07
			c0.15,0.04,0.29,0.12,0.41,0.21s0.23,0.22,0.31,0.38c0.08,0.16,0.12,0.35,0.12,0.58c0,0.21-0.06,0.37-0.17,0.49
			c-0.11,0.12-0.27,0.18-0.48,0.18c-0.21,0-0.36-0.06-0.47-0.17c-0.11-0.11-0.16-0.24-0.16-0.39c0-0.17,0.06-0.31,0.19-0.41
			c0.12-0.1,0.3-0.15,0.53-0.15c-0.06-0.12-0.16-0.21-0.3-0.27c-0.14-0.06-0.3-0.09-0.48-0.09c-0.12,0-0.26,0.02-0.39,0.06
			c-0.14,0.04-0.28,0.12-0.42,0.23c-0.14,0.11-0.29,0.27-0.43,0.46c-0.14,0.2-0.28,0.45-0.41,0.75v2.6c0,0.31,0.34,0.46,1.04,0.46
			v0.36h-2.88v-0.36c0.61,0,0.91-0.15,0.91-0.46v-3.63c0-0.32-0.3-0.47-0.91-0.47v-0.34h1.84V177.55z"/>
		<path d="M91.11,176.89c-0.23,0-0.41,0.03-0.53,0.09c-0.13,0.06-0.22,0.15-0.27,0.26l-2.42,5.71c-0.09,0.21-0.18,0.38-0.27,0.53
			c-0.09,0.15-0.19,0.27-0.31,0.37c-0.12,0.1-0.25,0.17-0.41,0.22c-0.16,0.05-0.34,0.07-0.55,0.07c-0.48,0-0.85-0.12-1.12-0.35
			c-0.27-0.23-0.41-0.52-0.41-0.85c0-0.08,0.01-0.15,0.03-0.23c0.02-0.08,0.05-0.15,0.1-0.22c0.04-0.07,0.11-0.12,0.19-0.16
			c0.08-0.04,0.18-0.06,0.3-0.06c0.23,0,0.39,0.06,0.49,0.18c0.1,0.12,0.15,0.25,0.15,0.39c0,0.17-0.05,0.3-0.15,0.39
			c-0.1,0.09-0.23,0.15-0.39,0.18c0.06,0.1,0.16,0.19,0.28,0.26c0.13,0.07,0.33,0.11,0.62,0.11c0.19,0,0.37-0.07,0.54-0.21
			c0.17-0.14,0.32-0.37,0.45-0.69l0.26-0.66l-2.09-4.97c-0.1-0.24-0.36-0.36-0.76-0.36v-0.33h2.74v0.33h-0.67
			c-0.21,0-0.31,0.06-0.31,0.19c0,0.07,0.01,0.13,0.03,0.18l1.57,3.87l1.6-3.79c0.02-0.05,0.03-0.1,0.03-0.14
			c0-0.2-0.16-0.3-0.49-0.3H88.9v-0.33h2.21V176.89z"/>
		<path d="M90.89,183.08c0.23-0.13,0.4-0.25,0.52-0.36c0.12-0.11,0.21-0.21,0.26-0.3c0.06-0.09,0.09-0.17,0.1-0.24
			c0.01-0.07,0.02-0.14,0.02-0.19c0-0.1-0.05-0.16-0.14-0.16c-0.43,0-0.65-0.18-0.65-0.54c0-0.46,0.23-0.68,0.7-0.68
			c0.59,0,0.89,0.33,0.89,0.99c0,0.39-0.13,0.73-0.39,1.02c-0.26,0.29-0.63,0.55-1.1,0.78L90.89,183.08z"/>
		<path d="M105.93,174.49c-0.61,0-0.92,0.16-0.92,0.48v6.85h-1.34l-4.56-6.63v5.79c0,0.32,0.31,0.48,0.92,0.48v0.36h-2.46v-0.36
			c0.61,0,0.92-0.16,0.92-0.48v-6.01c0-0.32-0.31-0.48-0.92-0.48v-0.36h2.18l4.63,6.77v-5.93c0-0.32-0.31-0.48-0.92-0.48v-0.36h2.46
			V174.49z"/>
		<path d="M109.24,176.34c0.37,0,0.72,0.05,1.05,0.14c0.33,0.1,0.62,0.26,0.86,0.48c0.25,0.22,0.44,0.51,0.58,0.87
			c0.14,0.36,0.21,0.8,0.21,1.33c0,0.43-0.06,0.82-0.19,1.16c-0.12,0.35-0.31,0.65-0.54,0.9c-0.24,0.25-0.53,0.44-0.89,0.57
			c-0.35,0.13-0.76,0.2-1.21,0.2c-0.37,0-0.71-0.05-1.04-0.14c-0.32-0.09-0.61-0.25-0.86-0.46c-0.25-0.21-0.45-0.49-0.59-0.84
			c-0.14-0.35-0.22-0.77-0.22-1.27c0-0.44,0.06-0.84,0.18-1.21c0.12-0.36,0.29-0.67,0.52-0.93c0.23-0.26,0.52-0.46,0.87-0.6
			C108.35,176.41,108.77,176.34,109.24,176.34z M109.25,176.77c-0.33,0-0.61,0.06-0.84,0.17s-0.43,0.26-0.59,0.46
			c-0.16,0.19-0.27,0.42-0.35,0.69c-0.08,0.27-0.11,0.55-0.11,0.86c0,0.51,0.04,0.94,0.13,1.27c0.09,0.34,0.21,0.61,0.36,0.8
			c0.16,0.2,0.34,0.33,0.56,0.41c0.21,0.08,0.45,0.12,0.72,0.12c0.35,0,0.64-0.06,0.88-0.18c0.24-0.12,0.43-0.28,0.58-0.49
			c0.15-0.21,0.26-0.46,0.32-0.75c0.07-0.29,0.1-0.6,0.1-0.93c0-0.48-0.05-0.88-0.14-1.2c-0.09-0.31-0.21-0.56-0.37-0.75
			c-0.16-0.19-0.34-0.32-0.56-0.39C109.73,176.81,109.5,176.77,109.25,176.77z"/>
		<path d="M114.66,177.55c0.22-0.39,0.49-0.68,0.8-0.85c0.31-0.17,0.62-0.26,0.93-0.26c0.14,0,0.29,0.02,0.45,0.07
			c0.15,0.04,0.29,0.12,0.41,0.21c0.12,0.1,0.23,0.22,0.31,0.38c0.08,0.16,0.12,0.35,0.12,0.58c0,0.21-0.06,0.37-0.17,0.49
			c-0.11,0.12-0.27,0.18-0.48,0.18c-0.21,0-0.36-0.06-0.47-0.17c-0.11-0.11-0.16-0.24-0.16-0.39c0-0.17,0.06-0.31,0.19-0.41
			c0.12-0.1,0.3-0.15,0.53-0.15c-0.06-0.12-0.16-0.21-0.3-0.27c-0.14-0.06-0.3-0.09-0.48-0.09c-0.12,0-0.26,0.02-0.39,0.06
			c-0.14,0.04-0.28,0.12-0.42,0.23c-0.14,0.11-0.29,0.27-0.43,0.46s-0.28,0.45-0.41,0.75v2.6c0,0.31,0.34,0.46,1.04,0.46v0.36h-2.88
			v-0.36c0.61,0,0.91-0.15,0.91-0.46v-3.63c0-0.32-0.3-0.47-0.91-0.47v-0.34h1.84V177.55z"/>
		<path d="M120.43,176.55h1.41l-0.05,0.6c-0.2-0.04-0.41-0.07-0.63-0.09c-0.22-0.02-0.46-0.03-0.72-0.03v3.92
			c0,0.31,0.17,0.47,0.52,0.47c0.17,0,0.28-0.05,0.35-0.14c0.07-0.09,0.1-0.2,0.1-0.33v-0.7h0.39v0.6c0,0.15-0.01,0.29-0.04,0.41
			c-0.02,0.12-0.07,0.23-0.15,0.33c-0.08,0.09-0.18,0.17-0.32,0.22c-0.14,0.05-0.32,0.08-0.55,0.08c-0.42,0-0.73-0.11-0.94-0.33
			c-0.2-0.22-0.31-0.52-0.31-0.92v-3.61h-0.92v-0.36c0.19-0.01,0.37-0.04,0.53-0.08c0.16-0.04,0.3-0.11,0.41-0.22
			c0.11-0.11,0.2-0.25,0.26-0.43c0.06-0.18,0.09-0.42,0.09-0.72v-0.23l0.56-0.07V176.55z"/>
		<path d="M124.55,177.6c0.14-0.15,0.29-0.3,0.46-0.44s0.35-0.27,0.54-0.37c0.19-0.11,0.4-0.19,0.62-0.25
			c0.22-0.06,0.46-0.09,0.71-0.09c0.5,0,0.88,0.12,1.14,0.35c0.26,0.23,0.39,0.63,0.39,1.19v3.01c0,0.31,0.31,0.47,0.92,0.47v0.36
			h-2.66v-0.36c0.54,0,0.81-0.15,0.81-0.46v-2.94c0-0.43-0.06-0.74-0.19-0.91c-0.13-0.17-0.32-0.26-0.58-0.26
			c-0.2,0-0.41,0.04-0.62,0.12c-0.21,0.08-0.41,0.19-0.61,0.33c-0.19,0.13-0.37,0.29-0.53,0.46c-0.16,0.18-0.3,0.36-0.4,0.55v2.64
			c0,0.31,0.27,0.46,0.81,0.46v0.36h-2.65v-0.36c0.61,0,0.91-0.16,0.91-0.47v-6.34c0-0.31-0.3-0.47-0.9-0.47v-0.33h1.83V177.6z"/>
		<path d="M141.62,174.49c-0.26,0-0.48,0.05-0.67,0.15c-0.18,0.1-0.35,0.22-0.51,0.36l-2.05,1.81l2.73,4.12
			c0.12,0.18,0.26,0.31,0.42,0.4c0.17,0.09,0.37,0.13,0.62,0.13h0.34v0.36h-3.81v-0.36h1.02c0.11,0,0.18-0.02,0.22-0.06
			c0.03-0.04,0.05-0.09,0.05-0.15c0-0.1-0.04-0.2-0.11-0.32l-2.26-3.44l-1.74,1.54v1.95c0,0.32,0.31,0.48,0.92,0.48v0.36h-2.91
			v-0.36c0.61,0,0.92-0.16,0.92-0.48v-6.01c0-0.32-0.31-0.48-0.92-0.48v-0.36h2.91v0.36c-0.61,0-0.92,0.16-0.92,0.48v3.32l3.56-3.15
			c0.12-0.1,0.19-0.21,0.19-0.33c0-0.09-0.04-0.17-0.12-0.23c-0.08-0.06-0.2-0.09-0.36-0.09h-0.63v-0.36h3.1V174.49z"/>
		<path d="M143.77,179.01c0,0.79,0.15,1.41,0.45,1.86c0.3,0.46,0.74,0.68,1.31,0.68c0.45,0,0.85-0.11,1.2-0.32
			c0.35-0.21,0.59-0.57,0.73-1.09l0.41,0.16c-0.07,0.22-0.16,0.43-0.28,0.64c-0.12,0.2-0.27,0.38-0.46,0.54
			c-0.19,0.16-0.41,0.28-0.67,0.37c-0.26,0.09-0.57,0.14-0.92,0.14c-0.32,0-0.64-0.04-0.96-0.12c-0.32-0.08-0.61-0.23-0.86-0.44
			c-0.26-0.21-0.46-0.5-0.63-0.86c-0.16-0.37-0.24-0.83-0.24-1.39c0-0.41,0.06-0.8,0.19-1.14c0.12-0.35,0.3-0.65,0.54-0.9
			c0.23-0.25,0.52-0.45,0.86-0.58c0.34-0.14,0.73-0.21,1.16-0.21c0.81,0,1.43,0.23,1.85,0.7c0.42,0.47,0.63,1.12,0.63,1.97H143.77z
			 M147.1,178.62c0-0.56-0.14-1.01-0.41-1.34c-0.27-0.33-0.66-0.5-1.15-0.5c-0.22,0-0.43,0.03-0.63,0.1
			c-0.2,0.07-0.38,0.18-0.54,0.32c-0.16,0.14-0.29,0.33-0.39,0.57c-0.1,0.23-0.17,0.52-0.2,0.85H147.1z"/>
		<path d="M150.83,177.55c0.22-0.39,0.49-0.68,0.8-0.85c0.31-0.17,0.62-0.26,0.93-0.26c0.14,0,0.29,0.02,0.45,0.07
			c0.15,0.04,0.29,0.12,0.41,0.21c0.12,0.1,0.23,0.22,0.31,0.38c0.08,0.16,0.12,0.35,0.12,0.58c0,0.21-0.06,0.37-0.17,0.49
			c-0.11,0.12-0.27,0.18-0.48,0.18c-0.21,0-0.36-0.06-0.47-0.17c-0.11-0.11-0.16-0.24-0.16-0.39c0-0.17,0.06-0.31,0.19-0.41
			c0.12-0.1,0.3-0.15,0.53-0.15c-0.06-0.12-0.16-0.21-0.3-0.27c-0.14-0.06-0.3-0.09-0.48-0.09c-0.12,0-0.26,0.02-0.39,0.06
			c-0.14,0.04-0.28,0.12-0.42,0.23c-0.14,0.11-0.29,0.27-0.43,0.46c-0.14,0.2-0.28,0.45-0.41,0.75v2.6c0,0.31,0.35,0.46,1.04,0.46
			v0.36h-2.88v-0.36c0.61,0,0.91-0.15,0.91-0.46v-3.63c0-0.32-0.3-0.47-0.91-0.47v-0.34h1.84V177.55z"/>
		<path d="M159.72,180.95c0,0.31,0.1,0.46,0.31,0.46c0.1,0,0.17-0.05,0.22-0.14c0.05-0.1,0.08-0.2,0.08-0.32v-0.7h0.37v0.6
			c0,0.35-0.06,0.61-0.18,0.79c-0.12,0.17-0.35,0.26-0.68,0.26c-0.16,0-0.29-0.03-0.4-0.09c-0.11-0.06-0.2-0.14-0.26-0.24
			c-0.07-0.1-0.12-0.21-0.15-0.34c-0.03-0.12-0.06-0.25-0.07-0.37c-0.08,0.15-0.2,0.3-0.35,0.43c-0.15,0.14-0.33,0.26-0.53,0.37
			c-0.2,0.11-0.43,0.19-0.67,0.25c-0.24,0.06-0.49,0.09-0.76,0.09c-0.66,0-1.15-0.13-1.45-0.4c-0.3-0.27-0.46-0.64-0.46-1.11
			c0-0.28,0.06-0.51,0.18-0.7c0.12-0.19,0.28-0.35,0.49-0.48c0.21-0.13,0.45-0.23,0.71-0.31c0.27-0.08,0.55-0.15,0.85-0.21
			c0.3-0.06,0.6-0.11,0.91-0.16c0.31-0.05,0.6-0.11,0.89-0.18v-0.32c0-0.39-0.1-0.72-0.31-0.97c-0.21-0.26-0.53-0.38-0.97-0.38
			c-0.42,0-0.77,0.04-1.05,0.13c-0.28,0.09-0.49,0.2-0.63,0.33c0.14,0.01,0.26,0.07,0.36,0.16c0.1,0.09,0.16,0.21,0.16,0.36
			c0,0.17-0.06,0.32-0.17,0.43c-0.11,0.11-0.27,0.17-0.47,0.17c-0.2,0-0.35-0.06-0.46-0.18c-0.11-0.12-0.16-0.27-0.16-0.47
			c0-0.15,0.05-0.31,0.16-0.48c0.1-0.17,0.26-0.31,0.46-0.45c0.2-0.13,0.45-0.24,0.75-0.33c0.29-0.09,0.63-0.13,1.02-0.13
			c0.32,0,0.61,0.03,0.89,0.09c0.28,0.06,0.52,0.16,0.72,0.3c0.2,0.14,0.36,0.33,0.48,0.58c0.12,0.24,0.18,0.55,0.18,0.92V180.95z
			 M158.78,178.81c-0.55,0.11-1.01,0.22-1.41,0.32c-0.39,0.1-0.72,0.21-0.97,0.33c-0.26,0.12-0.44,0.25-0.56,0.41
			c-0.12,0.16-0.18,0.34-0.18,0.56c0,0.32,0.11,0.55,0.34,0.71c0.22,0.16,0.55,0.23,0.97,0.23c0.21,0,0.42-0.03,0.61-0.08
			c0.19-0.05,0.36-0.12,0.52-0.2c0.16-0.08,0.3-0.18,0.41-0.28c0.12-0.11,0.21-0.21,0.28-0.32V178.81z"/>
		<path d="M163.35,180.99c0,0.31,0.31,0.46,0.92,0.46v0.36h-2.76v-0.36c0.61,0,0.91-0.16,0.91-0.47v-6.34c0-0.31-0.3-0.47-0.91-0.47
			v-0.33h1.84V180.99z"/>
		<path d="M170.15,180.95c0,0.31,0.1,0.46,0.31,0.46c0.1,0,0.17-0.05,0.22-0.14c0.05-0.1,0.08-0.2,0.08-0.32v-0.7h0.37v0.6
			c0,0.35-0.06,0.61-0.18,0.79c-0.12,0.17-0.35,0.26-0.68,0.26c-0.16,0-0.29-0.03-0.4-0.09c-0.11-0.06-0.2-0.14-0.26-0.24
			c-0.07-0.1-0.12-0.21-0.15-0.34c-0.03-0.12-0.06-0.25-0.07-0.37c-0.08,0.15-0.2,0.3-0.35,0.43c-0.15,0.14-0.33,0.26-0.53,0.37
			c-0.2,0.11-0.43,0.19-0.67,0.25c-0.24,0.06-0.49,0.09-0.76,0.09c-0.66,0-1.15-0.13-1.45-0.4c-0.3-0.27-0.46-0.64-0.46-1.11
			c0-0.28,0.06-0.51,0.18-0.7c0.12-0.19,0.28-0.35,0.49-0.48c0.21-0.13,0.45-0.23,0.71-0.31c0.27-0.08,0.55-0.15,0.85-0.21
			c0.3-0.06,0.6-0.11,0.91-0.16c0.31-0.05,0.6-0.11,0.89-0.18v-0.32c0-0.39-0.1-0.72-0.31-0.97c-0.21-0.26-0.53-0.38-0.97-0.38
			c-0.42,0-0.77,0.04-1.05,0.13c-0.28,0.09-0.49,0.2-0.63,0.33c0.14,0.01,0.26,0.07,0.36,0.16c0.1,0.09,0.16,0.21,0.16,0.36
			c0,0.17-0.06,0.32-0.17,0.43c-0.11,0.11-0.27,0.17-0.47,0.17c-0.2,0-0.35-0.06-0.46-0.18c-0.11-0.12-0.16-0.27-0.16-0.47
			c0-0.15,0.05-0.31,0.16-0.48c0.1-0.17,0.26-0.31,0.46-0.45c0.2-0.13,0.45-0.24,0.75-0.33c0.29-0.09,0.63-0.13,1.02-0.13
			c0.32,0,0.61,0.03,0.89,0.09c0.28,0.06,0.52,0.16,0.72,0.3c0.2,0.14,0.36,0.33,0.48,0.58c0.12,0.24,0.18,0.55,0.18,0.92V180.95z
			 M169.2,178.81c-0.55,0.11-1.01,0.22-1.41,0.32s-0.72,0.21-0.97,0.33c-0.26,0.12-0.44,0.25-0.56,0.41
			c-0.12,0.16-0.18,0.34-0.18,0.56c0,0.32,0.11,0.55,0.34,0.71c0.22,0.16,0.55,0.23,0.97,0.23c0.21,0,0.42-0.03,0.61-0.08
			c0.19-0.05,0.36-0.12,0.52-0.2c0.16-0.08,0.3-0.18,0.41-0.28c0.12-0.11,0.21-0.21,0.28-0.32V178.81z"/>
	</g>
</g>
</svg>
