<?xml version="1.0" encoding="UTF-8"?>
<svg id="Layer_1" data-name="Layer 1" xmlns="http://www.w3.org/2000/svg" viewBox="0 0 1591.77 1438.72">
  <defs>
    <style>
      .cls-1 {
        font-family: Fraunces-SemiBold, Fraunces;
        font-variation-settings: 'opsz' 9, 'wght' 600, 'SOFT' 0, 'WONK' 1;
        font-weight: 600;
      }

      .cls-2 {
        font-family: Fraunces-Light, Fraunces;
        font-variation-settings: 'opsz' 9, 'wght' 300, 'SOFT' 0, 'WONK' 1;
        font-weight: 300;
      }

      .cls-3 {
        letter-spacing: -.05em;
      }

      .cls-4 {
        letter-spacing: -.01em;
      }

      .cls-5 {
        letter-spacing: 0em;
      }

      .cls-6 {
        font-size: 105.89px;
      }

      .cls-6, .cls-7 {
        fill: #231f20;
      }

      .cls-7, .cls-8 {
        stroke-width: 0px;
      }

      .cls-8 {
        fill: #d0aa6c;
      }

      .cls-9 {
        letter-spacing: 0em;
      }
    </style>
  </defs>
  <g>
    <path class="cls-7" d="M400.43,489.08l5.71,8.75v53.97c-5-.1-10.03-.59-15.01-1.49-6.85-1.22-15.99-3.54-27.16-6.89-13.71-4.15-28.15-6.24-43.01-6.24-.19,0-.37,0-.56,0v-39.4l5.52-8.75v-7.48h-34.69v7.52l5.71,8.75v110.42l-5.71,8.94v7.3h34.69v-7.26l-5.52-8.94v-55.22c13.75.04,27.08,1.97,39.68,5.74,11.71,3.61,21.44,6.09,28.91,7.39,5.73,1,11.48,1.51,17.15,1.54v40.51l-5.71,8.94v7.3h34.69v-7.26l-5.52-8.94v-110.51l5.52-8.75v-7.48h-34.69v7.52Z"/>
    <polygon class="cls-7" points="553.88 497.6 563.01 502.93 570.91 502.93 568.24 481.56 455.42 481.56 455.42 489.08 461.12 497.83 461.12 608.25 455.42 617.2 455.42 624.5 568.24 624.5 570.91 603.13 563.01 603.13 553.88 608.45 484.59 608.45 484.59 547.83 518.92 547.83 527.1 553.15 534.43 553.15 534.43 526.46 527.1 526.46 518.92 531.78 484.59 531.78 484.59 497.6 553.88 497.6"/>
    <polygon class="cls-7" points="760.45 579.88 754.74 571.13 754.74 527.85 754.97 527.85 754.75 497.81 760.45 489.08 760.45 481.56 725.76 481.56 725.76 489.03 731.29 497.81 731.41 509.9 731.28 509.9 731.28 571.17 725.76 579.92 725.76 587.4 760.45 587.4 760.45 579.88"/>
    <path class="cls-7" d="M777.45,588.48h-1.62c-2.09,0-3.94,1.13-5.01,3.04-.6.95-1.02,1.52-1.27,1.84l-.14.18c-2.1,2.88-4.7,5.53-7.69,7.85-3.38,2.59-7.53,4.83-12.34,6.66l-.1.04c-4.63,1.87-10.19,2.76-16.63,2.65-4.99,0-10.02-1.23-14.96-3.64l-.12-.06c-3.38-1.55-4.98-2.52-5.73-3.07l-1.41-1.03h-.36c-.1-.06-.2-.12-.3-.17-4.48-3.12-8.61-6.49-12.3-10.03-.49-.6-1.25-1.38-2.73-2.71-3.62-3.23-7.41-6.43-11.32-9.56-3.12-2.42-5.93-4.47-8.48-6.19,1.37-.61,2.7-1.28,4-2.02,8.59-4.79,14.93-10.81,18.85-17.93,3.94-7.33,6.02-15.45,6.16-24.14v-.09s0-.09,0-.09c-.14-8.56-2.21-16.62-6.18-23.99-3.9-7.08-10.23-13.09-18.83-17.89-7.62-4.23-16.05-6.38-25.05-6.38h-69.09v7.33l5.71,8.75v110.58l-5.71,8.75v7.52h34.69v-7.48l-5.52-8.75v-29.81h19.75c9.01,0,16.55,2.38,22.99,7.25v.22l2.23,1.6s.02.01.03.02l.93.79h.09c.56.46,1.32,1.09,2.32,1.98,1.53,1.36,2.39,2.08,2.98,2.51,1.06,1.06,3.8,3.77,8.22,8.13,5.2,5.14,8.65,8.43,10.59,10.08,2.5,2.11,4.26,3.54,5.38,4.38l.12.09c2.29,1.62,4.56,3.06,6.67,4.24,3.34,1.95,6.95,3.58,10.71,4.83,1.19.4,2.45.8,3.84,1.21,6.67,1.9,12.67,2.87,17.83,2.87,8.46,0,15.97-1.44,22.43-4.31,4.08-1.9,7.95-4.15,11.5-6.67,3.58-2.54,6.35-4.82,8.48-6.95,2.08-2.08,4.02-4.34,5.76-6.7,2.39-3.24,3.11-4.55,3.5-5.39.3-.65.6-1.22.88-1.69l2.15-3.59-3.52-3.52-2.36-1.58ZM613.77,540.16v-12.11h.19v-30.44h33.99c.11,0,.77.03,3.63.35v-.03c.91.16,1.79.29,2.64.39,4.03.78,7.72,2.05,10.95,3.76,5.08,2.94,8.8,6.71,11.4,11.58,2.48,4.54,3.8,9.72,3.91,15.31v2.37c-.11,5.69-1.42,10.88-3.94,15.47-2.57,4.82-6.29,8.6-11.38,11.53-3.25,1.73-6.96,2.99-11.01,3.77-2.5.33-5.16.5-7.89.5h-32.31v-22.45h-.19Z"/>
    <polygon class="cls-7" points="860.33 578.21 860.14 578.21 860.14 497.6 904.89 497.6 914.02 502.93 921.92 502.93 919.25 481.56 778.14 481.56 775.47 502.93 783.39 502.93 792.33 497.6 836.87 497.6 836.87 578.21 836.68 578.21 836.68 608.3 831.16 617.24 831.16 624.5 866.04 624.5 866.04 617.2 860.33 608.25 860.33 578.21"/>
    <path class="cls-7" d="M1023.15,584.34l-45.14-107.54h-10.28l-57.71,129.6-7.53,10.66v7.44h27.27v-7.38l-4.38-6.49,9.71-21.52h64.54l9.29,21.73-4.07,6.35v7.31h34.31v-7.28l-6.12-9.7-9.9-23.17ZM942.49,573.07l25.74-59.09,24.3,59.09h-50.03Z"/>
    <path class="cls-7" d="M1148.31,549.15l5.52,8.75v36.75c-1.34,2.07-3.29,4.17-5.82,6.25-3.56,2.89-8.34,5.41-14.28,7.51-5.83,2.17-12.56,3.28-20.01,3.28-10.23,0-18.66-2.5-25.78-7.64-7.16-5.17-12.67-12.19-16.38-20.88-3.82-8.92-5.75-19-5.75-29.95s1.94-21.03,5.75-29.95c3.71-8.68,9.21-15.66,16.36-20.77,7.13-5.09,15.57-7.56,25.8-7.56,5.81,0,11.27.64,16.24,1.89,1.55.48,2.86.9,3.85,1.22,5.82,2.06,10.58,4.56,14.14,7.43,2.31,1.98,4.18,3.96,5.61,5.94.71.95,1.05,1.53,1.22,1.86l1.67,3.33h7.86l2.13-3.55,2.06-4.09,3.81-7.05,5.34-10.34-6.57-3.29-1.49.12c-5.46.44-10.77-.39-15.79-2.47l-.23-.09c-1.3-.47-2.59-.94-3.89-1.41l-.28-.1c-4.42-1.61-9.11-2.9-13.95-3.84-6.27-1.2-12.82-1.81-19.46-1.81-15.5,0-29.01,3.39-40.15,10.09-11.17,6.72-19.73,15.87-25.43,27.2-5.62,11.17-8.47,23.69-8.47,37.22s2.85,26.06,8.47,37.22c5.7,11.34,14.26,20.49,25.43,27.2,11.13,6.69,24.64,10.09,40.15,10.09,18.65,0,35.51-4.61,50.11-13.69,1.83-1.03,3.73-1.53,5.82-1.53h5.36v-54.4l5.71-8.94v-7.3h-34.69v7.28Z"/>
    <polygon class="cls-7" points="1297.57 608.45 1228.28 608.45 1228.28 547.83 1262.61 547.83 1270.79 553.15 1278.12 553.15 1278.12 526.46 1270.79 526.46 1262.61 531.78 1228.28 531.78 1228.28 497.6 1297.57 497.6 1306.7 502.93 1314.6 502.93 1311.93 481.56 1199.11 481.56 1199.11 489.08 1204.81 497.83 1204.81 608.25 1199.11 617.2 1199.11 624.5 1311.93 624.5 1314.6 603.13 1306.7 603.13 1297.57 608.45"/>
  </g>
  <path class="cls-7" d="M567.74,735.07h1.21c4.11,0,7.78,1.53,11.02,4.6l1.65,2.08c1.56-2.55,4.28-4.43,8.16-5.64,3.47-.7,6.31-1.04,8.51-1.04v.09c-1.79,4.4-2.69,7.18-2.69,8.33-.81,3.07-1.21,8.45-1.21,16.15v13.45c0,8.62,1.01,13.92,3.04,15.89.92,1.21,2,2.17,3.21,2.87-1.39.98-2.49,2.11-3.3,3.38-2.03,2.95-3.04,9.43-3.04,19.44.06,10.71.09,18.17.09,22.4,0,5.67,1.13,9.09,3.39,10.24,2.54,1.39,6.36,2.08,11.46,2.08h.26c.35,0,.52.09.52.26v1.13c-.46,1.16-1.91,2.69-4.34,4.6-3.36,2.32-6.86,3.47-10.5,3.47h-1.13c-4.75,0-8.91-2.17-12.5-6.51-2.78,4.28-6.89,6.42-12.33,6.42s-10.24-2.11-14.41-6.34c-.41-.52-.78-1.04-1.13-1.56v-1.21c.06-.17.23-.26.52-.26h.17c7.58,0,12.04-1.42,13.37-4.25.92-1.16,1.39-4.78,1.39-10.85.06-11.75.09-19.24.09-22.48,0-10.07-1.39-16.29-4.17-18.66,0-.06-.43-.49-1.3-1.3,2.03-2.14,3.3-4.08,3.82-5.82,1.04-2.08,1.56-8.42,1.56-19.01v-2.43c0-8.45-.15-12.67-.43-12.67-.06-.87-.55-2.14-1.48-3.82-1.62-2.14-6.11-3.21-13.45-3.21l-.09-.17v-1.13c.98-2.72,3.01-4.92,6.08-6.6,2.72-1.27,5.38-1.91,7.99-1.91Z"/>
  <path class="cls-7" d="M1003.61,732.9h1.82c5.38,0,12.04,2.11,19.97,6.34,3.76-2.14,6.83-3.21,9.2-3.21h1.56c3.01,0,4.51.23,4.51.69v.09c-4.28,3.99-6.42,7.93-6.42,11.81l.26,7.2c0,8.04-3.56,14.03-10.68,17.97-1.1,0-2.23-.72-3.38-2.17l-.26-.87c1.74-4.4,2.6-8.25,2.6-11.54,0-6.02-2.86-10.21-8.59-12.59-3.01-1.1-5.18-1.65-6.51-1.65-1.22-.17-2.72-.32-4.51-.43-.06.06-.17.09-.35.09h-.17c-3.99,0-7.09,2.08-9.29,6.25-.75,1.85-1.13,3.68-1.13,5.47v30.12h.09c4.57-.75,8.88-1.13,12.93-1.13,13.08,0,23.58,4.14,31.51,12.41,1.56,1.79,2.78,3.47,3.65,5.03,1.62,3.3,2.43,5.5,2.43,6.6.87,3.59,1.79,6.05,2.78,7.38,1.27,1.74,2.43,2.84,3.47,3.3l.09.17c-2.66,2.26-4.72,5.96-6.16,11.11-.81,2.78-1.74,5.21-2.78,7.29-1.22,2.32-2.81,4.77-4.77,7.38-8.22,9.32-18.14,13.98-29.77,13.98h-1.82c-7.87,0-15.05-2.46-21.53-7.38-3.3-2.89-5.61-5.32-6.94-7.29-2.14-3.01-3.76-5.7-4.86-8.07-1.27-2.83-2.49-6.19-3.65-10.07-1.68-7.47-2.52-12.24-2.52-14.32-.29-2.08-.61-5.5-.96-10.24-.64-3.76-1.56-6.6-2.78-8.51-.46-.81-1.53-2-3.21-3.56,2.78-1.5,4.74-3.82,5.9-6.94.69-2.03,1.65-6.39,2.87-13.11,2.78-11.17,7.17-19.99,13.19-26.48,6.83-7.41,14.9-11.11,24.22-11.11ZM992.24,809.98v22.39c0,7.52,2.2,12.3,6.6,14.32,1.45.64,3.04.96,4.77.96h.26c7.7,0,11.54-5.41,11.54-16.23v-20.4c0-7.7-2.08-12.59-6.25-14.67-1.79-.7-3.42-1.04-4.86-1.04h-1.13c-4.17,0-7.2,1.85-9.11,5.56-1.22,2.49-1.82,5.53-1.82,9.11Z"/>
  <path class="cls-7" d="M710.5,732.02h2.16c14.42,0,26.78,5.55,37.09,16.65,4.47,5.48,6.92,10.02,7.35,13.62,1.15,4.54,3.6,9.01,7.35,13.41-2.31,1.23-4.07,3.64-5.3,7.25-1.37,5.26-2.85,9.26-4.43,12-3.82,5.84-9.62,10.56-17.41,14.16,0,.07,1.12.72,3.35,1.95,7.86,4.83,13.55,11.03,17.08,18.6.79,2.23,1.91,5.95,3.35,11.14,1.01,2.59,2.59,4.97,4.76,7.14v.22c-1.66,0-3.68,4.07-6.05,12.22-2.52,8.65-6.85,15.32-12.98,20-3.1,2.23-6.63,4.22-10.6,5.95-8.07,2.96-15.75,4.43-23.03,4.43h-2.7c-18.38,0-32.4-6.38-42.06-19.14-2.09-3.1-3.39-5.48-3.89-7.14-.07-1.73-1.05-4.97-2.92-9.73-.79-1.8-2.24-3.85-4.33-6.16-.15,0-.4-.25-.76-.76,2.23-1.95,3.75-3.93,4.54-5.95,1.66-3.75,2.49-6.41,2.49-8,.65-2.52,2.2-5.77,4.65-9.73,1.3-2.02,3.6-4.61,6.92-7.79,3.53-2.88,6.67-5.08,9.41-6.6.07,0,.43-.18,1.08-.54v-.11c-3.17-1.51-6.42-3.5-9.73-5.95-4.4-3.89-6.96-6.7-7.68-8.43-1.87-2.88-2.81-5.37-2.81-7.46-.43-2.02-1.12-4.07-2.05-6.16-1.73-3.17-3.53-5.08-5.41-5.73v-.11c2.16-1.37,3.78-3.17,4.87-5.41,1.3-1.95,2.59-5.51,3.89-10.71.72-2.74,3.21-6.56,7.46-11.46,4.4-4.25,8.18-7.17,11.35-8.76,7.93-4.61,16.25-6.92,24.98-6.92ZM697.31,765.44v21.95c.14,8.72,2.52,14.13,7.14,16.22,2.16.79,4.22,1.19,6.16,1.19h1.95c3.82,0,6.85-1.01,9.08-3.03,2.67-2.96,4-8.54,4-16.76v-17.08c0-10.31-1.91-16.51-5.73-18.6-2.16-1.3-4.72-1.95-7.68-1.95h-.97c-6.56,0-10.53,2.23-11.89,6.7-1.37,3.24-2.05,7.03-2.05,11.35ZM697.31,835.17v22.27c.22,9.08,2.7,14.64,7.46,16.65,1.87.79,4.18,1.19,6.92,1.19,6.41,0,10.38-2.12,11.89-6.38,1.37-3.24,2.05-7.93,2.05-14.06v-17.41c0-10.38-2.05-16.58-6.16-18.6-2.16-1.15-4.79-1.73-7.89-1.73-6.34,0-10.38,2.13-12.11,6.38-1.44,3.24-2.16,7.14-2.16,11.68Z"/>
  <path class="cls-7" d="M864.22,731.81h2.27c6.7,0,14.99,2.63,24.87,7.89,4.68-2.67,8.51-4,11.46-4h1.95c3.75,0,5.62.29,5.62.86v.11c-5.34,4.97-8,9.88-8,14.71l.32,8.97c0,10.02-4.43,17.48-13.3,22.38-1.37,0-2.77-.9-4.22-2.7l-.32-1.08c2.16-5.48,3.24-10.27,3.24-14.38,0-7.5-3.57-12.72-10.71-15.68-3.75-1.37-6.45-2.05-8.11-2.05-1.51-.22-3.39-.4-5.62-.54-.07.07-.22.11-.43.11h-.22c-4.98,0-8.83,2.59-11.57,7.78-.94,2.31-1.41,4.58-1.41,6.81v37.52h.11c5.69-.94,11.06-1.41,16.11-1.41,16.29,0,29.37,5.16,39.25,15.46,1.95,2.24,3.46,4.32,4.54,6.27,2.02,4.11,3.03,6.85,3.03,8.22,1.08,4.47,2.23,7.53,3.46,9.19,1.59,2.16,3.03,3.53,4.33,4.11l.11.22c-3.32,2.81-5.88,7.42-7.68,13.84-1.01,3.46-2.16,6.49-3.46,9.08-1.51,2.88-3.5,5.95-5.95,9.19-10.24,11.61-22.6,17.41-37.09,17.41h-2.27c-9.8,0-18.74-3.06-26.82-9.19-4.11-3.6-6.99-6.63-8.65-9.08-2.67-3.75-4.69-7.1-6.05-10.05-1.59-3.53-3.1-7.71-4.54-12.54-2.09-9.3-3.14-15.25-3.14-17.84-.36-2.59-.76-6.85-1.19-12.76-.79-4.68-1.95-8.22-3.46-10.6-.58-1.01-1.91-2.49-4-4.43,3.46-1.87,5.91-4.76,7.35-8.65.86-2.52,2.05-7.96,3.57-16.33,3.46-13.91,8.94-24.9,16.44-32.98,8.51-9.23,18.56-13.84,30.17-13.84ZM850.05,827.82v27.9c0,9.37,2.74,15.32,8.22,17.84,1.8.79,3.79,1.19,5.95,1.19h.32c9.59,0,14.38-6.74,14.38-20.22v-25.41c0-9.59-2.59-15.68-7.78-18.27-2.23-.86-4.25-1.3-6.05-1.3h-1.41c-5.19,0-8.98,2.31-11.35,6.92-1.51,3.1-2.27,6.89-2.27,11.35Z"/>
  <g>
    <path class="cls-7" d="M704.56,245.24l-4.31.87c-.65-3.05-1.37-5.56-2.17-7.54-.79-1.97-1.69-3.51-2.68-4.6-.99-1.1-2.1-1.8-3.33-2.1-1.23-.31-2.63-.34-4.19-.1l-6.23.95,5.87,38.68c.32,2.12,2.55,2.86,6.69,2.23l.6,3.93-22.9,3.47-.6-3.93c4.09-.62,5.98-1.99,5.66-4.11l-5.87-38.68-6.27.95c-1.56.24-2.88.68-3.96,1.34-1.08.66-1.92,1.66-2.54,3-.62,1.34-1.01,3.07-1.19,5.19-.17,2.12-.12,4.73.17,7.84l-4.38.45-3.19-21.03,51.65-7.84,3.19,21.03Z"/>
    <path class="cls-7" d="M832.69,222.87c-4.19-.03-6.29,1.03-6.3,3.17l-.25,37.3c-.01,2.14,2.07,3.23,6.25,3.26l-.03,3.98-23.5-.16.03-3.98c4.37.03,6.56-1.03,6.58-3.17l.12-17.43-23.64-.16-.12,17.43c-.01,2.15,2.16,3.23,6.53,3.26l-.03,3.98-23.44-.16.03-3.98c4.14.03,6.21-1.03,6.23-3.17l.25-37.3c.02-2.14-2.05-3.23-6.18-3.26l.03-4.12,23.44.16-.03,4.11c-4.37-.03-6.56,1.03-6.58,3.16l-.1,14.79,23.64.16.1-14.79c.01-2.14-2.17-3.22-6.54-3.25l.03-4.12,23.5.16-.03,4.12Z"/>
    <path class="cls-7" d="M949.56,247.21l-4.87-.47c.52-7.02-1.89-10.95-7.22-11.77l-15.44-2.38-2.57,16.68,7.86,1.21c2.76.43,4.77-2.11,6.04-7.61l4.34.67-4.35,21.35-4.2-.65c.42-5.77-.59-8.84-3.03-9.22l-7.38-1.14-2.95,19.16,12.96,2c7.72,1.19,12.75-3.07,15.09-12.78l4.89,1.25-4.68,19.39-45.77-7.05.61-3.93c4.09.63,6.3-.11,6.63-2.23l5.68-36.87c.33-2.12-1.56-3.49-5.65-4.12l.63-4.07,45.77,7.05-2.39,15.51Z"/>
  </g>
  <g>
    <g>
      <path class="cls-8" d="M545.53,394.63c-1.6,0-3.13-.91-3.85-2.46-.98-2.12-.05-4.64,2.08-5.61,81.53-37.47,168.72-56.47,259.15-56.47,2.34,0,4.23,1.89,4.23,4.23s-1.9,4.23-4.23,4.23c-89.21,0-175.21,18.74-255.62,55.69-.57.26-1.17.39-1.76.39Z"/>
      <path class="cls-8" d="M241.47,338.55c-1.15,0-2.3-.47-3.13-1.38-1.57-1.73-1.45-4.4.28-5.98,154.62-140.77,355.03-218.3,564.3-218.3,2.34,0,4.23,1.89,4.23,4.23s-1.9,4.23-4.23,4.23c-207.16,0-405.54,76.75-558.6,216.09-.81.74-1.83,1.1-2.85,1.1Z"/>
      <path class="cls-8" d="M216.14,346.66c-15,0-29.79-6.99-39.14-20.12-12.56-17.61-8.44-42.16,9.18-54.72,14.47-10.32,34.64-6.93,44.96,7.54,8.52,11.95,5.73,28.62-6.23,37.14-1.9,1.35-4.55.91-5.9-.99-1.36-1.9-.91-4.54.99-5.9,8.16-5.82,10.06-17.18,4.25-25.34-7.61-10.67-22.48-13.16-33.15-5.56-13.82,9.85-17.04,29.1-7.2,42.91,12.65,17.74,37.37,21.89,55.12,9.24,1.91-1.36,4.54-.91,5.9.99,1.36,1.9.91,4.55-.99,5.9-8.43,6.01-18.15,8.89-27.79,8.89Z"/>
    </g>
    <g>
      <path class="cls-8" d="M1060.3,394.63c-.59,0-1.19-.12-1.76-.39-80.41-36.95-166.41-55.69-255.62-55.69-2.34,0-4.23-1.89-4.23-4.23s1.89-4.23,4.23-4.23c90.44,0,177.63,19,259.15,56.47,2.12.98,3.05,3.49,2.08,5.61-.71,1.55-2.25,2.46-3.85,2.46Z"/>
      <path class="cls-8" d="M1364.36,338.55c-1.02,0-2.04-.36-2.85-1.1-153.06-139.35-351.44-216.09-558.59-216.09-2.34,0-4.23-1.89-4.23-4.23s1.89-4.23,4.23-4.23c209.27,0,409.67,77.53,564.29,218.3,1.73,1.57,1.85,4.25.28,5.98-.83.92-1.98,1.38-3.13,1.38Z"/>
      <path class="cls-8" d="M1389.65,346.69c-9.9,0-19.53-3.06-27.75-8.92-1.9-1.36-2.35-4-.99-5.9,1.36-1.91,3.99-2.35,5.9-.99,8.6,6.13,19.08,8.55,29.47,6.79,10.41-1.75,19.52-7.44,25.64-16.04,9.85-13.82,6.62-33.07-7.2-42.91-10.68-7.61-25.54-5.11-33.15,5.56-5.81,8.16-3.91,19.53,4.25,25.34,1.9,1.36,2.35,4,.99,5.9-1.36,1.91-4,2.34-5.9.99-11.96-8.53-14.75-25.19-6.23-37.14,10.32-14.47,30.49-17.86,44.96-7.54,17.62,12.56,21.73,37.11,9.18,54.72-7.44,10.44-18.5,17.36-31.14,19.48-2.68.45-5.37.67-8.04.67Z"/>
    </g>
  </g>
  <g>
    <path class="cls-8" d="M115.63,373.73c-12.91,0-25.53-6.49-32.79-18.27-13.59-22.08-6.86-50.45,15.32-64.6,11.15-7.1,24.01-9.27,37.2-6.24,22.12,5.08,39.65,22.57,48.68,37.24,1.23,1.99.61,4.6-1.38,5.82-2,1.22-4.6.6-5.82-1.38-10.22-16.61-27.24-29.73-43.37-33.43-11.07-2.55-21.43-.82-30.76,5.13-18.24,11.63-23.81,34.92-12.66,53.02,8.67,14.07,27.16,18.46,41.22,9.81,5.26-3.24,8.94-8.33,10.37-14.34,1.43-6.01.44-12.21-2.8-17.47-1.23-1.99-.61-4.6,1.38-5.82,1.99-1.23,4.59-.61,5.82,1.38,4.42,7.18,5.78,15.66,3.83,23.87-1.95,8.21-6.99,15.16-14.17,19.59-6.26,3.86-13.21,5.69-20.08,5.69Z"/>
    <path class="cls-8" d="M1490.2,373.73c-6.87,0-13.82-1.84-20.08-5.69-7.18-4.42-12.22-11.38-14.17-19.59-1.95-8.21-.59-16.69,3.83-23.87,1.23-1.99,3.83-2.61,5.82-1.38,1.99,1.23,2.61,3.83,1.38,5.82-3.24,5.26-4.23,11.46-2.8,17.47,1.43,6.01,5.11,11.1,10.37,14.34,14.07,8.65,32.56,4.26,41.22-9.81,11.14-18.1,5.58-41.39-12.66-53.02-9.33-5.94-19.68-7.67-30.76-5.12-16.12,3.7-33.15,16.83-43.37,33.43-1.23,1.99-3.83,2.61-5.82,1.38-1.99-1.22-2.61-3.83-1.38-5.82,9.03-14.67,26.57-32.16,48.68-37.24,13.17-3.03,26.05-.87,37.2,6.24,22.18,14.14,28.91,42.51,15.32,64.6-7.25,11.78-19.88,18.27-32.79,18.27Z"/>
  </g>
  <g>
    <path class="cls-7" d="M1337.5,264.99l-7.12-3.88c-4.34-2.37-42.59-23.44-49.68-34.04-8.01-11.96-4.79-28.21,7.17-36.21,11.96-8.01,28.2-4.79,36.21,7.17h0c7.09,10.59,12,53.99,12.54,58.9l.88,8.06ZM1285.75,206.75c-1.75,5.05-1.2,10.84,1.99,15.61,3.84,5.73,23.95,18.39,39.49,27.27-2.3-17.75-6.33-41.17-10.17-46.9-5.41-8.08-16.39-10.25-24.47-4.84-3.31,2.21-5.62,5.36-6.84,8.86Z"/>
    <path class="cls-7" d="M269.21,256.93c.54-4.91,5.45-48.31,12.54-58.9h0c8.01-11.96,24.25-15.17,36.21-7.17,11.96,8,15.18,24.25,7.17,36.21-7.09,10.59-45.34,31.67-49.68,34.04l-7.12,3.88.88-8.06ZM313.25,197.9c-8.08-5.41-19.06-3.24-24.47,4.84-3.84,5.73-7.88,29.15-10.17,46.9,15.54-8.88,35.64-21.54,39.49-27.27,3.2-4.77,3.74-10.56,1.99-15.61-1.21-3.5-3.53-6.65-6.84-8.86Z"/>
  </g>
  <g>
    <path class="cls-8" d="M1284.76,316.88c-.9,0-1.81-.29-2.58-.88-138.48-106.38-304.21-162.6-479.27-162.6s-340.8,56.23-479.27,162.6c-1.85,1.43-4.51,1.07-5.94-.78-1.42-1.86-1.08-4.51.78-5.94,139.97-107.52,307.48-164.36,484.43-164.36s344.46,56.83,484.43,164.36c1.85,1.42,2.2,4.08.78,5.94-.83,1.08-2.09,1.65-3.36,1.65Z"/>
    <path class="cls-8" d="M627.01,394.63c-1.79,0-3.46-1.14-4.03-2.95-.71-2.22.52-4.6,2.74-5.32,57.09-18.23,116.7-27.47,177.2-27.47s120.11,9.24,177.19,27.47c2.23.71,3.46,3.09,2.74,5.32-.71,2.23-3.1,3.47-5.32,2.74-56.25-17.96-115-27.07-174.62-27.07s-118.37,9.11-174.62,27.07c-.43.14-.86.2-1.29.2Z"/>
  </g>
  <g>
    <path class="cls-8" d="M801.41,98.27c-3.1-.83-4.95-4.02-4.12-7.13.83-3.1,4.02-4.95,7.13-4.11,3.1.83,4.95,4.02,4.12,7.13-.83,3.1-4.02,4.95-7.13,4.11Z"/>
    <g>
      <path class="cls-8" d="M757.31,99.5c-3.14-.67-5.15-3.76-4.48-6.9.67-3.14,3.76-5.15,6.9-4.48,3.14.67,5.15,3.76,4.48,6.9-.67,3.14-3.76,5.15-6.9,4.48Z"/>
      <path class="cls-8" d="M713.35,103.04c-3.17-.5-5.34-3.48-4.84-6.66.5-3.17,3.48-5.34,6.66-4.84,3.17.5,5.34,3.48,4.84,6.66-.5,3.17-3.48,5.34-6.66,4.84Z"/>
      <path class="cls-8" d="M669.62,108.88c-3.2-.34-5.52-3.2-5.18-6.4s3.2-5.52,6.4-5.18c3.2.34,5.52,3.2,5.18,6.4-.34,3.2-3.2,5.52-6.4,5.18Z"/>
      <path class="cls-8" d="M626.26,117c-3.21-.17-5.68-2.91-5.51-6.12.17-3.21,2.91-5.68,6.12-5.51,3.21.17,5.68,2.91,5.51,6.12-.17,3.21-2.91,5.68-6.12,5.51Z"/>
      <circle class="cls-8" cx="583.39" cy="121.55" r="5.82"/>
      <path class="cls-8" d="M541.11,139.97c-3.21.17-5.95-2.3-6.12-5.51-.17-3.21,2.3-5.95,5.51-6.12,3.21-.17,5.95,2.3,6.12,5.51.17,3.21-2.3,5.95-5.51,6.12Z"/>
      <path class="cls-8" d="M499.56,154.77c-3.2.34-6.06-1.98-6.4-5.18-.34-3.2,1.98-6.06,5.18-6.4,3.2-.34,6.06,1.98,6.4,5.18.34,3.2-1.98,6.06-5.18,6.4Z"/>
      <path class="cls-8" d="M458.83,171.73c-3.17.5-6.16-1.66-6.66-4.84-.5-3.17,1.66-6.16,4.84-6.66,3.17-.5,6.16,1.66,6.66,4.84.5,3.17-1.66,6.16-4.84,6.66Z"/>
      <path class="cls-8" d="M419.05,190.79c-3.14.67-6.23-1.34-6.9-4.48-.67-3.14,1.34-6.23,4.48-6.9s6.23,1.34,6.9,4.48c.67,3.14-1.34,6.23-4.48,6.9Z"/>
      <path class="cls-8" d="M380.32,211.91c-3.1.83-6.3-1.01-7.13-4.12-.83-3.1,1.01-6.3,4.11-7.13,3.1-.83,6.3,1.01,7.13,4.11.83,3.1-1.01,6.3-4.12,7.13Z"/>
    </g>
    <g>
      <path class="cls-8" d="M848.52,99.5c3.14-.67,5.15-3.76,4.48-6.9-.67-3.14-3.76-5.15-6.9-4.48s-5.15,3.76-4.48,6.9c.67,3.14,3.76,5.15,6.9,4.48Z"/>
      <path class="cls-8" d="M892.49,103.04c3.17-.5,5.34-3.48,4.84-6.66-.5-3.17-3.48-5.34-6.66-4.84-3.17.5-5.34,3.48-4.84,6.66.5,3.17,3.48,5.34,6.66,4.84Z"/>
      <path class="cls-8" d="M936.21,108.88c3.2-.34,5.52-3.2,5.18-6.4-.34-3.2-3.2-5.52-6.4-5.18-3.2.34-5.52,3.2-5.18,6.4.34,3.2,3.2,5.52,6.4,5.18Z"/>
      <path class="cls-8" d="M979.57,117c3.21-.17,5.68-2.91,5.51-6.12-.17-3.21-2.91-5.68-6.12-5.51-3.21.17-5.68,2.91-5.51,6.12.17,3.21,2.91,5.68,6.12,5.51Z"/>
      <circle class="cls-8" cx="1022.44" cy="121.55" r="5.82"/>
      <path class="cls-8" d="M1064.72,139.97c3.21.17,5.95-2.3,6.12-5.51.17-3.21-2.3-5.95-5.51-6.12-3.21-.17-5.95,2.3-6.12,5.51-.17,3.21,2.3,5.95,5.51,6.12Z"/>
      <path class="cls-8" d="M1106.27,154.77c3.2.34,6.06-1.98,6.4-5.18.34-3.2-1.98-6.06-5.18-6.4-3.2-.34-6.06,1.98-6.4,5.18-.34,3.2,1.98,6.06,5.18,6.4Z"/>
      <path class="cls-8" d="M1147,171.73c3.17.5,6.16-1.66,6.66-4.84.5-3.17-1.66-6.16-4.84-6.66-3.17-.5-6.16,1.66-6.66,4.84-.5,3.17,1.66,6.16,4.84,6.66Z"/>
      <path class="cls-8" d="M1186.78,190.79c3.14.67,6.23-1.34,6.9-4.48.67-3.14-1.34-6.23-4.48-6.9-3.14-.67-6.23,1.34-6.9,4.48-.67,3.14,1.34,6.23,4.48,6.9Z"/>
      <path class="cls-8" d="M1225.51,211.91c3.1.83,6.3-1.01,7.13-4.12.83-3.1-1.01-6.3-4.12-7.13-3.1-.83-6.3,1.01-7.13,4.11-.83,3.1,1.01,6.3,4.11,7.13Z"/>
    </g>
  </g>
  <g>
    <path class="cls-8" d="M123.87,819.39c-9.09,0-17.82-2.55-25.7-7.57-22.18-14.14-28.92-42.51-15.32-64.59,5.38-8.74,13.84-14.86,23.83-17.24,9.98-2.38,20.3-.72,29.04,4.66,14.83,9.13,19.47,28.62,10.34,43.46-1.23,1.99-3.83,2.61-5.82,1.38-1.99-1.22-2.61-3.83-1.39-5.82,6.68-10.86,3.29-25.13-7.57-31.81-6.82-4.2-14.86-5.49-22.64-3.63-7.79,1.85-14.38,6.63-18.58,13.44-11.14,18.1-5.58,41.39,12.66,53.01,9.33,5.95,19.67,7.68,30.76,5.13,16.12-3.7,33.15-16.83,43.37-33.43,1.22-1.99,3.83-2.62,5.82-1.38,1.99,1.22,2.61,3.83,1.39,5.82-9.03,14.67-26.56,32.16-48.68,37.24-3.87.89-7.72,1.33-11.51,1.33Z"/>
    <path class="cls-8" d="M1481.97,819.39c-3.79,0-7.63-.44-11.51-1.33-22.12-5.08-39.65-22.57-48.68-37.24-1.23-1.99-.61-4.6,1.38-5.82,1.99-1.23,4.6-.61,5.82,1.38,10.22,16.61,27.24,29.73,43.37,33.43,11.07,2.55,21.43.82,30.76-5.13,18.24-11.62,23.8-34.91,12.66-53.01-4.2-6.82-10.79-11.59-18.58-13.44-7.78-1.86-15.83-.57-22.64,3.63-10.86,6.68-14.25,20.95-7.57,31.81,1.23,1.99.61,4.6-1.39,5.82-1.99,1.22-4.6.6-5.82-1.38-9.13-14.83-4.49-34.33,10.34-43.46,8.74-5.38,19.05-7.03,29.04-4.66,9.99,2.38,18.45,8.5,23.83,17.24,13.59,22.08,6.86,50.45-15.32,64.59-7.88,5.02-16.61,7.57-25.7,7.57Z"/>
  </g>
  <g>
    <path class="cls-7" d="M1336.62,845.75c-.54,4.91-5.45,48.31-12.54,58.9h0c-8.01,11.96-24.25,15.17-36.21,7.17-11.96-8-15.18-24.25-7.17-36.21,7.09-10.59,45.34-31.67,49.68-34.03l7.12-3.88-.88,8.06ZM1292.58,904.79c8.08,5.41,19.06,3.24,24.47-4.84,3.84-5.73,7.88-29.15,10.17-46.9-15.54,8.88-35.64,21.54-39.49,27.27-3.2,4.77-3.74,10.56-1.99,15.61,1.21,3.5,3.53,6.65,6.84,8.86Z"/>
    <path class="cls-7" d="M268.33,837.69l7.12,3.88c4.34,2.37,42.59,23.44,49.68,34.03,8.01,11.96,4.79,28.21-7.17,36.21-11.96,8.01-28.2,4.79-36.21-7.17h0c-7.09-10.59-12-53.99-12.54-58.9l-.88-8.06ZM320.08,895.93c1.75-5.05,1.2-10.83-1.99-15.61-3.84-5.73-23.95-18.39-39.49-27.27,2.3,17.75,6.33,41.17,10.17,46.9,5.41,8.08,16.39,10.25,24.47,4.84,3.31-2.21,5.62-5.36,6.84-8.86Z"/>
  </g>
  <path class="cls-8" d="M802.92,957.74c-176.95,0-344.47-56.84-484.43-164.36-1.85-1.42-2.2-4.08-.78-5.94,1.42-1.86,4.08-2.2,5.94-.78,138.47,106.38,304.2,162.6,479.27,162.6s340.8-56.23,479.27-162.6c1.85-1.43,4.51-1.07,5.94.78,1.42,1.86,1.08,4.51-.78,5.94-139.96,107.52-307.48,164.36-484.43,164.36Z"/>
  <g>
    <path class="cls-8" d="M801.41,1004.41c-3.1.83-4.95,4.02-4.12,7.13.83,3.1,4.02,4.95,7.13,4.12,3.1-.83,4.95-4.02,4.12-7.13-.83-3.1-4.02-4.95-7.13-4.12Z"/>
    <g>
      <path class="cls-8" d="M757.31,1003.18c-3.14.67-5.15,3.76-4.48,6.9.67,3.14,3.76,5.15,6.9,4.48,3.14-.67,5.15-3.76,4.48-6.9-.67-3.14-3.76-5.15-6.9-4.48Z"/>
      <path class="cls-8" d="M713.35,999.64c-3.17.5-5.34,3.48-4.84,6.66.5,3.17,3.48,5.34,6.66,4.84,3.17-.5,5.34-3.48,4.84-6.66-.5-3.17-3.48-5.34-6.66-4.84Z"/>
      <path class="cls-8" d="M669.62,993.8c-3.2.34-5.52,3.2-5.18,6.4.34,3.2,3.2,5.52,6.4,5.18,3.2-.34,5.52-3.2,5.18-6.4-.34-3.2-3.2-5.52-6.4-5.18Z"/>
      <path class="cls-8" d="M626.26,985.69c-3.21.17-5.68,2.91-5.51,6.12.17,3.21,2.91,5.68,6.12,5.51,3.21-.17,5.68-2.91,5.51-6.12-.17-3.21-2.91-5.68-6.12-5.51Z"/>
      <circle class="cls-8" cx="583.39" cy="981.13" r="5.82"/>
      <path class="cls-8" d="M541.11,962.71c-3.21-.17-5.95,2.3-6.12,5.51-.17,3.21,2.3,5.95,5.51,6.12,3.21.17,5.95-2.3,6.12-5.51.17-3.21-2.3-5.95-5.51-6.12Z"/>
      <path class="cls-8" d="M499.56,947.91c-3.2-.34-6.06,1.98-6.4,5.18-.34,3.2,1.98,6.06,5.18,6.4,3.2.34,6.06-1.98,6.4-5.18.34-3.2-1.98-6.06-5.18-6.4Z"/>
      <path class="cls-8" d="M458.83,930.96c-3.17-.5-6.16,1.66-6.66,4.84-.5,3.17,1.66,6.16,4.84,6.66,3.17.5,6.16-1.66,6.66-4.84.5-3.17-1.66-6.16-4.84-6.66Z"/>
      <path class="cls-8" d="M419.05,911.89c-3.14-.67-6.23,1.34-6.9,4.48-.67,3.14,1.34,6.23,4.48,6.9s6.23-1.34,6.9-4.48c.67-3.14-1.34-6.23-4.48-6.9Z"/>
      <path class="cls-8" d="M380.32,890.78c-3.1-.83-6.3,1.01-7.13,4.12-.83,3.1,1.01,6.3,4.11,7.13,3.1.83,6.3-1.01,7.13-4.12.83-3.1-1.01-6.3-4.12-7.13Z"/>
    </g>
    <g>
      <path class="cls-8" d="M848.52,1003.18c3.14.67,5.15,3.76,4.48,6.9-.67,3.14-3.76,5.15-6.9,4.48-3.14-.67-5.15-3.76-4.48-6.9.67-3.14,3.76-5.15,6.9-4.48Z"/>
      <path class="cls-8" d="M892.49,999.64c3.17.5,5.34,3.48,4.84,6.66-.5,3.17-3.48,5.34-6.66,4.84-3.17-.5-5.34-3.48-4.84-6.66.5-3.17,3.48-5.34,6.66-4.84Z"/>
      <path class="cls-8" d="M936.21,993.8c3.2.34,5.52,3.2,5.18,6.4-.34,3.2-3.2,5.52-6.4,5.18-3.2-.34-5.52-3.2-5.18-6.4.34-3.2,3.2-5.52,6.4-5.18Z"/>
      <path class="cls-8" d="M979.57,985.69c3.21.17,5.68,2.91,5.51,6.12-.17,3.21-2.91,5.68-6.12,5.51-3.21-.17-5.68-2.91-5.51-6.12.17-3.21,2.91-5.68,6.12-5.51Z"/>
      <circle class="cls-8" cx="1022.44" cy="981.13" r="5.82"/>
      <path class="cls-8" d="M1064.72,962.71c3.21-.17,5.95,2.3,6.12,5.51.17,3.21-2.3,5.95-5.51,6.12-3.21.17-5.95-2.3-6.12-5.51-.17-3.21,2.3-5.95,5.51-6.12Z"/>
      <path class="cls-8" d="M1106.27,947.91c3.2-.34,6.06,1.98,6.4,5.18.34,3.2-1.98,6.06-5.18,6.4-3.2.34-6.06-1.98-6.4-5.18-.34-3.2,1.98-6.06,5.18-6.4Z"/>
      <path class="cls-8" d="M1147,930.96c3.17-.5,6.16,1.66,6.66,4.84.5,3.17-1.66,6.16-4.84,6.66-3.17.5-6.16-1.66-6.66-4.84-.5-3.17,1.66-6.16,4.84-6.66Z"/>
      <path class="cls-8" d="M1186.78,911.89c3.14-.67,6.23,1.34,6.9,4.48.67,3.14-1.34,6.23-4.48,6.9-3.14.67-6.23-1.34-6.9-4.48-.67-3.14,1.34-6.23,4.48-6.9Z"/>
      <path class="cls-8" d="M1225.51,890.78c3.1-.83,6.3,1.01,7.13,4.12.83,3.1-1.01,6.3-4.12,7.13-3.1.83-6.3-1.01-7.13-4.12-.83-3.1,1.01-6.3,4.11-7.13Z"/>
    </g>
  </g>
  <path class="cls-8" d="M802.92,989.79c-209.27,0-409.67-77.53-564.3-218.29-1.73-1.57-1.85-4.25-.28-5.98,1.57-1.73,4.24-1.86,5.98-.28,153.06,139.35,351.44,216.09,558.6,216.09,2.34,0,4.23,1.89,4.23,4.23s-1.9,4.23-4.23,4.23Z"/>
  <path class="cls-8" d="M204.82,836.85c-6.65,0-13.12-2.05-18.64-5.99-8.53-6.08-14.19-15.12-15.92-25.46-1.73-10.33.66-20.72,6.75-29.26,15.36-21.54,45.38-26.58,66.92-11.22,1.9,1.36,2.35,4,.99,5.9-1.36,1.91-4,2.34-5.9.99-17.74-12.66-42.47-8.5-55.12,9.24-4.77,6.7-6.65,14.85-5.29,22.95,1.36,8.1,5.79,15.19,12.49,19.96,5.17,3.69,11.46,5.14,17.73,4.09,6.26-1.05,11.74-4.47,15.42-9.64,2.82-3.95,3.93-8.77,3.12-13.55-.8-4.79-3.42-8.97-7.37-11.79-1.9-1.36-2.35-4-.99-5.9,1.36-1.91,3.99-2.35,5.9-.99,5.79,4.13,9.63,10.27,10.81,17.28,1.18,7.01-.45,14.07-4.58,19.86-5,7.01-12.43,11.66-20.92,13.08-1.8.3-3.61.45-5.4.45Z"/>
  <path class="cls-8" d="M802.92,989.79c-2.34,0-4.23-1.89-4.23-4.23s1.89-4.23,4.23-4.23c207.16,0,405.54-76.74,558.59-216.09,1.73-1.57,4.41-1.45,5.98.28,1.57,1.73,1.45,4.4-.28,5.98-154.62,140.77-355.03,218.29-564.29,218.29Z"/>
  <path class="cls-8" d="M1401.01,836.85c-1.79,0-3.59-.15-5.4-.45-8.49-1.42-15.92-6.07-20.92-13.08-4.13-5.79-5.75-12.85-4.58-19.86,1.18-7.02,5.01-13.16,10.81-17.28,1.91-1.36,4.55-.91,5.9.99,1.36,1.9.91,4.55-.99,5.9-3.95,2.81-6.57,7-7.37,11.79-.8,4.79.31,9.6,3.12,13.55,3.68,5.17,9.16,8.59,15.42,9.64,6.26,1.06,12.55-.4,17.73-4.09,6.69-4.77,11.13-11.86,12.49-19.96,1.36-8.11-.52-16.26-5.29-22.95-12.65-17.74-37.38-21.88-55.12-9.24-1.91,1.36-4.55.91-5.9-.99-1.36-1.9-.91-4.55.99-5.9,21.55-15.35,51.57-10.32,66.92,11.22,6.08,8.54,8.48,18.93,6.75,29.26-1.73,10.34-7.39,19.38-15.92,25.46-5.52,3.93-11.99,5.99-18.64,5.99Z"/>
  <path class="cls-8" d="M1478.51,690.82l-.77-1.04v.55H128.09v-.55l-.77,1.04c-.98-.72-1.95-1.45-2.92-2.19l-9-6.76h.76c-36.55-32.01-58.01-79.1-58.01-128.63,0-54.38,25.85-105.81,69.16-137.58l1.12-.82h1348.97l1.12.82c43.3,31.77,69.16,83.2,69.16,137.58,0,49.53-21.45,96.62-58.01,128.63h.76l-9,6.76c-.96.74-1.93,1.47-2.92,2.19ZM129.5,681.88h1346.83c39.43-30.32,62.87-78.13,62.87-128.63s-24.12-99.69-64.59-129.93H131.22c-40.47,30.24-64.59,78.71-64.59,129.93s23.44,98.31,62.87,128.63Z"/>
  <g>
    <path class="cls-8" d="M185.11,539.97c-1.25,0-2.48.07-3.7.2.13-1.21.2-2.45.2-3.7,0-10.78-5.03-20.38-12.87-26.59-7.84,6.21-12.87,15.81-12.87,26.59,0,1.25.07,2.48.2,3.7-1.21-.13-2.45-.2-3.7-.2-10.78,0-20.38,5.03-26.59,12.87,6.21,7.84,15.81,12.87,26.59,12.87,1.25,0,2.48-.07,3.7-.2-.13,1.21-.2,2.45-.2,3.7,0,10.78,5.03,20.38,12.87,26.59,7.84-6.21,12.87-15.81,12.87-26.59,0-1.25-.07-2.48-.2-3.7,1.21.13,2.45.2,3.7.2,10.78,0,20.38-5.03,26.59-12.87-6.21-7.84-15.81-12.87-26.59-12.87ZM180.52,560.16c-.93,0-1.84-.07-2.73-.2-.56.71-1.2,1.35-1.91,1.91.13.89.2,1.8.2,2.73,0,6.13-2.86,11.6-7.33,15.13-4.46-3.53-7.33-9-7.33-15.13,0-.93.07-1.84.2-2.73-.71-.56-1.35-1.2-1.91-1.91-.89.13-1.8.2-2.73.2-6.13,0-11.6-2.86-15.13-7.33,3.53-4.46,9-7.33,15.13-7.33.93,0,1.84.07,2.73.2.56-.71,1.2-1.35,1.91-1.91-.13-.89-.2-1.8-.2-2.73,0-6.13,2.86-11.6,7.33-15.13,4.46,3.53,7.33,9,7.33,15.13,0,.93-.07,1.84-.2,2.73.71.56,1.35,1.2,1.91,1.91.89-.13,1.8-.2,2.73-.2,6.13,0,11.6,2.86,15.13,7.33-3.53,4.46-9,7.33-15.13,7.33Z"/>
    <path class="cls-8" d="M1453.45,539.97c-1.25,0-2.48.07-3.7.2.13-1.21.2-2.45.2-3.7,0-10.78-5.03-20.38-12.87-26.59-7.84,6.21-12.87,15.81-12.87,26.59,0,1.25.07,2.48.2,3.7-1.21-.13-2.45-.2-3.7-.2-10.78,0-20.38,5.03-26.59,12.87,6.21,7.84,15.81,12.87,26.59,12.87,1.25,0,2.48-.07,3.7-.2-.13,1.21-.2,2.45-.2,3.7,0,10.78,5.03,20.38,12.87,26.59,7.84-6.21,12.87-15.81,12.87-26.59,0-1.25-.07-2.48-.2-3.7,1.21.13,2.45.2,3.7.2,10.78,0,20.38-5.03,26.59-12.87-6.21-7.84-15.81-12.87-26.59-12.87ZM1448.86,560.16c-.93,0-1.84-.07-2.73-.2-.56.71-1.2,1.35-1.91,1.91.13.89.2,1.8.2,2.73,0,6.13-2.86,11.6-7.33,15.13-4.46-3.53-7.33-9-7.33-15.13,0-.93.07-1.84.2-2.73-.71-.56-1.35-1.2-1.91-1.91-.89.13-1.8.2-2.73.2-6.13,0-11.6-2.86-15.13-7.33,3.53-4.46,9-7.33,15.13-7.33.93,0,1.84.07,2.73.2.56-.71,1.2-1.35,1.91-1.91-.13-.89-.2-1.8-.2-2.73,0-6.13,2.86-11.6,7.33-15.13,4.46,3.53,7.33,9,7.33,15.13,0,.93-.07,1.84-.2,2.73.71.56,1.35,1.2,1.91,1.91.89-.13,1.8-.2,2.73-.2,6.13,0,11.6,2.86,15.13,7.33-3.53,4.46-9,7.33-15.13,7.33Z"/>
  </g>
  <g>
    <path class="cls-8" d="M467.23,338.56c-2.47-8.96-9.52-16.01-18.48-18.48l-7-7-7,7c-8.96,2.47-16.01,9.52-18.48,18.48l-7,7,7,7c2.47,8.96,9.52,16.01,18.48,18.48l7.01,7,7.01-7c8.96-2.47,16.01-9.52,18.48-18.48l7-7-7-7ZM441.75,362.52c-9.37,0-16.96-7.59-16.96-16.96s7.59-16.96,16.96-16.96,16.96,7.59,16.96,16.96-7.59,16.96-16.96,16.96Z"/>
    <path class="cls-8" d="M1193.01,338.56c-2.47-8.96-9.52-16.01-18.48-18.48l-7-7-7,7c-8.96,2.47-16.01,9.52-18.48,18.48l-7,7,7,7c2.47,8.96,9.52,16.01,18.48,18.48l7.01,7,7.01-7c8.96-2.47,16.01-9.52,18.48-18.48l7-7-7-7ZM1167.52,362.52c-9.37,0-16.96-7.59-16.96-16.96s7.59-16.96,16.96-16.96,16.96,7.59,16.96,16.96-7.59,16.96-16.96,16.96Z"/>
  </g>
  <g>
    <path class="cls-8" d="M467.23,758.78c-2.47-8.96-9.52-16.01-18.48-18.48l-7-7-7,7c-8.96,2.47-16.01,9.52-18.48,18.48l-7,7,7,7c2.47,8.96,9.52,16.01,18.48,18.48l7.01,7,7.01-7c8.96-2.47,16.01-9.52,18.48-18.48l7-7-7-7ZM441.75,782.74c-9.37,0-16.96-7.59-16.96-16.96s7.59-16.96,16.96-16.96,16.96,7.59,16.96,16.96-7.59,16.96-16.96,16.96Z"/>
    <path class="cls-8" d="M1193.01,758.78c-2.47-8.96-9.52-16.01-18.48-18.48l-7-7-7,7c-8.96,2.47-16.01,9.52-18.48,18.48l-7,7,7,7c2.47,8.96,9.52,16.01,18.48,18.48l7.01,7,7.01-7c8.96-2.47,16.01-9.52,18.48-18.48l7-7-7-7ZM1167.52,782.74c-9.37,0-16.96-7.59-16.96-16.96s7.59-16.96,16.96-16.96,16.96,7.59,16.96,16.96-7.59,16.96-16.96,16.96Z"/>
  </g>
  <text class="cls-6" transform="translate(38.26 1192.58)"><tspan class="cls-1"><tspan x="120" y="0">Premium Heritage Homestay</tspan></tspan><tspan class="cls-2"><tspan x="253.23" y="127.07">Thalassery, North Kerala</tspan></tspan></text>
</svg>