<?xml version="1.0" encoding="UTF-8"?>
<svg id="Layer_1" data-name="Layer 1" xmlns="http://www.w3.org/2000/svg" version="1.1" viewBox="0 0 1591.77 1438.72">
  <defs>
    <style>
      .cls-1 {
        fill: #231f20;
      }

      .cls-1, .cls-2 {
        stroke-width: 0px;
      }

      .cls-2 {
        fill: #d0aa6c;
      }
    </style>
  </defs>
  <g>
    <g>
      <path class="cls-2" d="M545.53,394.63c-1.6,0-3.13-.91-3.85-2.46-.98-2.12-.05-4.64,2.08-5.61,81.53-37.47,168.72-56.47,259.15-56.47,2.34,0,4.23,1.89,4.23,4.23s-1.9,4.23-4.23,4.23c-89.21,0-175.21,18.74-255.62,55.69-.57.26-1.17.39-1.76.39Z"/>
      <path class="cls-2" d="M241.47,338.55c-1.15,0-2.3-.47-3.13-1.38-1.57-1.73-1.45-4.4.28-5.98,154.62-140.77,355.03-218.3,564.3-218.3,2.34,0,4.23,1.89,4.23,4.23s-1.9,4.23-4.23,4.23c-207.16,0-405.54,76.75-558.6,216.09-.81.74-1.83,1.1-2.85,1.1Z"/>
      <path class="cls-2" d="M216.14,346.66c-15,0-29.79-6.99-39.14-20.12-12.56-17.61-8.44-42.16,9.18-54.72,14.47-10.32,34.64-6.93,44.96,7.54,8.52,11.95,5.73,28.62-6.23,37.14-1.9,1.35-4.55.91-5.9-.99-1.36-1.9-.91-4.54.99-5.9,8.16-5.82,10.06-17.18,4.25-25.34-7.61-10.67-22.48-13.16-33.15-5.56-13.82,9.85-17.04,29.1-7.2,42.91,12.65,17.74,37.37,21.89,55.12,9.24,1.91-1.36,4.54-.91,5.9.99,1.36,1.9.91,4.55-.99,5.9-8.43,6.01-18.15,8.89-27.79,8.89Z"/>
    </g>
    <g>
      <path class="cls-2" d="M1060.3,394.63c-.59,0-1.19-.12-1.76-.39-80.41-36.95-166.41-55.69-255.62-55.69-2.34,0-4.23-1.89-4.23-4.23s1.89-4.23,4.23-4.23c90.44,0,177.63,19,259.15,56.47,2.12.98,3.05,3.49,2.08,5.61-.71,1.55-2.25,2.46-3.85,2.46Z"/>
      <path class="cls-2" d="M1364.36,338.55c-1.02,0-2.04-.36-2.85-1.1-153.06-139.35-351.44-216.09-558.59-216.09-2.34,0-4.23-1.89-4.23-4.23s1.89-4.23,4.23-4.23c209.27,0,409.67,77.53,564.29,218.3,1.73,1.57,1.85,4.25.28,5.98-.83.92-1.98,1.38-3.13,1.38Z"/>
      <path class="cls-2" d="M1389.65,346.69c-9.9,0-19.53-3.06-27.75-8.92-1.9-1.36-2.35-4-.99-5.9,1.36-1.91,3.99-2.35,5.9-.99,8.6,6.13,19.08,8.55,29.47,6.79,10.41-1.75,19.52-7.44,25.64-16.04,9.85-13.82,6.62-33.07-7.2-42.91-10.68-7.61-25.54-5.11-33.15,5.56-5.81,8.16-3.91,19.53,4.25,25.34,1.9,1.36,2.35,4,.99,5.9-1.36,1.91-4,2.34-5.9.99-11.96-8.53-14.75-25.19-6.23-37.14,10.32-14.47,30.49-17.86,44.96-7.54,17.62,12.56,21.73,37.11,9.18,54.72-7.44,10.44-18.5,17.36-31.14,19.48-2.68.45-5.37.67-8.04.67Z"/>
    </g>
  </g>
  <g>
    <path class="cls-2" d="M115.63,373.73c-12.91,0-25.53-6.49-32.79-18.27-13.59-22.08-6.86-50.45,15.32-64.6,11.15-7.1,24.01-9.27,37.2-6.24,22.12,5.08,39.65,22.57,48.68,37.24,1.23,1.99.61,4.6-1.38,5.82-2,1.22-4.6.6-5.82-1.38-10.22-16.61-27.24-29.73-43.37-33.43-11.07-2.55-21.43-.82-30.76,5.13-18.24,11.63-23.81,34.92-12.66,53.02,8.67,14.07,27.16,18.46,41.22,9.81,5.26-3.24,8.94-8.33,10.37-14.34,1.43-6.01.44-12.21-2.8-17.47-1.23-1.99-.61-4.6,1.38-5.82,1.99-1.23,4.59-.61,5.82,1.38,4.42,7.18,5.78,15.66,3.83,23.87-1.95,8.21-6.99,15.16-14.17,19.59-6.26,3.86-13.21,5.69-20.08,5.69Z"/>
    <path class="cls-2" d="M1490.2,373.73c-6.87,0-13.82-1.84-20.08-5.69-7.18-4.42-12.22-11.38-14.17-19.59-1.95-8.21-.59-16.69,3.83-23.87,1.23-1.99,3.83-2.61,5.82-1.38,1.99,1.23,2.61,3.83,1.38,5.82-3.24,5.26-4.23,11.46-2.8,17.47,1.43,6.01,5.11,11.1,10.37,14.34,14.07,8.65,32.56,4.26,41.22-9.81,11.14-18.1,5.58-41.39-12.66-53.02-9.33-5.94-19.68-7.67-30.76-5.12-16.12,3.7-33.15,16.83-43.37,33.43-1.23,1.99-3.83,2.61-5.82,1.38-1.99-1.22-2.61-3.83-1.38-5.82,9.03-14.67,26.57-32.16,48.68-37.24,13.17-3.03,26.05-.87,37.2,6.24,22.18,14.14,28.91,42.51,15.32,64.6-7.25,11.78-19.88,18.27-32.79,18.27Z"/>
  </g>
  <g>
    <path class="cls-2" d="M1284.76,316.88c-.9,0-1.81-.29-2.58-.88-138.48-106.38-304.21-162.6-479.27-162.6s-340.8,56.23-479.27,162.6c-1.85,1.43-4.51,1.07-5.94-.78-1.42-1.86-1.08-4.51.78-5.94,139.97-107.52,307.48-164.36,484.43-164.36s344.46,56.83,484.43,164.36c1.85,1.42,2.2,4.08.78,5.94-.83,1.08-2.09,1.65-3.36,1.65Z"/>
    <path class="cls-2" d="M627.01,394.63c-1.79,0-3.46-1.14-4.03-2.95-.71-2.22.52-4.6,2.74-5.32,57.09-18.23,116.7-27.47,177.2-27.47s120.11,9.24,177.19,27.47c2.23.71,3.46,3.09,2.74,5.32-.71,2.23-3.1,3.47-5.32,2.74-56.25-17.96-115-27.07-174.62-27.07s-118.37,9.11-174.62,27.07c-.43.14-.86.2-1.29.2Z"/>
  </g>
  <g>
    <path class="cls-2" d="M801.41,98.27c-3.1-.83-4.95-4.02-4.12-7.13.83-3.1,4.02-4.95,7.13-4.11,3.1.83,4.95,4.02,4.12,7.13-.83,3.1-4.02,4.95-7.13,4.11Z"/>
    <g>
      <path class="cls-2" d="M757.31,99.5c-3.14-.67-5.15-3.76-4.48-6.9.67-3.14,3.76-5.15,6.9-4.48,3.14.67,5.15,3.76,4.48,6.9-.67,3.14-3.76,5.15-6.9,4.48Z"/>
      <path class="cls-2" d="M713.35,103.04c-3.17-.5-5.34-3.48-4.84-6.66.5-3.17,3.48-5.34,6.66-4.84,3.17.5,5.34,3.48,4.84,6.66-.5,3.17-3.48,5.34-6.66,4.84Z"/>
      <path class="cls-2" d="M669.62,108.88c-3.2-.34-5.52-3.2-5.18-6.4s3.2-5.52,6.4-5.18c3.2.34,5.52,3.2,5.18,6.4-.34,3.2-3.2,5.52-6.4,5.18Z"/>
      <path class="cls-2" d="M626.26,117c-3.21-.17-5.68-2.91-5.51-6.12.17-3.21,2.91-5.68,6.12-5.51,3.21.17,5.68,2.91,5.51,6.12-.17,3.21-2.91,5.68-6.12,5.51Z"/>
      <circle class="cls-2" cx="583.39" cy="121.55" r="5.82"/>
      <path class="cls-2" d="M541.11,139.97c-3.21.17-5.95-2.3-6.12-5.51-.17-3.21,2.3-5.95,5.51-6.12,3.21-.17,5.95,2.3,6.12,5.51.17,3.21-2.3,5.95-5.51,6.12Z"/>
      <path class="cls-2" d="M499.56,154.77c-3.2.34-6.06-1.98-6.4-5.18-.34-3.2,1.98-6.06,5.18-6.4,3.2-.34,6.06,1.98,6.4,5.18.34,3.2-1.98,6.06-5.18,6.4Z"/>
      <path class="cls-2" d="M458.83,171.73c-3.17.5-6.16-1.66-6.66-4.84-.5-3.17,1.66-6.16,4.84-6.66,3.17-.5,6.16,1.66,6.66,4.84.5,3.17-1.66,6.16-4.84,6.66Z"/>
      <path class="cls-2" d="M419.05,190.79c-3.14.67-6.23-1.34-6.9-4.48-.67-3.14,1.34-6.23,4.48-6.9s6.23,1.34,6.9,4.48c.67,3.14-1.34,6.23-4.48,6.9Z"/>
      <path class="cls-2" d="M380.32,211.91c-3.1.83-6.3-1.01-7.13-4.12-.83-3.1,1.01-6.3,4.11-7.13,3.1-.83,6.3,1.01,7.13,4.11.83,3.1-1.01,6.3-4.12,7.13Z"/>
    </g>
    <g>
      <path class="cls-2" d="M848.52,99.5c3.14-.67,5.15-3.76,4.48-6.9-.67-3.14-3.76-5.15-6.9-4.48s-5.15,3.76-4.48,6.9c.67,3.14,3.76,5.15,6.9,4.48Z"/>
      <path class="cls-2" d="M892.49,103.04c3.17-.5,5.34-3.48,4.84-6.66-.5-3.17-3.48-5.34-6.66-4.84-3.17.5-5.34,3.48-4.84,6.66.5,3.17,3.48,5.34,6.66,4.84Z"/>
      <path class="cls-2" d="M936.21,108.88c3.2-.34,5.52-3.2,5.18-6.4-.34-3.2-3.2-5.52-6.4-5.18-3.2.34-5.52,3.2-5.18,6.4.34,3.2,3.2,5.52,6.4,5.18Z"/>
      <path class="cls-2" d="M979.57,117c3.21-.17,5.68-2.91,5.51-6.12-.17-3.21-2.91-5.68-6.12-5.51-3.21.17-5.68,2.91-5.51,6.12.17,3.21,2.91,5.68,6.12,5.51Z"/>
      <circle class="cls-2" cx="1022.44" cy="121.55" r="5.82"/>
      <path class="cls-2" d="M1064.72,139.97c3.21.17,5.95-2.3,6.12-5.51.17-3.21-2.3-5.95-5.51-6.12-3.21-.17-5.95,2.3-6.12,5.51-.17,3.21,2.3,5.95,5.51,6.12Z"/>
      <path class="cls-2" d="M1106.27,154.77c3.2.34,6.06-1.98,6.4-5.18.34-3.2-1.98-6.06-5.18-6.4-3.2-.34-6.06,1.98-6.4,5.18-.34,3.2,1.98,6.06,5.18,6.4Z"/>
      <path class="cls-2" d="M1147,171.73c3.17.5,6.16-1.66,6.66-4.84.5-3.17-1.66-6.16-4.84-6.66-3.17-.5-6.16,1.66-6.66,4.84-.5,3.17,1.66,6.16,4.84,6.66Z"/>
      <path class="cls-2" d="M1186.78,190.79c3.14.67,6.23-1.34,6.9-4.48.67-3.14-1.34-6.23-4.48-6.9-3.14-.67-6.23,1.34-6.9,4.48-.67,3.14,1.34,6.23,4.48,6.9Z"/>
      <path class="cls-2" d="M1225.51,211.91c3.1.83,6.3-1.01,7.13-4.12.83-3.1-1.01-6.3-4.12-7.13-3.1-.83-6.3,1.01-7.13,4.11-.83,3.1,1.01,6.3,4.11,7.13Z"/>
    </g>
  </g>
  <g>
    <path class="cls-2" d="M123.87,819.39c-9.09,0-17.82-2.55-25.7-7.57-22.18-14.14-28.92-42.51-15.32-64.59,5.38-8.74,13.84-14.86,23.83-17.24,9.98-2.38,20.3-.72,29.04,4.66,14.83,9.13,19.47,28.62,10.34,43.46-1.23,1.99-3.83,2.61-5.82,1.38-1.99-1.22-2.61-3.83-1.39-5.82,6.68-10.86,3.29-25.13-7.57-31.81-6.82-4.2-14.86-5.49-22.64-3.63-7.79,1.85-14.38,6.63-18.58,13.44-11.14,18.1-5.58,41.39,12.66,53.01,9.33,5.95,19.67,7.68,30.76,5.13,16.12-3.7,33.15-16.83,43.37-33.43,1.22-1.99,3.83-2.62,5.82-1.38,1.99,1.22,2.61,3.83,1.39,5.82-9.03,14.67-26.56,32.16-48.68,37.24-3.87.89-7.72,1.33-11.51,1.33Z"/>
    <path class="cls-2" d="M1481.97,819.39c-3.79,0-7.63-.44-11.51-1.33-22.12-5.08-39.65-22.57-48.68-37.24-1.23-1.99-.61-4.6,1.38-5.82,1.99-1.23,4.6-.61,5.82,1.38,10.22,16.61,27.24,29.73,43.37,33.43,11.07,2.55,21.43.82,30.76-5.13,18.24-11.62,23.8-34.91,12.66-53.01-4.2-6.82-10.79-11.59-18.58-13.44-7.78-1.86-15.83-.57-22.64,3.63-10.86,6.68-14.25,20.95-7.57,31.81,1.23,1.99.61,4.6-1.39,5.82-1.99,1.22-4.6.6-5.82-1.38-9.13-14.83-4.49-34.33,10.34-43.46,8.74-5.38,19.05-7.03,29.04-4.66,9.99,2.38,18.45,8.5,23.83,17.24,13.59,22.08,6.86,50.45-15.32,64.59-7.88,5.02-16.61,7.57-25.7,7.57Z"/>
  </g>
  <g>
    <g>
      <path class="cls-1" d="M400.43,489.08l5.71,8.75v53.97c-5-.1-10.03-.59-15.01-1.49-6.85-1.22-15.99-3.54-27.16-6.89-13.71-4.15-28.15-6.24-43.01-6.24-.19,0-.37,0-.56,0v-39.4l5.52-8.75v-7.48h-34.69v7.52l5.71,8.75v110.42l-5.71,8.94v7.3h34.69v-7.26l-5.52-8.94v-55.22c13.75.04,27.08,1.97,39.68,5.74,11.71,3.61,21.44,6.09,28.91,7.39,5.73,1,11.48,1.51,17.15,1.54v40.51l-5.71,8.94v7.3h34.69v-7.26l-5.52-8.94v-110.51l5.52-8.75v-7.48h-34.69v7.52Z"/>
      <polygon class="cls-1" points="553.88 497.6 563.01 502.93 570.91 502.93 568.24 481.56 455.42 481.56 455.42 489.08 461.12 497.83 461.12 608.25 455.42 617.2 455.42 624.5 568.24 624.5 570.91 603.13 563.01 603.13 553.88 608.45 484.59 608.45 484.59 547.83 518.92 547.83 527.1 553.15 534.43 553.15 534.43 526.46 527.1 526.46 518.92 531.78 484.59 531.78 484.59 497.6 553.88 497.6"/>
      <polygon class="cls-1" points="760.45 579.88 754.74 571.13 754.74 527.85 754.97 527.85 754.75 497.81 760.45 489.08 760.45 481.56 725.76 481.56 725.76 489.03 731.29 497.81 731.41 509.9 731.28 509.9 731.28 571.17 725.76 579.92 725.76 587.4 760.45 587.4 760.45 579.88"/>
      <path class="cls-1" d="M777.45,588.48h-1.62c-2.09,0-3.94,1.13-5.01,3.04-.6.95-1.02,1.52-1.27,1.84l-.14.18c-2.1,2.88-4.7,5.53-7.69,7.85-3.38,2.59-7.53,4.83-12.34,6.66l-.1.04c-4.63,1.87-10.19,2.76-16.63,2.65-4.99,0-10.02-1.23-14.96-3.64l-.12-.06c-3.38-1.55-4.98-2.52-5.73-3.07l-1.41-1.03h-.36c-.1-.06-.2-.12-.3-.17-4.48-3.12-8.61-6.49-12.3-10.03-.49-.6-1.25-1.38-2.73-2.71-3.62-3.23-7.41-6.43-11.32-9.56-3.12-2.42-5.93-4.47-8.48-6.19,1.37-.61,2.7-1.28,4-2.02,8.59-4.79,14.93-10.81,18.85-17.93,3.94-7.33,6.02-15.45,6.16-24.14v-.09s0-.09,0-.09c-.14-8.56-2.21-16.62-6.18-23.99-3.9-7.08-10.23-13.09-18.83-17.89-7.62-4.23-16.05-6.38-25.05-6.38h-69.09v7.33l5.71,8.75v110.58l-5.71,8.75v7.52h34.69v-7.48l-5.52-8.75v-29.81h19.75c9.01,0,16.55,2.38,22.99,7.25v.22l2.23,1.6s.02.01.03.02l.93.79h.09c.56.46,1.32,1.09,2.32,1.98,1.53,1.36,2.39,2.08,2.98,2.51,1.06,1.06,3.8,3.77,8.22,8.13,5.2,5.14,8.65,8.43,10.59,10.08,2.5,2.11,4.26,3.54,5.38,4.38l.12.09c2.29,1.62,4.56,3.06,6.67,4.24,3.34,1.95,6.95,3.58,10.71,4.83,1.19.4,2.45.8,3.84,1.21,6.67,1.9,12.67,2.87,17.83,2.87,8.46,0,15.97-1.44,22.43-4.31,4.08-1.9,7.95-4.15,11.5-6.67,3.58-2.54,6.35-4.82,8.48-6.95,2.08-2.08,4.02-4.34,5.76-6.7,2.39-3.24,3.11-4.55,3.5-5.39.3-.65.6-1.22.88-1.69l2.15-3.59-3.52-3.52-2.36-1.58ZM613.77,540.16v-12.11h.19v-30.44h33.99c.11,0,.77.03,3.63.35v-.03c.91.16,1.79.29,2.64.39,4.03.78,7.72,2.05,10.95,3.76,5.08,2.94,8.8,6.71,11.4,11.58,2.48,4.54,3.8,9.72,3.91,15.31v2.37c-.11,5.69-1.42,10.88-3.94,15.47-2.57,4.82-6.29,8.6-11.38,11.53-3.25,1.73-6.96,2.99-11.01,3.77-2.5.33-5.16.5-7.89.5h-32.31v-22.45h-.19Z"/>
      <polygon class="cls-1" points="860.33 578.21 860.14 578.21 860.14 497.6 904.89 497.6 914.02 502.93 921.92 502.93 919.25 481.56 778.14 481.56 775.47 502.93 783.39 502.93 792.33 497.6 836.87 497.6 836.87 578.21 836.68 578.21 836.68 608.3 831.16 617.24 831.16 624.5 866.04 624.5 866.04 617.2 860.33 608.25 860.33 578.21"/>
      <path class="cls-1" d="M1023.15,584.34l-45.14-107.54h-10.28l-57.71,129.6-7.53,10.66v7.44h27.27v-7.38l-4.38-6.49,9.71-21.52h64.54l9.29,21.73-4.07,6.35v7.31h34.31v-7.28l-6.12-9.7-9.9-23.17ZM942.49,573.07l25.74-59.09,24.3,59.09h-50.03Z"/>
      <path class="cls-1" d="M1148.31,549.15l5.52,8.75v36.75c-1.34,2.07-3.29,4.17-5.82,6.25-3.56,2.89-8.34,5.41-14.28,7.51-5.83,2.17-12.56,3.28-20.01,3.28-10.23,0-18.66-2.5-25.78-7.64-7.16-5.17-12.67-12.19-16.38-20.88-3.82-8.92-5.75-19-5.75-29.95s1.94-21.03,5.75-29.95c3.71-8.68,9.21-15.66,16.36-20.77,7.13-5.09,15.57-7.56,25.8-7.56,5.81,0,11.27.64,16.24,1.89,1.55.48,2.86.9,3.85,1.22,5.82,2.06,10.58,4.56,14.14,7.43,2.31,1.98,4.18,3.96,5.61,5.94.71.95,1.05,1.53,1.22,1.86l1.67,3.33h7.86l2.13-3.55,2.06-4.09,3.81-7.05,5.34-10.34-6.57-3.29-1.49.12c-5.46.44-10.77-.39-15.79-2.47l-.23-.09c-1.3-.47-2.59-.94-3.89-1.41l-.28-.1c-4.42-1.61-9.11-2.9-13.95-3.84-6.27-1.2-12.82-1.81-19.46-1.81-15.5,0-29.01,3.39-40.15,10.09-11.17,6.72-19.73,15.87-25.43,27.2-5.62,11.17-8.47,23.69-8.47,37.22s2.85,26.06,8.47,37.22c5.7,11.34,14.26,20.49,25.43,27.2,11.13,6.69,24.64,10.09,40.15,10.09,18.65,0,35.51-4.61,50.11-13.69,1.83-1.03,3.73-1.53,5.82-1.53h5.36v-54.4l5.71-8.94v-7.3h-34.69v7.28Z"/>
      <polygon class="cls-1" points="1297.57 608.45 1228.28 608.45 1228.28 547.83 1262.61 547.83 1270.79 553.15 1278.12 553.15 1278.12 526.46 1270.79 526.46 1262.61 531.78 1228.28 531.78 1228.28 497.6 1297.57 497.6 1306.7 502.93 1314.6 502.93 1311.93 481.56 1199.11 481.56 1199.11 489.08 1204.81 497.83 1204.81 608.25 1199.11 617.2 1199.11 624.5 1311.93 624.5 1314.6 603.13 1306.7 603.13 1297.57 608.45"/>
    </g>
    <g>
      <path class="cls-1" d="M567.74,735.07h1.21c4.11,0,7.78,1.53,11.02,4.6l1.65,2.08c1.56-2.55,4.28-4.43,8.16-5.64,3.47-.7,6.31-1.04,8.51-1.04v.09c-1.79,4.4-2.69,7.18-2.69,8.33-.81,3.07-1.21,8.45-1.21,16.15v13.45c0,8.62,1.01,13.92,3.04,15.89.92,1.21,2,2.17,3.21,2.87-1.39.98-2.49,2.11-3.3,3.38-2.03,2.95-3.04,9.43-3.04,19.44.06,10.71.09,18.17.09,22.4,0,5.67,1.13,9.09,3.39,10.24,2.54,1.39,6.36,2.08,11.46,2.08h.26c.35,0,.52.09.52.26v1.13c-.46,1.16-1.91,2.69-4.34,4.6-3.36,2.32-6.86,3.47-10.5,3.47h-1.13c-4.75,0-8.91-2.17-12.5-6.51-2.78,4.28-6.89,6.42-12.33,6.42s-10.24-2.11-14.41-6.34c-.41-.52-.78-1.04-1.13-1.56v-1.21c.06-.17.23-.26.52-.26h.17c7.58,0,12.04-1.42,13.37-4.25.92-1.16,1.39-4.78,1.39-10.85.06-11.75.09-19.24.09-22.48,0-10.07-1.39-16.29-4.17-18.66,0-.06-.43-.49-1.3-1.3,2.03-2.14,3.3-4.08,3.82-5.82,1.04-2.08,1.56-8.42,1.56-19.01v-2.43c0-8.45-.15-12.67-.43-12.67-.06-.87-.55-2.14-1.48-3.82-1.62-2.14-6.11-3.21-13.45-3.21l-.09-.17v-1.13c.98-2.72,3.01-4.92,6.08-6.6,2.72-1.27,5.38-1.91,7.99-1.91Z"/>
      <path class="cls-1" d="M1003.61,732.9h1.82c5.38,0,12.04,2.11,19.97,6.34,3.76-2.14,6.83-3.21,9.2-3.21h1.56c3.01,0,4.51.23,4.51.69v.09c-4.28,3.99-6.42,7.93-6.42,11.81l.26,7.2c0,8.04-3.56,14.03-10.68,17.97-1.1,0-2.23-.72-3.38-2.17l-.26-.87c1.74-4.4,2.6-8.25,2.6-11.54,0-6.02-2.86-10.21-8.59-12.59-3.01-1.1-5.18-1.65-6.51-1.65-1.22-.17-2.72-.32-4.51-.43-.06.06-.17.09-.35.09h-.17c-3.99,0-7.09,2.08-9.29,6.25-.75,1.85-1.13,3.68-1.13,5.47v30.12h.09c4.57-.75,8.88-1.13,12.93-1.13,13.08,0,23.58,4.14,31.51,12.41,1.56,1.79,2.78,3.47,3.65,5.03,1.62,3.3,2.43,5.5,2.43,6.6.87,3.59,1.79,6.05,2.78,7.38,1.27,1.74,2.43,2.84,3.47,3.3l.09.17c-2.66,2.26-4.72,5.96-6.16,11.11-.81,2.78-1.74,5.21-2.78,7.29-1.22,2.32-2.81,4.77-4.77,7.38-8.22,9.32-18.14,13.98-29.77,13.98h-1.82c-7.87,0-15.05-2.46-21.53-7.38-3.3-2.89-5.61-5.32-6.94-7.29-2.14-3.01-3.76-5.7-4.86-8.07-1.27-2.83-2.49-6.19-3.65-10.07-1.68-7.47-2.52-12.24-2.52-14.32-.29-2.08-.61-5.5-.96-10.24-.64-3.76-1.56-6.6-2.78-8.51-.46-.81-1.53-2-3.21-3.56,2.78-1.5,4.74-3.82,5.9-6.94.69-2.03,1.65-6.39,2.87-13.11,2.78-11.17,7.17-19.99,13.19-26.48,6.83-7.41,14.9-11.11,24.22-11.11ZM992.24,809.98v22.39c0,7.52,2.2,12.3,6.6,14.32,1.45.64,3.04.96,4.77.96h.26c7.7,0,11.54-5.41,11.54-16.23v-20.4c0-7.7-2.08-12.59-6.25-14.67-1.79-.7-3.42-1.04-4.86-1.04h-1.13c-4.17,0-7.2,1.85-9.11,5.56-1.22,2.49-1.82,5.53-1.82,9.11Z"/>
      <path class="cls-1" d="M710.5,732.02h2.16c14.42,0,26.78,5.55,37.09,16.65,4.47,5.48,6.92,10.02,7.35,13.62,1.15,4.54,3.6,9.01,7.35,13.41-2.31,1.23-4.07,3.64-5.3,7.25-1.37,5.26-2.85,9.26-4.43,12-3.82,5.84-9.62,10.56-17.41,14.16,0,.07,1.12.72,3.35,1.95,7.86,4.83,13.55,11.03,17.08,18.6.79,2.23,1.91,5.95,3.35,11.14,1.01,2.59,2.59,4.97,4.76,7.14v.22c-1.66,0-3.68,4.07-6.05,12.22-2.52,8.65-6.85,15.32-12.98,20-3.1,2.23-6.63,4.22-10.6,5.95-8.07,2.96-15.75,4.43-23.03,4.43h-2.7c-18.38,0-32.4-6.38-42.06-19.14-2.09-3.1-3.39-5.48-3.89-7.14-.07-1.73-1.05-4.97-2.92-9.73-.79-1.8-2.24-3.85-4.33-6.16-.15,0-.4-.25-.76-.76,2.23-1.95,3.75-3.93,4.54-5.95,1.66-3.75,2.49-6.41,2.49-8,.65-2.52,2.2-5.77,4.65-9.73,1.3-2.02,3.6-4.61,6.92-7.79,3.53-2.88,6.67-5.08,9.41-6.6.07,0,.43-.18,1.08-.54v-.11c-3.17-1.51-6.42-3.5-9.73-5.95-4.4-3.89-6.96-6.7-7.68-8.43-1.87-2.88-2.81-5.37-2.81-7.46-.43-2.02-1.12-4.07-2.05-6.16-1.73-3.17-3.53-5.08-5.41-5.73v-.11c2.16-1.37,3.78-3.17,4.87-5.41,1.3-1.95,2.59-5.51,3.89-10.71.72-2.74,3.21-6.56,7.46-11.46,4.4-4.25,8.18-7.17,11.35-8.76,7.93-4.61,16.25-6.92,24.98-6.92ZM697.31,765.44v21.95c.14,8.72,2.52,14.13,7.14,16.22,2.16.79,4.22,1.19,6.16,1.19h1.95c3.82,0,6.85-1.01,9.08-3.03,2.67-2.96,4-8.54,4-16.76v-17.08c0-10.31-1.91-16.51-5.73-18.6-2.16-1.3-4.72-1.95-7.68-1.95h-.97c-6.56,0-10.53,2.23-11.89,6.7-1.37,3.24-2.05,7.03-2.05,11.35ZM697.31,835.17v22.27c.22,9.08,2.7,14.64,7.46,16.65,1.87.79,4.18,1.19,6.92,1.19,6.41,0,10.38-2.12,11.89-6.38,1.37-3.24,2.05-7.93,2.05-14.06v-17.41c0-10.38-2.05-16.58-6.16-18.6-2.16-1.15-4.79-1.73-7.89-1.73-6.34,0-10.38,2.13-12.11,6.38-1.44,3.24-2.16,7.14-2.16,11.68Z"/>
      <path class="cls-1" d="M864.22,731.81h2.27c6.7,0,14.99,2.63,24.87,7.89,4.68-2.67,8.51-4,11.46-4h1.95c3.75,0,5.62.29,5.62.86v.11c-5.34,4.97-8,9.88-8,14.71l.32,8.97c0,10.02-4.43,17.48-13.3,22.38-1.37,0-2.77-.9-4.22-2.7l-.32-1.08c2.16-5.48,3.24-10.27,3.24-14.38,0-7.5-3.57-12.72-10.71-15.68-3.75-1.37-6.45-2.05-8.11-2.05-1.51-.22-3.39-.4-5.62-.54-.07.07-.22.11-.43.11h-.22c-4.98,0-8.83,2.59-11.57,7.78-.94,2.31-1.41,4.58-1.41,6.81v37.52h.11c5.69-.94,11.06-1.41,16.11-1.41,16.29,0,29.37,5.16,39.25,15.46,1.95,2.24,3.46,4.32,4.54,6.27,2.02,4.11,3.03,6.85,3.03,8.22,1.08,4.47,2.23,7.53,3.46,9.19,1.59,2.16,3.03,3.53,4.33,4.11l.11.22c-3.32,2.81-5.88,7.42-7.68,13.84-1.01,3.46-2.16,6.49-3.46,9.08-1.51,2.88-3.5,5.95-5.95,9.19-10.24,11.61-22.6,17.41-37.09,17.41h-2.27c-9.8,0-18.74-3.06-26.82-9.19-4.11-3.6-6.99-6.63-8.65-9.08-2.67-3.75-4.69-7.1-6.05-10.05-1.59-3.53-3.1-7.71-4.54-12.54-2.09-9.3-3.14-15.25-3.14-17.84-.36-2.59-.76-6.85-1.19-12.76-.79-4.68-1.95-8.22-3.46-10.6-.58-1.01-1.91-2.49-4-4.43,3.46-1.87,5.91-4.76,7.35-8.65.86-2.52,2.05-7.96,3.57-16.33,3.46-13.91,8.94-24.9,16.44-32.98,8.51-9.23,18.56-13.84,30.17-13.84ZM850.05,827.82v27.9c0,9.37,2.74,15.32,8.22,17.84,1.8.79,3.79,1.19,5.95,1.19h.32c9.59,0,14.38-6.74,14.38-20.22v-25.41c0-9.59-2.59-15.68-7.78-18.27-2.23-.86-4.25-1.3-6.05-1.3h-1.41c-5.19,0-8.98,2.31-11.35,6.92-1.51,3.1-2.27,6.89-2.27,11.35Z"/>
    </g>
    <g>
      <path class="cls-1" d="M704.56,245.24l-4.31.87c-.65-3.05-1.37-5.56-2.17-7.54-.79-1.97-1.69-3.51-2.68-4.6-.99-1.1-2.1-1.8-3.33-2.1-1.23-.31-2.63-.34-4.19-.1l-6.23.95,5.87,38.68c.32,2.12,2.55,2.86,6.69,2.23l.6,3.93-22.9,3.47-.6-3.93c4.09-.62,5.98-1.99,5.66-4.11l-5.87-38.68-6.27.95c-1.56.24-2.88.68-3.96,1.34-1.08.66-1.92,1.66-2.54,3-.62,1.34-1.01,3.07-1.19,5.19-.17,2.12-.12,4.73.17,7.84l-4.38.45-3.19-21.03,51.65-7.84,3.19,21.03Z"/>
      <path class="cls-1" d="M832.69,222.87c-4.19-.03-6.29,1.03-6.3,3.17l-.25,37.3c-.01,2.14,2.07,3.23,6.25,3.26l-.03,3.98-23.5-.16.03-3.98c4.37.03,6.56-1.03,6.58-3.17l.12-17.43-23.64-.16-.12,17.43c-.01,2.15,2.16,3.23,6.53,3.26l-.03,3.98-23.44-.16.03-3.98c4.14.03,6.21-1.03,6.23-3.17l.25-37.3c.02-2.14-2.05-3.23-6.18-3.26l.03-4.12,23.44.16-.03,4.11c-4.37-.03-6.56,1.03-6.58,3.16l-.1,14.79,23.64.16.1-14.79c.01-2.14-2.17-3.22-6.54-3.25l.03-4.12,23.5.16-.03,4.12Z"/>
      <path class="cls-1" d="M949.56,247.21l-4.87-.47c.52-7.02-1.89-10.95-7.22-11.77l-15.44-2.38-2.57,16.68,7.86,1.21c2.76.43,4.77-2.11,6.04-7.61l4.34.67-4.35,21.35-4.2-.65c.42-5.77-.59-8.84-3.03-9.22l-7.38-1.14-2.95,19.16,12.96,2c7.72,1.19,12.75-3.07,15.09-12.78l4.89,1.25-4.68,19.39-45.77-7.05.61-3.93c4.09.63,6.3-.11,6.63-2.23l5.68-36.87c.33-2.12-1.56-3.49-5.65-4.12l.63-4.07,45.77,7.05-2.39,15.51Z"/>
    </g>
    <g>
      <path class="cls-1" d="M1337.5,264.99l-7.12-3.88c-4.34-2.37-42.59-23.44-49.68-34.04-8.01-11.96-4.79-28.21,7.17-36.21,11.96-8.01,28.2-4.79,36.21,7.17h0c7.09,10.59,12,53.99,12.54,58.9l.88,8.06ZM1285.75,206.75c-1.75,5.05-1.2,10.84,1.99,15.61,3.84,5.73,23.95,18.39,39.49,27.27-2.3-17.75-6.33-41.17-10.17-46.9-5.41-8.08-16.39-10.25-24.47-4.84-3.31,2.21-5.62,5.36-6.84,8.86Z"/>
      <path class="cls-1" d="M269.21,256.93c.54-4.91,5.45-48.31,12.54-58.9h0c8.01-11.96,24.25-15.17,36.21-7.17,11.96,8,15.18,24.25,7.17,36.21-7.09,10.59-45.34,31.67-49.68,34.04l-7.12,3.88.88-8.06ZM313.25,197.9c-8.08-5.41-19.06-3.24-24.47,4.84-3.84,5.73-7.88,29.15-10.17,46.9,15.54-8.88,35.64-21.54,39.49-27.27,3.2-4.77,3.74-10.56,1.99-15.61-1.21-3.5-3.53-6.65-6.84-8.86Z"/>
    </g>
    <g>
      <path class="cls-1" d="M1336.62,845.75c-.54,4.91-5.45,48.31-12.54,58.9h0c-8.01,11.96-24.25,15.17-36.21,7.17-11.96-8-15.18-24.25-7.17-36.21,7.09-10.59,45.34-31.67,49.68-34.03l7.12-3.88-.88,8.06ZM1292.58,904.79c8.08,5.41,19.06,3.24,24.47-4.84,3.84-5.73,7.88-29.15,10.17-46.9-15.54,8.88-35.64,21.54-39.49,27.27-3.2,4.77-3.74,10.56-1.99,15.61,1.21,3.5,3.53,6.65,6.84,8.86Z"/>
      <path class="cls-1" d="M268.33,837.69l7.12,3.88c4.34,2.37,42.59,23.44,49.68,34.03,8.01,11.96,4.79,28.21-7.17,36.21-11.96,8.01-28.2,4.79-36.21-7.17h0c-7.09-10.59-12-53.99-12.54-58.9l-.88-8.06ZM320.08,895.93c1.75-5.05,1.2-10.83-1.99-15.61-3.84-5.73-23.95-18.39-39.49-27.27,2.3,17.75,6.33,41.17,10.17,46.9,5.41,8.08,16.39,10.25,24.47,4.84,3.31-2.21,5.62-5.36,6.84-8.86Z"/>
    </g>
  </g>
  <path class="cls-2" d="M802.92,957.74c-176.95,0-344.47-56.84-484.43-164.36-1.85-1.42-2.2-4.08-.78-5.94,1.42-1.86,4.08-2.2,5.94-.78,138.47,106.38,304.2,162.6,479.27,162.6s340.8-56.23,479.27-162.6c1.85-1.43,4.51-1.07,5.94.78,1.42,1.86,1.08,4.51-.78,5.94-139.96,107.52-307.48,164.36-484.43,164.36Z"/>
  <g>
    <path class="cls-2" d="M801.41,1004.41c-3.1.83-4.95,4.02-4.12,7.13.83,3.1,4.02,4.95,7.13,4.12,3.1-.83,4.95-4.02,4.12-7.13-.83-3.1-4.02-4.95-7.13-4.12Z"/>
    <g>
      <path class="cls-2" d="M757.31,1003.18c-3.14.67-5.15,3.76-4.48,6.9.67,3.14,3.76,5.15,6.9,4.48,3.14-.67,5.15-3.76,4.48-6.9-.67-3.14-3.76-5.15-6.9-4.48Z"/>
      <path class="cls-2" d="M713.35,999.64c-3.17.5-5.34,3.48-4.84,6.66.5,3.17,3.48,5.34,6.66,4.84,3.17-.5,5.34-3.48,4.84-6.66-.5-3.17-3.48-5.34-6.66-4.84Z"/>
      <path class="cls-2" d="M669.62,993.8c-3.2.34-5.52,3.2-5.18,6.4.34,3.2,3.2,5.52,6.4,5.18,3.2-.34,5.52-3.2,5.18-6.4-.34-3.2-3.2-5.52-6.4-5.18Z"/>
      <path class="cls-2" d="M626.26,985.69c-3.21.17-5.68,2.91-5.51,6.12.17,3.21,2.91,5.68,6.12,5.51,3.21-.17,5.68-2.91,5.51-6.12-.17-3.21-2.91-5.68-6.12-5.51Z"/>
      <circle class="cls-2" cx="583.39" cy="981.13" r="5.82"/>
      <path class="cls-2" d="M541.11,962.71c-3.21-.17-5.95,2.3-6.12,5.51-.17,3.21,2.3,5.95,5.51,6.12,3.21.17,5.95-2.3,6.12-5.51.17-3.21-2.3-5.95-5.51-6.12Z"/>
      <path class="cls-2" d="M499.56,947.91c-3.2-.34-6.06,1.98-6.4,5.18-.34,3.2,1.98,6.06,5.18,6.4,3.2.34,6.06-1.98,6.4-5.18.34-3.2-1.98-6.06-5.18-6.4Z"/>
      <path class="cls-2" d="M458.83,930.96c-3.17-.5-6.16,1.66-6.66,4.84-.5,3.17,1.66,6.16,4.84,6.66,3.17.5,6.16-1.66,6.66-4.84.5-3.17-1.66-6.16-4.84-6.66Z"/>
      <path class="cls-2" d="M419.05,911.89c-3.14-.67-6.23,1.34-6.9,4.48-.67,3.14,1.34,6.23,4.48,6.9s6.23-1.34,6.9-4.48c.67-3.14-1.34-6.23-4.48-6.9Z"/>
      <path class="cls-2" d="M380.32,890.78c-3.1-.83-6.3,1.01-7.13,4.12-.83,3.1,1.01,6.3,4.11,7.13,3.1.83,6.3-1.01,7.13-4.12.83-3.1-1.01-6.3-4.12-7.13Z"/>
    </g>
    <g>
      <path class="cls-2" d="M848.52,1003.18c3.14.67,5.15,3.76,4.48,6.9-.67,3.14-3.76,5.15-6.9,4.48-3.14-.67-5.15-3.76-4.48-6.9.67-3.14,3.76-5.15,6.9-4.48Z"/>
      <path class="cls-2" d="M892.49,999.64c3.17.5,5.34,3.48,4.84,6.66-.5,3.17-3.48,5.34-6.66,4.84-3.17-.5-5.34-3.48-4.84-6.66.5-3.17,3.48-5.34,6.66-4.84Z"/>
      <path class="cls-2" d="M936.21,993.8c3.2.34,5.52,3.2,5.18,6.4-.34,3.2-3.2,5.52-6.4,5.18-3.2-.34-5.52-3.2-5.18-6.4.34-3.2,3.2-5.52,6.4-5.18Z"/>
      <path class="cls-2" d="M979.57,985.69c3.21.17,5.68,2.91,5.51,6.12-.17,3.21-2.91,5.68-6.12,5.51-3.21-.17-5.68-2.91-5.51-6.12.17-3.21,2.91-5.68,6.12-5.51Z"/>
      <circle class="cls-2" cx="1022.44" cy="981.13" r="5.82"/>
      <path class="cls-2" d="M1064.72,962.71c3.21-.17,5.95,2.3,6.12,5.51.17,3.21-2.3,5.95-5.51,6.12-3.21.17-5.95-2.3-6.12-5.51-.17-3.21,2.3-5.95,5.51-6.12Z"/>
      <path class="cls-2" d="M1106.27,947.91c3.2-.34,6.06,1.98,6.4,5.18.34,3.2-1.98,6.06-5.18,6.4-3.2.34-6.06-1.98-6.4-5.18-.34-3.2,1.98-6.06,5.18-6.4Z"/>
      <path class="cls-2" d="M1147,930.96c3.17-.5,6.16,1.66,6.66,4.84.5,3.17-1.66,6.16-4.84,6.66-3.17.5-6.16-1.66-6.66-4.84-.5-3.17,1.66-6.16,4.84-6.66Z"/>
      <path class="cls-2" d="M1186.78,911.89c3.14-.67,6.23,1.34,6.9,4.48.67,3.14-1.34,6.23-4.48,6.9-3.14.67-6.23-1.34-6.9-4.48-.67-3.14,1.34-6.23,4.48-6.9Z"/>
      <path class="cls-2" d="M1225.51,890.78c3.1-.83,6.3,1.01,7.13,4.12.83,3.1-1.01,6.3-4.12,7.13-3.1.83-6.3-1.01-7.13-4.12-.83-3.1,1.01-6.3,4.11-7.13Z"/>
    </g>
  </g>
  <path class="cls-2" d="M802.92,989.79c-209.27,0-409.67-77.53-564.3-218.29-1.73-1.57-1.85-4.25-.28-5.98,1.57-1.73,4.24-1.86,5.98-.28,153.06,139.35,351.44,216.09,558.6,216.09,2.34,0,4.23,1.89,4.23,4.23s-1.9,4.23-4.23,4.23Z"/>
  <path class="cls-2" d="M204.82,836.85c-6.65,0-13.12-2.05-18.64-5.99-8.53-6.08-14.19-15.12-15.92-25.46-1.73-10.33.66-20.72,6.75-29.26,15.36-21.54,45.38-26.58,66.92-11.22,1.9,1.36,2.35,4,.99,5.9-1.36,1.91-4,2.34-5.9.99-17.74-12.66-42.47-8.5-55.12,9.24-4.77,6.7-6.65,14.85-5.29,22.95,1.36,8.1,5.79,15.19,12.49,19.96,5.17,3.69,11.46,5.14,17.73,4.09,6.26-1.05,11.74-4.47,15.42-9.64,2.82-3.95,3.93-8.77,3.12-13.55-.8-4.79-3.42-8.97-7.37-11.79-1.9-1.36-2.35-4-.99-5.9,1.36-1.91,3.99-2.35,5.9-.99,5.79,4.13,9.63,10.27,10.81,17.28,1.18,7.01-.45,14.07-4.58,19.86-5,7.01-12.43,11.66-20.92,13.08-1.8.3-3.61.45-5.4.45Z"/>
  <path class="cls-2" d="M802.92,989.79c-2.34,0-4.23-1.89-4.23-4.23s1.89-4.23,4.23-4.23c207.16,0,405.54-76.74,558.59-216.09,1.73-1.57,4.41-1.45,5.98.28,1.57,1.73,1.45,4.4-.28,5.98-154.62,140.77-355.03,218.29-564.29,218.29Z"/>
  <path class="cls-2" d="M1401.01,836.85c-1.79,0-3.59-.15-5.4-.45-8.49-1.42-15.92-6.07-20.92-13.08-4.13-5.79-5.75-12.85-4.58-19.86,1.18-7.02,5.01-13.16,10.81-17.28,1.91-1.36,4.55-.91,5.9.99,1.36,1.9.91,4.55-.99,5.9-3.95,2.81-6.57,7-7.37,11.79-.8,4.79.31,9.6,3.12,13.55,3.68,5.17,9.16,8.59,15.42,9.64,6.26,1.06,12.55-.4,17.73-4.09,6.69-4.77,11.13-11.86,12.49-19.96,1.36-8.11-.52-16.26-5.29-22.95-12.65-17.74-37.38-21.88-55.12-9.24-1.91,1.36-4.55.91-5.9-.99-1.36-1.9-.91-4.55.99-5.9,21.55-15.35,51.57-10.32,66.92,11.22,6.08,8.54,8.48,18.93,6.75,29.26-1.73,10.34-7.39,19.38-15.92,25.46-5.52,3.93-11.99,5.99-18.64,5.99Z"/>
  <path class="cls-2" d="M1478.51,690.82l-.77-1.04v.55H128.09v-.55l-.77,1.04c-.98-.72-1.95-1.45-2.92-2.19l-9-6.76h.76c-36.55-32.01-58.01-79.1-58.01-128.63,0-54.38,25.85-105.81,69.16-137.58l1.12-.82h1348.97l1.12.82c43.3,31.77,69.16,83.2,69.16,137.58,0,49.53-21.45,96.62-58.01,128.63h.76l-9,6.76c-.96.74-1.93,1.47-2.92,2.19ZM129.5,681.88h1346.83c39.43-30.32,62.87-78.13,62.87-128.63s-24.12-99.69-64.59-129.93H131.22c-40.47,30.24-64.59,78.71-64.59,129.93s23.44,98.31,62.87,128.63Z"/>
  <g>
    <path class="cls-2" d="M185.11,539.97c-1.25,0-2.48.07-3.7.2.13-1.21.2-2.45.2-3.7,0-10.78-5.03-20.38-12.87-26.59-7.84,6.21-12.87,15.81-12.87,26.59,0,1.25.07,2.48.2,3.7-1.21-.13-2.45-.2-3.7-.2-10.78,0-20.38,5.03-26.59,12.87,6.21,7.84,15.81,12.87,26.59,12.87,1.25,0,2.48-.07,3.7-.2-.13,1.21-.2,2.45-.2,3.7,0,10.78,5.03,20.38,12.87,26.59,7.84-6.21,12.87-15.81,12.87-26.59,0-1.25-.07-2.48-.2-3.7,1.21.13,2.45.2,3.7.2,10.78,0,20.38-5.03,26.59-12.87-6.21-7.84-15.81-12.87-26.59-12.87ZM180.52,560.16c-.93,0-1.84-.07-2.73-.2-.56.71-1.2,1.35-1.91,1.91.13.89.2,1.8.2,2.73,0,6.13-2.86,11.6-7.33,15.13-4.46-3.53-7.33-9-7.33-15.13,0-.93.07-1.84.2-2.73-.71-.56-1.35-1.2-1.91-1.91-.89.13-1.8.2-2.73.2-6.13,0-11.6-2.86-15.13-7.33,3.53-4.46,9-7.33,15.13-7.33.93,0,1.84.07,2.73.2.56-.71,1.2-1.35,1.91-1.91-.13-.89-.2-1.8-.2-2.73,0-6.13,2.86-11.6,7.33-15.13,4.46,3.53,7.33,9,7.33,15.13,0,.93-.07,1.84-.2,2.73.71.56,1.35,1.2,1.91,1.91.89-.13,1.8-.2,2.73-.2,6.13,0,11.6,2.86,15.13,7.33-3.53,4.46-9,7.33-15.13,7.33Z"/>
    <path class="cls-2" d="M1453.45,539.97c-1.25,0-2.48.07-3.7.2.13-1.21.2-2.45.2-3.7,0-10.78-5.03-20.38-12.87-26.59-7.84,6.21-12.87,15.81-12.87,26.59,0,1.25.07,2.48.2,3.7-1.21-.13-2.45-.2-3.7-.2-10.78,0-20.38,5.03-26.59,12.87,6.21,7.84,15.81,12.87,26.59,12.87,1.25,0,2.48-.07,3.7-.2-.13,1.21-.2,2.45-.2,3.7,0,10.78,5.03,20.38,12.87,26.59,7.84-6.21,12.87-15.81,12.87-26.59,0-1.25-.07-2.48-.2-3.7,1.21.13,2.45.2,3.7.2,10.78,0,20.38-5.03,26.59-12.87-6.21-7.84-15.81-12.87-26.59-12.87ZM1448.86,560.16c-.93,0-1.84-.07-2.73-.2-.56.71-1.2,1.35-1.91,1.91.13.89.2,1.8.2,2.73,0,6.13-2.86,11.6-7.33,15.13-4.46-3.53-7.33-9-7.33-15.13,0-.93.07-1.84.2-2.73-.71-.56-1.35-1.2-1.91-1.91-.89.13-1.8.2-2.73.2-6.13,0-11.6-2.86-15.13-7.33,3.53-4.46,9-7.33,15.13-7.33.93,0,1.84.07,2.73.2.56-.71,1.2-1.35,1.91-1.91-.13-.89-.2-1.8-.2-2.73,0-6.13,2.86-11.6,7.33-15.13,4.46,3.53,7.33,9,7.33,15.13,0,.93-.07,1.84-.2,2.73.71.56,1.35,1.2,1.91,1.91.89-.13,1.8-.2,2.73-.2,6.13,0,11.6,2.86,15.13,7.33-3.53,4.46-9,7.33-15.13,7.33Z"/>
  </g>
  <g>
    <path class="cls-2" d="M467.23,338.56c-2.47-8.96-9.52-16.01-18.48-18.48l-7-7-7,7c-8.96,2.47-16.01,9.52-18.48,18.48l-7,7,7,7c2.47,8.96,9.52,16.01,18.48,18.48l7.01,7,7.01-7c8.96-2.47,16.01-9.52,18.48-18.48l7-7-7-7ZM441.75,362.52c-9.37,0-16.96-7.59-16.96-16.96s7.59-16.96,16.96-16.96,16.96,7.59,16.96,16.96-7.59,16.96-16.96,16.96Z"/>
    <path class="cls-2" d="M1193.01,338.56c-2.47-8.96-9.52-16.01-18.48-18.48l-7-7-7,7c-8.96,2.47-16.01,9.52-18.48,18.48l-7,7,7,7c2.47,8.96,9.52,16.01,18.48,18.48l7.01,7,7.01-7c8.96-2.47,16.01-9.52,18.48-18.48l7-7-7-7ZM1167.52,362.52c-9.37,0-16.96-7.59-16.96-16.96s7.59-16.96,16.96-16.96,16.96,7.59,16.96,16.96-7.59,16.96-16.96,16.96Z"/>
  </g>
  <g>
    <path class="cls-2" d="M467.23,758.78c-2.47-8.96-9.52-16.01-18.48-18.48l-7-7-7,7c-8.96,2.47-16.01,9.52-18.48,18.48l-7,7,7,7c2.47,8.96,9.52,16.01,18.48,18.48l7.01,7,7.01-7c8.96-2.47,16.01-9.52,18.48-18.48l7-7-7-7ZM441.75,782.74c-9.37,0-16.96-7.59-16.96-16.96s7.59-16.96,16.96-16.96,16.96,7.59,16.96,16.96-7.59,16.96-16.96,16.96Z"/>
    <path class="cls-2" d="M1193.01,758.78c-2.47-8.96-9.52-16.01-18.48-18.48l-7-7-7,7c-8.96,2.47-16.01,9.52-18.48,18.48l-7,7,7,7c2.47,8.96,9.52,16.01,18.48,18.48l7.01,7,7.01-7c8.96-2.47,16.01-9.52,18.48-18.48l7-7-7-7ZM1167.52,782.74c-9.37,0-16.96-7.59-16.96-16.96s7.59-16.96,16.96-16.96,16.96,7.59,16.96,16.96-7.59,16.96-16.96,16.96Z"/>
  </g>
  <g>
    <path class="cls-1" d="M109.32,1145.4c0,4.59-1.18,8.56-3.55,11.91-2.37,3.35-5.7,5.95-10.01,7.78-4.31,1.84-9.37,2.75-15.2,2.75-3.88,0-7.44-.41-10.67-1.22-3.23-.81-6.04-1.96-8.44-3.44l.74-4.82c1.31.88,2.7,1.62,4.18,2.2,1.48.58,3.05,1.02,4.71,1.32,1.66.3,3.39.45,5.19.45,3.25,0,6.14-.67,8.68-2.01,2.54-1.34,4.54-3.3,6.01-5.88,1.46-2.58,2.2-5.72,2.2-9.42,0-4.31-.87-8.05-2.59-11.22-1.73-3.18-4.15-5.63-7.25-7.36-3.11-1.73-6.76-2.59-10.96-2.59h-4.18v59.72c0,.81.21,1.49.64,2.04.42.55,1.09.89,2.01,1.03l4.66.63c.92.18,1.57.49,1.96.93.39.44.58,1.07.58,1.88,0,.74-.26,1.34-.79,1.8-.53.46-1.36.69-2.49.69h-27.64c-1.13,0-1.96-.23-2.49-.69-.53-.46-.79-1.06-.79-1.8,0-1.38.76-2.29,2.28-2.75l3.02-.69c.85-.25,1.5-.62,1.96-1.11.46-.49.69-1.15.69-1.96v-56.12c0-.81-.23-1.46-.69-1.96-.46-.49-1.11-.86-1.96-1.11l-3.02-.69c-1.52-.46-2.28-1.38-2.28-2.75,0-.78.26-1.38.79-1.83.53-.44,1.36-.66,2.49-.66h25.68c7.73,0,14.31,1.16,19.75,3.47,5.44,2.31,9.59,5.51,12.47,9.58,2.88,4.08,4.32,8.71,4.32,13.9Z"/>
    <path class="cls-1" d="M136.64,1144.82l.85,11.86v27.27c0,.99.2,1.73.61,2.22.41.49,1.16.83,2.25,1.01l4.5.69c.85.14,1.47.41,1.88.79.41.39.61.94.61,1.64s-.26,1.26-.77,1.67c-.51.41-1.26.61-2.25.61h-24.73c-1.02,0-1.77-.2-2.25-.61-.48-.41-.71-.94-.71-1.62,0-.56.16-1.03.48-1.4.32-.37.81-.68,1.48-.93l2.06-.53c.64-.21,1.11-.57,1.43-1.08.32-.51.48-1.33.48-2.46v-30.02c0-.92-.14-1.57-.42-1.96-.28-.39-.72-.64-1.32-.74l-2.81-.21c-.64-.18-1.09-.42-1.38-.74-.28-.32-.42-.72-.42-1.22,0-.6.18-1.09.53-1.48.35-.39,1.01-.74,1.96-1.06l9.48-3.49c1.76-.71,3.06-1.16,3.89-1.35.83-.19,1.49-.29,1.99-.29.78,0,1.36.26,1.75.79.39.53.67,1.41.85,2.65ZM135.58,1164.51c0-5.15.73-9.47,2.2-12.95,1.46-3.48,3.38-6.09,5.74-7.84,2.36-1.75,4.91-2.62,7.62-2.62,3.39,0,6,.96,7.84,2.89,1.83,1.92,2.75,4.67,2.75,8.23,0,3.18-.65,5.55-1.96,7.12-1.31,1.57-3,2.36-5.08,2.36s-3.73-.56-4.84-1.69c-1.11-1.13-1.67-2.7-1.67-4.71v-1.96c0-1.09-.26-1.91-.77-2.46-.51-.55-1.32-.82-2.41-.82-1.27,0-2.48.5-3.63,1.51-1.15,1.01-2.08,2.55-2.81,4.63-.72,2.08-1.09,4.75-1.09,8l-1.91.32Z"/>
    <path class="cls-1" d="M216.32,1161.18c0,1.91-.55,3.38-1.64,4.42-1.09,1.04-2.68,1.56-4.77,1.56h-33.09v-4.13h21.71c1.83,0,2.75-.83,2.75-2.49,0-4.62-.85-8.13-2.54-10.51s-3.97-3.57-6.83-3.57c-2.22,0-4.18.66-5.88,1.99-1.69,1.32-3.02,3.23-3.97,5.72s-1.43,5.48-1.43,8.97c0,6.81,1.61,11.93,4.82,15.35,3.21,3.42,7.47,5.14,12.76,5.14,3.11,0,5.83-.62,8.18-1.85,2.35-1.24,4.19-2.98,5.53-5.24.64-.71,1.15-1.18,1.54-1.43.39-.25.78-.37,1.16-.37.56,0,.98.26,1.24.77.26.51.38,1.14.34,1.88-.14,2.96-1.19,5.71-3.15,8.23-1.96,2.52-4.62,4.54-7.99,6.04-3.37,1.5-7.25,2.25-11.62,2.25-5.12,0-9.66-1.05-13.63-3.15-3.97-2.1-7.09-5.05-9.34-8.84-2.26-3.79-3.39-8.23-3.39-13.32,0-5.4,1.08-10.16,3.23-14.27,2.15-4.11,5.23-7.34,9.24-9.69,4.01-2.35,8.78-3.52,14.32-3.52,4.73,0,8.77.86,12.12,2.57,3.35,1.71,5.91,4.08,7.68,7.09,1.76,3.02,2.65,6.49,2.65,10.4Z"/>
    <path class="cls-1" d="M245.12,1144.82v39.13c0,1.09.16,1.9.48,2.41s.79.89,1.43,1.14l1.91.53c1.13.5,1.69,1.22,1.69,2.17,0,1.59-1.01,2.38-3.02,2.38h-20.38c-1.02,0-1.77-.2-2.25-.61-.48-.41-.71-.94-.71-1.62,0-.56.16-1.03.48-1.4.32-.37.81-.68,1.48-.93l2.06-.53c.64-.25,1.11-.62,1.43-1.11.32-.49.48-1.31.48-2.44v-30.13c0-.92-.14-1.58-.42-1.99-.28-.41-.72-.66-1.32-.77l-2.81-.21c-.64-.14-1.09-.37-1.38-.69-.28-.32-.42-.74-.42-1.27,0-.6.18-1.08.53-1.43.35-.35,1.01-.71,1.96-1.06l9.69-3.6c1.38-.49,2.48-.86,3.31-1.08.83-.23,1.61-.34,2.36-.34,1.13,0,1.99.32,2.57.95.58.64.87,1.47.87,2.49ZM243.48,1156.63l-2.44-2.54,2.06-1.85c4.48-4.13,8.37-7.02,11.67-8.66,3.3-1.64,6.41-2.46,9.34-2.46,4.59,0,8.25,1.46,10.99,4.37,2.74,2.91,4.1,6.82,4.1,11.73v26.58c0,1.17.17,2.01.5,2.54.33.53.84.92,1.51,1.17l1.8.58c1.13.46,1.69,1.16,1.69,2.12,0,1.59-1.01,2.38-3.02,2.38h-20.01c-2.01,0-3.02-.79-3.02-2.38,0-.95.55-1.68,1.64-2.17l2.01-.53c.67-.25,1.16-.63,1.48-1.17.32-.53.48-1.38.48-2.54v-24.41c0-3.11-.73-5.43-2.2-6.96-1.47-1.54-3.47-2.3-6.01-2.3-1.59,0-3.26.37-5,1.11-1.75.74-3.56,1.92-5.43,3.55l-2.17,1.85ZM277.58,1156.63l-2.49-2.54,2.12-1.85c4.48-4.13,8.37-7.02,11.65-8.66,3.28-1.64,6.41-2.46,9.37-2.46,4.59,0,8.25,1.46,10.99,4.37,2.73,2.91,4.1,6.82,4.1,11.73v26.58c0,1.17.17,2.02.5,2.57.34.55.84.93,1.51,1.14l1.85.53c.67.25,1.16.56,1.48.93.32.37.48.84.48,1.4,0,.67-.23,1.21-.69,1.62-.46.41-1.2.61-2.22.61h-20.49c-2.01,0-3.02-.79-3.02-2.38,0-.95.56-1.68,1.69-2.17l2.01-.53c.67-.25,1.16-.63,1.46-1.17.3-.53.45-1.38.45-2.54v-24.41c0-3.11-.73-5.43-2.2-6.96-1.47-1.54-3.47-2.3-6.01-2.3-1.55,0-3.2.37-4.95,1.11s-3.57,1.92-5.48,3.55l-2.12,1.85Z"/>
    <path class="cls-1" d="M347.2,1144.82v39.13c0,1.09.16,1.91.48,2.44.32.53.79.9,1.43,1.11l1.96.53c.71.21,1.23.51,1.56.9.33.39.5.87.5,1.43,0,.67-.25,1.21-.74,1.62-.49.41-1.25.61-2.28.61h-20.81c-1.02,0-1.77-.2-2.25-.61-.48-.41-.71-.94-.71-1.62,0-.56.16-1.03.48-1.4.32-.37.81-.68,1.48-.93l2.06-.53c.64-.25,1.11-.62,1.43-1.11.32-.49.48-1.31.48-2.44v-30.13c0-.92-.14-1.58-.42-1.99-.28-.41-.72-.66-1.32-.77l-2.81-.21c-.64-.14-1.09-.37-1.38-.69-.28-.32-.42-.74-.42-1.27,0-.6.18-1.08.53-1.43.35-.35,1.01-.71,1.96-1.06l9.69-3.6c1.41-.53,2.54-.9,3.39-1.11.85-.21,1.57-.32,2.17-.32,1.2,0,2.09.32,2.67.95.58.64.87,1.47.87,2.49ZM338.57,1133.22c-2.86,0-5.15-.72-6.86-2.17-1.71-1.45-2.57-3.37-2.57-5.77s.86-4.26,2.57-5.69c1.71-1.43,4-2.14,6.86-2.14s5.15.71,6.88,2.14c1.73,1.43,2.59,3.33,2.59,5.69s-.87,4.32-2.59,5.77c-1.73,1.45-4.02,2.17-6.88,2.17Z"/>
    <path class="cls-1" d="M364.67,1177.8v-23.99c0-.92-.14-1.57-.42-1.96-.28-.39-.72-.63-1.32-.74l-2.81-.21c-.64-.18-1.09-.42-1.38-.74-.28-.32-.42-.72-.42-1.22,0-.6.18-1.08.53-1.46.35-.37,1.01-.73,1.96-1.08l9.69-3.6c1.41-.53,2.54-.9,3.39-1.11.85-.21,1.57-.32,2.17-.32,1.2,0,2.09.32,2.67.95.58.64.87,1.47.87,2.49v30.76c0,3.11.75,5.44,2.25,6.99,1.5,1.55,3.5,2.33,6.01,2.33,1.59,0,3.26-.38,5.03-1.14,1.76-.76,3.58-1.95,5.45-3.57l2.17-1.85,2.43,2.54-2.06,1.85c-4.48,4.13-8.38,7.02-11.7,8.68-3.32,1.66-6.44,2.49-9.37,2.49-4.55,0-8.22-1.46-10.99-4.39-2.77-2.93-4.16-6.83-4.16-11.7ZM398.61,1184.79v-2.49l-.48-.21v-28.27c0-.92-.13-1.57-.4-1.96-.26-.39-.71-.63-1.35-.74l-2.75-.21c-.67-.18-1.15-.42-1.43-.74-.28-.32-.42-.72-.42-1.22,0-.6.18-1.08.53-1.46.35-.37,1.01-.73,1.96-1.08l9.74-3.6c1.34-.49,2.44-.86,3.28-1.08.85-.23,1.64-.34,2.38-.34,1.13,0,1.99.32,2.57.95.58.64.87,1.47.87,2.49v39.13c0,1.09.15,1.91.45,2.44.3.53.79.9,1.46,1.11l1.96.53c.71.21,1.22.51,1.54.9.32.39.48.87.48,1.43,0,.67-.24,1.21-.71,1.62-.48.41-1.23.61-2.25.61h-10.54c-1.94,0-3.57-.72-4.9-2.17-1.32-1.45-1.99-3.32-1.99-5.61Z"/>
    <path class="cls-1" d="M447.85,1144.82v39.13c0,1.09.16,1.9.48,2.41.32.51.79.89,1.43,1.14l1.91.53c1.13.5,1.69,1.22,1.69,2.17,0,1.59-1.01,2.38-3.02,2.38h-20.38c-1.02,0-1.77-.2-2.25-.61-.48-.41-.71-.94-.71-1.62,0-.56.16-1.03.48-1.4.32-.37.81-.68,1.48-.93l2.06-.53c.64-.25,1.11-.62,1.43-1.11.32-.49.48-1.31.48-2.44v-30.13c0-.92-.14-1.58-.42-1.99-.28-.41-.72-.66-1.32-.77l-2.81-.21c-.64-.14-1.09-.37-1.38-.69-.28-.32-.42-.74-.42-1.27,0-.6.18-1.08.53-1.43.35-.35,1.01-.71,1.96-1.06l9.69-3.6c1.38-.49,2.48-.86,3.31-1.08.83-.23,1.61-.34,2.36-.34,1.13,0,1.99.32,2.57.95.58.64.87,1.47.87,2.49ZM446.21,1156.63l-2.44-2.54,2.06-1.85c4.48-4.13,8.37-7.02,11.67-8.66,3.3-1.64,6.41-2.46,9.34-2.46,4.59,0,8.25,1.46,10.99,4.37,2.73,2.91,4.1,6.82,4.1,11.73v26.58c0,1.17.17,2.01.5,2.54.33.53.84.92,1.51,1.17l1.8.58c1.13.46,1.69,1.16,1.69,2.12,0,1.59-1.01,2.38-3.02,2.38h-20.01c-2.01,0-3.02-.79-3.02-2.38,0-.95.55-1.68,1.64-2.17l2.01-.53c.67-.25,1.17-.63,1.48-1.17.32-.53.48-1.38.48-2.54v-24.41c0-3.11-.73-5.43-2.2-6.96-1.46-1.54-3.47-2.3-6.01-2.3-1.59,0-3.26.37-5,1.11-1.75.74-3.56,1.92-5.43,3.55l-2.17,1.85ZM480.3,1156.63l-2.49-2.54,2.12-1.85c4.48-4.13,8.37-7.02,11.65-8.66,3.28-1.64,6.41-2.46,9.37-2.46,4.59,0,8.25,1.46,10.99,4.37,2.74,2.91,4.1,6.82,4.1,11.73v26.58c0,1.17.17,2.02.5,2.57.33.55.84.93,1.51,1.14l1.85.53c.67.25,1.16.56,1.48.93.32.37.48.84.48,1.4,0,.67-.23,1.21-.69,1.62-.46.41-1.2.61-2.22.61h-20.49c-2.01,0-3.02-.79-3.02-2.38,0-.95.56-1.68,1.69-2.17l2.01-.53c.67-.25,1.16-.63,1.46-1.17.3-.53.45-1.38.45-2.54v-24.41c0-3.11-.73-5.43-2.2-6.96-1.46-1.54-3.47-2.3-6.01-2.3-1.55,0-3.2.37-4.95,1.11-1.75.74-3.57,1.92-5.48,3.55l-2.12,1.85Z"/>
    <path class="cls-1" d="M577.88,1183.57c0,.81.23,1.46.69,1.96.46.5,1.13.87,2.01,1.11l2.96.69c1.52.46,2.28,1.38,2.28,2.75,0,.74-.27,1.34-.79,1.8-.53.46-1.36.69-2.49.69h-25.73c-1.09,0-1.91-.23-2.44-.69-.53-.46-.79-1.06-.79-1.8,0-1.38.74-2.29,2.22-2.75l3.02-.69c.88-.25,1.54-.62,1.99-1.11.44-.49.66-1.15.66-1.96v-56.12c0-.81-.22-1.46-.66-1.96-.44-.49-1.1-.86-1.99-1.11l-3.02-.69c-1.48-.46-2.22-1.38-2.22-2.75,0-.78.26-1.38.79-1.83.53-.44,1.34-.66,2.44-.66h25.73c1.13,0,1.96.22,2.49.66.53.44.79,1.05.79,1.83,0,1.38-.76,2.29-2.28,2.75l-2.96.69c-.88.25-1.55.62-2.01,1.11-.46.5-.69,1.15-.69,1.96v56.12ZM568.35,1154.61h45.9v5.67h-45.9v-5.67ZM625.06,1183.57c0,.81.23,1.46.69,1.96.46.5,1.11.87,1.96,1.11l3.02.69c1.48.46,2.22,1.38,2.22,2.75,0,.74-.26,1.34-.77,1.8-.51.46-1.33.69-2.46.69h-25.73c-1.13,0-1.96-.23-2.49-.69-.53-.46-.79-1.06-.79-1.8,0-1.38.76-2.29,2.28-2.75l2.96-.69c.88-.25,1.55-.62,2.01-1.11.46-.49.69-1.15.69-1.96v-56.12c0-.81-.23-1.46-.69-1.96-.46-.49-1.13-.86-2.01-1.11l-2.96-.69c-1.52-.46-2.28-1.38-2.28-2.75,0-.78.27-1.38.79-1.83.53-.44,1.36-.66,2.49-.66h25.73c1.13,0,1.95.22,2.46.66.51.44.77,1.05.77,1.83,0,1.38-.74,2.29-2.22,2.75l-3.02.69c-.85.25-1.5.62-1.96,1.11-.46.5-.69,1.15-.69,1.96v56.12Z"/>
    <path class="cls-1" d="M691.5,1161.18c0,1.91-.55,3.38-1.64,4.42-1.09,1.04-2.68,1.56-4.77,1.56h-33.09v-4.13h21.71c1.83,0,2.75-.83,2.75-2.49,0-4.62-.85-8.13-2.54-10.51s-3.97-3.57-6.83-3.57c-2.22,0-4.18.66-5.88,1.99-1.69,1.32-3.02,3.23-3.97,5.72-.95,2.49-1.43,5.48-1.43,8.97,0,6.81,1.61,11.93,4.82,15.35,3.21,3.42,7.47,5.14,12.76,5.14,3.11,0,5.83-.62,8.18-1.85,2.35-1.24,4.19-2.98,5.53-5.24.64-.71,1.15-1.18,1.54-1.43.39-.25.78-.37,1.16-.37.56,0,.98.26,1.24.77.27.51.38,1.14.34,1.88-.14,2.96-1.19,5.71-3.15,8.23-1.96,2.52-4.62,4.54-7.99,6.04-3.37,1.5-7.25,2.25-11.62,2.25-5.12,0-9.66-1.05-13.63-3.15-3.97-2.1-7.09-5.05-9.34-8.84-2.26-3.79-3.39-8.23-3.39-13.32,0-5.4,1.08-10.16,3.23-14.27,2.15-4.11,5.23-7.34,9.24-9.69,4.01-2.35,8.78-3.52,14.32-3.52,4.73,0,8.77.86,12.12,2.57,3.35,1.71,5.91,4.08,7.68,7.09,1.76,3.02,2.65,6.49,2.65,10.4Z"/>
    <path class="cls-1" d="M719.46,1144.82l.85,11.86v27.27c0,.99.2,1.73.61,2.22.41.49,1.16.83,2.25,1.01l4.5.69c.85.14,1.47.41,1.88.79.41.39.61.94.61,1.64s-.26,1.26-.77,1.67c-.51.41-1.26.61-2.25.61h-24.73c-1.02,0-1.77-.2-2.25-.61-.48-.41-.71-.94-.71-1.62,0-.56.16-1.03.48-1.4.32-.37.81-.68,1.48-.93l2.06-.53c.64-.21,1.11-.57,1.43-1.08.32-.51.48-1.33.48-2.46v-30.02c0-.92-.14-1.57-.42-1.96-.28-.39-.72-.64-1.32-.74l-2.81-.21c-.64-.18-1.09-.42-1.38-.74-.28-.32-.42-.72-.42-1.22,0-.6.18-1.09.53-1.48.35-.39,1.01-.74,1.96-1.06l9.48-3.49c1.76-.71,3.06-1.16,3.89-1.35.83-.19,1.49-.29,1.99-.29.78,0,1.36.26,1.75.79.39.53.67,1.41.85,2.65ZM718.4,1164.51c0-5.15.73-9.47,2.2-12.95,1.46-3.48,3.38-6.09,5.74-7.84,2.36-1.75,4.91-2.62,7.62-2.62,3.39,0,6,.96,7.84,2.89,1.83,1.92,2.75,4.67,2.75,8.23,0,3.18-.65,5.55-1.96,7.12-1.31,1.57-3,2.36-5.08,2.36s-3.73-.56-4.84-1.69-1.67-2.7-1.67-4.71v-1.96c0-1.09-.26-1.91-.77-2.46-.51-.55-1.32-.82-2.41-.82-1.27,0-2.48.5-3.63,1.51-1.15,1.01-2.08,2.55-2.81,4.63-.72,2.08-1.08,4.75-1.08,8l-1.91.32Z"/>
    <path class="cls-1" d="M771.24,1144.82v39.13c0,1.09.16,1.91.48,2.44.32.53.79.9,1.43,1.11l1.96.53c.71.21,1.23.51,1.56.9.33.39.5.87.5,1.43,0,.67-.25,1.21-.74,1.62-.49.41-1.25.61-2.28.61h-20.81c-1.02,0-1.77-.2-2.25-.61-.48-.41-.71-.94-.71-1.62,0-.56.16-1.03.48-1.4.32-.37.81-.68,1.48-.93l2.06-.53c.64-.25,1.11-.62,1.43-1.11.32-.49.48-1.31.48-2.44v-30.13c0-.92-.14-1.58-.42-1.99-.28-.41-.72-.66-1.32-.77l-2.81-.21c-.64-.14-1.09-.37-1.38-.69-.28-.32-.42-.74-.42-1.27,0-.6.18-1.08.53-1.43.35-.35,1.01-.71,1.96-1.06l9.69-3.6c1.41-.53,2.54-.9,3.39-1.11s1.57-.32,2.17-.32c1.2,0,2.09.32,2.67.95.58.64.87,1.47.87,2.49ZM762.61,1133.22c-2.86,0-5.15-.72-6.86-2.17-1.71-1.45-2.57-3.37-2.57-5.77s.86-4.26,2.57-5.69c1.71-1.43,4-2.14,6.86-2.14s5.15.71,6.88,2.14c1.73,1.43,2.59,3.33,2.59,5.69s-.87,4.32-2.59,5.77c-1.73,1.45-4.02,2.17-6.88,2.17Z"/>
    <path class="cls-1" d="M786.64,1147.57l-2.44-.69c-.85-.28-1.45-.61-1.8-.98-.35-.37-.53-.82-.53-1.35,0-.71.25-1.25.74-1.64.49-.39,1.15-.58,1.96-.58h3.18c.85,0,1.56-.16,2.14-.48.58-.32,1.19-.9,1.83-1.75l5.67-8.05c.74-.92,1.46-1.6,2.14-2.04.69-.44,1.37-.66,2.04-.66.78,0,1.37.24,1.77.71.41.48.61,1.16.61,2.04v45.27c0,2.47.48,4.36,1.46,5.67.97,1.31,2.34,1.96,4.1,1.96,1.31,0,2.32-.26,3.04-.77.72-.51,1.3-1.1,1.72-1.77.42-.67.84-1.27,1.24-1.8.41-.53.93-.79,1.56-.79.53,0,.95.19,1.27.56.32.37.48.96.48,1.77,0,2.01-.65,3.89-1.96,5.64-1.31,1.75-3.12,3.16-5.43,4.24-2.31,1.08-4.93,1.62-7.86,1.62-4.55,0-8.12-1.14-10.7-3.42-2.58-2.28-3.86-5.73-3.86-10.35v-29.12c0-.92-.19-1.61-.56-2.07-.37-.46-.98-.85-1.83-1.16ZM798.03,1147.68v-5.35h17.58c.85,0,1.51.18,1.99.53.48.35.71.85.71,1.48,0,.95-.47,1.75-1.4,2.38-.94.64-2.44.95-4.53.95h-14.35Z"/>
    <path class="cls-1" d="M825.93,1181.46c0-4.41,1.98-7.98,5.93-10.69,3.95-2.72,9.48-4.08,16.57-4.08,2.29,0,4.37.19,6.22.58,1.85.39,3.45.9,4.79,1.54l-1.16,3.49c-1.2-.56-2.43-1.01-3.68-1.32-1.25-.32-2.6-.48-4.05-.48-2.93,0-5.22.75-6.88,2.25-1.66,1.5-2.49,3.57-2.49,6.22s.71,4.62,2.12,6.04c1.41,1.41,3.23,2.12,5.45,2.12,1.91,0,3.74-.44,5.51-1.32,1.76-.88,3.25-2.1,4.45-3.65l1.17,3.12c-1.98,2.75-4.61,4.88-7.89,6.38s-6.76,2.25-10.43,2.25c-4.62,0-8.38-1.15-11.28-3.44-2.89-2.29-4.34-5.29-4.34-9ZM857.8,1185.8v-1.11l-1.01-.26v-31.5c0-2.51-.64-4.44-1.91-5.8-1.27-1.36-3.05-2.04-5.35-2.04-2.08,0-3.69.45-4.82,1.35-1.13.9-1.69,1.99-1.69,3.26v4.66c0,2.15-.71,3.8-2.14,4.95-1.43,1.15-3.43,1.72-6.01,1.72-2.22,0-3.9-.52-5.03-1.56-1.13-1.04-1.69-2.48-1.69-4.31,0-2.22.92-4.41,2.75-6.57,1.83-2.15,4.54-3.93,8.13-5.32,3.58-1.39,8-2.09,13.26-2.09,6.49,0,11.33,1.32,14.51,3.95s4.77,6.19,4.77,10.67v27.53c0,.99.2,1.73.61,2.22.41.5.98.74,1.72.74s1.36-.19,1.75-.56c.39-.37.72-.73,1.01-1.09.21-.25.42-.46.64-.63.21-.18.48-.26.79-.26.42,0,.74.17.95.5.21.34.32.77.32,1.3,0,1.2-.42,2.44-1.24,3.73-.83,1.29-2.07,2.38-3.73,3.28s-3.71,1.35-6.14,1.35c-3.18,0-5.71-.72-7.6-2.17-1.89-1.45-2.83-3.42-2.83-5.93Z"/>
    <path class="cls-1" d="M931.56,1190.48c3.14,1.22,5.39,2.77,6.75,4.66,1.36,1.89,2.04,4.16,2.04,6.8,0,4.84-2.61,8.81-7.84,11.91-5.22,3.11-12.78,4.66-22.66,4.66-6.42,0-11.52-.51-15.27-1.54-3.76-1.02-6.45-2.43-8.07-4.21-1.62-1.78-2.44-3.82-2.44-6.12,0-2.75,1.36-5.22,4.08-7.39,2.72-2.17,7.62-3.68,14.72-4.53l.85,1.59c-2.68.46-4.72,1.35-6.12,2.67-1.4,1.32-2.09,2.81-2.09,4.47,0,3,1.25,5.42,3.76,7.25,2.51,1.83,6.86,2.75,13.08,2.75,3.56,0,6.43-.29,8.6-.87s3.75-1.43,4.74-2.54c.99-1.11,1.48-2.43,1.48-3.94,0-1.24-.48-2.31-1.43-3.23-.95-.92-2.64-1.73-5.06-2.44-2.42-.71-5.78-1.39-10.09-2.06-5.33-.78-9.38-1.62-12.15-2.54-2.77-.92-4.65-1.99-5.64-3.2-.99-1.22-1.48-2.66-1.48-4.31,0-1.52.41-2.93,1.24-4.24.83-1.3,2.24-2.43,4.24-3.36s4.74-1.58,8.23-1.93l1.16.85c-1.09.5-1.86.98-2.3,1.46-.44.48-.66,1.02-.66,1.62,0,.49.28.99.85,1.48.56.49,1.94,1.01,4.13,1.56,2.19.55,5.75,1.17,10.69,1.88,5.29.67,9.51,1.61,12.65,2.83ZM932.75,1171.08c-2.14,3.11-5.14,5.52-9,7.25s-8.39,2.59-13.58,2.59-9.35-.83-13-2.49c-3.65-1.66-6.46-3.94-8.42-6.83-1.96-2.89-2.94-6.12-2.94-9.69,0-4.09,1.07-7.69,3.2-10.8,2.14-3.11,5.14-5.52,9.03-7.25,3.88-1.73,8.42-2.59,13.61-2.59s9.34.84,12.97,2.51c3.64,1.68,6.43,3.94,8.39,6.8s2.94,6.09,2.94,9.69c0,4.09-1.07,7.7-3.2,10.8ZM904.21,1147.89c-1.25,1.2-2.1,2.92-2.54,5.16-.44,2.24-.49,4.97-.13,8.18.39,3.28,1.08,6.06,2.06,8.34.99,2.28,2.27,3.97,3.84,5.08,1.57,1.11,3.34,1.6,5.32,1.46,2.93-.21,5.04-1.62,6.33-4.21,1.29-2.59,1.67-6.31,1.14-11.14-.56-4.94-1.83-8.71-3.79-11.3-1.96-2.59-4.44-3.79-7.44-3.57-1.94.14-3.54.81-4.79,2.01ZM921.97,1142.91c1.69-3.64,3.76-6.34,6.19-8.1,2.44-1.76,4.99-2.65,7.68-2.65,2.26,0,4.09.62,5.51,1.85,1.41,1.24,2.12,2.96,2.12,5.19,0,1.94-.49,3.5-1.46,4.69-.97,1.18-2.25,1.77-3.84,1.77-1.13,0-2.01-.26-2.65-.77-.64-.51-1.18-1.1-1.64-1.77-.46-.67-.98-1.25-1.56-1.75-.58-.49-1.39-.74-2.41-.74-1.13,0-2.13.44-2.99,1.32-.87.88-1.93,2.63-3.2,5.24l-3.55-.53,1.8-3.76Z"/>
    <path class="cls-1" d="M995.36,1161.18c0,1.91-.55,3.38-1.64,4.42-1.09,1.04-2.68,1.56-4.77,1.56h-33.09v-4.13h21.71c1.83,0,2.75-.83,2.75-2.49,0-4.62-.85-8.13-2.54-10.51s-3.97-3.57-6.83-3.57c-2.22,0-4.18.66-5.88,1.99-1.69,1.32-3.02,3.23-3.97,5.72-.95,2.49-1.43,5.48-1.43,8.97,0,6.81,1.61,11.93,4.82,15.35,3.21,3.42,7.47,5.14,12.76,5.14,3.11,0,5.83-.62,8.18-1.85,2.35-1.24,4.19-2.98,5.53-5.24.64-.71,1.15-1.18,1.54-1.43.39-.25.78-.37,1.16-.37.56,0,.98.26,1.24.77.27.51.38,1.14.34,1.88-.14,2.96-1.19,5.71-3.15,8.23-1.96,2.52-4.62,4.54-7.99,6.04-3.37,1.5-7.25,2.25-11.62,2.25-5.12,0-9.66-1.05-13.63-3.15-3.97-2.1-7.09-5.05-9.34-8.84-2.26-3.79-3.39-8.23-3.39-13.32,0-5.4,1.08-10.16,3.23-14.27,2.15-4.11,5.23-7.34,9.24-9.69,4.01-2.35,8.78-3.52,14.32-3.52,4.73,0,8.77.86,12.12,2.57,3.35,1.71,5.91,4.08,7.68,7.09,1.76,3.02,2.65,6.49,2.65,10.4Z"/>
    <path class="cls-1" d="M1052.11,1183.57c0,.81.23,1.46.69,1.96.46.5,1.13.87,2.01,1.11l2.96.69c1.52.46,2.28,1.38,2.28,2.75,0,.74-.27,1.34-.79,1.8-.53.46-1.36.69-2.49.69h-25.73c-1.09,0-1.91-.23-2.44-.69-.53-.46-.79-1.06-.79-1.8,0-1.38.74-2.29,2.22-2.75l3.02-.69c.88-.25,1.54-.62,1.99-1.11.44-.49.66-1.15.66-1.96v-56.12c0-.81-.22-1.46-.66-1.96-.44-.49-1.1-.86-1.99-1.11l-3.02-.69c-1.48-.46-2.22-1.38-2.22-2.75,0-.78.26-1.38.79-1.83.53-.44,1.34-.66,2.44-.66h25.73c1.13,0,1.96.22,2.49.66.53.44.79,1.05.79,1.83,0,1.38-.76,2.29-2.28,2.75l-2.96.69c-.88.25-1.55.62-2.01,1.11-.46.5-.69,1.15-.69,1.96v56.12ZM1042.58,1154.61h45.9v5.67h-45.9v-5.67ZM1099.29,1183.57c0,.81.23,1.46.69,1.96.46.5,1.11.87,1.96,1.11l3.02.69c1.48.46,2.22,1.38,2.22,2.75,0,.74-.26,1.34-.77,1.8-.51.46-1.33.69-2.46.69h-25.73c-1.13,0-1.96-.23-2.49-.69-.53-.46-.79-1.06-.79-1.8,0-1.38.76-2.29,2.28-2.75l2.96-.69c.88-.25,1.55-.62,2.01-1.11.46-.49.69-1.15.69-1.96v-56.12c0-.81-.23-1.46-.69-1.96-.46-.49-1.13-.86-2.01-1.11l-2.96-.69c-1.52-.46-2.28-1.38-2.28-2.75,0-.78.27-1.38.79-1.83.53-.44,1.36-.66,2.49-.66h25.73c1.13,0,1.95.22,2.46.66.51.44.77,1.05.77,1.83,0,1.38-.74,2.29-2.22,2.75l-3.02.69c-.85.25-1.5.62-1.96,1.11-.46.5-.69,1.15-.69,1.96v56.12Z"/>
    <path class="cls-1" d="M1144.66,1141.11c5.47,0,10.28,1.12,14.43,3.36,4.15,2.24,7.38,5.35,9.69,9.32,2.31,3.97,3.47,8.59,3.47,13.85,0,4.98-1.19,9.45-3.57,13.42-2.38,3.97-5.68,7.1-9.9,9.4-4.22,2.29-9.1,3.44-14.64,3.44s-10.27-1.13-14.4-3.39c-4.13-2.26-7.36-5.38-9.69-9.37-2.33-3.99-3.49-8.58-3.49-13.77s1.19-9.55,3.57-13.5c2.38-3.95,5.68-7.07,9.9-9.35,4.22-2.28,9.1-3.42,14.64-3.42ZM1148.42,1188.23c2.44-.39,4.39-1.5,5.85-3.33,1.46-1.83,2.39-4.37,2.78-7.6.39-3.23.16-7.12-.69-11.67-.81-4.52-1.99-8.25-3.55-11.2-1.55-2.95-3.4-5.06-5.53-6.35-2.14-1.29-4.44-1.72-6.91-1.3-2.44.39-4.39,1.5-5.85,3.34-1.46,1.84-2.38,4.37-2.75,7.6s-.15,7.12.66,11.67c.81,4.52,2,8.25,3.57,11.2,1.57,2.95,3.42,5.07,5.53,6.35,2.12,1.29,4.41,1.72,6.88,1.3Z"/>
    <path class="cls-1" d="M1201.21,1144.82v39.13c0,1.09.16,1.9.48,2.41.32.51.79.89,1.43,1.14l1.91.53c1.13.5,1.69,1.22,1.69,2.17,0,1.59-1.01,2.38-3.02,2.38h-20.38c-1.02,0-1.77-.2-2.25-.61-.48-.41-.71-.94-.71-1.62,0-.56.16-1.03.48-1.4.32-.37.81-.68,1.48-.93l2.06-.53c.64-.25,1.11-.62,1.43-1.11.32-.49.48-1.31.48-2.44v-30.13c0-.92-.14-1.58-.42-1.99-.28-.41-.72-.66-1.32-.77l-2.81-.21c-.64-.14-1.09-.37-1.38-.69-.28-.32-.42-.74-.42-1.27,0-.6.18-1.08.53-1.43.35-.35,1.01-.71,1.96-1.06l9.69-3.6c1.38-.49,2.48-.86,3.31-1.08.83-.23,1.61-.34,2.36-.34,1.13,0,1.99.32,2.57.95.58.64.87,1.47.87,2.49ZM1199.57,1156.63l-2.44-2.54,2.06-1.85c4.48-4.13,8.37-7.02,11.67-8.66,3.3-1.64,6.41-2.46,9.34-2.46,4.59,0,8.25,1.46,10.99,4.37,2.73,2.91,4.1,6.82,4.1,11.73v26.58c0,1.17.17,2.01.5,2.54.33.53.84.92,1.51,1.17l1.8.58c1.13.46,1.69,1.16,1.69,2.12,0,1.59-1.01,2.38-3.02,2.38h-20.01c-2.01,0-3.02-.79-3.02-2.38,0-.95.55-1.68,1.64-2.17l2.01-.53c.67-.25,1.17-.63,1.48-1.17.32-.53.48-1.38.48-2.54v-24.41c0-3.11-.73-5.43-2.2-6.96-1.46-1.54-3.47-2.3-6.01-2.3-1.59,0-3.26.37-5,1.11-1.75.74-3.56,1.92-5.43,3.55l-2.17,1.85ZM1233.66,1156.63l-2.49-2.54,2.12-1.85c4.48-4.13,8.37-7.02,11.65-8.66,3.28-1.64,6.41-2.46,9.37-2.46,4.59,0,8.25,1.46,10.99,4.37,2.74,2.91,4.1,6.82,4.1,11.73v26.58c0,1.17.17,2.02.5,2.57.33.55.84.93,1.51,1.14l1.85.53c.67.25,1.16.56,1.48.93.32.37.48.84.48,1.4,0,.67-.23,1.21-.69,1.62-.46.41-1.2.61-2.22.61h-20.49c-2.01,0-3.02-.79-3.02-2.38,0-.95.56-1.68,1.69-2.17l2.01-.53c.67-.25,1.16-.63,1.46-1.17.3-.53.45-1.38.45-2.54v-24.41c0-3.11-.73-5.43-2.2-6.96-1.46-1.54-3.47-2.3-6.01-2.3-1.55,0-3.2.37-4.95,1.11-1.75.74-3.57,1.92-5.48,3.55l-2.12,1.85Z"/>
    <path class="cls-1" d="M1331.19,1161.18c0,1.91-.55,3.38-1.64,4.42-1.09,1.04-2.68,1.56-4.77,1.56h-33.09v-4.13h21.71c1.83,0,2.75-.83,2.75-2.49,0-4.62-.85-8.13-2.54-10.51s-3.97-3.57-6.83-3.57c-2.22,0-4.18.66-5.88,1.99-1.69,1.32-3.02,3.23-3.97,5.72-.95,2.49-1.43,5.48-1.43,8.97,0,6.81,1.61,11.93,4.82,15.35,3.21,3.42,7.47,5.14,12.76,5.14,3.11,0,5.83-.62,8.18-1.85,2.35-1.24,4.19-2.98,5.53-5.24.64-.71,1.15-1.18,1.54-1.43.39-.25.78-.37,1.16-.37.56,0,.98.26,1.24.77.27.51.38,1.14.34,1.88-.14,2.96-1.19,5.71-3.15,8.23-1.96,2.52-4.62,4.54-7.99,6.04-3.37,1.5-7.25,2.25-11.62,2.25-5.12,0-9.66-1.05-13.63-3.15-3.97-2.1-7.09-5.05-9.34-8.84-2.26-3.79-3.39-8.23-3.39-13.32,0-5.4,1.08-10.16,3.23-14.27,2.15-4.11,5.23-7.34,9.24-9.69,4.01-2.35,8.78-3.52,14.32-3.52,4.73,0,8.77.86,12.12,2.57,3.35,1.71,5.91,4.08,7.68,7.09,1.76,3.02,2.65,6.49,2.65,10.4Z"/>
    <path class="cls-1" d="M1359.94,1145.98c-2.44,0-4.33.61-5.69,1.83-1.36,1.22-2.04,2.76-2.04,4.63,0,1.13.26,2.17.77,3.12.51.95,1.49,1.81,2.94,2.57,1.45.76,3.56,1.47,6.35,2.14,5.47,1.09,9.7,2.49,12.68,4.18,2.98,1.69,5.06,3.65,6.22,5.88s1.75,4.69,1.75,7.41c0,4.91-1.74,8.83-5.21,11.75-3.48,2.93-8.53,4.39-15.17,4.39-2.37,0-4.29-.2-5.77-.61-1.48-.41-2.7-.8-3.65-1.19-.95-.39-1.8-.58-2.54-.58s-1.39.19-1.85.58c-.46.39-.9.79-1.32,1.19-.42.41-.99.61-1.69.61-.64,0-1.11-.18-1.43-.56-.32-.37-.64-1.01-.95-1.93l-3.49-10.54c-.39-1.27-.5-2.3-.34-3.1.16-.79.64-1.35,1.46-1.67.81-.32,1.53-.33,2.14-.03.62.3,1.19.87,1.72,1.72,1.59,2.72,3.27,4.9,5.06,6.54,1.78,1.64,3.67,2.82,5.67,3.55,1.99.72,4.05,1.08,6.17,1.08,3.04,0,5.3-.62,6.8-1.85,1.5-1.24,2.25-2.88,2.25-4.92,0-1.24-.32-2.35-.95-3.34s-1.82-1.9-3.55-2.73c-1.73-.83-4.24-1.62-7.52-2.36-4.59-.99-8.23-2.27-10.93-3.84-2.7-1.57-4.64-3.47-5.82-5.69-1.18-2.22-1.77-4.82-1.77-7.78s.79-5.71,2.38-8.02c1.59-2.31,3.79-4.11,6.62-5.4,2.82-1.29,6.11-1.93,9.85-1.93,2.4,0,4.32.21,5.77.64,1.45.42,2.64.85,3.57,1.27.94.42,1.81.64,2.62.64s1.52-.21,2.01-.64c.49-.42.97-.85,1.43-1.27.46-.42,1.02-.64,1.69-.64.53,0,.98.19,1.35.56.37.37.64,1.03.82,1.99l2.59,10.06c.28,1.31.35,2.34.21,3.1-.14.76-.62,1.3-1.43,1.61-.81.32-1.52.28-2.12-.11-.6-.39-1.22-1.09-1.85-2.12-2.15-3.71-4.62-6.33-7.39-7.89-2.77-1.55-5.57-2.33-8.39-2.33Z"/>
    <path class="cls-1" d="M1393.61,1147.57l-2.44-.69c-.85-.28-1.45-.61-1.8-.98-.35-.37-.53-.82-.53-1.35,0-.71.25-1.25.74-1.64.49-.39,1.15-.58,1.96-.58h3.18c.85,0,1.56-.16,2.14-.48.58-.32,1.19-.9,1.83-1.75l5.67-8.05c.74-.92,1.46-1.6,2.14-2.04.69-.44,1.37-.66,2.04-.66.78,0,1.37.24,1.77.71.41.48.61,1.16.61,2.04v45.27c0,2.47.48,4.36,1.46,5.67.97,1.31,2.34,1.96,4.1,1.96,1.31,0,2.32-.26,3.04-.77.72-.51,1.3-1.1,1.72-1.77.42-.67.84-1.27,1.24-1.8.41-.53.93-.79,1.56-.79.53,0,.95.19,1.27.56.32.37.48.96.48,1.77,0,2.01-.65,3.89-1.96,5.64-1.31,1.75-3.12,3.16-5.43,4.24-2.31,1.08-4.93,1.62-7.86,1.62-4.55,0-8.12-1.14-10.7-3.42-2.58-2.28-3.86-5.73-3.86-10.35v-29.12c0-.92-.19-1.61-.56-2.07-.37-.46-.98-.85-1.83-1.16ZM1404.99,1147.68v-5.35h17.58c.85,0,1.51.18,1.99.53.48.35.71.85.71,1.48,0,.95-.47,1.75-1.4,2.38-.94.64-2.44.95-4.53.95h-14.35Z"/>
    <path class="cls-1" d="M1432.9,1181.46c0-4.41,1.98-7.98,5.93-10.69,3.95-2.72,9.48-4.08,16.57-4.08,2.29,0,4.37.19,6.22.58,1.85.39,3.45.9,4.79,1.54l-1.16,3.49c-1.2-.56-2.43-1.01-3.68-1.32-1.25-.32-2.6-.48-4.05-.48-2.93,0-5.22.75-6.88,2.25-1.66,1.5-2.49,3.57-2.49,6.22s.71,4.62,2.12,6.04c1.41,1.41,3.23,2.12,5.45,2.12,1.91,0,3.74-.44,5.51-1.32,1.76-.88,3.25-2.1,4.45-3.65l1.17,3.12c-1.98,2.75-4.61,4.88-7.89,6.38s-6.76,2.25-10.43,2.25c-4.62,0-8.38-1.15-11.28-3.44-2.89-2.29-4.34-5.29-4.34-9ZM1464.77,1185.8v-1.11l-1.01-.26v-31.5c0-2.51-.64-4.44-1.91-5.8-1.27-1.36-3.05-2.04-5.35-2.04-2.08,0-3.69.45-4.82,1.35-1.13.9-1.69,1.99-1.69,3.26v4.66c0,2.15-.71,3.8-2.14,4.95-1.43,1.15-3.43,1.72-6.01,1.72-2.22,0-3.9-.52-5.03-1.56-1.13-1.04-1.69-2.48-1.69-4.31,0-2.22.92-4.41,2.75-6.57,1.83-2.15,4.54-3.93,8.13-5.32,3.58-1.39,8-2.09,13.26-2.09,6.49,0,11.33,1.32,14.51,3.95s4.77,6.19,4.77,10.67v27.53c0,.99.2,1.73.61,2.22.41.5.98.74,1.72.74s1.36-.19,1.75-.56c.39-.37.72-.73,1.01-1.09.21-.25.42-.46.64-.63.21-.18.48-.26.79-.26.42,0,.74.17.95.5.21.34.32.77.32,1.3,0,1.2-.42,2.44-1.24,3.73-.83,1.29-2.07,2.38-3.73,3.28s-3.71,1.35-6.14,1.35c-3.18,0-5.71-.72-7.6-2.17-1.89-1.45-2.83-3.42-2.83-5.93Z"/>
    <path class="cls-1" d="M1523.75,1184.95l-7.94,14.24-21.76-48.13c-.6-1.38-1.22-2.32-1.85-2.83-.64-.51-1.64-.96-3.02-1.35-.67-.21-1.15-.5-1.43-.87-.28-.37-.42-.84-.42-1.4,0-.71.26-1.26.77-1.67.51-.41,1.21-.61,2.09-.61h23.72c.88,0,1.58.2,2.09.61.51.41.77.96.77,1.67,0,.56-.17,1.03-.5,1.4-.34.37-.91.64-1.72.82l-1.91.37c-1.62.35-2.58.95-2.86,1.8-.28.85.02,2.35.9,4.5l13.08,31.45ZM1513.74,1200.94l3.28-8.15,1.96-3.71,13.92-34.94c.88-2.12,1.18-3.67.9-4.66-.28-.99-1.25-1.66-2.91-2.01l-2.12-.48c-.78-.21-1.35-.52-1.72-.93-.37-.41-.56-.89-.56-1.46,0-.71.26-1.26.77-1.67.51-.41,1.21-.61,2.09-.61h15.09c.92,0,1.63.2,2.14.61.51.41.77.96.77,1.67,0,.49-.16.93-.48,1.3-.32.37-.87.71-1.64,1.03-1.55.5-2.75,1.16-3.6,1.99-.85.83-1.66,2.23-2.44,4.21l-18.9,46.54c-1.98,4.8-3.82,8.52-5.53,11.15-1.71,2.63-3.55,4.45-5.51,5.45s-4.33,1.51-7.12,1.51c-4.13,0-7.4-1.1-9.79-3.31-2.4-2.21-3.6-4.9-3.6-8.07,0-2.29.56-4.09,1.67-5.37,1.11-1.29,2.6-1.93,4.47-1.93s3.19.55,4.16,1.64c.97,1.09,1.76,2.56,2.36,4.39l.69,2.01c.28,1.27.75,2.21,1.4,2.83.65.62,1.38.93,2.2.93s1.65-.24,2.41-.71c.76-.48,1.59-1.44,2.49-2.89s1.95-3.57,3.15-6.35Z"/>
    <path class="cls-1" d="M207.85,1245.52h38.54c1.06,0,1.85-.19,2.38-.58.53-.39,1.01-.78,1.43-1.17.42-.39.95-.58,1.59-.58.67,0,1.2.16,1.59.48.39.32.69.87.9,1.64l3.65,16.36c.14.63.11,1.16-.08,1.59-.19.42-.56.69-1.09.79-.49.11-.94.04-1.35-.18-.41-.23-.73-.66-.98-1.3-1.55-4.02-2.89-7.01-4.02-8.95-1.13-1.94-2.36-3.22-3.68-3.84-1.32-.62-3.06-.93-5.22-.93h-10.27v64.54c0,.71.23,1.29.69,1.75.46.46,1.11.76,1.96.9l3.97.64c1.16.25,1.75.78,1.75,1.59,0,.92-.65,1.38-1.96,1.38h-21.07c-.67,0-1.16-.13-1.48-.4-.32-.26-.48-.59-.48-.98,0-.81.58-1.34,1.75-1.59l3.97-.64c.85-.14,1.5-.44,1.96-.9.46-.46.69-1.04.69-1.75v-64.54h-10.27c-2.12,0-3.84.31-5.16.93-1.32.62-2.55,1.9-3.68,3.84-1.13,1.94-2.49,4.92-4.08,8.95-.21.64-.53,1.07-.95,1.3s-.88.29-1.38.18c-.53-.11-.89-.37-1.09-.79-.19-.42-.22-.95-.08-1.59l3.65-16.36c.21-.78.51-1.32.9-1.64.39-.32.92-.48,1.59-.48.64,0,1.16.19,1.59.58.42.39.91.78,1.46,1.17.55.39,1.33.58,2.36.58Z"/>
    <path class="cls-1" d="M281.6,1244.3v69.2c0,.81.2,1.44.61,1.88.41.44.98.75,1.72.93l2.75.53c1.13.28,1.69.76,1.69,1.43,0,.92-.65,1.38-1.96,1.38h-17.42c-.6,0-1.06-.12-1.38-.37-.32-.25-.48-.56-.48-.95,0-.35.14-.64.42-.87.28-.23.71-.41,1.27-.56l2.91-.58c.78-.18,1.37-.48,1.77-.9.41-.42.61-1.06.61-1.91v-63.06c0-.71-.13-1.22-.4-1.54-.26-.32-.7-.49-1.3-.53l-4.39-.11c-.56-.04-.97-.15-1.22-.34-.25-.19-.37-.45-.37-.77s.12-.6.37-.85c.25-.25.71-.48,1.38-.69l7.68-2.59c.88-.32,1.61-.55,2.2-.69.58-.14,1.07-.21,1.46-.21.71,0,1.23.18,1.56.56.33.37.5.91.5,1.61ZM280.17,1282.69l-1.69-1.69,2.54-2.17c4.02-3.49,7.54-5.96,10.54-7.39,3-1.43,5.93-2.14,8.79-2.14,4.41,0,7.96,1.36,10.64,4.08,2.68,2.72,4.02,6.44,4.02,11.17v28.7c0,.88.23,1.58.69,2.09.46.51,1.09.86,1.91,1.03l2.59.53c.56.14.99.33,1.27.56.28.23.42.52.42.87,0,.39-.15.71-.45.95-.3.25-.79.37-1.46.37h-17.47c-1.31,0-1.96-.46-1.96-1.38,0-.67.55-1.15,1.64-1.43l2.91-.53c.85-.18,1.46-.51,1.85-1.01.39-.49.58-1.18.58-2.06v-27.48c0-3.95-.99-6.91-2.96-8.87-1.98-1.96-4.59-2.94-7.84-2.94-1.98,0-4.12.53-6.43,1.59-2.31,1.06-4.86,2.75-7.65,5.08l-2.49,2.07Z"/>
    <path class="cls-1" d="M332,1308.69c0-3.99,1.77-7.3,5.32-9.93,3.55-2.63,8.45-3.94,14.69-3.94,2.51,0,4.84.25,6.99.74,2.15.5,4.09,1.11,5.82,1.85l-.53,2.38c-1.69-.67-3.47-1.24-5.32-1.72s-3.86-.71-6.01-.71c-4.1,0-7.3.92-9.61,2.75-2.31,1.84-3.47,4.32-3.47,7.47s.92,5.37,2.75,6.99c1.83,1.62,4.15,2.44,6.94,2.44s5.54-.64,8.15-1.93c2.61-1.29,4.91-3.15,6.88-5.59l1.06,1.96c-2.26,2.97-5.05,5.27-8.37,6.91-3.32,1.64-6.83,2.46-10.54,2.46-4.31,0-7.84-1.08-10.62-3.23-2.77-2.15-4.16-5.12-4.16-8.9ZM363.4,1313.35v-1.01l-.37-.48v-28.86c0-3.63-.9-6.4-2.7-8.29-1.8-1.89-4.38-2.83-7.73-2.83s-5.7.66-7.25,1.99c-1.55,1.32-2.33,2.9-2.33,4.74v3.6c0,1.31-.42,2.29-1.24,2.96-.83.67-1.93,1.01-3.31,1.01-1.24,0-2.2-.37-2.89-1.11-.69-.74-1.03-1.71-1.03-2.91,0-2.12.79-4.16,2.36-6.12,1.57-1.96,3.81-3.56,6.72-4.82,2.91-1.25,6.38-1.88,10.4-1.88,5.54,0,9.66,1.26,12.36,3.79s4.05,5.9,4.05,10.14v29.76c0,1.31.24,2.23.71,2.78.48.55,1.1.82,1.88.82.99,0,1.68-.21,2.07-.64.39-.42.71-.85.95-1.27.18-.21.34-.4.5-.56s.38-.24.66-.24.49.11.64.32c.14.21.21.51.21.9,0,.85-.27,1.7-.82,2.57-.55.87-1.35,1.6-2.41,2.2-1.06.6-2.37.9-3.92.9-2.44,0-4.3-.62-5.58-1.85-1.29-1.24-1.93-3.11-1.93-5.61Z"/>
    <path class="cls-1" d="M401.2,1244.3v69.2c0,.81.2,1.45.61,1.91.41.46.98.76,1.72.9l2.81.53c.56.14,1,.33,1.3.56.3.23.45.54.45.93s-.16.71-.48.95c-.32.25-.81.37-1.48.37h-17.53c-.6,0-1.06-.12-1.38-.37-.32-.25-.48-.56-.48-.95,0-.35.14-.64.42-.87.28-.23.71-.41,1.27-.56l2.91-.58c.78-.18,1.37-.48,1.77-.9.41-.42.61-1.06.61-1.91v-63.06c0-.71-.13-1.22-.4-1.54-.26-.32-.7-.49-1.3-.53l-4.39-.11c-.57-.04-.97-.15-1.22-.34-.25-.19-.37-.45-.37-.77s.12-.6.37-.85c.25-.25.71-.48,1.38-.69l7.68-2.59c.92-.32,1.66-.55,2.22-.69.56-.14,1.04-.21,1.43-.21.71,0,1.23.18,1.56.56.34.37.5.91.5,1.61Z"/>
    <path class="cls-1" d="M418.41,1308.69c0-3.99,1.77-7.3,5.32-9.93,3.55-2.63,8.44-3.94,14.69-3.94,2.51,0,4.84.25,6.99.74,2.15.5,4.09,1.11,5.82,1.85l-.53,2.38c-1.69-.67-3.47-1.24-5.32-1.72-1.85-.48-3.86-.71-6.01-.71-4.09,0-7.3.92-9.61,2.75-2.31,1.84-3.47,4.32-3.47,7.47s.92,5.37,2.75,6.99c1.83,1.62,4.15,2.44,6.94,2.44s5.54-.64,8.15-1.93c2.61-1.29,4.91-3.15,6.88-5.59l1.06,1.96c-2.26,2.97-5.05,5.27-8.37,6.91-3.32,1.64-6.83,2.46-10.54,2.46-4.31,0-7.85-1.08-10.62-3.23-2.77-2.15-4.16-5.12-4.16-8.9ZM449.81,1313.35v-1.01l-.37-.48v-28.86c0-3.63-.9-6.4-2.7-8.29-1.8-1.89-4.38-2.83-7.73-2.83s-5.7.66-7.25,1.99c-1.55,1.32-2.33,2.9-2.33,4.74v3.6c0,1.31-.42,2.29-1.24,2.96-.83.67-1.93,1.01-3.31,1.01-1.24,0-2.2-.37-2.89-1.11s-1.03-1.71-1.03-2.91c0-2.12.79-4.16,2.36-6.12,1.57-1.96,3.81-3.56,6.72-4.82s6.38-1.88,10.4-1.88c5.54,0,9.66,1.26,12.36,3.79s4.05,5.9,4.05,10.14v29.76c0,1.31.24,2.23.71,2.78.48.55,1.1.82,1.88.82.99,0,1.68-.21,2.06-.64.39-.42.71-.85.95-1.27.18-.21.34-.4.5-.56.16-.16.38-.24.66-.24s.49.11.64.32c.14.21.21.51.21.9,0,.85-.27,1.7-.82,2.57-.55.87-1.35,1.6-2.41,2.2-1.06.6-2.37.9-3.92.9-2.44,0-4.3-.62-5.59-1.85-1.29-1.24-1.93-3.11-1.93-5.61Z"/>
    <path class="cls-1" d="M489.62,1272.36c-2.82,0-5.09.77-6.8,2.3-1.71,1.54-2.57,3.56-2.57,6.06,0,1.55.38,2.95,1.14,4.18.76,1.24,2.07,2.36,3.94,3.36,1.87,1.01,4.48,1.99,7.84,2.94,4.34,1.09,7.79,2.44,10.35,4.02,2.56,1.59,4.38,3.36,5.45,5.32,1.08,1.96,1.61,4.1,1.61,6.43,0,4.06-1.48,7.38-4.45,9.95-2.96,2.58-7.15,3.87-12.55,3.87-2.05,0-3.75-.19-5.11-.58-1.36-.39-2.51-.77-3.44-1.14-.94-.37-1.77-.56-2.52-.56-.67,0-1.17.2-1.51.58-.34.39-.64.77-.93,1.14-.28.37-.71.56-1.27.56-.35,0-.64-.12-.85-.34-.21-.23-.44-.63-.69-1.19l-4.24-11.65c-.25-.67-.33-1.26-.24-1.77.09-.51.4-.87.93-1.09.49-.21.94-.2,1.32.03.39.23.72.59,1.01,1.09,1.55,3.07,3.24,5.47,5.06,7.2,1.82,1.73,3.76,2.93,5.82,3.6,2.06.67,4.19,1.01,6.38,1.01,3.67,0,6.42-.79,8.26-2.38,1.83-1.59,2.75-3.69,2.75-6.3,0-1.52-.4-2.93-1.19-4.24-.79-1.31-2.19-2.52-4.18-3.65-1.99-1.13-4.79-2.17-8.39-3.12-4.06-1.06-7.29-2.29-9.69-3.71-2.4-1.41-4.12-3.09-5.16-5.03-1.04-1.94-1.56-4.18-1.56-6.72s.62-4.81,1.85-6.8c1.23-1.99,3.02-3.56,5.35-4.71,2.33-1.15,5.08-1.72,8.26-1.72,2.05,0,3.72.21,5.03.63,1.31.42,2.39.85,3.26,1.27.86.42,1.6.63,2.2.63.74,0,1.28-.21,1.61-.63.33-.42.64-.85.93-1.27.28-.42.67-.63,1.16-.63.28,0,.54.1.77.29.23.19.4.56.5,1.08l3.49,11.01c.25.81.36,1.53.34,2.14-.02.62-.33,1.05-.93,1.3-.5.18-.93.11-1.3-.21-.37-.32-.75-.85-1.14-1.59-1.87-3.92-4.22-6.72-7.04-8.42-2.82-1.69-5.79-2.54-8.9-2.54Z"/>
    <path class="cls-1" d="M537.22,1272.36c-2.82,0-5.09.77-6.8,2.3-1.71,1.54-2.57,3.56-2.57,6.06,0,1.55.38,2.95,1.14,4.18.76,1.24,2.07,2.36,3.94,3.36,1.87,1.01,4.48,1.99,7.84,2.94,4.34,1.09,7.79,2.44,10.35,4.02,2.56,1.59,4.38,3.36,5.45,5.32,1.08,1.96,1.61,4.1,1.61,6.43,0,4.06-1.48,7.38-4.45,9.95-2.96,2.58-7.15,3.87-12.55,3.87-2.05,0-3.75-.19-5.11-.58-1.36-.39-2.51-.77-3.44-1.14-.94-.37-1.77-.56-2.52-.56-.67,0-1.17.2-1.51.58-.34.39-.64.77-.93,1.14-.28.37-.71.56-1.27.56-.35,0-.64-.12-.85-.34-.21-.23-.44-.63-.69-1.19l-4.24-11.65c-.25-.67-.33-1.26-.24-1.77.09-.51.4-.87.93-1.09.49-.21.94-.2,1.32.03.39.23.72.59,1.01,1.09,1.55,3.07,3.24,5.47,5.06,7.2,1.82,1.73,3.76,2.93,5.82,3.6,2.06.67,4.19,1.01,6.38,1.01,3.67,0,6.42-.79,8.26-2.38,1.83-1.59,2.75-3.69,2.75-6.3,0-1.52-.4-2.93-1.19-4.24-.79-1.31-2.19-2.52-4.18-3.65-1.99-1.13-4.79-2.17-8.39-3.12-4.06-1.06-7.29-2.29-9.69-3.71-2.4-1.41-4.12-3.09-5.16-5.03-1.04-1.94-1.56-4.18-1.56-6.72s.62-4.81,1.85-6.8c1.23-1.99,3.02-3.56,5.35-4.71,2.33-1.15,5.08-1.72,8.26-1.72,2.05,0,3.72.21,5.03.63,1.31.42,2.39.85,3.26,1.27.86.42,1.6.63,2.2.63.74,0,1.28-.21,1.61-.63.33-.42.64-.85.93-1.27.28-.42.67-.63,1.16-.63.28,0,.54.1.77.29.23.19.4.56.5,1.08l3.49,11.01c.25.81.36,1.53.34,2.14-.02.62-.33,1.05-.93,1.3-.5.18-.93.11-1.3-.21-.37-.32-.75-.85-1.14-1.59-1.87-3.92-4.22-6.72-7.04-8.42-2.82-1.69-5.79-2.54-8.9-2.54Z"/>
    <path class="cls-1" d="M612.19,1289.04c0,1.34-.42,2.37-1.27,3.1-.85.72-2.1,1.09-3.76,1.09h-34.68v-2.75h29.23c1.73,0,2.59-.74,2.59-2.22,0-4.8-1.19-8.64-3.57-11.52-2.38-2.88-5.57-4.31-9.56-4.31-3.21,0-6.02.87-8.42,2.62-2.4,1.75-4.27,4.17-5.61,7.25-1.34,3.09-2.01,6.68-2.01,10.77,0,7.2,1.76,12.73,5.29,16.57,3.53,3.85,8.1,5.77,13.71,5.77,3.88,0,7.22-.95,10.01-2.86,2.79-1.91,4.61-4.31,5.45-7.2.25-.49.48-.84.71-1.03.23-.19.5-.29.82-.29.42,0,.73.16.93.48.19.32.27.71.24,1.17-.28,2.79-1.33,5.33-3.15,7.62-1.82,2.29-4.2,4.12-7.15,5.48-2.95,1.36-6.26,2.04-9.93,2.04-4.84,0-9.07-1.03-12.71-3.1-3.64-2.06-6.45-4.98-8.44-8.74-1.99-3.76-2.99-8.18-2.99-13.26s.99-9.45,2.96-13.42c1.98-3.97,4.77-7.13,8.39-9.48,3.62-2.35,7.88-3.52,12.79-3.52,3.99,0,7.49.84,10.51,2.51,3.02,1.68,5.37,3.99,7.07,6.94,1.69,2.95,2.54,6.38,2.54,10.3Z"/>
    <path class="cls-1" d="M636.6,1271.99l.32,12.65v28.86c0,.78.22,1.39.66,1.85.44.46,1.1.74,1.99.85l5.03.58c.64.07,1.11.23,1.43.48.32.25.48.6.48,1.06,0,.39-.17.71-.5.95-.34.25-.82.37-1.46.37h-20.23c-.6,0-1.06-.12-1.38-.37-.32-.25-.48-.56-.48-.95,0-.35.14-.64.42-.87.28-.23.71-.41,1.27-.56l2.91-.58c.78-.14,1.37-.43,1.77-.87s.61-1.09.61-1.93v-35.32c0-.71-.13-1.22-.4-1.54s-.7-.49-1.3-.53l-4.39-.11c-.57-.03-.97-.15-1.22-.34-.25-.19-.37-.45-.37-.77s.12-.6.37-.85c.25-.25.71-.48,1.38-.69l7.57-2.59c1.06-.35,1.86-.59,2.41-.71.55-.12,1-.19,1.35-.19.56,0,.99.16,1.27.48.28.32.44.87.48,1.64ZM635.12,1292.38c0-4.87.75-9.03,2.25-12.47,1.5-3.44,3.45-6.07,5.85-7.89,2.4-1.82,4.92-2.73,7.57-2.73,3.04,0,5.4.8,7.09,2.41s2.54,3.73,2.54,6.38c0,1.73-.39,3.07-1.16,4.02-.78.95-1.77,1.43-2.97,1.43s-2.22-.37-2.94-1.11c-.72-.74-1.09-1.76-1.09-3.07v-1.64c0-1.3-.31-2.27-.93-2.89-.62-.62-1.65-.93-3.1-.93-1.84,0-3.63.71-5.37,2.12-1.75,1.41-3.18,3.5-4.29,6.27-1.11,2.77-1.67,6.22-1.67,10.35l-1.8-.26Z"/>
    <path class="cls-1" d="M693.36,1314.72l-3.6,8.74-19.27-46.22c-.6-1.52-1.24-2.52-1.91-3.02-.67-.49-1.89-.88-3.65-1.17-.67-.14-1.13-.33-1.38-.56-.25-.23-.37-.54-.37-.93,0-.42.17-.76.5-1.01.34-.25.79-.37,1.35-.37h18.95c.6,0,1.07.11,1.4.34.33.23.5.56.5.98,0,.39-.13.71-.4.95s-.75.42-1.46.53l-2.44.37c-1.84.28-2.9.79-3.2,1.54-.3.74-.06,2.1.71,4.08l14.24,35.74ZM685.25,1331.77l5.08-12.81,1.01-2.12,14.98-37.65c.81-1.98,1.07-3.36.77-4.16-.3-.79-1.39-1.33-3.26-1.61l-2.49-.37c-.71-.11-1.19-.28-1.46-.53-.26-.25-.4-.58-.4-1.01s.17-.75.5-.98c.33-.23.8-.34,1.4-.34h15.3c.56,0,1.01.12,1.35.37.33.25.5.58.5,1.01,0,.35-.12.65-.37.9-.25.25-.72.44-1.43.58-1.84.32-3.12.79-3.86,1.4-.74.62-1.45,1.77-2.12,3.47l-21.65,53.95c-1.45,3.53-2.87,6.27-4.26,8.23-1.4,1.96-2.88,3.32-4.45,4.08-1.57.76-3.36,1.14-5.37,1.14-3.14,0-5.59-.82-7.36-2.46-1.77-1.64-2.65-3.57-2.65-5.8,0-1.62.35-2.87,1.06-3.73.71-.87,1.66-1.3,2.86-1.3,1.09,0,1.96.39,2.59,1.17.64.78,1.06,1.8,1.27,3.07l.21,1.59c.11,1.34.48,2.3,1.11,2.88.64.58,1.41.87,2.33.87,1.06,0,2.06-.29,2.99-.87.93-.58,1.87-1.58,2.81-2.99.93-1.41,1.93-3.41,2.99-5.98Z"/>
    <path class="cls-1" d="M726.18,1319.43c-1.94,0-3.4-.56-4.37-1.69-.97-1.13-1.46-2.51-1.46-4.13,0-1.83.61-3.35,1.83-4.55,1.22-1.2,2.71-1.8,4.47-1.8,2.01,0,3.7.84,5.06,2.52,1.36,1.68,2.04,4.47,2.04,8.39,0,2.72-.41,5.07-1.22,7.07-.81,1.99-1.84,3.67-3.1,5.03-1.25,1.36-2.56,2.4-3.92,3.12-1.36.72-2.59,1.16-3.68,1.3-.64.07-1.13.02-1.48-.16-.35-.18-.55-.44-.58-.79-.04-.42.1-.79.4-1.09.3-.3.91-.63,1.83-.98,1.66-.63,3.06-1.48,4.21-2.54,1.15-1.06,2.03-2.22,2.65-3.5.62-1.27.93-2.56.93-3.86,0-.78-.19-1.36-.56-1.75-.37-.39-1.05-.58-2.04-.58h-1.01Z"/>
    <path class="cls-1" d="M791.57,1318.27c0,.39-.18.71-.53.98-.35.26-.88.4-1.59.4h-18.58c-.71,0-1.24-.13-1.61-.4s-.56-.59-.56-.98c0-.71.58-1.22,1.75-1.54l3.71-.95c1.66-.46,2.74-.95,3.26-1.48.51-.53.77-1.41.77-2.65v-52.15c0-.95-.15-1.79-.45-2.52-.3-.72-1.03-1.75-2.2-3.1l-4.87-5.61c-.39-.49-.64-.86-.77-1.09-.12-.23-.19-.45-.19-.66,0-.35.13-.61.4-.77.26-.16.61-.24,1.03-.24h6.19c.74,0,1.37.13,1.88.4s1.07.77,1.67,1.51l48.13,60.52-1.91,3.18v-57.61c0-1.24-.25-2.13-.74-2.67-.5-.55-1.57-1.03-3.23-1.46l-3.76-.95c-1.13-.35-1.69-.86-1.69-1.54,0-.42.18-.76.53-1.01.35-.25.88-.37,1.59-.37h18.58c.71,0,1.24.12,1.59.37.35.25.53.58.53,1.01,0,.67-.56,1.18-1.69,1.54l-3.76.95c-1.66.42-2.75.9-3.26,1.43-.51.53-.77,1.43-.77,2.7v55.06c0,.92.1,1.65.29,2.2.19.55.5,1.08.93,1.61l3.23,4.02c.39.53.65.94.79,1.24.14.3.21.57.21.82,0,.35-.13.64-.4.85s-.7.32-1.3.32h-7.47c-1.06,0-1.59-.44-1.59-1.32,0-.53-.1-1-.29-1.4-.19-.41-.73-1.17-1.61-2.3l-44.42-56.07,2.7-2.38v55.49c0,1.24.25,2.12.74,2.65.49.53,1.59,1.02,3.28,1.48l3.71.95c1.17.35,1.75.87,1.75,1.54Z"/>
    <path class="cls-1" d="M876.23,1269.35c4.94,0,9.31,1.09,13.1,3.28,3.79,2.19,6.77,5.22,8.92,9.08,2.15,3.86,3.23,8.32,3.23,13.37s-1.08,9.4-3.23,13.26c-2.15,3.87-5.15,6.91-8.97,9.13-3.83,2.22-8.25,3.34-13.26,3.34s-9.3-1.1-13.08-3.31c-3.78-2.21-6.75-5.25-8.92-9.13-2.17-3.88-3.26-8.33-3.26-13.34s1.08-9.4,3.23-13.26c2.15-3.87,5.14-6.9,8.97-9.11,3.83-2.21,8.25-3.31,13.26-3.31ZM879.94,1317.16c3.49-.46,6.35-1.75,8.58-3.87s3.76-4.93,4.61-8.45c.85-3.51.92-7.54.21-12.1-.71-4.66-2.05-8.55-4.02-11.67-1.98-3.12-4.42-5.38-7.33-6.78-2.91-1.39-6.13-1.84-9.66-1.35-3.49.46-6.35,1.76-8.58,3.89s-3.76,4.95-4.61,8.44c-.85,3.5-.92,7.52-.21,12.07.71,4.66,2.05,8.55,4.02,11.67,1.98,3.12,4.42,5.38,7.33,6.78,2.91,1.4,6.13,1.84,9.66,1.35Z"/>
    <path class="cls-1" d="M926,1271.99l.32,12.65v28.86c0,.78.22,1.39.66,1.85.44.46,1.1.74,1.99.85l5.03.58c.64.07,1.11.23,1.43.48.32.25.48.6.48,1.06,0,.39-.17.71-.5.95-.34.25-.82.37-1.46.37h-20.23c-.6,0-1.06-.12-1.38-.37-.32-.25-.48-.56-.48-.95,0-.35.14-.64.42-.87.28-.23.71-.41,1.27-.56l2.91-.58c.78-.14,1.37-.43,1.77-.87s.61-1.09.61-1.93v-35.32c0-.71-.13-1.22-.4-1.54s-.7-.49-1.3-.53l-4.39-.11c-.57-.03-.97-.15-1.22-.34-.25-.19-.37-.45-.37-.77s.12-.6.37-.85c.25-.25.71-.48,1.38-.69l7.57-2.59c1.06-.35,1.86-.59,2.41-.71.55-.12,1-.19,1.35-.19.56,0,.99.16,1.27.48.28.32.44.87.48,1.64ZM924.52,1292.38c0-4.87.75-9.03,2.25-12.47,1.5-3.44,3.45-6.07,5.85-7.89,2.4-1.82,4.92-2.73,7.57-2.73,3.04,0,5.4.8,7.09,2.41s2.54,3.73,2.54,6.38c0,1.73-.39,3.07-1.16,4.02-.78.95-1.77,1.43-2.97,1.43s-2.22-.37-2.94-1.11c-.72-.74-1.09-1.76-1.09-3.07v-1.64c0-1.3-.31-2.27-.93-2.89-.62-.62-1.65-.93-3.1-.93-1.84,0-3.63.71-5.37,2.12-1.75,1.41-3.18,3.5-4.29,6.27-1.11,2.77-1.67,6.22-1.67,10.35l-1.8-.26Z"/>
    <path class="cls-1" d="M960.04,1273.85l-3.18-.74c-.92-.25-1.54-.5-1.85-.77-.32-.26-.48-.56-.48-.87,0-.42.14-.74.42-.95.28-.21.69-.32,1.22-.32h3.49c1.06,0,1.88-.14,2.46-.42.58-.28,1.01-.81,1.3-1.59l2.7-7.31c.32-.71.66-1.22,1.03-1.54s.79-.48,1.24-.48c.49,0,.87.14,1.14.42.27.28.4.69.4,1.22v48.02c0,2.4.52,4.23,1.56,5.48,1.04,1.25,2.48,1.88,4.32,1.88,1.31,0,2.32-.18,3.04-.53.72-.35,1.28-.78,1.67-1.27.39-.49.75-.92,1.09-1.27.33-.35.71-.53,1.14-.53.39,0,.67.12.85.34.18.23.27.57.27,1.03,0,1.02-.44,2.05-1.32,3.07-.88,1.02-2.11,1.89-3.68,2.59-1.57.71-3.36,1.06-5.37,1.06-3.28,0-5.94-.89-7.97-2.67-2.03-1.78-3.04-4.49-3.04-8.13v-32.77c0-.81-.18-1.45-.53-1.91-.35-.46-.99-.81-1.91-1.06ZM965.81,1273.37v-3.18h15.78c.64,0,1.1.11,1.4.32.3.21.45.53.45.95,0,.56-.29,1.02-.87,1.38-.58.35-1.46.53-2.62.53h-14.14Z"/>
    <path class="cls-1" d="M1007.59,1244.3v69.2c0,.81.2,1.44.61,1.88.41.44.98.75,1.72.93l2.75.53c1.13.28,1.69.76,1.69,1.43,0,.92-.65,1.38-1.96,1.38h-17.42c-.6,0-1.06-.12-1.38-.37-.32-.25-.48-.56-.48-.95,0-.35.14-.64.42-.87.28-.23.71-.41,1.27-.56l2.91-.58c.78-.18,1.37-.48,1.77-.9.41-.42.61-1.06.61-1.91v-63.06c0-.71-.13-1.22-.4-1.54-.26-.32-.7-.49-1.3-.53l-4.39-.11c-.57-.04-.97-.15-1.22-.34-.25-.19-.37-.45-.37-.77s.12-.6.37-.85c.25-.25.71-.48,1.38-.69l7.68-2.59c.88-.32,1.61-.55,2.2-.69.58-.14,1.07-.21,1.46-.21.71,0,1.23.18,1.56.56.34.37.5.91.5,1.61ZM1006.16,1282.69l-1.69-1.69,2.54-2.17c4.02-3.49,7.54-5.96,10.54-7.39,3-1.43,5.93-2.14,8.79-2.14,4.41,0,7.96,1.36,10.64,4.08,2.68,2.72,4.02,6.44,4.02,11.17v28.7c0,.88.23,1.58.69,2.09.46.51,1.09.86,1.91,1.03l2.59.53c.56.14.99.33,1.27.56.28.23.42.52.42.87,0,.39-.15.71-.45.95-.3.25-.79.37-1.46.37h-17.47c-1.31,0-1.96-.46-1.96-1.38,0-.67.55-1.15,1.64-1.43l2.91-.53c.85-.18,1.46-.51,1.85-1.01.39-.49.58-1.18.58-2.06v-27.48c0-3.95-.99-6.91-2.96-8.87-1.98-1.96-4.59-2.94-7.84-2.94-1.98,0-4.12.53-6.43,1.59-2.31,1.06-4.86,2.75-7.65,5.08l-2.49,2.07Z"/>
    <path class="cls-1" d="M1099.45,1313.4c0,.71.22,1.28.66,1.72.44.44,1.07.75,1.88.93l3.87.64c.67.14,1.13.34,1.38.58.25.25.37.58.37,1.01,0,.39-.15.71-.45.98-.3.26-.8.4-1.51.4h-20.86c-.67,0-1.17-.13-1.48-.4-.32-.26-.48-.59-.48-.98,0-.81.58-1.34,1.75-1.59l3.97-.64c.85-.14,1.5-.44,1.96-.9.46-.46.69-1.04.69-1.75v-61.63c0-.71-.23-1.29-.69-1.75-.46-.46-1.11-.76-1.96-.9l-3.97-.63c-1.16-.25-1.75-.78-1.75-1.59,0-.42.16-.76.48-1.01.32-.25.81-.37,1.48-.37h21.07c.71,0,1.21.12,1.51.37.3.25.45.58.45,1.01,0,.81-.58,1.34-1.75,1.59l-3.97.63c-.85.14-1.5.44-1.96.9-.46.46-.69,1.04-.69,1.75v61.63ZM1095,1292.11l38.92-38.86c.67-.67,1.09-1.29,1.27-1.85.18-.56.09-1.04-.26-1.43-.35-.39-.97-.69-1.85-.9l-3.86-.64c-.71-.14-1.19-.33-1.46-.58-.26-.25-.4-.56-.4-.95,0-.42.18-.76.53-1.01.35-.25.86-.37,1.54-.37h18c.78,0,1.33.12,1.67.37.33.25.5.58.5,1.01,0,.39-.18.71-.53.95-.35.25-1.09.5-2.22.74-.64.11-1.23.26-1.77.45-.55.19-1.12.49-1.72.87-.6.39-1.31.95-2.12,1.67-.81.72-1.82,1.65-3.02,2.78l-41.51,41.19-1.69-3.44ZM1111.15,1278.24l6.57-5.19,26.26,39.76c.71,1.02,1.54,1.82,2.49,2.38s2.12.95,3.49,1.17c1.38.28,2.26.56,2.65.85.39.28.58.64.58,1.06s-.19.76-.56,1.01c-.37.25-.91.37-1.62.37h-21.28c-.71,0-1.24-.13-1.59-.4-.35-.26-.53-.61-.53-1.03,0-.39.15-.71.45-.98.3-.26.77-.45,1.4-.56l4.08-.58c.88-.18,1.35-.53,1.4-1.06.05-.53-.2-1.22-.77-2.06l-23.03-34.73Z"/>
    <path class="cls-1" d="M1201.26,1289.04c0,1.34-.42,2.37-1.27,3.1-.85.72-2.1,1.09-3.76,1.09h-34.68v-2.75h29.23c1.73,0,2.59-.74,2.59-2.22,0-4.8-1.19-8.64-3.57-11.52-2.38-2.88-5.57-4.31-9.56-4.31-3.21,0-6.02.87-8.42,2.62-2.4,1.75-4.27,4.17-5.61,7.25-1.34,3.09-2.01,6.68-2.01,10.77,0,7.2,1.76,12.73,5.29,16.57,3.53,3.85,8.1,5.77,13.71,5.77,3.88,0,7.22-.95,10.01-2.86,2.79-1.91,4.61-4.31,5.45-7.2.25-.49.48-.84.71-1.03.23-.19.5-.29.82-.29.42,0,.73.16.93.48.19.32.27.71.24,1.17-.28,2.79-1.33,5.33-3.15,7.62-1.82,2.29-4.2,4.12-7.15,5.48-2.95,1.36-6.26,2.04-9.93,2.04-4.84,0-9.07-1.03-12.71-3.1-3.64-2.06-6.45-4.98-8.44-8.74-1.99-3.76-2.99-8.18-2.99-13.26s.99-9.45,2.96-13.42c1.98-3.97,4.77-7.13,8.39-9.48,3.62-2.35,7.88-3.52,12.79-3.52,3.99,0,7.49.84,10.51,2.51,3.02,1.68,5.37,3.99,7.07,6.94,1.69,2.95,2.54,6.38,2.54,10.3Z"/>
    <path class="cls-1" d="M1225.67,1271.99l.32,12.65v28.86c0,.78.22,1.39.66,1.85.44.46,1.1.74,1.99.85l5.03.58c.64.07,1.11.23,1.43.48.32.25.48.6.48,1.06,0,.39-.17.71-.5.95-.34.25-.82.37-1.46.37h-20.23c-.6,0-1.06-.12-1.38-.37-.32-.25-.48-.56-.48-.95,0-.35.14-.64.42-.87.28-.23.71-.41,1.27-.56l2.91-.58c.78-.14,1.37-.43,1.77-.87s.61-1.09.61-1.93v-35.32c0-.71-.13-1.22-.4-1.54s-.7-.49-1.3-.53l-4.39-.11c-.57-.03-.97-.15-1.22-.34-.25-.19-.37-.45-.37-.77s.12-.6.37-.85c.25-.25.71-.48,1.38-.69l7.57-2.59c1.06-.35,1.86-.59,2.41-.71.55-.12,1-.19,1.35-.19.56,0,.99.16,1.27.48.28.32.44.87.48,1.64ZM1224.19,1292.38c0-4.87.75-9.03,2.25-12.47,1.5-3.44,3.45-6.07,5.85-7.89,2.4-1.82,4.92-2.73,7.57-2.73,3.04,0,5.4.8,7.09,2.41s2.54,3.73,2.54,6.38c0,1.73-.39,3.07-1.16,4.02-.78.95-1.77,1.43-2.97,1.43s-2.22-.37-2.94-1.11c-.72-.74-1.09-1.76-1.09-3.07v-1.64c0-1.3-.31-2.27-.93-2.89-.62-.62-1.65-.93-3.1-.93-1.84,0-3.63.71-5.37,2.12-1.75,1.41-3.18,3.5-4.29,6.27-1.11,2.77-1.67,6.22-1.67,10.35l-1.8-.26Z"/>
    <path class="cls-1" d="M1257.65,1308.69c0-3.99,1.77-7.3,5.32-9.93,3.55-2.63,8.44-3.94,14.69-3.94,2.51,0,4.84.25,6.99.74,2.15.5,4.09,1.11,5.82,1.85l-.53,2.38c-1.69-.67-3.47-1.24-5.32-1.72-1.85-.48-3.86-.71-6.01-.71-4.09,0-7.3.92-9.61,2.75-2.31,1.84-3.47,4.32-3.47,7.47s.92,5.37,2.75,6.99c1.83,1.62,4.15,2.44,6.94,2.44s5.54-.64,8.15-1.93c2.61-1.29,4.91-3.15,6.88-5.59l1.06,1.96c-2.26,2.97-5.05,5.27-8.37,6.91-3.32,1.64-6.83,2.46-10.54,2.46-4.31,0-7.85-1.08-10.62-3.23-2.77-2.15-4.16-5.12-4.16-8.9ZM1289.04,1313.35v-1.01l-.37-.48v-28.86c0-3.63-.9-6.4-2.7-8.29-1.8-1.89-4.38-2.83-7.73-2.83s-5.7.66-7.25,1.99c-1.55,1.32-2.33,2.9-2.33,4.74v3.6c0,1.31-.42,2.29-1.24,2.96-.83.67-1.93,1.01-3.31,1.01-1.24,0-2.2-.37-2.89-1.11s-1.03-1.71-1.03-2.91c0-2.12.79-4.16,2.36-6.12,1.57-1.96,3.81-3.56,6.72-4.82s6.38-1.88,10.4-1.88c5.54,0,9.66,1.26,12.36,3.79s4.05,5.9,4.05,10.14v29.76c0,1.31.24,2.23.71,2.78.48.55,1.1.82,1.88.82.99,0,1.68-.21,2.06-.64.39-.42.71-.85.95-1.27.18-.21.34-.4.5-.56.16-.16.38-.24.66-.24s.49.11.64.32c.14.21.21.51.21.9,0,.85-.27,1.7-.82,2.57-.55.87-1.35,1.6-2.41,2.2-1.06.6-2.37.9-3.92.9-2.44,0-4.3-.62-5.59-1.85-1.29-1.24-1.93-3.11-1.93-5.61Z"/>
    <path class="cls-1" d="M1326.85,1244.3v69.2c0,.81.2,1.45.61,1.91.41.46.98.76,1.72.9l2.81.53c.56.14,1,.33,1.3.56.3.23.45.54.45.93s-.16.71-.48.95c-.32.25-.81.37-1.48.37h-17.53c-.6,0-1.06-.12-1.38-.37-.32-.25-.48-.56-.48-.95,0-.35.14-.64.42-.87.28-.23.71-.41,1.27-.56l2.91-.58c.78-.18,1.37-.48,1.77-.9.41-.42.61-1.06.61-1.91v-63.06c0-.71-.13-1.22-.4-1.54-.26-.32-.7-.49-1.3-.53l-4.39-.11c-.57-.04-.97-.15-1.22-.34-.25-.19-.37-.45-.37-.77s.12-.6.37-.85c.25-.25.71-.48,1.38-.69l7.68-2.59c.92-.32,1.66-.55,2.22-.69.56-.14,1.04-.21,1.43-.21.71,0,1.23.18,1.56.56.34.37.5.91.5,1.61Z"/>
    <path class="cls-1" d="M1344.05,1308.69c0-3.99,1.77-7.3,5.32-9.93,3.55-2.63,8.44-3.94,14.69-3.94,2.51,0,4.84.25,6.99.74,2.15.5,4.09,1.11,5.82,1.85l-.53,2.38c-1.69-.67-3.47-1.24-5.32-1.72-1.85-.48-3.86-.71-6.01-.71-4.09,0-7.3.92-9.61,2.75-2.31,1.84-3.47,4.32-3.47,7.47s.92,5.37,2.75,6.99c1.83,1.62,4.15,2.44,6.94,2.44s5.54-.64,8.15-1.93c2.61-1.29,4.91-3.15,6.88-5.59l1.06,1.96c-2.26,2.97-5.05,5.27-8.37,6.91-3.32,1.64-6.83,2.46-10.54,2.46-4.31,0-7.85-1.08-10.62-3.23-2.77-2.15-4.16-5.12-4.16-8.9ZM1375.45,1313.35v-1.01l-.37-.48v-28.86c0-3.63-.9-6.4-2.7-8.29-1.8-1.89-4.38-2.83-7.73-2.83s-5.7.66-7.25,1.99c-1.55,1.32-2.33,2.9-2.33,4.74v3.6c0,1.31-.42,2.29-1.24,2.96-.83.67-1.93,1.01-3.31,1.01-1.24,0-2.2-.37-2.89-1.11s-1.03-1.71-1.03-2.91c0-2.12.79-4.16,2.36-6.12,1.57-1.96,3.81-3.56,6.72-4.82s6.38-1.88,10.4-1.88c5.54,0,9.66,1.26,12.36,3.79s4.05,5.9,4.05,10.14v29.76c0,1.31.24,2.23.71,2.78.48.55,1.1.82,1.88.82.99,0,1.68-.21,2.06-.64.39-.42.71-.85.95-1.27.18-.21.34-.4.5-.56.16-.16.38-.24.66-.24s.49.11.64.32c.14.21.21.51.21.9,0,.85-.27,1.7-.82,2.57-.55.87-1.35,1.6-2.41,2.2-1.06.6-2.37.9-3.92.9-2.44,0-4.3-.62-5.59-1.85-1.29-1.24-1.93-3.11-1.93-5.61Z"/>
  </g>
</svg>