<svg xmlns="http://www.w3.org/2000/svg" width="121" height="52" viewBox="0 0 121 52" fill="none"><path d="M37.686 44.642C37.686 45.182 37.556 45.652 37.296 46.052C37.04 46.448 36.674 46.754 36.198 46.97C35.722 47.186 35.156 47.294 34.5 47.294C34.112 47.294 33.732 47.25 33.36 47.162C32.992 47.074 32.664 46.95 32.376 46.79L32.484 46.028C32.652 46.128 32.822 46.212 32.994 46.28C33.166 46.344 33.34 46.392 33.516 46.424C33.692 46.456 33.868 46.472 34.044 46.472C34.408 46.472 34.73 46.4 35.01 46.256C35.29 46.112 35.51 45.9 35.67 45.62C35.83 45.34 35.91 44.994 35.91 44.582C35.91 44.17 35.818 43.804 35.634 43.484C35.45 43.164 35.186 42.912 34.842 42.728C34.498 42.544 34.09 42.452 33.618 42.452H33.174V48.566C33.174 48.71 33.202 48.82 33.258 48.896C33.318 48.968 33.404 49.02 33.516 49.052L33.954 49.16C34.062 49.196 34.142 49.248 34.194 49.316C34.246 49.38 34.272 49.47 34.272 49.586C34.272 49.718 34.232 49.82 34.152 49.892C34.076 49.964 33.958 50 33.798 50H30.942C30.786 50 30.668 49.964 30.588 49.892C30.508 49.82 30.468 49.718 30.468 49.586C30.468 49.378 30.574 49.228 30.786 49.136L31.05 49.052C31.162 49.008 31.246 48.95 31.302 48.878C31.362 48.806 31.392 48.702 31.392 48.566V43.034C31.392 42.894 31.362 42.788 31.302 42.716C31.246 42.644 31.162 42.588 31.05 42.548L30.786 42.464C30.574 42.372 30.468 42.222 30.468 42.014C30.468 41.882 30.508 41.78 30.588 41.708C30.668 41.636 30.786 41.6 30.942 41.6H33.69C34.55 41.6 35.276 41.734 35.868 42.002C36.464 42.27 36.916 42.634 37.224 43.094C37.532 43.55 37.686 44.066 37.686 44.642ZM41.5397 46.418H45.1337L45.1637 47.282H41.5037L41.5397 46.418ZM42.3677 49.586C42.3677 49.714 42.3277 49.816 42.2477 49.892C42.1717 49.964 42.0537 50 41.8937 50H40.1597C39.9997 50 39.8797 49.964 39.7997 49.892C39.7237 49.816 39.6857 49.714 39.6857 49.586C39.6857 49.494 39.7077 49.418 39.7517 49.358C39.7997 49.294 39.8737 49.23 39.9737 49.166L40.1597 49.088C40.2517 49.044 40.3197 48.984 40.3637 48.908C40.4117 48.828 40.4697 48.676 40.5377 48.452L42.2897 42.992C42.3457 42.82 42.3637 42.7 42.3437 42.632C42.3237 42.564 42.2497 42.504 42.1217 42.452C42.0057 42.404 41.9177 42.346 41.8577 42.278C41.7977 42.21 41.7677 42.122 41.7677 42.014C41.7677 41.882 41.8077 41.78 41.8877 41.708C41.9677 41.636 42.0877 41.6 42.2477 41.6H45.2657C45.4257 41.6 45.5437 41.638 45.6197 41.714C45.6997 41.786 45.7397 41.886 45.7397 42.014C45.7397 42.122 45.7097 42.212 45.6497 42.284C45.5897 42.352 45.4997 42.41 45.3797 42.458C45.2837 42.498 45.2257 42.554 45.2057 42.626C45.1897 42.694 45.2037 42.804 45.2477 42.956L46.9757 48.284C47.0597 48.548 47.1397 48.738 47.2157 48.854C47.2917 48.97 47.3977 49.058 47.5337 49.118C47.6697 49.186 47.7617 49.254 47.8097 49.322C47.8617 49.39 47.8877 49.478 47.8877 49.586C47.8877 49.71 47.8477 49.81 47.7677 49.886C47.6917 49.962 47.5737 50 47.4137 50H44.9657C44.8017 50 44.6817 49.964 44.6057 49.892C44.5297 49.816 44.4917 49.714 44.4917 49.586C44.4917 49.482 44.5177 49.396 44.5697 49.328C44.6257 49.26 44.7037 49.206 44.8037 49.166L45.1457 49.082C45.2337 49.054 45.2777 48.998 45.2777 48.914C45.2777 48.83 45.2457 48.688 45.1817 48.488L43.2497 42.362H43.4237L41.5217 48.296C41.4737 48.46 41.4397 48.592 41.4197 48.692C41.4037 48.788 41.4157 48.866 41.4557 48.926C41.4997 48.986 41.5797 49.04 41.6957 49.088L42.0497 49.172C42.1537 49.216 42.2317 49.27 42.2837 49.334C42.3397 49.398 42.3677 49.482 42.3677 49.586ZM53.8404 42.464L53.5764 42.548C53.4684 42.588 53.3844 42.644 53.3244 42.716C53.2684 42.788 53.2404 42.894 53.2404 43.034V48.608C53.2404 48.792 53.2844 48.926 53.3724 49.01C53.4644 49.09 53.6024 49.13 53.7864 49.13H54.8424C55.0344 49.13 55.2004 49.104 55.3404 49.052C55.4844 49 55.6104 48.91 55.7184 48.782C55.8304 48.65 55.9324 48.472 56.0244 48.248L56.2884 47.612C56.3484 47.468 56.4224 47.372 56.5104 47.324C56.6024 47.276 56.7084 47.264 56.8284 47.288C56.9484 47.316 57.0344 47.382 57.0864 47.486C57.1424 47.586 57.1504 47.714 57.1104 47.87L56.6664 49.628C56.6144 49.832 56.5444 49.98 56.4564 50.072C56.3684 50.168 56.2424 50.216 56.0784 50.216C55.9744 50.216 55.8764 50.198 55.7844 50.162C55.6924 50.126 55.5944 50.09 55.4904 50.054C55.3864 50.018 55.2624 50 55.1184 50H51.0084C50.8524 50 50.7344 49.964 50.6544 49.892C50.5744 49.82 50.5344 49.718 50.5344 49.586C50.5344 49.378 50.6404 49.228 50.8524 49.136L51.1164 49.052C51.2284 49.008 51.3124 48.95 51.3684 48.878C51.4284 48.806 51.4584 48.702 51.4584 48.566V43.034C51.4584 42.894 51.4284 42.788 51.3684 42.716C51.3124 42.644 51.2284 42.588 51.1164 42.548L50.8524 42.464C50.6404 42.372 50.5344 42.222 50.5344 42.014C50.5344 41.882 50.5744 41.78 50.6544 41.708C50.7344 41.636 50.8524 41.6 51.0084 41.6H53.6844C53.8444 41.6 53.9624 41.636 54.0384 41.708C54.1184 41.78 54.1584 41.882 54.1584 42.014C54.1584 42.222 54.0524 42.372 53.8404 42.464ZM61.278 46.418H64.872L64.902 47.282H61.242L61.278 46.418ZM62.106 49.586C62.106 49.714 62.066 49.816 61.986 49.892C61.91 49.964 61.792 50 61.632 50H59.898C59.738 50 59.618 49.964 59.538 49.892C59.462 49.816 59.424 49.714 59.424 49.586C59.424 49.494 59.446 49.418 59.49 49.358C59.538 49.294 59.612 49.23 59.712 49.166L59.898 49.088C59.99 49.044 60.058 48.984 60.102 48.908C60.15 48.828 60.208 48.676 60.276 48.452L62.028 42.992C62.084 42.82 62.102 42.7 62.082 42.632C62.062 42.564 61.988 42.504 61.86 42.452C61.744 42.404 61.656 42.346 61.596 42.278C61.536 42.21 61.506 42.122 61.506 42.014C61.506 41.882 61.546 41.78 61.626 41.708C61.706 41.636 61.826 41.6 61.986 41.6H65.004C65.164 41.6 65.282 41.638 65.358 41.714C65.438 41.786 65.478 41.886 65.478 42.014C65.478 42.122 65.448 42.212 65.388 42.284C65.328 42.352 65.238 42.41 65.118 42.458C65.022 42.498 64.964 42.554 64.944 42.626C64.928 42.694 64.942 42.804 64.986 42.956L66.714 48.284C66.798 48.548 66.878 48.738 66.954 48.854C67.03 48.97 67.136 49.058 67.272 49.118C67.408 49.186 67.5 49.254 67.548 49.322C67.6 49.39 67.626 49.478 67.626 49.586C67.626 49.71 67.586 49.81 67.506 49.886C67.43 49.962 67.312 50 67.152 50H64.704C64.54 50 64.42 49.964 64.344 49.892C64.268 49.816 64.23 49.714 64.23 49.586C64.23 49.482 64.256 49.396 64.308 49.328C64.364 49.26 64.442 49.206 64.542 49.166L64.884 49.082C64.972 49.054 65.016 48.998 65.016 48.914C65.016 48.83 64.984 48.688 64.92 48.488L62.988 42.362H63.162L61.26 48.296C61.212 48.46 61.178 48.592 61.158 48.692C61.142 48.788 61.154 48.866 61.194 48.926C61.238 48.986 61.318 49.04 61.434 49.088L61.788 49.172C61.892 49.216 61.97 49.27 62.022 49.334C62.078 49.398 62.106 49.482 62.106 49.586ZM77.5455 47.864C77.5215 48.12 77.4315 48.384 77.2755 48.656C77.1195 48.924 76.9015 49.174 76.6215 49.406C76.3455 49.638 76.0075 49.826 75.6075 49.97C75.2115 50.11 74.7555 50.18 74.2395 50.18C73.4115 50.18 72.6935 49.994 72.0855 49.622C71.4815 49.25 71.0135 48.736 70.6815 48.08C70.3495 47.42 70.1835 46.662 70.1835 45.806C70.1835 45.186 70.2835 44.61 70.4835 44.078C70.6875 43.546 70.9675 43.082 71.3235 42.686C71.6835 42.29 72.1015 41.982 72.5775 41.762C73.0535 41.542 73.5675 41.432 74.1195 41.432C74.5075 41.432 74.8195 41.468 75.0555 41.54C75.2955 41.612 75.4855 41.686 75.6255 41.762C75.7655 41.834 75.8775 41.87 75.9615 41.87C76.0455 41.87 76.1095 41.836 76.1535 41.768C76.2015 41.7 76.2515 41.634 76.3035 41.57C76.3595 41.502 76.4355 41.468 76.5315 41.468C76.6315 41.468 76.7075 41.498 76.7595 41.558C76.8115 41.618 76.8615 41.73 76.9095 41.894L77.4975 43.874C77.5335 43.998 77.5195 44.108 77.4555 44.204C77.3915 44.3 77.2955 44.358 77.1675 44.378C77.0555 44.394 76.9535 44.378 76.8615 44.33C76.7695 44.282 76.6935 44.192 76.6335 44.06C76.4375 43.604 76.2255 43.246 75.9975 42.986C75.7695 42.722 75.5175 42.534 75.2415 42.422C74.9695 42.31 74.6655 42.254 74.3295 42.254C73.9775 42.254 73.6575 42.336 73.3695 42.5C73.0855 42.66 72.8415 42.888 72.6375 43.184C72.4335 43.48 72.2755 43.83 72.1635 44.234C72.0555 44.638 72.0015 45.08 72.0015 45.56C72.0015 46.284 72.1215 46.902 72.3615 47.414C72.6015 47.922 72.9275 48.312 73.3395 48.584C73.7555 48.856 74.2255 48.992 74.7495 48.992C75.1975 48.992 75.5995 48.892 75.9555 48.692C76.3155 48.492 76.6295 48.194 76.8975 47.798C76.9975 47.682 77.0835 47.606 77.1555 47.57C77.2315 47.534 77.3015 47.526 77.3655 47.546C77.4295 47.562 77.4755 47.598 77.5035 47.654C77.5355 47.71 77.5495 47.78 77.5455 47.864ZM82.2015 45.41H84.3255C84.5215 45.41 84.6575 45.368 84.7335 45.284C84.8135 45.2 84.8695 45.054 84.9015 44.846C84.9295 44.726 84.9735 44.638 85.0335 44.582C85.0975 44.522 85.1735 44.49 85.2615 44.486C85.4655 44.478 85.5955 44.592 85.6515 44.828L86.0355 46.418C86.0715 46.566 86.0675 46.686 86.0235 46.778C85.9835 46.866 85.9115 46.926 85.8075 46.958C85.7115 46.99 85.6195 46.986 85.5315 46.946C85.4435 46.906 85.3695 46.836 85.3095 46.736C85.2335 46.604 85.1615 46.502 85.0935 46.43C85.0255 46.354 84.9415 46.302 84.8415 46.274C84.7455 46.242 84.6155 46.226 84.4515 46.226H82.2015V45.41ZM80.3235 42.014C80.3235 41.882 80.3635 41.78 80.4435 41.708C80.5235 41.636 80.6415 41.6 80.7975 41.6H85.0275C85.1755 41.6 85.3015 41.58 85.4055 41.54C85.5095 41.496 85.6055 41.454 85.6935 41.414C85.7855 41.374 85.8855 41.354 85.9935 41.354C86.1615 41.354 86.2875 41.402 86.3715 41.498C86.4555 41.59 86.5275 41.738 86.5875 41.942L86.9775 43.394C87.0175 43.526 87.0055 43.636 86.9415 43.724C86.8775 43.812 86.7855 43.868 86.6655 43.892C86.5535 43.916 86.4475 43.906 86.3475 43.862C86.2515 43.814 86.1715 43.716 86.1075 43.568C86.0075 43.324 85.9115 43.128 85.8195 42.98C85.7275 42.832 85.6295 42.72 85.5255 42.644C85.4215 42.568 85.3075 42.518 85.1835 42.494C85.0595 42.466 84.9155 42.452 84.7515 42.452H83.0235V48.362C83.0235 48.622 83.0895 48.818 83.2215 48.95C83.3535 49.082 83.5475 49.148 83.8035 49.148H84.8775C85.1215 49.148 85.3275 49.114 85.4955 49.046C85.6675 48.978 85.8215 48.848 85.9575 48.656C86.0975 48.46 86.2375 48.17 86.3775 47.786C86.4295 47.65 86.5015 47.558 86.5935 47.51C86.6855 47.462 86.7895 47.452 86.9055 47.48C87.0335 47.504 87.1235 47.568 87.1755 47.672C87.2315 47.776 87.2395 47.906 87.1995 48.062L86.8035 49.622C86.7475 49.826 86.6755 49.974 86.5875 50.066C86.5035 50.162 86.3755 50.21 86.2035 50.21C86.1035 50.21 86.0075 50.192 85.9155 50.156C85.8275 50.124 85.7315 50.09 85.6275 50.054C85.5235 50.018 85.3995 50 85.2555 50H80.7975C80.6415 50 80.5235 49.964 80.4435 49.892C80.3635 49.82 80.3235 49.718 80.3235 49.586C80.3235 49.378 80.4295 49.228 80.6415 49.136L80.9055 49.052C81.0175 49.008 81.1015 48.95 81.1575 48.878C81.2175 48.806 81.2475 48.702 81.2475 48.566V43.034C81.2475 42.894 81.2175 42.788 81.1575 42.716C81.1015 42.644 81.0175 42.588 80.9055 42.548L80.6415 42.464C80.4295 42.372 80.3235 42.222 80.3235 42.014Z" fill="#C29A5C"></path><path d="M11.125 4.51562C15.9375 4.51562 18.3438 6.08333 18.3438 9.21875C18.3438 10.7396 17.6979 12.1562 16.4062 13.4688C15.3854 14.5 14.0625 15.4062 12.4375 16.1875C13.25 16.5104 14.0521 17.1094 14.8438 17.9844C15.0625 18.2344 15.2917 18.4896 15.5312 18.75L19.5938 23.25C20.3021 24.0521 20.8125 24.5312 21.125 24.6875C21.4479 24.8438 21.7135 24.9219 21.9219 24.9219C22.401 24.9219 22.901 24.7552 23.4219 24.4219C22.1719 26.1927 20.6198 27.0781 18.7656 27.0781C18.2969 27.0781 17.8333 26.8125 17.375 26.2812C17.2604 26.1458 17.1406 26.0104 17.0156 25.875L12.8438 21.2656C12.25 20.6094 11.7448 20.0625 11.3281 19.625C10.9115 19.1771 10.5 18.8177 10.0938 18.5469C9.32292 18.0365 8.27083 17.7812 6.9375 17.7812V20.9375C6.9375 21.9583 6.89583 22.6406 6.8125 22.9844C6.67708 23.4948 6.34896 24.125 5.82812 24.875H10.8281C10.6927 24.8958 10.474 25.0365 10.1719 25.2969C9.88021 25.5573 9.63021 25.7812 9.42188 25.9688C9.21354 26.1458 9.01042 26.3125 8.8125 26.4688C8.34375 26.8229 8.00521 27 7.79688 27H2.65625C3.48958 26.0833 3.90625 24.8385 3.90625 23.2656V6.64062H0.53125L1.125 6.15625C2.45833 5.0625 3.27083 4.51562 3.5625 4.51562H11.125ZM15.3125 11.4844C15.3125 10.5885 15.1198 9.83333 14.7344 9.21875C14.349 8.60417 13.849 8.10417 13.2344 7.71875C12.0885 7 10.6354 6.64062 8.875 6.64062H6.9375V15.5938H9.375C11.2396 15.5938 12.6146 15.3594 13.5 14.8906C14.7083 14.2552 15.3125 13.1198 15.3125 11.4844ZM34.5469 22.375L34.5156 23.4688C34.5156 24.2812 34.7448 24.7969 35.2031 25.0156C35.3802 25.099 35.5833 25.1406 35.8125 25.1406C36.1771 25.1406 36.5521 25.0573 36.9375 24.8906C36.5417 25.0573 36.1979 25.276 35.9062 25.5469C35.6146 25.8177 35.3177 26.0833 35.0156 26.3438C34.2656 26.9688 33.5104 27.2812 32.75 27.2812C31.9896 27.2812 31.5833 26.8438 31.5312 25.9688C31.5104 25.7396 31.5 25.5104 31.5 25.2812C29.625 26.5833 27.9062 27.2344 26.3438 27.2344C25.0208 27.2344 24.1042 26.8333 23.5938 26.0312C23.4062 25.7396 23.3125 25.3385 23.3125 24.8281C23.3125 24.3177 23.4688 23.8073 23.7812 23.2969C24.0938 22.776 24.4896 22.3021 24.9688 21.875C25.8229 21.0833 26.8542 20.4323 28.0625 19.9219C28.9583 19.5365 30.1094 19.3177 31.5156 19.2656V18.5781C31.5156 16.9219 31.3646 15.8021 31.0625 15.2188C30.7604 14.6354 30.3698 14.2083 29.8906 13.9375C29.4115 13.6562 28.849 13.5156 28.2031 13.5156C27.1094 13.5156 26.1458 13.7292 25.3125 14.1562C26.4583 13.2083 27.2969 12.5833 27.8281 12.2812C28.9219 11.6667 29.9115 11.3594 30.7969 11.3594C31.6927 11.3594 32.3646 11.4896 32.8125 11.75C33.2604 12.0104 33.6146 12.3542 33.875 12.7812C34.3229 13.5312 34.5469 14.6094 34.5469 16.0156V22.375ZM27.2031 24.625C27.4531 24.8021 27.7448 24.9323 28.0781 25.0156C28.4115 25.099 28.9062 25.1406 29.5625 25.1406C30.2188 25.1406 30.8698 24.9844 31.5156 24.6719V21.3906H28.9844C28.0781 21.3906 27.2865 21.4531 26.6094 21.5781C26.474 22.026 26.4062 22.4531 26.4062 22.8594C26.4062 23.2656 26.474 23.6146 26.6094 23.9062C26.7552 24.1979 26.9531 24.4375 27.2031 24.625ZM43.1562 0.484375C43.1979 1.15104 43.2188 1.70833 43.2188 2.15625V3.1875C43.2188 3.65625 43.1354 3.95833 42.9688 4.09375C42.8125 4.21875 42.6302 4.35417 42.4219 4.5C42.224 4.64583 42.0052 4.80208 41.7656 4.96875C41.526 5.125 41.2917 5.27604 41.0625 5.42188C40.8438 5.55729 40.6458 5.68229 40.4688 5.79688C40.3021 5.90104 40.1875 5.96875 40.125 6C40.1562 5.65625 40.1719 5.17708 40.1719 4.5625C40.1719 3.9375 40.1562 3.28646 40.125 2.60938L43.1562 0.484375ZM38.25 32.8594C38.0104 33.0469 37.8906 33.2708 37.8906 33.5312C37.8906 33.8021 37.9896 34 38.1875 34.125C38.3854 34.25 38.5938 34.3073 38.8125 34.2969H38.8438C39.6771 32.901 40.1354 31.0052 40.2188 28.6094C40.25 27.9427 40.2656 27.2917 40.2656 26.6562V17.5625C40.2656 16.3958 40.0781 15.625 39.7031 15.25C39.526 15.0729 39.2969 14.9844 39.0156 14.9844C38.651 14.9844 38.1615 15.0573 37.5469 15.2031C38.8177 14.2031 40.7344 12.8958 43.2969 11.2812V23.9375C43.2969 26.2083 43.1927 27.776 42.9844 28.6406C42.7865 29.5156 42.5365 30.3073 42.2344 31.0156C41.9323 31.724 41.5677 32.401 41.1406 33.0469C40.7135 33.7031 40.2292 34.2812 39.6875 34.7812C38.5208 35.875 37.25 36.4219 35.875 36.4219C35.2083 36.4219 34.875 36.1719 34.875 35.6719C34.875 35.349 35.0469 35.0521 35.3906 34.7812C35.724 34.5104 36.0208 34.2917 36.2812 34.125C36.5312 33.9583 36.7812 33.8021 37.0312 33.6562C37.6771 33.2812 38.0833 33.0156 38.25 32.8594ZM65.6719 23.9531C70.0052 16.7344 72.1719 11.7656 72.1719 9.04688C72.1719 7.85938 71.8125 7.0625 71.0938 6.65625C70.8333 6.51042 70.5156 6.4375 70.1406 6.4375C69.776 6.4375 69.401 6.50521 69.0156 6.64062C69.4219 6.47396 69.7812 6.24479 70.0938 5.95312C70.4167 5.65104 70.6667 5.41667 70.8438 5.25C71.0208 5.08333 71.2188 4.93229 71.4375 4.79688C71.9062 4.49479 72.474 4.34375 73.1406 4.34375C73.8177 4.34375 74.3281 4.55208 74.6719 4.96875C75.026 5.375 75.2031 5.93229 75.2031 6.64062C75.2031 7.33854 75.0833 8.13542 74.8438 9.03125C74.6042 9.92708 74.2917 10.8594 73.9062 11.8281C73.5208 12.7969 73.0781 13.7812 72.5781 14.7812C72.0885 15.7812 71.5833 16.75 71.0625 17.6875C70.5312 18.6562 69.8385 19.8542 68.9844 21.2812C68.1302 22.7083 67.5365 23.7083 67.2031 24.2812C66.8698 24.8438 66.5625 25.2865 66.2812 25.6094C66 25.9219 65.7135 26.1719 65.4219 26.3594C65.1302 26.5469 64.8281 26.7344 64.5156 26.9219C63.6823 27.4219 63.2031 27.7552 63.0781 27.9219C62.7344 26.5365 62.4062 25.151 62.0938 23.7656C61.7812 22.3698 61.4479 20.9792 61.0938 19.5938C60.2917 16.4062 59.4427 13.6823 58.5469 11.4219C58.4323 11.1406 58.3021 10.8229 58.1562 10.4688C58.0104 10.1042 57.8438 9.73958 57.6562 9.375C57.4792 9 57.276 8.63542 57.0469 8.28125C56.8281 7.92708 56.5833 7.61458 56.3125 7.34375C55.7188 6.72917 55.0781 6.42188 54.3906 6.42188C54.026 6.42188 53.6667 6.51562 53.3125 6.70312C52.9479 6.89062 52.6823 7 52.5156 7.03125C52.526 7.03125 52.599 6.96875 52.7344 6.84375C52.8698 6.71875 52.974 6.63021 53.0469 6.57812C53.1094 6.51562 53.2188 6.42708 53.375 6.3125C53.5208 6.1875 53.7708 6 54.125 5.75C54.4896 5.48958 54.8646 5.25 55.25 5.03125C56.1562 4.51042 56.849 4.25 57.3281 4.25C57.8073 4.25 58.1562 4.29688 58.375 4.39062C58.5938 4.48438 58.849 4.66667 59.1406 4.9375C59.4427 5.19792 59.776 5.63542 60.1406 6.25C60.5052 6.85417 60.8594 7.55729 61.2031 8.35938C61.5469 9.15104 61.875 10.0156 62.1875 10.9531C62.5104 11.8802 62.8177 12.8333 63.1094 13.8125C63.401 14.7917 63.6771 15.7708 63.9375 16.75C64.1979 17.7292 64.4323 18.6667 64.6406 19.5625C64.8594 20.4479 65.0521 21.2708 65.2188 22.0312C65.3958 22.7812 65.5469 23.4219 65.6719 23.9531ZM81.5938 0.484375L81.6875 2.26562V3.07812C81.6875 3.57812 81.625 3.88542 81.5 4C81.375 4.10417 81.2396 4.20833 81.0938 4.3125C80.5104 4.72917 79.6667 5.29167 78.5625 6C78.6146 4.95833 78.6406 4.42188 78.6406 4.39062C78.6406 4.34896 78.6146 3.75521 78.5625 2.60938L81.5938 0.484375ZM84.8594 25.0781C84.5469 25.3281 84.2396 25.5833 83.9375 25.8438C83.6458 26.1042 83.3385 26.3438 83.0156 26.5625C82.2656 27.0521 81.5469 27.2969 80.8594 27.2969C80.2135 27.2969 79.7604 27.1979 79.5 27C78.9688 26.6042 78.7031 25.875 78.7031 24.8125V17.4062C78.7031 16.2812 78.5 15.5521 78.0938 15.2188C77.9062 15.0625 77.7031 14.9844 77.4844 14.9844C77.2656 14.9844 77.0781 15 76.9219 15.0312C76.776 15.0521 76.625 15.0781 76.4688 15.1094C76.3125 15.1406 76.151 15.1719 75.9844 15.2031C76.5052 14.7969 76.9896 14.4323 77.4375 14.1094C77.8958 13.7865 78.2865 13.5156 78.6094 13.2969C78.9323 13.0781 79.3802 12.7708 79.9531 12.375C80.526 11.9688 81.1198 11.6042 81.7344 11.2812V22.3125C81.7344 23.375 81.8021 24.0469 81.9375 24.3281C82.2292 24.901 82.875 25.1875 83.875 25.1875C84.1458 25.1875 84.474 25.151 84.8594 25.0781ZM93.5 25.0625C93.1562 25.3333 92.8281 25.6042 92.5156 25.875C92.2031 26.1458 91.8802 26.3854 91.5469 26.5938C90.8073 27.0729 90.0417 27.3125 89.25 27.3125C88.1042 27.3125 87.4792 26.5208 87.375 24.9375C87.3542 24.5104 87.3438 24.0938 87.3438 23.6875V6.96875C87.3438 5.54167 87.0208 4.61458 86.375 4.1875C86.1042 4 85.8438 3.90625 85.5938 3.90625C85.2604 3.90625 85.0365 3.91667 84.9219 3.9375C84.8073 3.94792 84.7083 3.95833 84.625 3.96875C86.125 2.92708 87.0729 2.30208 87.4688 2.09375C87.9896 1.8125 88.526 1.53646 89.0781 1.26562C89.6406 0.984375 90.0729 0.765625 90.375 0.609375V22.1719C90.375 22.599 90.375 22.9948 90.375 23.3594C90.3854 23.724 90.4479 24.0417 90.5625 24.3125C90.8229 24.875 91.4792 25.1562 92.5312 25.1562C92.8646 25.1562 93.1875 25.125 93.5 25.0625ZM105.203 22.375L105.172 23.4688C105.172 24.2812 105.401 24.7969 105.859 25.0156C106.036 25.099 106.24 25.1406 106.469 25.1406C106.833 25.1406 107.208 25.0573 107.594 24.8906C107.198 25.0573 106.854 25.276 106.562 25.5469C106.271 25.8177 105.974 26.0833 105.672 26.3438C104.922 26.9688 104.167 27.2812 103.406 27.2812C102.646 27.2812 102.24 26.8438 102.188 25.9688C102.167 25.7396 102.156 25.5104 102.156 25.2812C100.281 26.5833 98.5625 27.2344 97 27.2344C95.6771 27.2344 94.7604 26.8333 94.25 26.0312C94.0625 25.7396 93.9688 25.3385 93.9688 24.8281C93.9688 24.3177 94.125 23.8073 94.4375 23.2969C94.75 22.776 95.1458 22.3021 95.625 21.875C96.4792 21.0833 97.5104 20.4323 98.7188 19.9219C99.6146 19.5365 100.766 19.3177 102.172 19.2656V18.5781C102.172 16.9219 102.021 15.8021 101.719 15.2188C101.417 14.6354 101.026 14.2083 100.547 13.9375C100.068 13.6562 99.5052 13.5156 98.8594 13.5156C97.7656 13.5156 96.8021 13.7292 95.9688 14.1562C97.1146 13.2083 97.9531 12.5833 98.4844 12.2812C99.5781 11.6667 100.568 11.3594 101.453 11.3594C102.349 11.3594 103.021 11.4896 103.469 11.75C103.917 12.0104 104.271 12.3542 104.531 12.7812C104.979 13.5312 105.203 14.6094 105.203 16.0156V22.375ZM97.8594 24.625C98.1094 24.8021 98.401 24.9323 98.7344 25.0156C99.0677 25.099 99.5625 25.1406 100.219 25.1406C100.875 25.1406 101.526 24.9844 102.172 24.6719V21.3906H99.6406C98.7344 21.3906 97.9427 21.4531 97.2656 21.5781C97.1302 22.026 97.0625 22.4531 97.0625 22.8594C97.0625 23.2656 97.1302 23.6146 97.2656 23.9062C97.4115 24.1979 97.6094 24.4375 97.8594 24.625ZM115.969 14.875C116.167 14.7292 116.266 14.5729 116.266 14.4062C116.266 14.2396 116.167 14.1094 115.969 14.0156C115.771 13.9219 115.542 13.849 115.281 13.7969C114.875 13.7135 114.495 13.6719 114.141 13.6719C113.797 13.6719 113.526 13.6927 113.328 13.7344C113.141 13.7656 112.979 13.8281 112.844 13.9219C112.552 14.1198 112.406 14.4688 112.406 14.9688C112.406 15.4688 112.516 15.8802 112.734 16.2031C112.953 16.5156 113.24 16.7812 113.594 17C113.958 17.2188 114.37 17.401 114.828 17.5469C115.286 17.6927 115.75 17.8385 116.219 17.9844C116.698 18.1198 117.167 18.2708 117.625 18.4375C118.083 18.6042 118.49 18.8229 118.844 19.0938C119.646 19.6771 120.047 20.4792 120.047 21.5C120.047 22.5104 119.562 23.5 118.594 24.4688C117.771 25.2917 116.688 25.9896 115.344 26.5625C114.094 27.1042 112.979 27.375 112 27.375C110.812 27.375 109.859 27.125 109.141 26.625C108.88 26.4375 108.75 26.1979 108.75 25.9062C108.75 25.6042 108.885 25.3333 109.156 25.0938C109.427 24.8438 109.745 24.6146 110.109 24.4062C110.474 24.1875 110.839 23.9844 111.203 23.7969C111.568 23.599 111.844 23.3906 112.031 23.1719C111.844 23.3802 111.75 23.6146 111.75 23.875C111.75 24.1354 111.896 24.3594 112.188 24.5469C112.479 24.724 112.823 24.8646 113.219 24.9688C113.906 25.1354 114.568 25.2188 115.203 25.2188C115.839 25.2188 116.297 25.1042 116.578 24.875C116.87 24.6354 117.016 24.2396 117.016 23.6875C117.016 23.1354 116.906 22.6875 116.688 22.3438C116.469 21.9896 116.182 21.6875 115.828 21.4375C115.474 21.1875 115.068 20.9792 114.609 20.8125C114.151 20.6354 113.682 20.4688 113.203 20.3125C112.734 20.1458 112.271 19.9792 111.812 19.8125C111.354 19.6458 110.948 19.4427 110.594 19.2031C109.802 18.6719 109.406 17.9792 109.406 17.125C109.406 16.3125 109.885 15.4427 110.844 14.5156C111.677 13.724 112.547 13.1042 113.453 12.6562C115.005 11.9062 116.177 11.5312 116.969 11.5312C117.792 11.5312 118.385 11.6198 118.75 11.7969C119.115 11.974 119.297 12.1302 119.297 12.2656C119.297 12.3906 119.255 12.5052 119.172 12.6094C119.089 12.7135 118.984 12.8125 118.859 12.9062C118.745 12.9896 118.625 13.0677 118.5 13.1406C118.375 13.2135 118.198 13.3229 117.969 13.4688C117.74 13.6146 117.432 13.8125 117.047 14.0625C116.661 14.3021 116.302 14.5729 115.969 14.875Z" fill="#C29A5C"></path></svg>