<?xml version="1.0" encoding="utf-8"?>
<!-- Generator: Adobe Illustrator 26.0.1, SVG Export Plug-In . SVG Version: 6.00 Build 0)  -->
<svg version="1.2" baseProfile="tiny" id="Layer_1" xmlns="http://www.w3.org/2000/svg" xmlns:xlink="http://www.w3.org/1999/xlink"
	 x="0px" y="0px" viewBox="0 0 200 124.74" overflow="visible" xml:space="preserve">
<g>
	<path d="M45.96,54.01l0.77,1.18v7.25c-0.67-0.01-1.35-0.08-2.02-0.2c-0.92-0.16-2.15-0.48-3.65-0.93
		c-1.84-0.56-3.78-0.84-5.77-0.84c-0.03,0-0.05,0-0.08,0v-5.29l0.74-1.18v-1h-4.66v1.01l0.77,1.18v14.83l-0.77,1.2v0.98h4.66v-0.97
		l-0.74-1.2V62.6c1.85,0.01,3.64,0.26,5.33,0.77c1.57,0.48,2.88,0.82,3.88,0.99c0.77,0.13,1.54,0.2,2.3,0.21v5.44l-0.77,1.2v0.98
		h4.66v-0.97l-0.74-1.2V55.18l0.74-1.18v-1h-4.66V54.01z"/>
	<polygon points="66.56,55.16 67.79,55.87 68.85,55.87 68.49,53 53.34,53 53.34,54.01 54.11,55.19 54.11,70.01 53.34,71.21 
		53.34,72.19 68.49,72.19 68.85,69.32 67.79,69.32 66.56,70.04 57.26,70.04 57.26,61.9 61.87,61.9 62.97,62.61 63.95,62.61 
		63.95,59.03 62.97,59.03 61.87,59.75 57.26,59.75 57.26,55.16 	"/>
	<polygon points="94.3,66.2 93.53,65.03 93.53,59.22 93.56,59.22 93.53,55.18 94.3,54.01 94.3,53 89.64,53 89.64,54 90.38,55.18 
		90.4,56.81 90.38,56.81 90.38,65.03 89.64,66.21 89.64,67.21 94.3,67.21 	"/>
	<path d="M96.58,67.36h-0.22c-0.28,0-0.53,0.15-0.67,0.41c-0.08,0.13-0.14,0.2-0.17,0.25l-0.02,0.02c-0.28,0.39-0.63,0.74-1.03,1.05
		c-0.45,0.35-1.01,0.65-1.66,0.89l-0.01,0.01c-0.62,0.25-1.37,0.37-2.23,0.36c-0.67,0-1.35-0.16-2.01-0.49l-0.02-0.01
		c-0.45-0.21-0.67-0.34-0.77-0.41l-0.19-0.14h-0.05c-0.01-0.01-0.03-0.02-0.04-0.02c-0.6-0.42-1.16-0.87-1.65-1.35
		c-0.07-0.08-0.17-0.18-0.37-0.36c-0.49-0.43-0.99-0.86-1.52-1.28c-0.42-0.32-0.8-0.6-1.14-0.83c0.18-0.08,0.36-0.17,0.54-0.27
		c1.15-0.64,2-1.45,2.53-2.41c0.53-0.98,0.81-2.07,0.83-3.24v-0.01v-0.01c-0.02-1.15-0.3-2.23-0.83-3.22
		c-0.52-0.95-1.37-1.76-2.53-2.4c-1.02-0.57-2.16-0.86-3.36-0.86h-9.28v0.98l0.77,1.18v14.85l-0.77,1.18v1.01h4.66v-1l-0.74-1.18v-4
		h2.65c1.21,0,2.22,0.32,3.09,0.97v0.03l0.3,0.22c0,0,0,0,0,0l0.13,0.11h0.01c0.08,0.06,0.18,0.15,0.31,0.27
		c0.21,0.18,0.32,0.28,0.4,0.34c0.14,0.14,0.51,0.51,1.1,1.09c0.7,0.69,1.16,1.13,1.42,1.35c0.34,0.28,0.57,0.48,0.72,0.59
		l0.02,0.01c0.31,0.22,0.61,0.41,0.89,0.57c0.45,0.26,0.93,0.48,1.44,0.65c0.16,0.05,0.33,0.11,0.52,0.16
		c0.9,0.26,1.7,0.39,2.39,0.39c1.14,0,2.14-0.19,3.01-0.58c0.55-0.26,1.07-0.56,1.54-0.9c0.48-0.34,0.85-0.65,1.14-0.93
		c0.28-0.28,0.54-0.58,0.77-0.9c0.32-0.44,0.42-0.61,0.47-0.72c0.04-0.09,0.08-0.16,0.12-0.23l0.29-0.48l-0.47-0.47L96.58,67.36z
		 M74.6,60.87v-1.63h0.03v-4.09h4.56c0.01,0,0.1,0,0.49,0.05l0,0c0.12,0.02,0.24,0.04,0.35,0.05c0.54,0.11,1.04,0.28,1.47,0.51
		c0.68,0.39,1.18,0.9,1.53,1.56c0.33,0.61,0.51,1.31,0.52,2.06v0.32c-0.01,0.76-0.19,1.46-0.53,2.08c-0.35,0.65-0.85,1.15-1.53,1.55
		c-0.44,0.23-0.93,0.4-1.48,0.51c-0.34,0.04-0.69,0.07-1.06,0.07h-4.34v-3.01H74.6z"/>
	<polygon points="107.71,65.98 107.68,65.98 107.68,55.16 113.69,55.16 114.92,55.87 115.98,55.87 115.62,53 96.67,53 96.31,55.87 
		97.38,55.87 98.58,55.16 104.56,55.16 104.56,65.98 104.53,65.98 104.53,70.02 103.79,71.22 103.79,72.19 108.48,72.19 
		108.48,71.21 107.71,70.01 	"/>
	<path d="M129.57,66.8l-6.06-14.44h-1.38l-7.75,17.4l-1.01,1.43v1h3.66V71.2l-0.59-0.87l1.3-2.89h8.67l1.25,2.92l-0.55,0.85v0.98
		h4.61v-0.98l-0.82-1.3L129.57,66.8z M118.74,65.29l3.46-7.93l3.26,7.93H118.74z"/>
	<path d="M146.38,62.08l0.74,1.18v4.93c-0.18,0.28-0.44,0.56-0.78,0.84c-0.48,0.39-1.12,0.73-1.92,1.01
		c-0.78,0.29-1.69,0.44-2.69,0.44c-1.37,0-2.51-0.34-3.46-1.03c-0.96-0.69-1.7-1.64-2.2-2.8c-0.51-1.2-0.77-2.55-0.77-4.02
		c0-1.47,0.26-2.82,0.77-4.02c0.5-1.17,1.24-2.1,2.2-2.79c0.96-0.68,2.09-1.02,3.46-1.02c0.78,0,1.51,0.09,2.18,0.25
		c0.21,0.06,0.38,0.12,0.52,0.16c0.78,0.28,1.42,0.61,1.9,1c0.31,0.27,0.56,0.53,0.75,0.8c0.1,0.13,0.14,0.21,0.16,0.25l0.22,0.45
		h1.05l0.29-0.48l0.28-0.55l0.51-0.95l0.72-1.39l-0.88-0.44l-0.2,0.02c-0.73,0.06-1.45-0.05-2.12-0.33l-0.03-0.01
		c-0.17-0.06-0.35-0.13-0.52-0.19l-0.04-0.01c-0.59-0.22-1.22-0.39-1.87-0.52c-0.84-0.16-1.72-0.24-2.61-0.24
		c-2.08,0-3.89,0.46-5.39,1.35c-1.5,0.9-2.65,2.13-3.41,3.65c-0.75,1.5-1.14,3.18-1.14,5c0,1.82,0.38,3.5,1.14,5
		c0.77,1.52,1.91,2.75,3.41,3.65c1.5,0.9,3.31,1.35,5.39,1.35c2.5,0,4.77-0.62,6.73-1.84c0.25-0.14,0.5-0.21,0.78-0.21h0.72v-7.3
		l0.77-1.2V61.1h-4.66V62.08z"/>
	<polygon points="166.42,70.04 157.11,70.04 157.11,61.9 161.72,61.9 162.82,62.61 163.81,62.61 163.81,59.03 162.82,59.03 
		161.72,59.75 157.11,59.75 157.11,55.16 166.42,55.16 167.64,55.87 168.71,55.87 168.35,53 153.2,53 153.2,54.01 153.96,55.19 
		153.96,70.01 153.2,71.21 153.2,72.19 168.35,72.19 168.71,69.32 167.64,69.32 	"/>
	<path d="M68.42,87.04h0.16c0.55,0,1.05,0.21,1.48,0.62l0.22,0.28c0.21-0.34,0.58-0.59,1.1-0.76c0.47-0.09,0.85-0.14,1.14-0.14v0.01
		c-0.24,0.59-0.36,0.96-0.36,1.12C72.05,88.58,72,89.31,72,90.34v1.81c0,1.16,0.14,1.87,0.41,2.13c0.12,0.16,0.27,0.29,0.43,0.38
		c-0.19,0.13-0.33,0.28-0.44,0.45c-0.27,0.4-0.41,1.27-0.41,2.61C72,99.17,72,100.17,72,100.74c0,0.76,0.15,1.22,0.45,1.38
		c0.34,0.19,0.85,0.28,1.54,0.28h0.04c0.05,0,0.07,0.01,0.07,0.04v0.15c-0.06,0.16-0.26,0.36-0.58,0.62
		c-0.45,0.31-0.92,0.47-1.41,0.47h-0.15c-0.64,0-1.2-0.29-1.68-0.87c-0.37,0.58-0.92,0.86-1.65,0.86c-0.73,0-1.38-0.28-1.93-0.85
		c-0.05-0.07-0.11-0.14-0.15-0.21v-0.16c0.01-0.02,0.03-0.04,0.07-0.04h0.02c1.02,0,1.62-0.19,1.79-0.57
		c0.12-0.16,0.19-0.64,0.19-1.46c0.01-1.58,0.01-2.58,0.01-3.02c0-1.35-0.19-2.19-0.56-2.51c0-0.01-0.06-0.07-0.17-0.17
		c0.27-0.29,0.44-0.55,0.51-0.78c0.14-0.28,0.21-1.13,0.21-2.55V91c0-1.13-0.02-1.7-0.06-1.7c-0.01-0.12-0.07-0.29-0.2-0.51
		c-0.22-0.29-0.82-0.43-1.81-0.43l-0.01-0.02v-0.15c0.13-0.37,0.4-0.66,0.82-0.89C67.72,87.13,68.07,87.04,68.42,87.04"/>
	<path d="M126.95,86.75h0.24c0.72,0,1.62,0.28,2.68,0.85c0.5-0.29,0.92-0.43,1.24-0.43h0.21c0.4,0,0.61,0.03,0.61,0.09v0.01
		c-0.58,0.54-0.86,1.06-0.86,1.59l0.03,0.97c0,1.08-0.48,1.88-1.43,2.41c-0.15,0-0.3-0.1-0.45-0.29l-0.03-0.12
		c0.23-0.59,0.35-1.11,0.35-1.55c0-0.81-0.38-1.37-1.15-1.69c-0.4-0.15-0.7-0.22-0.87-0.22c-0.16-0.02-0.37-0.04-0.61-0.06
		c-0.01,0.01-0.02,0.01-0.05,0.01h-0.02c-0.54,0-0.95,0.28-1.25,0.84c-0.1,0.25-0.15,0.49-0.15,0.73v4.04h0.01
		c0.61-0.1,1.19-0.15,1.74-0.15c1.76,0,3.17,0.56,4.23,1.67c0.21,0.24,0.37,0.47,0.49,0.68c0.22,0.44,0.33,0.74,0.33,0.89
		c0.12,0.48,0.24,0.81,0.37,0.99c0.17,0.23,0.33,0.38,0.47,0.44l0.01,0.02c-0.36,0.3-0.63,0.8-0.83,1.49
		c-0.11,0.37-0.23,0.7-0.37,0.98c-0.16,0.31-0.38,0.64-0.64,0.99c-1.1,1.25-2.44,1.88-4,1.88h-0.24c-1.06,0-2.02-0.33-2.89-0.99
		c-0.44-0.39-0.75-0.72-0.93-0.98c-0.29-0.4-0.51-0.77-0.65-1.08c-0.17-0.38-0.33-0.83-0.49-1.35c-0.23-1-0.34-1.64-0.34-1.92
		c-0.04-0.28-0.08-0.74-0.13-1.38c-0.09-0.5-0.21-0.89-0.37-1.14c-0.06-0.11-0.21-0.27-0.43-0.48c0.37-0.2,0.64-0.51,0.79-0.93
		c0.09-0.27,0.22-0.86,0.38-1.76c0.37-1.5,0.96-2.68,1.77-3.56C124.61,87.25,125.7,86.75,126.95,86.75 M125.42,97.1v3.01
		c0,1.01,0.3,1.65,0.89,1.92c0.19,0.09,0.41,0.13,0.64,0.13h0.03c1.03,0,1.55-0.73,1.55-2.18v-2.74c0-1.03-0.28-1.69-0.84-1.97
		c-0.24-0.09-0.46-0.14-0.65-0.14h-0.15c-0.56,0-0.97,0.25-1.22,0.75C125.5,96.21,125.42,96.62,125.42,97.1"/>
	<path d="M86.85,86.63h0.29c1.94,0,3.6,0.75,4.98,2.24c0.6,0.74,0.93,1.35,0.99,1.83c0.15,0.61,0.48,1.21,0.99,1.8
		c-0.31,0.16-0.55,0.49-0.71,0.97c-0.18,0.71-0.38,1.24-0.6,1.61c-0.51,0.78-1.29,1.42-2.34,1.9c0,0.01,0.15,0.1,0.45,0.26
		c1.05,0.65,1.82,1.48,2.29,2.5c0.11,0.3,0.26,0.8,0.45,1.5c0.14,0.35,0.35,0.67,0.64,0.96v0.03c-0.22,0-0.49,0.55-0.81,1.64
		c-0.34,1.16-0.92,2.06-1.74,2.69c-0.42,0.3-0.89,0.57-1.42,0.8c-1.08,0.4-2.11,0.6-3.09,0.6h-0.36c-2.47,0-4.35-0.86-5.65-2.57
		c-0.28-0.42-0.45-0.74-0.52-0.96c-0.01-0.23-0.14-0.67-0.39-1.31c-0.11-0.24-0.3-0.52-0.58-0.83c-0.02,0-0.05-0.03-0.1-0.1
		c0.3-0.26,0.5-0.53,0.61-0.8c0.22-0.5,0.33-0.86,0.33-1.07c0.09-0.34,0.3-0.77,0.62-1.31c0.17-0.27,0.48-0.62,0.93-1.05
		c0.47-0.39,0.9-0.68,1.26-0.89c0.01,0,0.06-0.02,0.15-0.07v-0.01c-0.43-0.2-0.86-0.47-1.31-0.8c-0.59-0.52-0.93-0.9-1.03-1.13
		c-0.25-0.39-0.38-0.72-0.38-1c-0.06-0.27-0.15-0.55-0.28-0.83c-0.23-0.43-0.47-0.68-0.73-0.77v-0.01c0.29-0.18,0.51-0.43,0.65-0.73
		c0.17-0.26,0.35-0.74,0.52-1.44c0.1-0.37,0.43-0.88,1-1.54c0.59-0.57,1.1-0.96,1.52-1.18C84.56,86.94,85.68,86.63,86.85,86.63
		 M85.08,91.12v2.95c0.02,1.17,0.34,1.9,0.96,2.18c0.29,0.11,0.57,0.16,0.83,0.16h0.26c0.51,0,0.92-0.14,1.22-0.41
		c0.36-0.4,0.54-1.15,0.54-2.25v-2.29c0-1.38-0.26-2.22-0.77-2.5c-0.29-0.17-0.63-0.26-1.03-0.26h-0.13c-0.88,0-1.41,0.3-1.6,0.9
		C85.17,90.03,85.08,90.54,85.08,91.12 M85.08,100.48v2.99c0.03,1.22,0.36,1.97,1,2.24c0.25,0.11,0.56,0.16,0.93,0.16
		c0.86,0,1.39-0.29,1.6-0.86c0.18-0.44,0.28-1.06,0.28-1.89v-2.34c0-1.39-0.28-2.23-0.83-2.5c-0.29-0.15-0.64-0.23-1.06-0.23
		c-0.85,0-1.39,0.29-1.63,0.86C85.17,99.35,85.08,99.87,85.08,100.48"/>
	<path d="M107.49,86.6h0.3c0.9,0,2.01,0.35,3.34,1.06c0.63-0.36,1.14-0.54,1.54-0.54h0.26c0.5,0,0.75,0.04,0.75,0.12v0.01
		c-0.72,0.67-1.07,1.33-1.07,1.97l0.04,1.21c0,1.35-0.6,2.35-1.79,3.01c-0.18,0-0.37-0.12-0.57-0.36l-0.04-0.15
		c0.29-0.74,0.44-1.38,0.44-1.93c0-1.01-0.48-1.71-1.44-2.11c-0.5-0.18-0.87-0.28-1.09-0.28c-0.2-0.03-0.46-0.05-0.75-0.07
		c-0.01,0.01-0.03,0.01-0.06,0.01h-0.03c-0.67,0-1.19,0.35-1.55,1.05c-0.13,0.31-0.19,0.61-0.19,0.91v5.04h0.01
		c0.76-0.13,1.49-0.19,2.16-0.19c2.19,0,3.94,0.69,5.27,2.08c0.26,0.3,0.46,0.58,0.61,0.84c0.27,0.55,0.41,0.92,0.41,1.1
		c0.15,0.6,0.3,1.01,0.46,1.23c0.21,0.29,0.41,0.47,0.58,0.55l0.01,0.03c-0.45,0.38-0.79,1-1.03,1.86
		c-0.14,0.46-0.29,0.87-0.46,1.22c-0.2,0.39-0.47,0.8-0.8,1.23c-1.37,1.56-3.03,2.34-4.98,2.34h-0.3c-1.32,0-2.52-0.41-3.6-1.23
		c-0.55-0.48-0.94-0.89-1.16-1.22c-0.36-0.5-0.63-0.95-0.81-1.35c-0.21-0.47-0.42-1.04-0.61-1.68c-0.28-1.25-0.42-2.05-0.42-2.4
		c-0.05-0.35-0.1-0.92-0.16-1.71c-0.11-0.63-0.26-1.1-0.46-1.42c-0.08-0.14-0.26-0.33-0.54-0.6c0.46-0.25,0.79-0.64,0.99-1.16
		c0.12-0.34,0.28-1.07,0.48-2.19c0.46-1.87,1.2-3.34,2.21-4.43C104.58,87.22,105.93,86.6,107.49,86.6 M105.59,99.5v3.75
		c0,1.26,0.37,2.06,1.1,2.4c0.24,0.11,0.51,0.16,0.8,0.16h0.04c1.29,0,1.93-0.91,1.93-2.71v-3.41c0-1.29-0.35-2.11-1.05-2.45
		c-0.3-0.12-0.57-0.17-0.81-0.17h-0.19c-0.7,0-1.21,0.31-1.52,0.93C105.69,98.39,105.59,98.9,105.59,99.5"/>
	<path d="M86.79,21.27l-0.58,0.12c-0.09-0.41-0.18-0.75-0.29-1.01c-0.11-0.26-0.23-0.47-0.36-0.62c-0.13-0.15-0.28-0.24-0.45-0.28
		c-0.16-0.04-0.35-0.05-0.56-0.01l-0.84,0.13l0.79,5.19c0.04,0.28,0.34,0.38,0.9,0.3l0.08,0.53l-3.07,0.47l-0.08-0.53
		c0.55-0.08,0.8-0.27,0.76-0.55L82.3,19.8l-0.84,0.13c-0.21,0.03-0.39,0.09-0.53,0.18c-0.14,0.09-0.26,0.22-0.34,0.4
		c-0.08,0.18-0.14,0.41-0.16,0.7c-0.02,0.28-0.02,0.64,0.02,1.05l-0.59,0.06l-0.43-2.82l6.94-1.05L86.79,21.27z"/>
	<path d="M104,18.27c-0.56,0-0.84,0.14-0.85,0.43l-0.03,5.01c0,0.29,0.28,0.43,0.84,0.44l0,0.53l-3.16-0.02l0-0.53
		c0.59,0,0.88-0.14,0.88-0.43l0.02-2.34l-3.17-0.02l-0.02,2.34c0,0.29,0.29,0.43,0.88,0.44l0,0.53l-3.15-0.02l0-0.53
		c0.56,0,0.83-0.14,0.84-0.43l0.03-5.01c0-0.29-0.27-0.43-0.83-0.44l0-0.55l3.15,0.02l0,0.55c-0.59,0-0.88,0.14-0.88,0.42
		l-0.01,1.99l3.17,0.02l0.01-1.99c0-0.29-0.29-0.43-0.88-0.44l0-0.55l3.16,0.02L104,18.27z"/>
	<path d="M119.69,21.53l-0.65-0.06c0.07-0.94-0.25-1.47-0.97-1.58l-2.07-0.32l-0.35,2.24l1.06,0.16c0.37,0.06,0.64-0.28,0.81-1.02
		l0.58,0.09l-0.58,2.87l-0.56-0.09c0.06-0.77-0.08-1.19-0.41-1.24l-0.99-0.15l-0.4,2.57l1.74,0.27c1.04,0.16,1.71-0.41,2.03-1.72
		l0.66,0.17l-0.63,2.6l-6.15-0.95l0.08-0.53c0.55,0.08,0.85-0.02,0.89-0.3l0.76-4.95c0.04-0.28-0.21-0.47-0.76-0.55l0.08-0.55
		l6.15,0.95L119.69,21.53z"/>
	<path fill="#CEA86C" d="M65.44,41.33c-0.22,0-0.42-0.12-0.52-0.33c-0.13-0.29-0.01-0.62,0.28-0.75c10.95-5.03,22.65-7.58,34.8-7.58
		c0.31,0,0.57,0.25,0.57,0.57c0,0.31-0.25,0.57-0.57,0.57c-11.98,0-23.53,2.52-34.32,7.48C65.6,41.31,65.52,41.33,65.44,41.33"/>
	<path fill="#CEA86C" d="M24.61,33.8c-0.15,0-0.31-0.06-0.42-0.19c-0.21-0.23-0.19-0.59,0.04-0.8C44.99,13.91,71.9,3.5,100,3.5
		c0.31,0,0.57,0.25,0.57,0.57c0,0.31-0.25,0.57-0.57,0.57c-27.82,0-54.45,10.3-75,29.02C24.89,33.75,24.75,33.8,24.61,33.8"/>
	<path fill="#CEA86C" d="M21.21,34.89c-2.01,0-4-0.94-5.26-2.7c-1.69-2.36-1.13-5.66,1.23-7.35c1.94-1.39,4.65-0.93,6.04,1.01
		c1.14,1.61,0.77,3.84-0.84,4.99c-0.26,0.18-0.61,0.12-0.79-0.13c-0.18-0.26-0.12-0.61,0.13-0.79c1.1-0.78,1.35-2.31,0.57-3.4
		c-1.02-1.43-3.02-1.77-4.45-0.75c-1.86,1.32-2.29,3.91-0.97,5.76c1.7,2.38,5.02,2.94,7.4,1.24c0.26-0.18,0.61-0.12,0.79,0.13
		c0.18,0.26,0.12,0.61-0.13,0.79C23.81,34.5,22.51,34.89,21.21,34.89"/>
	<path fill="#CEA86C" d="M134.56,41.33c-0.08,0-0.16-0.02-0.24-0.05c-10.8-4.96-22.34-7.48-34.32-7.48c-0.31,0-0.57-0.25-0.57-0.57
		c0-0.31,0.25-0.57,0.57-0.57c12.14,0,23.85,2.55,34.8,7.58c0.29,0.13,0.41,0.47,0.28,0.75C134.98,41.21,134.77,41.33,134.56,41.33"
		/>
	<path fill="#CEA86C" d="M175.39,33.8c-0.14,0-0.27-0.05-0.38-0.15c-20.55-18.71-47.19-29.02-75-29.02c-0.31,0-0.57-0.25-0.57-0.57
		c0-0.31,0.25-0.57,0.57-0.57c28.1,0,55.01,10.41,75.77,29.31c0.23,0.21,0.25,0.57,0.04,0.8C175.69,33.74,175.54,33.8,175.39,33.8"
		/>
	<path fill="#CEA86C" d="M178.78,34.89c-1.33,0-2.62-0.41-3.73-1.2c-0.26-0.18-0.32-0.54-0.13-0.79c0.18-0.26,0.54-0.32,0.79-0.13
		c1.15,0.82,2.56,1.15,3.96,0.91c1.4-0.23,2.62-1,3.44-2.15c1.32-1.86,0.89-4.44-0.97-5.76c-1.43-1.02-3.43-0.69-4.45,0.75
		c-0.78,1.1-0.52,2.62,0.57,3.4c0.26,0.18,0.31,0.54,0.13,0.79c-0.18,0.26-0.54,0.31-0.79,0.13c-1.61-1.14-1.98-3.38-0.84-4.99
		c1.39-1.94,4.09-2.4,6.04-1.01c2.37,1.69,2.92,4.98,1.23,7.35c-1,1.4-2.48,2.33-4.18,2.62C179.5,34.86,179.14,34.89,178.78,34.89"
		/>
	<path fill="#CEA86C" d="M7.72,38.52c-1.73,0-3.43-0.87-4.4-2.45C1.49,33.1,2.39,29.3,5.37,27.4c1.5-0.95,3.22-1.24,5-0.84
		c2.97,0.68,5.32,3.03,6.54,5c0.16,0.27,0.08,0.62-0.19,0.78c-0.27,0.16-0.62,0.08-0.78-0.19c-1.37-2.23-3.66-3.99-5.82-4.49
		c-1.49-0.34-2.88-0.11-4.13,0.69c-2.45,1.56-3.2,4.69-1.7,7.12c1.16,1.89,3.65,2.48,5.53,1.32c0.71-0.43,1.2-1.12,1.39-1.93
		c0.19-0.81,0.06-1.64-0.38-2.35c-0.16-0.27-0.08-0.62,0.19-0.78c0.27-0.16,0.62-0.08,0.78,0.19c0.59,0.96,0.78,2.1,0.51,3.2
		c-0.26,1.1-0.94,2.04-1.9,2.63C9.57,38.28,8.64,38.52,7.72,38.52"/>
	<path fill="#CEA86C" d="M192.28,38.52c-0.92,0-1.85-0.25-2.7-0.76c-0.96-0.59-1.64-1.53-1.9-2.63c-0.26-1.1-0.08-2.24,0.51-3.2
		c0.16-0.27,0.51-0.35,0.78-0.19c0.27,0.16,0.35,0.51,0.19,0.78c-0.43,0.71-0.57,1.54-0.38,2.35c0.19,0.81,0.69,1.49,1.39,1.93
		c1.89,1.16,4.37,0.57,5.53-1.32c1.5-2.43,0.75-5.56-1.7-7.12c-1.25-0.8-2.64-1.03-4.13-0.69c-2.16,0.5-4.45,2.26-5.82,4.49
		c-0.16,0.27-0.51,0.35-0.78,0.19c-0.27-0.16-0.35-0.51-0.19-0.78c1.21-1.97,3.57-4.32,6.54-5c1.77-0.41,3.5-0.12,5,0.84
		c2.98,1.9,3.88,5.71,2.06,8.67C195.71,37.65,194.02,38.52,192.28,38.52"/>
	<path d="M171.78,23.92l-0.96-0.52c-0.58-0.32-5.72-3.15-6.67-4.57c-1.08-1.61-0.64-3.79,0.96-4.86c1.61-1.08,3.79-0.64,4.86,0.96
		c0.95,1.42,1.61,7.25,1.68,7.91L171.78,23.92z M164.83,16.1c-0.24,0.68-0.16,1.45,0.27,2.1c0.52,0.77,3.22,2.47,5.3,3.66
		c-0.31-2.38-0.85-5.53-1.37-6.3c-0.73-1.09-2.2-1.38-3.29-0.65C165.31,15.21,164.99,15.63,164.83,16.1"/>
	<path d="M28.34,22.84c0.07-0.66,0.73-6.49,1.68-7.91c1.08-1.61,3.26-2.04,4.86-0.96c1.61,1.07,2.04,3.26,0.96,4.86
		c-0.95,1.42-6.09,4.25-6.67,4.57l-0.96,0.52L28.34,22.84z M34.25,14.91c-1.09-0.73-2.56-0.43-3.29,0.65
		c-0.52,0.77-1.06,3.91-1.37,6.3c2.09-1.19,4.79-2.89,5.3-3.66c0.43-0.64,0.5-1.42,0.27-2.1C35.01,15.63,34.69,15.21,34.25,14.91"/>
	<path fill="#CEA86C" d="M164.7,30.89c-0.12,0-0.24-0.04-0.35-0.12C145.76,16.49,123.51,8.94,100,8.94
		c-23.51,0-45.76,7.55-64.35,21.83c-0.25,0.19-0.61,0.14-0.8-0.1c-0.19-0.25-0.14-0.61,0.1-0.8C53.75,15.43,76.24,7.8,100,7.8
		c23.76,0,46.25,7.63,65.05,22.07c0.25,0.19,0.3,0.55,0.1,0.8C165.04,30.81,164.87,30.89,164.7,30.89"/>
	<path fill="#CEA86C" d="M76.38,41.33c-0.24,0-0.46-0.15-0.54-0.4c-0.1-0.3,0.07-0.62,0.37-0.71c7.67-2.45,15.67-3.69,23.79-3.69
		c8.12,0,16.13,1.24,23.79,3.69c0.3,0.1,0.46,0.42,0.37,0.71c-0.1,0.3-0.42,0.47-0.71,0.37c-7.55-2.41-15.44-3.63-23.45-3.63
		c-8,0-15.89,1.22-23.45,3.63C76.5,41.32,76.44,41.33,76.38,41.33"/>
	<path fill="#CEA86C" d="M99.8,1.54C99.38,1.42,99.13,1,99.25,0.58c0.11-0.42,0.54-0.66,0.96-0.55c0.42,0.11,0.66,0.54,0.55,0.96
		C100.64,1.4,100.21,1.65,99.8,1.54"/>
	<path fill="#CEA86C" d="M93.88,1.7c-0.42-0.09-0.69-0.5-0.6-0.93c0.09-0.42,0.5-0.69,0.93-0.6c0.42,0.09,0.69,0.5,0.6,0.93
		C94.71,1.52,94.3,1.79,93.88,1.7"/>
	<path fill="#CEA86C" d="M87.97,2.18c-0.43-0.07-0.72-0.47-0.65-0.89c0.07-0.43,0.47-0.72,0.89-0.65c0.43,0.07,0.72,0.47,0.65,0.89
		C88.8,1.95,88.4,2.24,87.97,2.18"/>
	<path fill="#CEA86C" d="M82.1,2.96c-0.43-0.05-0.74-0.43-0.7-0.86c0.05-0.43,0.43-0.74,0.86-0.7c0.43,0.05,0.74,0.43,0.7,0.86
		C82.92,2.69,82.53,3.01,82.1,2.96"/>
	<path fill="#CEA86C" d="M76.28,4.05c-0.43-0.02-0.76-0.39-0.74-0.82c0.02-0.43,0.39-0.76,0.82-0.74c0.43,0.02,0.76,0.39,0.74,0.82
		C77.08,3.74,76.71,4.07,76.28,4.05"/>
	<path fill="#CEA86C" d="M70.52,5.44c-0.43,0-0.78-0.35-0.78-0.78c0-0.43,0.35-0.78,0.78-0.78c0.43,0,0.78,0.35,0.78,0.78
		C71.3,5.09,70.95,5.44,70.52,5.44"/>
	<path fill="#CEA86C" d="M64.85,7.14c-0.43,0.02-0.8-0.31-0.82-0.74C64,5.97,64.33,5.6,64.77,5.58c0.43-0.02,0.8,0.31,0.82,0.74
		C65.61,6.75,65.28,7.11,64.85,7.14"/>
	<path fill="#CEA86C" d="M59.27,9.12c-0.43,0.05-0.81-0.27-0.86-0.7C58.36,8,58.68,7.61,59.1,7.57c0.43-0.05,0.81,0.27,0.86,0.7
		C60.01,8.69,59.7,9.08,59.27,9.12"/>
	<path fill="#CEA86C" d="M53.8,11.4c-0.43,0.07-0.83-0.22-0.89-0.65c-0.07-0.43,0.22-0.83,0.65-0.89c0.43-0.07,0.83,0.22,0.89,0.65
		C54.52,10.93,54.23,11.33,53.8,11.4"/>
	<path fill="#CEA86C" d="M48.46,13.96c-0.42,0.09-0.84-0.18-0.93-0.6c-0.09-0.42,0.18-0.84,0.6-0.93c0.42-0.09,0.84,0.18,0.93,0.6
		C49.15,13.45,48.88,13.87,48.46,13.96"/>
	<path fill="#CEA86C" d="M43.26,16.79c-0.42,0.11-0.85-0.14-0.96-0.55c-0.11-0.42,0.14-0.85,0.55-0.96
		c0.42-0.11,0.85,0.14,0.96,0.55C43.92,16.25,43.67,16.68,43.26,16.79"/>
	<path fill="#CEA86C" d="M106.12,1.7c0.42-0.09,0.69-0.5,0.6-0.93c-0.09-0.42-0.5-0.69-0.93-0.6c-0.42,0.09-0.69,0.5-0.6,0.93
		C105.29,1.52,105.7,1.79,106.12,1.7"/>
	<path fill="#CEA86C" d="M112.03,2.18c0.43-0.07,0.72-0.47,0.65-0.89c-0.07-0.43-0.47-0.72-0.89-0.65
		c-0.43,0.07-0.72,0.47-0.65,0.89C111.2,1.95,111.6,2.24,112.03,2.18"/>
	<path fill="#CEA86C" d="M117.9,2.96c0.43-0.05,0.74-0.43,0.7-0.86c-0.05-0.43-0.43-0.74-0.86-0.7c-0.43,0.05-0.74,0.43-0.7,0.86
		C117.08,2.69,117.47,3.01,117.9,2.96"/>
	<path fill="#CEA86C" d="M123.72,4.05c0.43-0.02,0.76-0.39,0.74-0.82c-0.02-0.43-0.39-0.76-0.82-0.74
		c-0.43,0.02-0.76,0.39-0.74,0.82C122.92,3.74,123.29,4.07,123.72,4.05"/>
	<path fill="#CEA86C" d="M129.48,5.44c0.43,0,0.78-0.35,0.78-0.78c0-0.43-0.35-0.78-0.78-0.78c-0.43,0-0.78,0.35-0.78,0.78
		C128.7,5.09,129.05,5.44,129.48,5.44"/>
	<path fill="#CEA86C" d="M135.15,7.14c0.43,0.02,0.8-0.31,0.82-0.74c0.02-0.43-0.31-0.8-0.74-0.82c-0.43-0.02-0.8,0.31-0.82,0.74
		C134.39,6.75,134.72,7.11,135.15,7.14"/>
	<path fill="#CEA86C" d="M140.73,9.12c0.43,0.05,0.81-0.27,0.86-0.7c0.05-0.43-0.27-0.81-0.7-0.86c-0.43-0.05-0.81,0.27-0.86,0.7
		C139.99,8.69,140.3,9.08,140.73,9.12"/>
	<path fill="#CEA86C" d="M146.2,11.4c0.43,0.07,0.83-0.22,0.89-0.65c0.07-0.43-0.22-0.83-0.65-0.89c-0.43-0.07-0.83,0.22-0.89,0.65
		C145.48,10.93,145.77,11.33,146.2,11.4"/>
	<path fill="#CEA86C" d="M151.54,13.96c0.42,0.09,0.84-0.18,0.93-0.6c0.09-0.42-0.18-0.84-0.6-0.93c-0.42-0.09-0.84,0.18-0.93,0.6
		C150.85,13.45,151.12,13.87,151.54,13.96"/>
	<path fill="#CEA86C" d="M156.74,16.79c0.42,0.11,0.85-0.14,0.96-0.55c0.11-0.42-0.14-0.85-0.55-0.96
		c-0.42-0.11-0.85,0.14-0.96,0.55C156.08,16.25,156.33,16.68,156.74,16.79"/>
	<path fill="#CEA86C" d="M8.82,98.36c-1.22,0-2.39-0.34-3.45-1.02c-2.98-1.9-3.88-5.71-2.06-8.67c0.72-1.17,1.86-2,3.2-2.31
		c1.34-0.32,2.73-0.1,3.9,0.63c1.99,1.23,2.61,3.84,1.39,5.84c-0.17,0.27-0.51,0.35-0.78,0.19c-0.27-0.16-0.35-0.51-0.19-0.78
		c0.9-1.46,0.44-3.37-1.02-4.27c-0.92-0.56-2-0.74-3.04-0.49c-1.05,0.25-1.93,0.89-2.49,1.8c-1.5,2.43-0.75,5.56,1.7,7.12
		c1.25,0.8,2.64,1.03,4.13,0.69c2.16-0.5,4.45-2.26,5.82-4.49c0.16-0.27,0.51-0.35,0.78-0.19c0.27,0.16,0.35,0.51,0.19,0.78
		c-1.21,1.97-3.57,4.32-6.54,5C9.85,98.3,9.33,98.36,8.82,98.36"/>
	<path fill="#CEA86C" d="M191.18,98.36c-0.51,0-1.02-0.06-1.55-0.18c-2.97-0.68-5.32-3.03-6.54-5c-0.16-0.27-0.08-0.62,0.19-0.78
		c0.27-0.17,0.62-0.08,0.78,0.19c1.37,2.23,3.66,3.99,5.82,4.49c1.49,0.34,2.88,0.11,4.13-0.69c2.45-1.56,3.2-4.69,1.7-7.12
		c-0.56-0.92-1.45-1.56-2.49-1.8c-1.04-0.25-2.12-0.08-3.04,0.49c-1.46,0.9-1.91,2.81-1.02,4.27c0.16,0.27,0.08,0.62-0.19,0.78
		c-0.27,0.16-0.62,0.08-0.78-0.19c-1.23-1.99-0.6-4.61,1.39-5.84c1.17-0.72,2.56-0.94,3.9-0.63c1.34,0.32,2.48,1.14,3.2,2.31
		c1.82,2.97,0.92,6.77-2.06,8.67C193.57,98.02,192.4,98.36,191.18,98.36"/>
	<path d="M171.66,101.9c-0.07,0.66-0.73,6.49-1.68,7.91c-1.07,1.61-3.26,2.04-4.86,0.96c-1.61-1.07-2.04-3.26-0.96-4.86
		c0.95-1.42,6.09-4.25,6.67-4.57l0.96-0.52L171.66,101.9z M165.75,109.83c1.09,0.73,2.56,0.43,3.29-0.65
		c0.52-0.77,1.06-3.91,1.37-6.3c-2.09,1.19-4.79,2.89-5.3,3.66c-0.43,0.64-0.5,1.42-0.27,2.1
		C164.99,109.11,165.3,109.53,165.75,109.83"/>
	<path d="M28.22,100.82l0.96,0.52c0.58,0.32,5.72,3.15,6.67,4.57c1.08,1.61,0.64,3.79-0.96,4.86c-1.61,1.08-3.79,0.64-4.86-0.96
		c-0.95-1.42-1.61-7.25-1.68-7.91L28.22,100.82z M35.17,108.64c0.24-0.68,0.16-1.45-0.27-2.1c-0.52-0.77-3.22-2.47-5.3-3.66
		c0.31,2.38,0.85,5.53,1.37,6.3c0.73,1.08,2.2,1.38,3.29,0.65C34.69,109.53,35.01,109.11,35.17,108.64"/>
	<path fill="#CEA86C" d="M100,116.94c-23.76,0-46.25-7.63-65.05-22.07c-0.25-0.19-0.3-0.55-0.1-0.8c0.19-0.25,0.55-0.3,0.8-0.1
		C54.24,108.25,76.49,115.8,100,115.8c23.51,0,45.76-7.55,64.35-21.83c0.25-0.19,0.61-0.14,0.8,0.1c0.19,0.25,0.14,0.61-0.1,0.8
		C146.25,109.31,123.76,116.94,100,116.94"/>
	<path fill="#CEA86C" d="M99.8,123.21c-0.42,0.11-0.66,0.54-0.55,0.96c0.11,0.42,0.54,0.66,0.96,0.55c0.42-0.11,0.66-0.54,0.55-0.96
		C100.64,123.34,100.21,123.09,99.8,123.21"/>
	<path fill="#CEA86C" d="M93.88,123.04c-0.42,0.09-0.69,0.5-0.6,0.93c0.09,0.42,0.5,0.69,0.93,0.6c0.42-0.09,0.69-0.5,0.6-0.93
		C94.71,123.22,94.3,122.95,93.88,123.04"/>
	<path fill="#CEA86C" d="M87.97,122.57c-0.43,0.07-0.72,0.47-0.65,0.89c0.07,0.43,0.47,0.72,0.89,0.65
		c0.43-0.07,0.72-0.47,0.65-0.89C88.8,122.79,88.4,122.5,87.97,122.57"/>
	<path fill="#CEA86C" d="M82.1,121.78c-0.43,0.05-0.74,0.43-0.7,0.86c0.05,0.43,0.43,0.74,0.86,0.7c0.43-0.05,0.74-0.43,0.7-0.86
		C82.92,122.05,82.53,121.74,82.1,121.78"/>
	<path fill="#CEA86C" d="M76.28,120.69c-0.43,0.02-0.76,0.39-0.74,0.82c0.02,0.43,0.39,0.76,0.82,0.74
		c0.43-0.02,0.76-0.39,0.74-0.82C77.08,121,76.71,120.67,76.28,120.69"/>
	<path fill="#CEA86C" d="M70.52,119.3c-0.43,0-0.78,0.35-0.78,0.78c0,0.43,0.35,0.78,0.78,0.78c0.43,0,0.78-0.35,0.78-0.78
		C71.3,119.65,70.95,119.3,70.52,119.3"/>
	<path fill="#CEA86C" d="M64.85,117.61c-0.43-0.02-0.8,0.31-0.82,0.74c-0.02,0.43,0.31,0.8,0.74,0.82s0.8-0.31,0.82-0.74
		C65.61,118,65.28,117.63,64.85,117.61"/>
	<path fill="#CEA86C" d="M59.27,115.62c-0.43-0.05-0.81,0.27-0.86,0.7c-0.05,0.43,0.27,0.81,0.7,0.86c0.43,0.05,0.81-0.27,0.86-0.7
		C60.01,116.05,59.7,115.66,59.27,115.62"/>
	<path fill="#CEA86C" d="M53.8,113.34c-0.43-0.07-0.83,0.22-0.89,0.65c-0.07,0.43,0.22,0.83,0.65,0.89
		c0.43,0.07,0.83-0.22,0.89-0.65C54.52,113.81,54.23,113.41,53.8,113.34"/>
	<path fill="#CEA86C" d="M48.46,110.78c-0.42-0.09-0.84,0.18-0.93,0.6c-0.09,0.42,0.18,0.84,0.6,0.93c0.42,0.09,0.84-0.18,0.93-0.6
		C49.15,111.29,48.88,110.87,48.46,110.78"/>
	<path fill="#CEA86C" d="M43.26,107.95c-0.42-0.11-0.85,0.14-0.96,0.55c-0.11,0.42,0.14,0.85,0.55,0.96
		c0.42,0.11,0.85-0.14,0.96-0.55C43.92,108.49,43.67,108.06,43.26,107.95"/>
	<path fill="#CEA86C" d="M106.12,123.04c0.42,0.09,0.69,0.5,0.6,0.93c-0.09,0.42-0.5,0.69-0.93,0.6c-0.42-0.09-0.69-0.5-0.6-0.93
		C105.29,123.22,105.7,122.95,106.12,123.04"/>
	<path fill="#CEA86C" d="M112.03,122.57c0.43,0.07,0.72,0.47,0.65,0.89c-0.07,0.43-0.47,0.72-0.89,0.65
		c-0.43-0.07-0.72-0.47-0.65-0.89C111.2,122.79,111.6,122.5,112.03,122.57"/>
	<path fill="#CEA86C" d="M117.9,121.78c0.43,0.05,0.74,0.43,0.7,0.86c-0.05,0.43-0.43,0.74-0.86,0.7c-0.43-0.05-0.74-0.43-0.7-0.86
		C117.08,122.05,117.47,121.74,117.9,121.78"/>
	<path fill="#CEA86C" d="M123.72,120.69c0.43,0.02,0.76,0.39,0.74,0.82c-0.02,0.43-0.39,0.76-0.82,0.74
		c-0.43-0.02-0.76-0.39-0.74-0.82C122.92,121,123.29,120.67,123.72,120.69"/>
	<path fill="#CEA86C" d="M129.48,119.3c0.43,0,0.78,0.35,0.78,0.78c0,0.43-0.35,0.78-0.78,0.78c-0.43,0-0.78-0.35-0.78-0.78
		C128.7,119.65,129.05,119.3,129.48,119.3"/>
	<path fill="#CEA86C" d="M135.15,117.61c0.43-0.02,0.8,0.31,0.82,0.74c0.02,0.43-0.31,0.8-0.74,0.82c-0.43,0.02-0.8-0.31-0.82-0.74
		C134.39,118,134.72,117.63,135.15,117.61"/>
	<path fill="#CEA86C" d="M140.73,115.62c0.43-0.05,0.81,0.27,0.86,0.7c0.05,0.43-0.27,0.81-0.7,0.86c-0.43,0.05-0.81-0.27-0.86-0.7
		C139.99,116.05,140.3,115.66,140.73,115.62"/>
	<path fill="#CEA86C" d="M146.2,113.34c0.43-0.07,0.83,0.22,0.89,0.65c0.07,0.43-0.22,0.83-0.65,0.89
		c-0.43,0.07-0.83-0.22-0.89-0.65C145.48,113.81,145.77,113.41,146.2,113.34"/>
	<path fill="#CEA86C" d="M151.54,110.78c0.42-0.09,0.84,0.18,0.93,0.6c0.09,0.42-0.18,0.84-0.6,0.93c-0.42,0.09-0.84-0.18-0.93-0.6
		C150.85,111.29,151.12,110.87,151.54,110.78"/>
	<path fill="#CEA86C" d="M156.74,107.95c0.42-0.11,0.85,0.14,0.96,0.55c0.11,0.42-0.14,0.85-0.55,0.96
		c-0.42,0.11-0.85-0.14-0.96-0.55C156.08,108.49,156.33,108.06,156.74,107.95"/>
	<path fill="#CEA86C" d="M100,121.24c-28.1,0-55.01-10.41-75.77-29.31c-0.23-0.21-0.25-0.57-0.04-0.8c0.21-0.23,0.57-0.25,0.8-0.04
		c20.55,18.71,47.19,29.01,75,29.01c0.31,0,0.57,0.25,0.57,0.57S100.31,121.24,100,121.24"/>
	<path fill="#CEA86C" d="M19.69,100.71c-0.89,0-1.76-0.28-2.5-0.8c-1.15-0.82-1.9-2.03-2.14-3.42c-0.23-1.39,0.09-2.78,0.91-3.93
		c2.06-2.89,6.09-3.57,8.99-1.51c0.26,0.18,0.31,0.54,0.13,0.79c-0.18,0.26-0.54,0.31-0.79,0.13c-2.38-1.7-5.7-1.14-7.4,1.24
		c-0.64,0.9-0.89,1.99-0.71,3.08c0.18,1.09,0.78,2.04,1.68,2.68c0.69,0.5,1.54,0.69,2.38,0.55c0.84-0.14,1.58-0.6,2.07-1.29
		c0.38-0.53,0.53-1.18,0.42-1.82c-0.11-0.64-0.46-1.2-0.99-1.58c-0.26-0.18-0.31-0.54-0.13-0.79c0.18-0.26,0.54-0.32,0.79-0.13
		c0.78,0.55,1.29,1.38,1.45,2.32c0.16,0.94-0.06,1.89-0.61,2.67c-0.67,0.94-1.67,1.57-2.81,1.76
		C20.18,100.69,19.93,100.71,19.69,100.71"/>
	<path fill="#CEA86C" d="M100,121.24c-0.31,0-0.57-0.25-0.57-0.57s0.25-0.57,0.57-0.57c27.82,0,54.45-10.3,75-29.01
		c0.23-0.21,0.59-0.19,0.8,0.04c0.21,0.23,0.19,0.59-0.04,0.8C155.01,110.83,128.1,121.24,100,121.24"/>
	<path fill="#CEA86C" d="M180.31,100.71c-0.24,0-0.48-0.02-0.72-0.06c-1.14-0.19-2.14-0.81-2.81-1.76
		c-0.55-0.78-0.77-1.72-0.61-2.67c0.16-0.94,0.67-1.77,1.45-2.32c0.26-0.18,0.61-0.12,0.79,0.13c0.18,0.26,0.12,0.61-0.13,0.79
		c-0.53,0.38-0.88,0.94-0.99,1.58c-0.11,0.64,0.04,1.29,0.42,1.82c0.49,0.69,1.23,1.15,2.07,1.29c0.84,0.14,1.69-0.05,2.38-0.55
		c0.9-0.64,1.49-1.59,1.68-2.68c0.18-1.09-0.07-2.18-0.71-3.08c-1.7-2.38-5.02-2.94-7.4-1.24c-0.26,0.18-0.61,0.12-0.79-0.13
		c-0.18-0.26-0.12-0.61,0.13-0.79c2.89-2.06,6.92-1.39,8.99,1.51c0.82,1.15,1.14,2.54,0.91,3.93c-0.23,1.39-0.99,2.6-2.14,3.42
		C182.07,100.43,181.2,100.71,180.31,100.71"/>
	<path fill="#CEA86C" d="M190.71,81.1l-0.1-0.14v0.07H9.39v-0.07l-0.1,0.14c-0.13-0.1-0.26-0.19-0.39-0.29L7.69,79.9h0.1
		C2.88,75.6,0,69.28,0,62.63c0-7.3,3.47-14.21,9.29-18.47l0.15-0.11h181.13l0.15,0.11c5.81,4.27,9.29,11.17,9.29,18.47
		c0,6.65-2.88,12.97-7.79,17.27h0.1l-1.21,0.91C190.98,80.91,190.85,81,190.71,81.1 M9.58,79.9h180.84
		c5.3-4.07,8.44-10.49,8.44-17.27c0-6.88-3.24-13.39-8.67-17.45H9.81c-5.43,4.06-8.67,10.57-8.67,17.45
		C1.14,69.41,4.28,75.83,9.58,79.9"/>
	<path fill="#CEA86C" d="M17.05,60.84c-0.17,0-0.33,0.01-0.5,0.03c0.02-0.16,0.03-0.33,0.03-0.5c0-1.45-0.68-2.74-1.73-3.57
		c-1.05,0.83-1.73,2.12-1.73,3.57c0,0.17,0.01,0.33,0.03,0.5c-0.16-0.02-0.33-0.03-0.5-0.03c-1.45,0-2.74,0.68-3.57,1.73
		c0.83,1.05,2.12,1.73,3.57,1.73c0.17,0,0.33-0.01,0.5-0.03c-0.02,0.16-0.03,0.33-0.03,0.5c0,1.45,0.68,2.74,1.73,3.57
		c1.05-0.83,1.73-2.12,1.73-3.57c0-0.17-0.01-0.33-0.03-0.5c0.16,0.02,0.33,0.03,0.5,0.03c1.45,0,2.74-0.68,3.57-1.73
		C19.78,61.52,18.49,60.84,17.05,60.84 M16.43,63.56c-0.12,0-0.25-0.01-0.37-0.03c-0.08,0.1-0.16,0.18-0.26,0.26
		c0.02,0.12,0.03,0.24,0.03,0.37c0,0.82-0.38,1.56-0.98,2.03c-0.6-0.47-0.98-1.21-0.98-2.03c0-0.12,0.01-0.25,0.03-0.37
		c-0.1-0.08-0.18-0.16-0.26-0.26c-0.12,0.02-0.24,0.03-0.37,0.03c-0.82,0-1.56-0.38-2.03-0.98c0.47-0.6,1.21-0.98,2.03-0.98
		c0.12,0,0.25,0.01,0.37,0.03c0.08-0.1,0.16-0.18,0.26-0.26c-0.02-0.12-0.03-0.24-0.03-0.37c0-0.82,0.38-1.56,0.98-2.03
		c0.6,0.47,0.98,1.21,0.98,2.03c0,0.12-0.01,0.25-0.03,0.37c0.1,0.08,0.18,0.16,0.26,0.26c0.12-0.02,0.24-0.03,0.37-0.03
		c0.82,0,1.56,0.38,2.03,0.98C17.99,63.17,17.25,63.56,16.43,63.56"/>
	<path fill="#CEA86C" d="M187.35,60.84c-0.17,0-0.33,0.01-0.5,0.03c0.02-0.16,0.03-0.33,0.03-0.5c0-1.45-0.68-2.74-1.73-3.57
		c-1.05,0.83-1.73,2.12-1.73,3.57c0,0.17,0.01,0.33,0.03,0.5c-0.16-0.02-0.33-0.03-0.5-0.03c-1.45,0-2.74,0.68-3.57,1.73
		c0.83,1.05,2.12,1.73,3.57,1.73c0.17,0,0.33-0.01,0.5-0.03c-0.02,0.16-0.03,0.33-0.03,0.5c0,1.45,0.68,2.74,1.73,3.57
		c1.05-0.83,1.73-2.12,1.73-3.57c0-0.17-0.01-0.33-0.03-0.5c0.16,0.02,0.33,0.03,0.5,0.03c1.45,0,2.74-0.68,3.57-1.73
		C190.08,61.52,188.8,60.84,187.35,60.84 M186.73,63.56c-0.12,0-0.25-0.01-0.37-0.03c-0.08,0.1-0.16,0.18-0.26,0.26
		c0.02,0.12,0.03,0.24,0.03,0.37c0,0.82-0.38,1.56-0.98,2.03c-0.6-0.47-0.98-1.21-0.98-2.03c0-0.12,0.01-0.25,0.03-0.37
		c-0.1-0.08-0.18-0.16-0.26-0.26c-0.12,0.02-0.24,0.03-0.37,0.03c-0.82,0-1.56-0.38-2.03-0.98c0.47-0.6,1.21-0.98,2.03-0.98
		c0.12,0,0.25,0.01,0.37,0.03c0.08-0.1,0.16-0.18,0.26-0.26c-0.02-0.12-0.03-0.24-0.03-0.37c0-0.82,0.38-1.56,0.98-2.03
		c0.6,0.47,0.98,1.21,0.98,2.03c0,0.12-0.01,0.25-0.03,0.37c0.1,0.08,0.18,0.16,0.26,0.26c0.12-0.02,0.24-0.03,0.37-0.03
		c0.82,0,1.56,0.38,2.03,0.98C188.29,63.17,187.56,63.56,186.73,63.56"/>
	<path fill="#CEA86C" d="M54.93,33.8c-0.33-1.2-1.28-2.15-2.48-2.48l-0.94-0.94l-0.94,0.94c-1.2,0.33-2.15,1.28-2.48,2.48
		l-0.94,0.94l0.94,0.94c0.33,1.2,1.28,2.15,2.48,2.48l0.94,0.94l0.94-0.94c1.2-0.33,2.15-1.28,2.48-2.48l0.94-0.94L54.93,33.8z
		 M51.51,37.02c-1.26,0-2.28-1.02-2.28-2.28c0-1.26,1.02-2.28,2.28-2.28c1.26,0,2.28,1.02,2.28,2.28
		C53.78,36,52.76,37.02,51.51,37.02"/>
	<path fill="#CEA86C" d="M152.38,33.8c-0.33-1.2-1.28-2.15-2.48-2.48l-0.94-0.94l-0.94,0.94c-1.2,0.33-2.15,1.28-2.48,2.48
		l-0.94,0.94l0.94,0.94c0.33,1.2,1.28,2.15,2.48,2.48l0.94,0.94l0.94-0.94c1.2-0.33,2.15-1.28,2.48-2.48l0.94-0.94L152.38,33.8z
		 M148.96,37.02c-1.26,0-2.28-1.02-2.28-2.28c0-1.26,1.02-2.28,2.28-2.28c1.26,0,2.28,1.02,2.28,2.28
		C151.23,36,150.21,37.02,148.96,37.02"/>
	<path fill="#CEA86C" d="M54.93,90.22c-0.33-1.2-1.28-2.15-2.48-2.48l-0.94-0.94l-0.94,0.94c-1.2,0.33-2.15,1.28-2.48,2.48
		l-0.94,0.94l0.94,0.94c0.33,1.2,1.28,2.15,2.48,2.48l0.94,0.94l0.94-0.94c1.2-0.33,2.15-1.28,2.48-2.48l0.94-0.94L54.93,90.22z
		 M51.51,93.44c-1.26,0-2.28-1.02-2.28-2.28c0-1.26,1.02-2.28,2.28-2.28c1.26,0,2.28,1.02,2.28,2.28
		C53.78,92.42,52.76,93.44,51.51,93.44"/>
	<path fill="#CEA86C" d="M152.38,90.22c-0.33-1.2-1.28-2.15-2.48-2.48l-0.94-0.94l-0.94,0.94c-1.2,0.33-2.15,1.28-2.48,2.48
		l-0.94,0.94l0.94,0.94c0.33,1.2,1.28,2.15,2.48,2.48l0.94,0.94l0.94-0.94c1.2-0.33,2.15-1.28,2.48-2.48l0.94-0.94L152.38,90.22z
		 M148.96,93.44c-1.26,0-2.28-1.02-2.28-2.28c0-1.26,1.02-2.28,2.28-2.28c1.26,0,2.28,1.02,2.28,2.28
		C151.23,92.42,150.21,93.44,148.96,93.44"/>
</g>
</svg>
