<svg width="122" height="52" viewBox="0 0 122 52" fill="none" xmlns="http://www.w3.org/2000/svg">
<path d="M38.686 44.642C38.686 45.182 38.556 45.652 38.296 46.052C38.04 46.448 37.674 46.754 37.198 46.97C36.722 47.186 36.156 47.294 35.5 47.294C35.112 47.294 34.732 47.25 34.36 47.162C33.992 47.074 33.664 46.95 33.376 46.79L33.484 46.028C33.652 46.128 33.822 46.212 33.994 46.28C34.166 46.344 34.34 46.392 34.516 46.424C34.692 46.456 34.868 46.472 35.044 46.472C35.408 46.472 35.73 46.4 36.01 46.256C36.29 46.112 36.51 45.9 36.67 45.62C36.83 45.34 36.91 44.994 36.91 44.582C36.91 44.17 36.818 43.804 36.634 43.484C36.45 43.164 36.186 42.912 35.842 42.728C35.498 42.544 35.09 42.452 34.618 42.452H34.174V48.566C34.174 48.71 34.202 48.82 34.258 48.896C34.318 48.968 34.404 49.02 34.516 49.052L34.954 49.16C35.062 49.196 35.142 49.248 35.194 49.316C35.246 49.38 35.272 49.47 35.272 49.586C35.272 49.718 35.232 49.82 35.152 49.892C35.076 49.964 34.958 50 34.798 50H31.942C31.786 50 31.668 49.964 31.588 49.892C31.508 49.82 31.468 49.718 31.468 49.586C31.468 49.378 31.574 49.228 31.786 49.136L32.05 49.052C32.162 49.008 32.246 48.95 32.302 48.878C32.362 48.806 32.392 48.702 32.392 48.566V43.034C32.392 42.894 32.362 42.788 32.302 42.716C32.246 42.644 32.162 42.588 32.05 42.548L31.786 42.464C31.574 42.372 31.468 42.222 31.468 42.014C31.468 41.882 31.508 41.78 31.588 41.708C31.668 41.636 31.786 41.6 31.942 41.6H34.69C35.55 41.6 36.276 41.734 36.868 42.002C37.464 42.27 37.916 42.634 38.224 43.094C38.532 43.55 38.686 44.066 38.686 44.642ZM42.5397 46.418H46.1337L46.1637 47.282H42.5037L42.5397 46.418ZM43.3677 49.586C43.3677 49.714 43.3277 49.816 43.2477 49.892C43.1717 49.964 43.0537 50 42.8937 50H41.1597C40.9997 50 40.8797 49.964 40.7997 49.892C40.7237 49.816 40.6857 49.714 40.6857 49.586C40.6857 49.494 40.7077 49.418 40.7517 49.358C40.7997 49.294 40.8737 49.23 40.9737 49.166L41.1597 49.088C41.2517 49.044 41.3197 48.984 41.3637 48.908C41.4117 48.828 41.4697 48.676 41.5377 48.452L43.2897 42.992C43.3457 42.82 43.3637 42.7 43.3437 42.632C43.3237 42.564 43.2497 42.504 43.1217 42.452C43.0057 42.404 42.9177 42.346 42.8577 42.278C42.7977 42.21 42.7677 42.122 42.7677 42.014C42.7677 41.882 42.8077 41.78 42.8877 41.708C42.9677 41.636 43.0877 41.6 43.2477 41.6H46.2657C46.4257 41.6 46.5437 41.638 46.6197 41.714C46.6997 41.786 46.7397 41.886 46.7397 42.014C46.7397 42.122 46.7097 42.212 46.6497 42.284C46.5897 42.352 46.4997 42.41 46.3797 42.458C46.2837 42.498 46.2257 42.554 46.2057 42.626C46.1897 42.694 46.2037 42.804 46.2477 42.956L47.9757 48.284C48.0597 48.548 48.1397 48.738 48.2157 48.854C48.2917 48.97 48.3977 49.058 48.5337 49.118C48.6697 49.186 48.7617 49.254 48.8097 49.322C48.8617 49.39 48.8877 49.478 48.8877 49.586C48.8877 49.71 48.8477 49.81 48.7677 49.886C48.6917 49.962 48.5737 50 48.4137 50H45.9657C45.8017 50 45.6817 49.964 45.6057 49.892C45.5297 49.816 45.4917 49.714 45.4917 49.586C45.4917 49.482 45.5177 49.396 45.5697 49.328C45.6257 49.26 45.7037 49.206 45.8037 49.166L46.1457 49.082C46.2337 49.054 46.2777 48.998 46.2777 48.914C46.2777 48.83 46.2457 48.688 46.1817 48.488L44.2497 42.362H44.4237L42.5217 48.296C42.4737 48.46 42.4397 48.592 42.4197 48.692C42.4037 48.788 42.4157 48.866 42.4557 48.926C42.4997 48.986 42.5797 49.04 42.6957 49.088L43.0497 49.172C43.1537 49.216 43.2317 49.27 43.2837 49.334C43.3397 49.398 43.3677 49.482 43.3677 49.586ZM54.8404 42.464L54.5764 42.548C54.4684 42.588 54.3844 42.644 54.3244 42.716C54.2684 42.788 54.2404 42.894 54.2404 43.034V48.608C54.2404 48.792 54.2844 48.926 54.3724 49.01C54.4644 49.09 54.6024 49.13 54.7864 49.13H55.8424C56.0344 49.13 56.2004 49.104 56.3404 49.052C56.4844 49 56.6104 48.91 56.7184 48.782C56.8304 48.65 56.9324 48.472 57.0244 48.248L57.2884 47.612C57.3484 47.468 57.4224 47.372 57.5104 47.324C57.6024 47.276 57.7084 47.264 57.8284 47.288C57.9484 47.316 58.0344 47.382 58.0864 47.486C58.1424 47.586 58.1504 47.714 58.1104 47.87L57.6664 49.628C57.6144 49.832 57.5444 49.98 57.4564 50.072C57.3684 50.168 57.2424 50.216 57.0784 50.216C56.9744 50.216 56.8764 50.198 56.7844 50.162C56.6924 50.126 56.5944 50.09 56.4904 50.054C56.3864 50.018 56.2624 50 56.1184 50H52.0084C51.8524 50 51.7344 49.964 51.6544 49.892C51.5744 49.82 51.5344 49.718 51.5344 49.586C51.5344 49.378 51.6404 49.228 51.8524 49.136L52.1164 49.052C52.2284 49.008 52.3124 48.95 52.3684 48.878C52.4284 48.806 52.4584 48.702 52.4584 48.566V43.034C52.4584 42.894 52.4284 42.788 52.3684 42.716C52.3124 42.644 52.2284 42.588 52.1164 42.548L51.8524 42.464C51.6404 42.372 51.5344 42.222 51.5344 42.014C51.5344 41.882 51.5744 41.78 51.6544 41.708C51.7344 41.636 51.8524 41.6 52.0084 41.6H54.6844C54.8444 41.6 54.9624 41.636 55.0384 41.708C55.1184 41.78 55.1584 41.882 55.1584 42.014C55.1584 42.222 55.0524 42.372 54.8404 42.464ZM62.278 46.418H65.872L65.902 47.282H62.242L62.278 46.418ZM63.106 49.586C63.106 49.714 63.066 49.816 62.986 49.892C62.91 49.964 62.792 50 62.632 50H60.898C60.738 50 60.618 49.964 60.538 49.892C60.462 49.816 60.424 49.714 60.424 49.586C60.424 49.494 60.446 49.418 60.49 49.358C60.538 49.294 60.612 49.23 60.712 49.166L60.898 49.088C60.99 49.044 61.058 48.984 61.102 48.908C61.15 48.828 61.208 48.676 61.276 48.452L63.028 42.992C63.084 42.82 63.102 42.7 63.082 42.632C63.062 42.564 62.988 42.504 62.86 42.452C62.744 42.404 62.656 42.346 62.596 42.278C62.536 42.21 62.506 42.122 62.506 42.014C62.506 41.882 62.546 41.78 62.626 41.708C62.706 41.636 62.826 41.6 62.986 41.6H66.004C66.164 41.6 66.282 41.638 66.358 41.714C66.438 41.786 66.478 41.886 66.478 42.014C66.478 42.122 66.448 42.212 66.388 42.284C66.328 42.352 66.238 42.41 66.118 42.458C66.022 42.498 65.964 42.554 65.944 42.626C65.928 42.694 65.942 42.804 65.986 42.956L67.714 48.284C67.798 48.548 67.878 48.738 67.954 48.854C68.03 48.97 68.136 49.058 68.272 49.118C68.408 49.186 68.5 49.254 68.548 49.322C68.6 49.39 68.626 49.478 68.626 49.586C68.626 49.71 68.586 49.81 68.506 49.886C68.43 49.962 68.312 50 68.152 50H65.704C65.54 50 65.42 49.964 65.344 49.892C65.268 49.816 65.23 49.714 65.23 49.586C65.23 49.482 65.256 49.396 65.308 49.328C65.364 49.26 65.442 49.206 65.542 49.166L65.884 49.082C65.972 49.054 66.016 48.998 66.016 48.914C66.016 48.83 65.984 48.688 65.92 48.488L63.988 42.362H64.162L62.26 48.296C62.212 48.46 62.178 48.592 62.158 48.692C62.142 48.788 62.154 48.866 62.194 48.926C62.238 48.986 62.318 49.04 62.434 49.088L62.788 49.172C62.892 49.216 62.97 49.27 63.022 49.334C63.078 49.398 63.106 49.482 63.106 49.586ZM78.5455 47.864C78.5215 48.12 78.4315 48.384 78.2755 48.656C78.1195 48.924 77.9015 49.174 77.6215 49.406C77.3455 49.638 77.0075 49.826 76.6075 49.97C76.2115 50.11 75.7555 50.18 75.2395 50.18C74.4115 50.18 73.6935 49.994 73.0855 49.622C72.4815 49.25 72.0135 48.736 71.6815 48.08C71.3495 47.42 71.1835 46.662 71.1835 45.806C71.1835 45.186 71.2835 44.61 71.4835 44.078C71.6875 43.546 71.9675 43.082 72.3235 42.686C72.6835 42.29 73.1015 41.982 73.5775 41.762C74.0535 41.542 74.5675 41.432 75.1195 41.432C75.5075 41.432 75.8195 41.468 76.0555 41.54C76.2955 41.612 76.4855 41.686 76.6255 41.762C76.7655 41.834 76.8775 41.87 76.9615 41.87C77.0455 41.87 77.1095 41.836 77.1535 41.768C77.2015 41.7 77.2515 41.634 77.3035 41.57C77.3595 41.502 77.4355 41.468 77.5315 41.468C77.6315 41.468 77.7075 41.498 77.7595 41.558C77.8115 41.618 77.8615 41.73 77.9095 41.894L78.4975 43.874C78.5335 43.998 78.5195 44.108 78.4555 44.204C78.3915 44.3 78.2955 44.358 78.1675 44.378C78.0555 44.394 77.9535 44.378 77.8615 44.33C77.7695 44.282 77.6935 44.192 77.6335 44.06C77.4375 43.604 77.2255 43.246 76.9975 42.986C76.7695 42.722 76.5175 42.534 76.2415 42.422C75.9695 42.31 75.6655 42.254 75.3295 42.254C74.9775 42.254 74.6575 42.336 74.3695 42.5C74.0855 42.66 73.8415 42.888 73.6375 43.184C73.4335 43.48 73.2755 43.83 73.1635 44.234C73.0555 44.638 73.0015 45.08 73.0015 45.56C73.0015 46.284 73.1215 46.902 73.3615 47.414C73.6015 47.922 73.9275 48.312 74.3395 48.584C74.7555 48.856 75.2255 48.992 75.7495 48.992C76.1975 48.992 76.5995 48.892 76.9555 48.692C77.3155 48.492 77.6295 48.194 77.8975 47.798C77.9975 47.682 78.0835 47.606 78.1555 47.57C78.2315 47.534 78.3015 47.526 78.3655 47.546C78.4295 47.562 78.4755 47.598 78.5035 47.654C78.5355 47.71 78.5495 47.78 78.5455 47.864ZM83.2015 45.41H85.3255C85.5215 45.41 85.6575 45.368 85.7335 45.284C85.8135 45.2 85.8695 45.054 85.9015 44.846C85.9295 44.726 85.9735 44.638 86.0335 44.582C86.0975 44.522 86.1735 44.49 86.2615 44.486C86.4655 44.478 86.5955 44.592 86.6515 44.828L87.0355 46.418C87.0715 46.566 87.0675 46.686 87.0235 46.778C86.9835 46.866 86.9115 46.926 86.8075 46.958C86.7115 46.99 86.6195 46.986 86.5315 46.946C86.4435 46.906 86.3695 46.836 86.3095 46.736C86.2335 46.604 86.1615 46.502 86.0935 46.43C86.0255 46.354 85.9415 46.302 85.8415 46.274C85.7455 46.242 85.6155 46.226 85.4515 46.226H83.2015V45.41ZM81.3235 42.014C81.3235 41.882 81.3635 41.78 81.4435 41.708C81.5235 41.636 81.6415 41.6 81.7975 41.6H86.0275C86.1755 41.6 86.3015 41.58 86.4055 41.54C86.5095 41.496 86.6055 41.454 86.6935 41.414C86.7855 41.374 86.8855 41.354 86.9935 41.354C87.1615 41.354 87.2875 41.402 87.3715 41.498C87.4555 41.59 87.5275 41.738 87.5875 41.942L87.9775 43.394C88.0175 43.526 88.0055 43.636 87.9415 43.724C87.8775 43.812 87.7855 43.868 87.6655 43.892C87.5535 43.916 87.4475 43.906 87.3475 43.862C87.2515 43.814 87.1715 43.716 87.1075 43.568C87.0075 43.324 86.9115 43.128 86.8195 42.98C86.7275 42.832 86.6295 42.72 86.5255 42.644C86.4215 42.568 86.3075 42.518 86.1835 42.494C86.0595 42.466 85.9155 42.452 85.7515 42.452H84.0235V48.362C84.0235 48.622 84.0895 48.818 84.2215 48.95C84.3535 49.082 84.5475 49.148 84.8035 49.148H85.8775C86.1215 49.148 86.3275 49.114 86.4955 49.046C86.6675 48.978 86.8215 48.848 86.9575 48.656C87.0975 48.46 87.2375 48.17 87.3775 47.786C87.4295 47.65 87.5015 47.558 87.5935 47.51C87.6855 47.462 87.7895 47.452 87.9055 47.48C88.0335 47.504 88.1235 47.568 88.1755 47.672C88.2315 47.776 88.2395 47.906 88.1995 48.062L87.8035 49.622C87.7475 49.826 87.6755 49.974 87.5875 50.066C87.5035 50.162 87.3755 50.21 87.2035 50.21C87.1035 50.21 87.0075 50.192 86.9155 50.156C86.8275 50.124 86.7315 50.09 86.6275 50.054C86.5235 50.018 86.3995 50 86.2555 50H81.7975C81.6415 50 81.5235 49.964 81.4435 49.892C81.3635 49.82 81.3235 49.718 81.3235 49.586C81.3235 49.378 81.4295 49.228 81.6415 49.136L81.9055 49.052C82.0175 49.008 82.1015 48.95 82.1575 48.878C82.2175 48.806 82.2475 48.702 82.2475 48.566V43.034C82.2475 42.894 82.2175 42.788 82.1575 42.716C82.1015 42.644 82.0175 42.588 81.9055 42.548L81.6415 42.464C81.4295 42.372 81.3235 42.222 81.3235 42.014Z" fill="#1A1A1A"/>
<path d="M11.625 4.51562C16.4375 4.51562 18.8438 6.08333 18.8438 9.21875C18.8438 10.7396 18.1979 12.1562 16.9062 13.4688C15.8854 14.5 14.5625 15.4062 12.9375 16.1875C13.75 16.5104 14.5521 17.1094 15.3438 17.9844C15.5625 18.2344 15.7917 18.4896 16.0312 18.75L20.0938 23.25C20.8021 24.0521 21.3125 24.5312 21.625 24.6875C21.9479 24.8438 22.2135 24.9219 22.4219 24.9219C22.901 24.9219 23.401 24.7552 23.9219 24.4219C22.6719 26.1927 21.1198 27.0781 19.2656 27.0781C18.7969 27.0781 18.3333 26.8125 17.875 26.2812C17.7604 26.1458 17.6406 26.0104 17.5156 25.875L13.3438 21.2656C12.75 20.6094 12.2448 20.0625 11.8281 19.625C11.4115 19.1771 11 18.8177 10.5938 18.5469C9.82292 18.0365 8.77083 17.7812 7.4375 17.7812V20.9375C7.4375 21.9583 7.39583 22.6406 7.3125 22.9844C7.17708 23.4948 6.84896 24.125 6.32812 24.875H11.3281C11.1927 24.8958 10.974 25.0365 10.6719 25.2969C10.3802 25.5573 10.1302 25.7812 9.92188 25.9688C9.71354 26.1458 9.51042 26.3125 9.3125 26.4688C8.84375 26.8229 8.50521 27 8.29688 27H3.15625C3.98958 26.0833 4.40625 24.8385 4.40625 23.2656V6.64062H1.03125L1.625 6.15625C2.95833 5.0625 3.77083 4.51562 4.0625 4.51562H11.625ZM15.8125 11.4844C15.8125 10.5885 15.6198 9.83333 15.2344 9.21875C14.849 8.60417 14.349 8.10417 13.7344 7.71875C12.5885 7 11.1354 6.64062 9.375 6.64062H7.4375V15.5938H9.875C11.7396 15.5938 13.1146 15.3594 14 14.8906C15.2083 14.2552 15.8125 13.1198 15.8125 11.4844ZM35.0469 22.375L35.0156 23.4688C35.0156 24.2812 35.2448 24.7969 35.7031 25.0156C35.8802 25.099 36.0833 25.1406 36.3125 25.1406C36.6771 25.1406 37.0521 25.0573 37.4375 24.8906C37.0417 25.0573 36.6979 25.276 36.4062 25.5469C36.1146 25.8177 35.8177 26.0833 35.5156 26.3438C34.7656 26.9688 34.0104 27.2812 33.25 27.2812C32.4896 27.2812 32.0833 26.8438 32.0312 25.9688C32.0104 25.7396 32 25.5104 32 25.2812C30.125 26.5833 28.4062 27.2344 26.8438 27.2344C25.5208 27.2344 24.6042 26.8333 24.0938 26.0312C23.9062 25.7396 23.8125 25.3385 23.8125 24.8281C23.8125 24.3177 23.9688 23.8073 24.2812 23.2969C24.5938 22.776 24.9896 22.3021 25.4688 21.875C26.3229 21.0833 27.3542 20.4323 28.5625 19.9219C29.4583 19.5365 30.6094 19.3177 32.0156 19.2656V18.5781C32.0156 16.9219 31.8646 15.8021 31.5625 15.2188C31.2604 14.6354 30.8698 14.2083 30.3906 13.9375C29.9115 13.6562 29.349 13.5156 28.7031 13.5156C27.6094 13.5156 26.6458 13.7292 25.8125 14.1562C26.9583 13.2083 27.7969 12.5833 28.3281 12.2812C29.4219 11.6667 30.4115 11.3594 31.2969 11.3594C32.1927 11.3594 32.8646 11.4896 33.3125 11.75C33.7604 12.0104 34.1146 12.3542 34.375 12.7812C34.8229 13.5312 35.0469 14.6094 35.0469 16.0156V22.375ZM27.7031 24.625C27.9531 24.8021 28.2448 24.9323 28.5781 25.0156C28.9115 25.099 29.4062 25.1406 30.0625 25.1406C30.7188 25.1406 31.3698 24.9844 32.0156 24.6719V21.3906H29.4844C28.5781 21.3906 27.7865 21.4531 27.1094 21.5781C26.974 22.026 26.9062 22.4531 26.9062 22.8594C26.9062 23.2656 26.974 23.6146 27.1094 23.9062C27.2552 24.1979 27.4531 24.4375 27.7031 24.625ZM43.6562 0.484375C43.6979 1.15104 43.7188 1.70833 43.7188 2.15625V3.1875C43.7188 3.65625 43.6354 3.95833 43.4688 4.09375C43.3125 4.21875 43.1302 4.35417 42.9219 4.5C42.724 4.64583 42.5052 4.80208 42.2656 4.96875C42.026 5.125 41.7917 5.27604 41.5625 5.42188C41.3438 5.55729 41.1458 5.68229 40.9688 5.79688C40.8021 5.90104 40.6875 5.96875 40.625 6C40.6562 5.65625 40.6719 5.17708 40.6719 4.5625C40.6719 3.9375 40.6562 3.28646 40.625 2.60938L43.6562 0.484375ZM38.75 32.8594C38.5104 33.0469 38.3906 33.2708 38.3906 33.5312C38.3906 33.8021 38.4896 34 38.6875 34.125C38.8854 34.25 39.0938 34.3073 39.3125 34.2969H39.3438C40.1771 32.901 40.6354 31.0052 40.7188 28.6094C40.75 27.9427 40.7656 27.2917 40.7656 26.6562V17.5625C40.7656 16.3958 40.5781 15.625 40.2031 15.25C40.026 15.0729 39.7969 14.9844 39.5156 14.9844C39.151 14.9844 38.6615 15.0573 38.0469 15.2031C39.3177 14.2031 41.2344 12.8958 43.7969 11.2812V23.9375C43.7969 26.2083 43.6927 27.776 43.4844 28.6406C43.2865 29.5156 43.0365 30.3073 42.7344 31.0156C42.4323 31.724 42.0677 32.401 41.6406 33.0469C41.2135 33.7031 40.7292 34.2812 40.1875 34.7812C39.0208 35.875 37.75 36.4219 36.375 36.4219C35.7083 36.4219 35.375 36.1719 35.375 35.6719C35.375 35.349 35.5469 35.0521 35.8906 34.7812C36.224 34.5104 36.5208 34.2917 36.7812 34.125C37.0312 33.9583 37.2812 33.8021 37.5312 33.6562C38.1771 33.2812 38.5833 33.0156 38.75 32.8594ZM66.1719 23.9531C70.5052 16.7344 72.6719 11.7656 72.6719 9.04688C72.6719 7.85938 72.3125 7.0625 71.5938 6.65625C71.3333 6.51042 71.0156 6.4375 70.6406 6.4375C70.276 6.4375 69.901 6.50521 69.5156 6.64062C69.9219 6.47396 70.2812 6.24479 70.5938 5.95312C70.9167 5.65104 71.1667 5.41667 71.3438 5.25C71.5208 5.08333 71.7188 4.93229 71.9375 4.79688C72.4062 4.49479 72.974 4.34375 73.6406 4.34375C74.3177 4.34375 74.8281 4.55208 75.1719 4.96875C75.526 5.375 75.7031 5.93229 75.7031 6.64062C75.7031 7.33854 75.5833 8.13542 75.3438 9.03125C75.1042 9.92708 74.7917 10.8594 74.4062 11.8281C74.0208 12.7969 73.5781 13.7812 73.0781 14.7812C72.5885 15.7812 72.0833 16.75 71.5625 17.6875C71.0312 18.6562 70.3385 19.8542 69.4844 21.2812C68.6302 22.7083 68.0365 23.7083 67.7031 24.2812C67.3698 24.8438 67.0625 25.2865 66.7812 25.6094C66.5 25.9219 66.2135 26.1719 65.9219 26.3594C65.6302 26.5469 65.3281 26.7344 65.0156 26.9219C64.1823 27.4219 63.7031 27.7552 63.5781 27.9219C63.2344 26.5365 62.9062 25.151 62.5938 23.7656C62.2812 22.3698 61.9479 20.9792 61.5938 19.5938C60.7917 16.4062 59.9427 13.6823 59.0469 11.4219C58.9323 11.1406 58.8021 10.8229 58.6562 10.4688C58.5104 10.1042 58.3438 9.73958 58.1562 9.375C57.9792 9 57.776 8.63542 57.5469 8.28125C57.3281 7.92708 57.0833 7.61458 56.8125 7.34375C56.2188 6.72917 55.5781 6.42188 54.8906 6.42188C54.526 6.42188 54.1667 6.51562 53.8125 6.70312C53.4479 6.89062 53.1823 7 53.0156 7.03125C53.026 7.03125 53.099 6.96875 53.2344 6.84375C53.3698 6.71875 53.474 6.63021 53.5469 6.57812C53.6094 6.51562 53.7188 6.42708 53.875 6.3125C54.0208 6.1875 54.2708 6 54.625 5.75C54.9896 5.48958 55.3646 5.25 55.75 5.03125C56.6562 4.51042 57.349 4.25 57.8281 4.25C58.3073 4.25 58.6562 4.29688 58.875 4.39062C59.0938 4.48438 59.349 4.66667 59.6406 4.9375C59.9427 5.19792 60.276 5.63542 60.6406 6.25C61.0052 6.85417 61.3594 7.55729 61.7031 8.35938C62.0469 9.15104 62.375 10.0156 62.6875 10.9531C63.0104 11.8802 63.3177 12.8333 63.6094 13.8125C63.901 14.7917 64.1771 15.7708 64.4375 16.75C64.6979 17.7292 64.9323 18.6667 65.1406 19.5625C65.3594 20.4479 65.5521 21.2708 65.7188 22.0312C65.8958 22.7812 66.0469 23.4219 66.1719 23.9531ZM82.0938 0.484375L82.1875 2.26562V3.07812C82.1875 3.57812 82.125 3.88542 82 4C81.875 4.10417 81.7396 4.20833 81.5938 4.3125C81.0104 4.72917 80.1667 5.29167 79.0625 6C79.1146 4.95833 79.1406 4.42188 79.1406 4.39062C79.1406 4.34896 79.1146 3.75521 79.0625 2.60938L82.0938 0.484375ZM85.3594 25.0781C85.0469 25.3281 84.7396 25.5833 84.4375 25.8438C84.1458 26.1042 83.8385 26.3438 83.5156 26.5625C82.7656 27.0521 82.0469 27.2969 81.3594 27.2969C80.7135 27.2969 80.2604 27.1979 80 27C79.4688 26.6042 79.2031 25.875 79.2031 24.8125V17.4062C79.2031 16.2812 79 15.5521 78.5938 15.2188C78.4062 15.0625 78.2031 14.9844 77.9844 14.9844C77.7656 14.9844 77.5781 15 77.4219 15.0312C77.276 15.0521 77.125 15.0781 76.9688 15.1094C76.8125 15.1406 76.651 15.1719 76.4844 15.2031C77.0052 14.7969 77.4896 14.4323 77.9375 14.1094C78.3958 13.7865 78.7865 13.5156 79.1094 13.2969C79.4323 13.0781 79.8802 12.7708 80.4531 12.375C81.026 11.9688 81.6198 11.6042 82.2344 11.2812V22.3125C82.2344 23.375 82.3021 24.0469 82.4375 24.3281C82.7292 24.901 83.375 25.1875 84.375 25.1875C84.6458 25.1875 84.974 25.151 85.3594 25.0781ZM94 25.0625C93.6562 25.3333 93.3281 25.6042 93.0156 25.875C92.7031 26.1458 92.3802 26.3854 92.0469 26.5938C91.3073 27.0729 90.5417 27.3125 89.75 27.3125C88.6042 27.3125 87.9792 26.5208 87.875 24.9375C87.8542 24.5104 87.8438 24.0938 87.8438 23.6875V6.96875C87.8438 5.54167 87.5208 4.61458 86.875 4.1875C86.6042 4 86.3438 3.90625 86.0938 3.90625C85.7604 3.90625 85.5365 3.91667 85.4219 3.9375C85.3073 3.94792 85.2083 3.95833 85.125 3.96875C86.625 2.92708 87.5729 2.30208 87.9688 2.09375C88.4896 1.8125 89.026 1.53646 89.5781 1.26562C90.1406 0.984375 90.5729 0.765625 90.875 0.609375V22.1719C90.875 22.599 90.875 22.9948 90.875 23.3594C90.8854 23.724 90.9479 24.0417 91.0625 24.3125C91.3229 24.875 91.9792 25.1562 93.0312 25.1562C93.3646 25.1562 93.6875 25.125 94 25.0625ZM105.703 22.375L105.672 23.4688C105.672 24.2812 105.901 24.7969 106.359 25.0156C106.536 25.099 106.74 25.1406 106.969 25.1406C107.333 25.1406 107.708 25.0573 108.094 24.8906C107.698 25.0573 107.354 25.276 107.062 25.5469C106.771 25.8177 106.474 26.0833 106.172 26.3438C105.422 26.9688 104.667 27.2812 103.906 27.2812C103.146 27.2812 102.74 26.8438 102.688 25.9688C102.667 25.7396 102.656 25.5104 102.656 25.2812C100.781 26.5833 99.0625 27.2344 97.5 27.2344C96.1771 27.2344 95.2604 26.8333 94.75 26.0312C94.5625 25.7396 94.4688 25.3385 94.4688 24.8281C94.4688 24.3177 94.625 23.8073 94.9375 23.2969C95.25 22.776 95.6458 22.3021 96.125 21.875C96.9792 21.0833 98.0104 20.4323 99.2188 19.9219C100.115 19.5365 101.266 19.3177 102.672 19.2656V18.5781C102.672 16.9219 102.521 15.8021 102.219 15.2188C101.917 14.6354 101.526 14.2083 101.047 13.9375C100.568 13.6562 100.005 13.5156 99.3594 13.5156C98.2656 13.5156 97.3021 13.7292 96.4688 14.1562C97.6146 13.2083 98.4531 12.5833 98.9844 12.2812C100.078 11.6667 101.068 11.3594 101.953 11.3594C102.849 11.3594 103.521 11.4896 103.969 11.75C104.417 12.0104 104.771 12.3542 105.031 12.7812C105.479 13.5312 105.703 14.6094 105.703 16.0156V22.375ZM98.3594 24.625C98.6094 24.8021 98.901 24.9323 99.2344 25.0156C99.5677 25.099 100.062 25.1406 100.719 25.1406C101.375 25.1406 102.026 24.9844 102.672 24.6719V21.3906H100.141C99.2344 21.3906 98.4427 21.4531 97.7656 21.5781C97.6302 22.026 97.5625 22.4531 97.5625 22.8594C97.5625 23.2656 97.6302 23.6146 97.7656 23.9062C97.9115 24.1979 98.1094 24.4375 98.3594 24.625ZM116.469 14.875C116.667 14.7292 116.766 14.5729 116.766 14.4062C116.766 14.2396 116.667 14.1094 116.469 14.0156C116.271 13.9219 116.042 13.849 115.781 13.7969C115.375 13.7135 114.995 13.6719 114.641 13.6719C114.297 13.6719 114.026 13.6927 113.828 13.7344C113.641 13.7656 113.479 13.8281 113.344 13.9219C113.052 14.1198 112.906 14.4688 112.906 14.9688C112.906 15.4688 113.016 15.8802 113.234 16.2031C113.453 16.5156 113.74 16.7812 114.094 17C114.458 17.2188 114.87 17.401 115.328 17.5469C115.786 17.6927 116.25 17.8385 116.719 17.9844C117.198 18.1198 117.667 18.2708 118.125 18.4375C118.583 18.6042 118.99 18.8229 119.344 19.0938C120.146 19.6771 120.547 20.4792 120.547 21.5C120.547 22.5104 120.062 23.5 119.094 24.4688C118.271 25.2917 117.188 25.9896 115.844 26.5625C114.594 27.1042 113.479 27.375 112.5 27.375C111.312 27.375 110.359 27.125 109.641 26.625C109.38 26.4375 109.25 26.1979 109.25 25.9062C109.25 25.6042 109.385 25.3333 109.656 25.0938C109.927 24.8438 110.245 24.6146 110.609 24.4062C110.974 24.1875 111.339 23.9844 111.703 23.7969C112.068 23.599 112.344 23.3906 112.531 23.1719C112.344 23.3802 112.25 23.6146 112.25 23.875C112.25 24.1354 112.396 24.3594 112.688 24.5469C112.979 24.724 113.323 24.8646 113.719 24.9688C114.406 25.1354 115.068 25.2188 115.703 25.2188C116.339 25.2188 116.797 25.1042 117.078 24.875C117.37 24.6354 117.516 24.2396 117.516 23.6875C117.516 23.1354 117.406 22.6875 117.188 22.3438C116.969 21.9896 116.682 21.6875 116.328 21.4375C115.974 21.1875 115.568 20.9792 115.109 20.8125C114.651 20.6354 114.182 20.4688 113.703 20.3125C113.234 20.1458 112.771 19.9792 112.312 19.8125C111.854 19.6458 111.448 19.4427 111.094 19.2031C110.302 18.6719 109.906 17.9792 109.906 17.125C109.906 16.3125 110.385 15.4427 111.344 14.5156C112.177 13.724 113.047 13.1042 113.953 12.6562C115.505 11.9062 116.677 11.5312 117.469 11.5312C118.292 11.5312 118.885 11.6198 119.25 11.7969C119.615 11.974 119.797 12.1302 119.797 12.2656C119.797 12.3906 119.755 12.5052 119.672 12.6094C119.589 12.7135 119.484 12.8125 119.359 12.9062C119.245 12.9896 119.125 13.0677 119 13.1406C118.875 13.2135 118.698 13.3229 118.469 13.4688C118.24 13.6146 117.932 13.8125 117.547 14.0625C117.161 14.3021 116.802 14.5729 116.469 14.875Z" fill="#1A1A1A"/>
</svg>
