<?xml version="1.0" encoding="UTF-8"?>
<svg id="Layer_1" data-name="Layer 1" xmlns="http://www.w3.org/2000/svg" viewBox="0 0 609.27 129.76">
  <defs>
    <style>
      .cls-1 {
        fill: #983f23;
        stroke-width: 0px;
      }
    </style>
  </defs>
  <g>
    <path class="cls-1" d="M160.46,128.31c-10.95,0-16.42-1.2-16.42-3.61V7.76c0-4.09,1.86-6.14,5.59-6.14h31.76c17.8,0,30.65,3.67,38.53,11.01,7.88,7.34,11.82,17.99,11.82,31.94,0,11.55-3.73,22.14-11.19,31.76-3.73,4.81-9.2,8.66-16.42,11.55-7.22,2.89-15.64,4.33-25.27,4.33v32.3c0,1.44-2.26,2.44-6.77,2.98s-8.39.81-11.64.81ZM178.86,33.03v28.51h2.35c4.21,0,7.76-1.32,10.65-3.97,2.89-2.64,4.33-6.38,4.33-11.19s-.99-8.24-2.98-10.29c-1.99-2.04-5.5-3.07-10.56-3.07h-3.79Z"/>
    <path class="cls-1" d="M250.06,117.31c-7.52-8.3-11.28-19.79-11.28-34.47s3.76-26.17,11.28-34.47c7.52-8.3,17.65-12.45,30.41-12.45s22.86,4.15,30.32,12.45c7.46,8.3,11.19,19.79,11.19,34.47s-3.73,26.17-11.19,34.47c-7.46,8.3-17.57,12.45-30.32,12.45s-22.89-4.15-30.41-12.45ZM280.56,66.05c-6.8,0-10.2,5.54-10.2,16.6s3.4,16.6,10.2,16.6,10.2-5.53,10.2-16.6-3.4-16.6-10.2-16.6Z"/>
    <path class="cls-1" d="M367.63,126.51c0,1.08-6.14,1.62-18.41,1.62-9.63-.12-14.44-.6-14.44-1.44V3.79c0-1.8,5.83-2.71,17.51-2.71,10.22.36,15.34.96,15.34,1.8v123.62Z"/>
    <path class="cls-1" d="M416.9,27.61c0,.84-5.5,1.26-16.51,1.26s-16.51-.36-16.51-1.08V1.8c0-1.2,5.5-1.8,16.51-1.8s16.51.36,16.51,1.08v26.53ZM416.9,126.87c0,.96-5.5,1.44-16.51,1.44s-16.51-.42-16.51-1.26V38.44c0-.84,5.5-1.26,16.51-1.26s16.51.36,16.51,1.08v88.61Z"/>
    <path class="cls-1" d="M433.14,3.07c0-1.92,5.47-2.89,16.42-2.89,10.22.36,15.34,1.14,15.34,2.35v69.3l17.87-33.03c.84-1.8,5.96-2.71,15.34-2.71s15.4.6,18.05,1.8l-23.46,38.26,27.07,50.71c.24.48-2.02.87-6.77,1.17-4.75.3-8.69.45-11.82.45-11.55,0-17.75-.54-18.59-1.62l-17.87-40.06v39.88c0,1.56-5.26,2.35-15.79,2.35s-15.79-.72-15.79-2.17V3.07Z"/>
    <path class="cls-1" d="M537.63,62.44c-3.37-6.01-5.05-10.92-5.05-14.71s1.02-6.23,3.07-7.31c6.86-3.01,16.27-4.51,28.24-4.51s20.42,2.8,25.36,8.39c4.93,5.59,7.4,13.87,7.4,24.81v28.52h6.14c2.04,0,3.64,1.2,4.78,3.61,1.14,2.41,1.71,5.72,1.71,9.93s-1.05,8.36-3.16,12.45c-2.11,4.09-4.96,6.14-8.57,6.14-6.5,0-11.73-1.75-15.7-5.23-1.8-1.44-3.19-3.19-4.15-5.23-5.54,6.98-14.14,10.47-25.81,10.47-8.78,0-16.18-3.13-22.2-9.38-6.02-6.25-9.02-13.65-9.02-22.2,0-19.61,11.73-29.42,35.19-29.42h9.93v-1.8c0-3.13-.51-5.14-1.53-6.05-1.02-.9-3.4-1.35-7.13-1.35-4.57,0-11.07.96-19.49,2.89ZM552.06,95.65c0,2.65.72,4.66,2.17,6.05,1.44,1.38,3.28,2.08,5.5,2.08s4.24-.9,6.05-2.71v-13.9h-5.05c-5.78,0-8.66,2.83-8.66,8.48Z"/>
  </g>
  <path class="cls-1" d="M82.3,31.49c-3.3-10.22-8.99-16.37-12.67-19.49-2.25-1.82-4.69-3.41-7.28-4.74,0,0-.01,0-.02-.01C43.6-3.42,21.76.65,8.92,14.88c-.99,1.1-1.85,2.22-2.63,3.36h0s-.01.02-.02.03c-1.3,1.91-2.32,3.87-3.1,5.82-8.82,19.91,3.57,33.65,3.57,33.65,3.88,5.02,9.38,8.34,16.53,9.81,9.18,1.88,19.01-2.32,23.74-10.22,4.09-6.83,4.26-13.91-.2-20.72-4.18-6.4-12.95-8.48-19.05-4.59-2.98,1.9-4.83,4.6-4.35,8.36.26,2.06,1.43,3.54,3.18,4.52,1.77.99,3.76.21,4.41-1.72,1.1-3.31,3.8-4.06,6.57-1.83,2.67,2.15,3.5,5.29,2.44,8.68-2.15,6.85-8.93,10.49-15.78,9.49-9.01-1.33-15.67-8.73-16.89-17.78-1.32-9.78,2.47-17.58,9.96-23.59,5.78-4.63,12.61-6.27,19.95-5.73,16.78,1.22,30.51,13.62,32.83,30.28,2.06,14.83-3.32,26.81-15.75,35.14-12.56,8.42-28.55,7.82-40.73-1.22-5.82-4.32-10.04-10.11-12.36-16.61-.1-.27-.49-.2-.49.08v69.24c0,.11.09.21.21.21h84.21c.11,0,.21-.09.21-.21V54.8c0-9.88-1.33-17.53-3.08-23.31Z"/>
</svg>